<?xml version="1.0" encoding="UTF-8"?>
<svg width="413px" height="461px" viewBox="0 0 413 461" version="1.1" xmlns="http://www.w3.org/2000/svg" xmlns:xlink="http://www.w3.org/1999/xlink">
    <!-- Generator: Sketch 46.2 (44496) - http://www.bohemiancoding.com/sketch -->
    <title>cm-box--speech--red</title>
    <desc>Created with Sketch.</desc>
    <defs></defs>
    <g id="Page-1" stroke="none" stroke-width="1" fill="none" fill-rule="evenodd">
        <path d="M403.05117,166.139928 C403.763348,159.85477 404.104243,154.801215 404.104243,146.006824 C404.104243,144.900706 404.099261,143.794588 404.089296,142.698436 C403.735537,140.565921 403.526272,139.370118 403.526272,137.661116 C403.536237,136.913739 403.705642,136.550016 404.014558,136.011905 C404.014558,134.811119 404.009576,134.337781 403.974698,133.859459 C403.795328,131.109113 403.705642,128.293993 403.705642,125.264626 C403.705642,122.300032 403.785363,119.494877 403.870065,116.520318 L403.93982,113.879586 C403.934838,112.818311 403.964733,112.135707 404.019541,111.502928 C404.074348,110.043052 404.144103,108.538333 404.438072,106.914034 C404.378281,106.435713 404.313509,105.927497 404.248736,105.394368 C404.084313,104.133793 403.89996,102.698829 403.810275,101.368499 C403.76045,100.675929 403.655817,100.102941 403.536237,99.5498817 C403.451534,99.066578 403.356867,98.6231344 403.317006,98.1846734 C403.326971,97.616667 403.486412,97.0835382 403.675747,96.6849373 C403.501359,95.6784698 403.486412,94.5324921 403.625922,93.1672838 C403.790345,91.7223553 404.114208,90.2176367 404.393229,88.8922885 C404.462984,88.5567993 404.552669,87.1965735 404.662285,84.8116111 C404.383264,84.4179927 404.238771,83.9297065 404.238771,83.4214903 C404.318491,82.6492009 404.363334,82.2505999 404.413159,81.851999 C404.63239,79.8540117 404.637372,77.9656396 404.438072,75.8082119 C403.137636,74.8764822 402.893493,72.9831276 402.78886,72.0862754 C402.903458,70.0185329 403.64087,69.0021005 404.662285,68.5636394 L404.662285,54.0944245 C404.472949,53.6758935 404.318491,53.1676773 404.318491,52.6744086 C404.423124,51.8921542 404.472949,51.568291 404.497862,51.2842878 C404.557652,50.7063164 404.59253,50.1682051 404.59253,49.6948664 C404.313509,48.2300079 404.039471,47.4975786 403.964733,46.3864785 L404.662285,42.1912033 C404.333439,41.1149807 404.134138,40.581852 404.124173,40.0188281 C403.974698,35.4747771 404.079331,30.9207612 404.173998,26.5510981 C404.268666,22.5351934 404.338421,19.0075749 404.268666,15.6543443 C403.391744,12.4406241 401.069894,9.85968287 398.010631,8.67384501 C395.544288,9.74508509 392.594641,9.44613437 388.897617,9.07742848 C387.308195,8.9179881 385.584246,8.74360018 383.780577,8.65889747 C379.610214,8.4645795 375.300341,8.26527902 371.553492,8.61903737 C370.552007,8.46956201 370.452357,8.47454453 370.342742,8.48450955 C369.670103,9.30164152 368.608828,9.43616935 368.185314,9.49097698 C367.124039,9.43118683 366.575963,9.10234104 366.202274,8.60907235 C363.581473,8.6290024 361.035409,8.52935216 359.107177,8.44464945 C358.818192,8.78844278 358.454468,9.01763834 358.045902,9.09237602 C357.632354,9.71519002 356.964697,10.0838959 356.227285,10.0041757 C347.368379,8.84325042 338.355015,8.7535652 330.711841,8.81833786 C330.382996,8.85819795 329.964465,8.93293563 329.521021,9.02262085 C328.554414,9.20697379 327.353628,9.43118683 325.604767,9.40129176 C325.270938,9.40129176 324.981953,9.27174645 324.398999,8.90304056 C323.248038,8.90304056 322.689997,8.90304056 322.131956,8.93791814 C316.003466,9.39132674 310.846566,9.23188635 305.385733,9.06248094 L302.864582,8.98774326 C302.082327,8.99770829 301.305055,8.96781322 300.607504,8.9179881 C299.247278,8.86816298 297.752524,8.78844278 296.13819,8.46956201 C295.654887,8.52935216 295.126741,8.60408984 294.578664,8.67882752 C293.333036,8.85819795 291.982775,9.04753341 290.717217,9.13721862 C290.009701,9.18704374 289.436712,9.30662403 288.883653,9.43118683 C288.440209,9.53083707 288.036626,9.61055727 287.633042,9.65539987 C287.169669,9.68529495 286.6764,9.46606442 286.317659,9.24683389 C285.346069,9.46108191 284.215039,9.48599447 282.889691,9.32157157 C281.584273,9.17209621 280.214082,8.86816298 278.818979,8.54928221 C277.952022,8.3400167 277.080082,8.13573371 276.238037,7.98625835 L274.832969,7.98625835 C274.389526,8.50942211 273.776677,8.76851274 273.143897,8.67384501 C272.735332,8.60907235 272.341713,8.54928221 271.95806,8.5044396 C269.95509,8.27524405 268.001945,8.27026153 265.819605,8.49945709 C264.952648,9.86466538 263.273541,10.0988434 262.371707,10.2234062 C260.548107,10.0988434 259.586482,9.24185138 259.207811,8.05601352 C254.878008,8.10085613 251.315512,8.08092608 247.787894,7.98625835 L245.331515,7.98625835 C244.743579,8.43966694 243.97129,8.70872259 243.393318,8.59412481 C240.961852,8.26527902 239.158183,8.32008665 238.779512,8.44464945 C238.256348,8.65889747 237.598657,8.92297061 236.602154,8.98774326 L231.908628,8.11580366 C231.559852,8.54928221 231.026723,8.81833786 230.478647,8.83328539 C225.959509,8.97777824 221.515108,8.878128 217.210218,8.77847776 C212.008475,8.64394993 206.667222,8.5044396 202.053416,8.93293563 C201.007089,8.83328539 200.444065,8.69875757 199.985674,8.44464945 C199.163559,8.61903737 197.888036,8.68879254 195.451588,8.7934253 C194.704211,8.82332037 193.817324,8.86318046 193.114789,8.9179881 C192.726154,9.23686886 192.227902,9.40129176 191.729651,9.35644915 C190.623533,9.07244597 190.125282,8.98276075 189.517416,8.91300558 C188.346525,8.77349525 186.956405,8.72367013 185.606144,8.67384501 C184.196093,8.6290024 183.005273,8.58415979 182.053613,8.4645795 C181.271358,8.38485931 180.67844,8.23040144 180.205101,7.98625835 C179.517514,8.17559381 179.193651,8.28022656 178.849858,8.28022656 C173.379059,8.26527902 169.582385,8.47952704 166.164382,8.99272578 C165.142967,8.93791814 163.967094,8.9179881 162.148477,8.93293563 C161.430996,9.1671137 160.494283,9.30662403 159.25862,9.500942 C158.10766,10.0041757 157.649269,10.2333713 157.156,10.2931614 C156.782312,10.6768148 156.299008,10.9159754 155.785809,10.9658005 C154.176458,11.0853808 153.429081,11.1850311 153.09027,11.2398387 C152.651809,11.5686845 152.123663,11.7181598 151.600499,11.6683347 C149.542722,11.0754158 148.312041,10.4974444 147.445084,9.81982277 C147.225854,11.0903633 146.079876,11.7530374 144.166591,11.7331074 L141.44614,11.8277751 C141.167119,11.9124778 140.798413,11.9623029 140.250337,12.0519882 C139.38338,12.3160613 138.840286,12.3559214 137.893609,12.2512886 C137.245882,12.1665859 136.478575,12.0320581 135.945447,11.9174603 C134.973857,11.8327576 133.763106,11.7430724 132.467653,11.6683347 C131.416343,11.5288244 130.703844,10.8412377 130.429806,9.92445552 C129.986362,9.87961291 129.602709,9.73013755 129.263898,9.46108191 C127.923602,9.3763792 127.554896,9.3763792 127.211103,9.38634423 L126.085055,11.1700835 C125.726314,11.7580199 125.133396,12.1416734 124.485669,12.2263761 C123.534009,12.1566209 123.115478,11.9423729 122.771685,11.6085446 L121.506127,10.3230565 L119.244066,10.3928117 C118.297389,10.3330215 117.913736,10.1536511 117.609802,9.87961291 C116.438912,10.0639659 115.058756,10.1785636 114.102114,10.0988434 C113.708495,11.369384 112.697046,11.583632 111.670648,11.573667 C111.067764,12.2612537 110.150982,12.3957815 109.757363,12.4555716 C108.40212,12.3609039 107.684638,11.6384397 107.495303,10.6817973 C106.274588,10.1287385 105.133592,10.0739309 104.007545,10.0191233 C102.223805,9.93442055 100.420136,9.84473533 98.5367464,9.82978779 C97.540244,9.81982277 96.4739864,9.88957794 95.3977638,9.95933311 C94.2567686,10.0290883 93.1008258,10.1088085 92.0046732,10.0938609 C91.2572964,10.0838959 90.4252168,10.1984937 89.5283647,10.3230565 C88.5966349,10.4526018 87.6449751,10.5821471 86.7232104,10.5721821 C83.9080911,10.542287 81.1228669,10.4276892 78.3276777,10.2931614 C74.6256712,10.133721 70.799102,9.96929813 66.9426377,10.0290883 C65.6970097,9.67532992 65.5076743,9.6653649 65.417989,9.66038239 C64.8848603,9.60059224 64.3318014,9.60557475 63.5894071,9.61055727 C61.8505104,9.60557475 61.4070669,9.61553978 61.0184309,9.62052229 C60.3557568,9.64045234 59.8575056,9.65539987 59.1649365,9.57069717 C58.6716678,9.51588954 57.8595183,9.42620432 57.2466693,8.9179881 C56.8032258,10.3977942 55.3433497,10.5921121 54.810221,10.6568848 C53.8386311,10.6020772 53.3852225,10.3081089 53.0563767,9.87961291 L50.3060301,10.1735811 C48.4475531,11.155136 45.7470316,10.8512028 42.3639059,10.4675493 C40.7695021,10.2881789 38.9608502,10.0838959 37.0724782,9.99421069 C35.4133017,9.9144905 33.66444,9.70522499 31.9753684,9.500942 C29.3495846,9.18704374 26.629133,8.85819795 24.4119151,9.06248094 C23.3755526,8.92795312 23.2210948,8.93791814 23.0815844,8.94788317 C22.2445224,9.52087205 21.5519532,9.22690384 21.1433873,9.05251592 C19.9376194,8.88311051 19.3845605,8.52935216 19.0108721,8.00120588 C16.8285319,8.10583864 14.7209293,8.92297061 13.0169102,10.338004 C12.7976796,11.4291742 12.1350055,12.1566209 11.302926,12.3060963 C9.78325986,14.483454 9.20528847,16.4415812 9.20528847,18.4644811 C9.7135047,19.3663158 9.82810247,20.2681505 9.8829101,20.6767165 C9.82810247,21.9422745 9.57897687,22.4654383 9.20528847,22.8490917 L9.20528847,30.1684018 C10.027403,31.2197119 10.3961088,31.9322111 10.3961088,32.7343955 C9.60887194,39.3113114 9.25013108,46.3466184 9.25013108,55.1905772 C9.25013108,56.4262402 9.2600961,57.6569206 9.27006113,58.8876011 C9.62381948,60.9952037 9.82810247,62.1860241 9.82810247,63.8800781 C9.82810247,64.6025424 9.64374953,64.9911783 9.34978132,65.484447 C9.35476383,66.5855822 9.35476383,67.0838334 9.38964141,67.5771021 C9.58395938,70.3423962 9.6736446,73.162498 9.6736446,76.2068129 C9.6736446,79.0617923 9.59890692,81.7772613 9.51420422,84.6471882 L9.43946654,87.263007 C9.44444905,88.304352 9.41953649,88.9819737 9.37469388,89.5998052 C9.33981629,90.4817098 9.28500866,91.408457 9.20030596,92.3401868 L9.20528847,96.0421932 C9.34978132,97.1233983 9.5092217,98.3690263 9.5889419,99.5698117 C9.6337845,100.227503 9.73841726,100.790527 9.85301503,101.323656 C9.94768276,101.811942 10.0423505,102.255386 10.0822106,102.698829 C10.0871931,103.321643 9.91280518,103.780034 9.72845223,104.173653 C9.90284015,105.170155 9.91778769,106.306168 9.77329484,107.651446 C9.65869706,108.772511 9.41953649,109.948384 9.20528847,110.964817 L9.20528847,124.89592 C10.3114061,125.877475 10.5306367,127.576512 10.6452344,128.398626 C10.5356192,130.257103 9.99252537,131.139008 9.20528847,131.647224 L9.20528847,152.105418 C9.35476383,152.60367 9.43946654,153.106903 9.47932663,153.664945 L9.20528847,155.578229 L9.20528847,159.225428 C9.46374707,164.124538 9.39655429,168.261918 9.30668435,172.28358 C9.23942079,172.764733 9.20528847,173.252499 9.20528847,173.74409 C9.24732913,175.146067 9.22256481,176.236495 9.20528847,177.311947 L9.20528847,185.448011 C9.29631407,186.797671 9.35565134,187.863636 9.43946654,188.84148 C9.36971137,189.862894 9.29497369,190.221635 9.20528847,190.535534 L9.20528847,193.340688 C9.24016605,193.878799 9.27006113,194.641123 9.30992122,195.587801 C9.33981629,196.290335 9.37469388,197.112449 9.41953649,197.795054 C9.47335225,199.394883 9.41350098,200.831426 9.36742422,202.321383 C9.28325487,203.319493 9.24255142,204.429394 9.20528847,205.64251 L9.20528847,222.737509 C9.28500866,223.529728 9.39462393,224.44651 9.51420422,225.343363 C9.48929166,226.300005 9.45939658,226.882959 9.45939658,228.31294 C9.53965691,229.694851 9.60632327,229.978457 9.66891672,230.29152 C9.6736446,234.341401 9.59890692,237.05687 9.51420422,239.926797 L9.43946654,242.542616 C9.44444905,243.583961 9.41953649,244.261582 9.37469388,244.879414 C9.33981629,245.761318 9.28500866,246.688066 9.20030596,247.619795 L9.20528847,251.321802 C9.34978132,252.403007 9.5092217,253.648635 9.5889419,254.84942 C9.6337845,255.507112 9.73841726,256.070136 9.85301503,256.603265 C9.94768276,257.091551 10.0423505,257.534994 10.0822106,257.978438 C10.0871931,258.601252 9.91280518,259.059643 9.72845223,259.453262 C9.90284015,260.449764 9.91778769,261.585777 9.77329484,262.931055 C9.68948173,263.750966 9.53904016,264.600193 9.380446,265.394921 C9.31135502,265.7343 9.25296918,271.177815 9.20528847,281.725469 C9.60887194,282.178877 9.87294508,282.881411 9.98754286,283.808159 C9.91778769,285.058769 9.6337845,285.59688 9.21027098,285.960604 C9.23877313,286.583883 9.23711229,293.725358 9.20528847,307.385027 C9.35476383,307.883278 9.43946654,308.386512 9.47932663,308.944553 L9.20528847,310.857838 L9.20528847,314.505037 C9.47434412,319.736674 9.3846589,324.196023 9.28500866,328.515861 C9.25511359,330.090334 9.22521852,331.35091 9.20528847,332.591555 L9.20528847,339.073804 C9.25013108,341.151511 9.31988625,342.725985 9.43946654,344.121088 C9.36971137,345.142503 9.29497369,345.501244 9.20528847,345.815142 L9.20528847,348.620297 C9.24016605,349.158408 9.27006113,349.920732 9.30992122,350.867409 C9.33981629,351.569944 9.37469388,352.392058 9.41953649,353.074662 C9.69357465,353.478246 9.86796257,353.986462 9.86796257,354.519591 C9.57897687,355.874834 9.48929166,356.388033 9.424519,357.005864 C9.2999562,358.151842 9.25013108,359.462243 9.20528847,360.922119 L9.20528847,378.017117 C9.28500866,378.809337 9.39462393,379.726119 9.51420422,380.622971 C9.48929166,381.579614 9.45939658,382.162567 9.45939658,383.592548 C9.67862711,385.456008 9.82311996,386.382755 10.0024904,387.648313 C10.4260039,388.659763 10.6551995,389.133102 10.7349197,389.641318 C11.1185731,390.064831 11.3627162,390.63782 11.4025763,391.255652 C11.517174,392.710545 11.5919117,393.45294 11.6467194,393.811681 C11.9357051,394.250142 12.0901629,394.778288 12.0901629,395.316399 C11.5570341,397.543582 11.098643,398.694542 10.5655143,399.566482 C11.5520516,399.850485 12.1499531,401.140956 12.1499531,403.064205 L12.2346558,405.784657 C12.4638513,407.11997 12.4837814,407.244533 12.4987289,407.344183 C12.6980294,407.877312 12.7727671,408.370581 12.6332567,409.576349 C12.5635016,410.23404 12.4190087,411.051172 12.314376,411.594266 C12.2496033,412.506066 12.1599181,413.731764 12.0901629,415.042164 C11.9207575,416.307722 11.2630659,417.094959 10.4110564,417.35405 C9.93771774,418.739188 9.91778769,418.973366 9.90284015,419.272317 C9.90284015,419.974851 9.56901185,420.502997 9.20528847,420.866721 C10.2217209,421.604133 10.6253044,422.296702 10.7100071,423.059026 C10.6352694,424.299672 10.3861438,424.8328 10.0124554,425.221436 L9.20528847,437.005077 C9.60887194,437.458486 9.87294508,438.16102 9.98754286,439.087767 C9.91778769,440.338378 9.6337845,440.876489 9.21027098,441.240212 C9.34978132,446.078232 12.752837,450.203752 17.4164683,451.175341 C17.8748594,451.140464 18.3133204,451.115551 18.7069389,451.115551 C21.5071106,451.160394 22.493648,451.140464 23.4403253,451.125516 C24.576338,451.105586 25.8468786,451.090639 28.9758962,450.65716 C29.3994097,450.59737 29.8079757,450.687055 30.161734,450.911268 C31.2628692,450.911268 32.1896164,450.961093 32.9718708,451.080674 L34.511467,450.721933 C35.1093684,450.59737 35.6823573,450.766775 36.1407484,451.170359 C38.0042079,451.185306 39.7729997,451.274992 41.362421,451.369659 C42.8073495,450.896321 45.2687104,450.741863 47.6553337,450.587405 C48.8959792,450.502702 50.5651207,450.383122 50.9188791,450.278489 C51.3722877,450.099119 51.9004339,450.119049 52.3787551,450.363192 C53.4848728,450.607335 53.9283163,450.607335 54.3916899,450.587405 C54.605938,450.183821 54.9198362,449.854976 55.3034896,449.655675 C55.7668633,449.227179 56.3747297,449.042826 56.9726312,449.177354 C57.8495533,449.381637 58.362752,449.899818 58.6318077,450.482772 C59.1350414,449.909783 59.9322433,449.660658 61.0134484,449.740378 C61.6113499,449.655675 62.4583769,449.835046 64.2371337,450.233647 C64.8400176,449.944661 65.3183388,449.800168 65.7966599,449.854976 L68.0188603,450.158909 C69.9769875,450.353227 70.809067,450.323332 71.7457793,450.208734 C75.0192897,450.622283 78.1732198,450.388104 81.5065203,450.143961 C85.113859,449.869923 88.7211977,449.595885 92.2936589,450.034346 C92.75205,450.089154 93.2303711,450.163891 93.6837797,450.243612 C95.3180436,450.358209 96.6882344,450.43793 98.0384952,450.51765 C100.220835,450.642213 102.472931,450.77674 104.31646,450.71695 C104.690149,450.283472 105.158505,450.054276 105.646791,450.034346 C109.722486,449.800168 112.707011,449.640728 115.796168,449.635745 C116.189786,449.202267 116.698003,448.983036 117.226149,449.007949 C118.915221,449.092651 121.316791,449.027879 123.85289,448.958124 C127.500089,448.853491 131.640556,448.738893 134.450693,449.087669 C135.208035,449.177354 135.835831,449.301917 136.358995,449.461357 C137.375428,449.162407 138.601126,448.803666 141.017644,448.898333 C141.216944,448.873421 142.133727,448.51468 142.41773,448.325345 C143.777956,447.707513 144.141679,447.6826 144.654878,447.66267 C145.49194,447.528143 146.059946,447.737408 146.324019,447.842041 C147.066413,447.926744 149.019558,448.165904 149.149103,450.009434 C151.535727,450.114066 153.254693,450.009434 154.928817,449.889853 C160.524178,450.552527 165.222687,450.348244 169.776703,450.153926 C172.098554,450.054276 174.495142,449.944661 176.866818,449.984521 C177.003006,449.984521 179.258424,449.916427 183.633069,449.780238 C184.838837,449.675605 186.0745,449.541077 187.135775,449.595885 C189.472573,449.326829 193.139702,449.516165 195.471518,449.805151 L199.66181,449.835046 C200.379292,449.835046 201.002106,450.258559 201.350882,450.911268 L202.745985,450.67709 C203.82719,450.791688 204.116176,450.931198 204.340389,451.095621 C204.81871,451.060744 205.356822,451.025866 205.92981,451.000953 C206.105859,450.858121 207.544144,450.519311 210.244666,449.984521 C211.500259,449.770273 211.729454,449.735395 211.95865,449.750343 C212.730939,449.421497 213.239156,449.301917 213.732424,449.401567 C214.449906,449.56599 215.11258,449.675605 215.815114,449.76529 C216.597369,449.864941 217.309868,449.909783 218.012402,449.944661 C218.754796,449.999469 219.422453,450.044311 220.120005,450.124031 C221.973499,450.114066 222.989932,450.114066 225.022796,450.114066 C225.615715,450.114066 226.258459,449.979538 226.821483,449.854976 C228.082059,449.222197 228.75968,448.997984 229.442285,449.182337 C230.114924,449.391602 230.598227,449.511182 230.951986,449.556025 C231.7741,449.556025 232.406879,449.615815 233.488084,450.069224 C234.041143,450.283472 234.474622,450.786705 234.678905,451.404537 L241.709229,451.404537 C242.023127,451.065726 242.491484,450.876391 242.97977,450.941163 C243.647426,451.025866 244.115782,451.205236 244.514383,451.404537 L248.027054,451.399554 C249.237805,451.354712 249.437105,451.394572 249.611493,451.419484 L261.310431,451.404537 C262.840063,450.652178 264.743382,450.328314 266.990495,450.447895 C267.613309,450.368174 269.113045,450.268524 270.164355,450.348244 C271.360158,449.964591 274.035767,449.820098 282.301755,450.074206 C283.776578,450.119049 284.115389,450.238629 284.404375,450.43793 C285.5653,450.288454 286.731208,450.313367 288.255856,450.507685 C289.53138,449.107599 291.778492,448.569488 296.13819,448.529627 C296.566686,448.529627 296.965287,448.679103 297.299116,448.948159 C299.625949,449.082686 301.190458,449.132511 302.844652,449.197284 C304.513793,449.262057 306.442025,449.336794 308.813701,449.202267 C309.311952,449.167389 309.795256,449.356724 310.168944,449.7055 C310.896391,449.66564 311.798226,449.74536 313.008976,449.889853 C314.244639,449.695535 314.698048,449.536095 315.171386,449.561007 C320.761765,449.999469 328.016302,450.034346 333.845841,450.064241 C339.780013,450.094136 344.79242,450.114066 347.582627,450.45786 C347.874934,450.49772 348.364881,450.584083 349.052468,450.71695 C349.675282,450.79667 350.935858,450.662143 351.95229,450.552527 C352.938827,450.447895 353.890487,450.343262 354.712602,450.343262 C357.557616,450.378139 358.519241,450.363192 359.455953,450.358209 C360.572036,450.333297 361.832611,450.313367 364.981559,449.879888 C365.40009,449.820098 365.813638,449.909783 366.162414,450.129014 C366.974564,450.133996 368.010926,450.168874 368.987499,450.298419 L370.512147,449.944661 C371.075171,449.805151 371.683038,449.964591 372.151394,450.393087 C374.029801,450.413017 375.788628,450.502702 377.368084,450.59737 C378.758205,450.143961 381.025248,449.984521 383.411871,449.825081 C384.602691,449.74536 386.540888,449.62578 386.939489,449.511182 C387.387916,449.311882 387.940974,449.341777 388.434243,449.615815 C389.495518,449.835046 389.938962,449.835046 390.402335,449.815116 C390.611601,449.411532 390.930482,449.082686 391.309152,448.883386 C391.777509,448.444925 392.39534,448.260572 392.993242,448.400082 C393.860199,448.609348 394.373397,449.122546 394.642453,449.710483 C395.085897,449.217214 395.818326,448.868438 397.029076,448.968089 C397.63196,448.873421 398.508882,449.057774 400.312552,449.471322 C401.802323,448.385135 402.983178,446.925259 403.730555,445.251135 C403.391744,444.847551 403.172514,444.339335 403.107741,443.776311 C403.192444,442.560578 403.431604,442.042397 403.785363,441.663726 L404.662285,440.722031 L404.662285,432.974225 C404.154068,432.620467 403.730555,431.947828 403.725572,430.692234 C403.292094,430.233843 403.018056,429.506397 402.88851,428.514877 C402.993143,426.905525 403.655817,426.123271 404.527757,425.928953 C404.55433,425.925631 404.589208,407.668046 404.63239,371.156198 C404.63239,371.106373 404.642355,369.379102 404.662285,365.974386 C404.218841,364.47465 404.024523,362.481645 404.024523,359.561893 C404.024523,357.51408 404.119191,355.247038 404.218841,352.840484 C404.413159,348.336293 404.552669,343.592942 404.273649,340.264624 C404.248736,339.033943 404.109226,338.84959 403.979681,338.640325 L400.676275,339.66174 L403.416657,336.46795 C403.511324,335.4565 403.82024,334.858598 404.273649,334.459997 C404.268666,331.814284 404.343404,329.482468 404.433089,327.549253 C403.302059,326.084395 402.933353,325.36193 402.933353,324.559746 C403.730555,317.793495 404.104243,310.494115 404.104243,301.286432 C404.104243,300.180315 404.099261,299.074197 404.089296,297.978044 C403.735537,295.845529 403.526272,294.649726 403.526272,292.940725 C403.536237,292.193348 403.705642,291.829625 404.014558,291.291513 C404.014558,290.090728 404.009576,289.617389 403.974698,289.139068 C403.914495,288.215958 403.864395,287.285552 403.824399,286.342198 L404.662285,277.694616 C404.237279,277.398779 403.87151,276.879934 403.760214,275.98364 C403.790258,274.60383 403.829593,273.221216 403.870065,271.799926 C404.08644,270.791008 404.299957,270.700111 404.527757,270.649344 C404.55433,270.646023 404.594135,261.411637 404.64717,242.946188 C404.65052,242.930646 404.655558,241.97899 404.662285,240.09122 C404.65854,240.085937 404.650027,234.67365 404.636745,223.854358 C404.642408,223.851862 404.650921,219.025087 404.662285,209.374033 C404.472949,208.955502 404.318491,208.447286 404.318491,207.954017 C404.423124,207.171763 404.472949,206.8479 404.497862,206.563896 C404.557652,205.985925 404.59253,205.447814 404.59253,204.974475 C404.364029,203.642378 404.165383,203.113183 404.04745,202.391662 C404.061167,201.777902 404.080307,201.14853 404.102845,200.505348 L404.662285,197.470812 C404.50067,196.599828 404.370345,196.370193 404.278407,196.121098 C404.438052,192.06608 404.523065,187.960201 404.273649,184.985015 C404.310814,183.812533 404.220883,183.708249 404.136115,183.59323 C404.1485,183.002735 404.161338,182.415072 404.173998,181.830707 C404.201646,180.736087 404.218677,179.972496 404.233924,179.216162 C404.268666,176.534675 404.343404,174.202859 404.433089,172.269645 C404.282942,171.712351 404.276738,171.321984 404.268666,170.933953 C403.995713,169.933642 403.582769,168.994637 403.05117,168.139928 L403.05117,166.139928 Z M412.997749,455.019762 C412.997749,457.785546 410.753767,460.027658 408.005347,460.027658 L5.54473062,460.027658 C2.7875035,460.027658 0.552329278,457.796616 0.552329278,455.019762 L0.552329278,5.15891144 C0.552329278,2.39312671 2.79631044,0.15101518 5.54473062,0.15101518 L408.005347,0.15101518 C410.762574,0.15101518 412.997749,2.38205695 412.997749,5.15891144 L412.997749,455.019762 Z" id="cm-box--speech--red" fill="#C5014B"></path>
    </g>
</svg>