<?xml version="1.0" encoding="UTF-8"?>
<svg width="94px" height="56px" viewBox="0 0 94 56" version="1.1" xmlns="http://www.w3.org/2000/svg" xmlns:xlink="http://www.w3.org/1999/xlink">
    <!-- Generator: Sketch 46.2 (44496) - http://www.bohemiancoding.com/sketch -->
    <title>cm-icon-people</title>
    <desc>Created with Sketch.</desc>
    <defs></defs>
    <g id="Page-1" stroke="none" stroke-width="1" fill="none" fill-rule="evenodd">
        <path d="M22.2144743,36.1957201 C14.9714743,36.4637201 6.65647432,35.7107201 1.25547432,34.8687201 C-0.563525684,27.7097201 3.20047432,19.9487201 10.2814743,20.0787201 C12.6184743,21.2257201 12.2194743,24.6557201 14.9354743,24.8277201 C17.2894743,24.9757201 19.0394743,23.1787201 19.9954743,20.2837201 C24.2154743,20.3697201 24.5834743,21.0297201 27.9114743,23.7397201 C30.0264743,25.5087201 30.1054743,28.5597201 30.1054743,28.5597201 C26.5114743,30.0597201 23.7294743,34.5187201 22.2144743,36.1957201 M16.4634743,2.83572008 C19.5864743,3.03372008 23.8834743,4.80572008 22.9964743,10.2027201 C22.2454743,14.8817201 20.7264743,18.0587201 16.0644743,17.7637201 C11.4474743,17.4707201 11.6784743,13.8047201 11.1984743,9.18372008 C10.6614743,4.74172008 13.2034743,2.62972008 16.4634743,2.83572008 M49.7524743,41.9837201 C53.3344743,39.9827201 55.1734743,36.0547201 57.6094743,32.7547201 C70.1944743,32.8237201 76.2844743,42.1627201 75.7674743,54.6277201 C72.6284743,56.1107201 68.3994743,55.4347201 63.0414743,55.3677201 C47.5174743,55.0667201 33.2974743,53.5307201 20.5944743,52.4547201 C21.1054743,46.5327201 22.6954743,40.0897201 26.5264743,36.2867201 C30.2164743,32.5657201 34.5084743,31.5197201 39.4834743,31.1977201 C43.3144743,30.9867201 43.5674743,32.7287201 45.6844743,35.9087201 C46.9274743,37.8057201 47.7464743,39.9477201 49.7524743,41.9837201 M51.6114743,0.424720075 C57.6314743,0.805720075 63.2684743,4.38872008 62.7834743,12.0387201 C62.3104743,19.5087201 57.4844743,28.9737201 54.3834743,29.8687201 C50.7754743,30.8677201 46.6564743,29.8797201 44.3854743,28.4177201 C39.2324743,25.0917201 38.3914743,16.1317201 39.2324743,7.86772008 C42.3734743,4.20372008 44.4584743,-0.0282799245 51.6114743,0.424720075 M86.3634743,22.2127201 C93.2524743,23.2387201 93.8264743,30.6827201 93.2874743,39.1937201 C89.9324743,39.7997201 79.6754743,38.8317201 75.7974743,38.3587201 C75.7974743,38.3587201 69.9444743,30.3077201 63.4264743,29.8957201 C63.9564743,23.6577201 69.3504743,19.5897201 74.5124743,21.3257201 C75.3844743,24.0627201 77.2784743,26.4547201 80.4464743,26.6547201 C83.1624743,26.8267201 84.2064743,23.9847201 86.3634743,22.2127201 M80.5534743,20.6627201 C76.5694743,20.4107201 74.2074743,16.8077201 74.4594743,12.8237201 C74.6664743,9.56472008 76.8414743,5.33972008 80.2374743,5.55372008 C84.0834743,5.79772008 87.3524743,9.45872008 86.5404743,13.6787201 C85.6174743,18.2117201 84.7174743,20.9257201 80.5534743,20.6627201" id="cm-icon-people" fill="#C5014B"></path>
    </g>
</svg>