<?xml version="1.0" encoding="UTF-8"?>
<svg width="16px" height="16px" viewBox="0 0 16 16" version="1.1" xmlns="http://www.w3.org/2000/svg" xmlns:xlink="http://www.w3.org/1999/xlink">
    <!-- Generator: Sketch 46.2 (44496) - http://www.bohemiancoding.com/sketch -->
    <title>icon-home</title>
    <desc>Created with Sketch.</desc>
    <defs></defs>
    <g id="Page-1" stroke="none" stroke-width="1" fill="none" fill-rule="evenodd">
        <path d="M0.591200223,7.39572825 C1.36564137,6.53490713 2.1480255,5.76212077 2.91171052,4.97162817 C3.3482438,4.51970536 3.76094812,4.04411907 4.17282505,3.56919469 C4.80578175,2.83926736 5.41044157,2.08385628 6.06093904,1.37014589 C6.84117194,0.514123654 7.82775701,0.511475992 8.64836676,1.3301 C10.2440796,2.92151036 11.8631249,4.49107751 13.4163097,6.12336116 C14.009386,6.74672009 14.4843103,7.4940227 14.9468238,8.22659769 C15.3587007,8.87957734 14.9180305,9.46454517 14.0320566,9.49151823 C13.4105179,9.51038282 12.7456238,9.37204248 12.3011475,9.98017736 C12.1863052,10.1370513 12.0597138,10.3407558 12.0636853,10.5203004 C12.0931406,11.8707735 12.1573464,13.2204193 12.2033495,14.5705614 C12.2203938,15.0708041 11.2195776,16.1249045 10.4315671,15.7552247 C9.49379835,15.3150509 8.62619259,15.5265329 7.71159084,15.6218487 C6.90372296,15.7060775 6.08923592,15.7269278 5.27921682,15.7942777 C4.97655595,15.8194305 4.67571535,15.8864494 4.37834981,15.9531374 C3.62955789,16.121264 2.87050628,15.2773217 3.09009675,14.5032115 C3.47946855,13.1318881 3.68168374,11.7554348 3.15992884,10.37501 C2.93951097,9.79202787 2.49189061,9.48870509 1.86571854,9.66560201 C1.25890749,9.83687265 0.741786002,9.72335414 0.415296177,9.21450659 C0.076229957,8.68596706 0.221189454,8.13061994 0.587890646,7.63534166 C0.613539872,7.6005911 0.591200223,7.53026258 0.591200223,7.39572825" id="icon-home" fill="#000000"></path>
    </g>
</svg>