<?xml version="1.0" encoding="UTF-8"?>
<svg width="1420px" height="12px" viewBox="0 0 1420 12" version="1.1" xmlns="http://www.w3.org/2000/svg" xmlns:xlink="http://www.w3.org/1999/xlink">
    <!-- Generator: Sketch 46.2 (44496) - http://www.bohemiancoding.com/sketch -->
    <title>cm-header-bg</title>
    <desc>Created with Sketch.</desc>
    <defs>
        <rect id="path-1" x="0" y="0.0559673815" width="1420" height="11.9440326"></rect>
    </defs>
    <g id="Page-1" stroke="none" stroke-width="1" fill="none" fill-rule="evenodd">
        <g id="cm-header-bg" transform="translate(0.000000, 0.026064)">
            <mask id="mask-2" fill="white">
                <use xlink:href="#path-1"></use>
            </mask>
            <g id="Mask"></g>
            <g id="Group-12" mask="url(#mask-2)" fill="#FFFFFF">
                <g transform="translate(-23.000000, -1133.000000)" id="Fill-1-Copy">
                    <path d="M1309.61362,858.784829 C1309.26424,854.573924 1309.10783,850.060354 1309.0286,845.577253 L1309.07939,845.101927 C1309.08548,845.077551 1309.09158,844.975985 1309.09158,844.95161 C1309.09158,844.84395 1309.07329,844.744416 1309.06111,844.726134 C1309.0347,844.606287 1309.02657,844.470189 1309.00017,844.350342 C1308.96563,842.087463 1308.94735,839.844897 1308.9311,837.675458 L1308.92704,837.545454 C1308.88032,830.933541 1308.83157,825.050868 1308.3664,820.844025 C1308.63859,817.106415 1308.91282,813.261146 1308.84172,809.525567 C1308.83563,809.239153 1308.72188,808.97102 1308.51468,808.737419 L1309.41252,798.215234 C1309.41252,798.095387 1309.39424,797.979603 1309.35158,797.859755 C1309.8391,795.781725 1310.0341,794.103863 1309.92847,792.696166 C1310.15395,791.416441 1310.2677,789.888896 1310.2677,788.160251 C1310.2677,785.22704 1309.92847,781.796158 1309.35565,779.009201 L1309.28049,771.921961 C1309.27846,771.562419 1309.0997,771.239441 1308.8011,770.97537 C1309.21142,769.254851 1309.48565,767.278387 1309.73347,765.303954 C1309.95691,763.506244 1310.29208,760.784289 1310.67193,760.298806 C1310.99085,759.882388 1310.94819,759.392842 1310.55818,758.998768 C1310.18645,758.622976 1309.94473,758.165931 1309.81675,757.595133 C1309.62784,756.786672 1309.71519,755.59023 1309.82488,754.564419 C1311.01319,754.64364 1312.15276,754.278004 1312.64637,753.611735 C1313.49342,753.270475 1313.90578,752.669207 1313.65187,752.082158 C1313.22123,751.086817 1312.11416,750.542426 1310.61912,750.583052 C1310.28599,750.591177 1309.98332,750.627741 1309.703,750.690711 C1309.68675,750.646022 1309.65222,750.613521 1309.63394,750.570864 C1310.38146,750.174758 1310.74912,749.538959 1310.51959,748.903159 C1310.49115,748.830031 1310.48302,748.754873 1310.45458,748.681746 C1311.32805,748.40955 1312.12026,747.838752 1312.12026,746.640279 C1312.12026,746.410741 1312.08979,746.17511 1312.05119,745.951665 C1312.09791,745.833849 1312.12229,745.691658 1312.12229,745.535247 C1312.12229,744.726786 1311.49055,743.235804 1310.75522,741.511222 L1310.65162,741.267465 L1310.65162,741.253246 C1310.68006,741.021677 1310.70444,740.790107 1310.72678,740.560569 C1311.38696,740.286343 1311.78103,739.857736 1311.78103,739.390535 C1311.78103,739.323502 1311.7729,739.260531 1311.76072,739.207717 L1311.68556,738.827862 C1311.64493,738.630825 1311.44993,738.46832 1311.18586,738.411444 C1310.91772,738.354567 1310.63334,738.415506 1310.45458,738.565823 L1308.7625,739.983677 C1308.69141,739.425067 1308.65281,738.888801 1308.535,738.313941 C1308.38468,737.570481 1308.18967,736.873742 1307.94592,736.191222 C1308.5025,735.338072 1308.56547,733.90803 1308.56547,731.161699 L1308.5614,729.796659 C1308.5614,728.969916 1308.96767,727.850664 1309.32721,726.86751 C1309.56284,726.223585 1309.78425,725.610129 1309.9041,725.075895 C1310.99898,724.708228 1311.56571,723.832733 1311.17773,723.079117 C1310.59271,721.911114 1310.25145,721.055933 1310.13161,720.466853 C1310.08285,720.221065 1310.08082,720.046372 1310.08082,719.879805 L1309.37596,719.79449 L1310.08082,719.723394 L1310.08082,719.601515 C1310.08082,718.97384 1309.93863,718.122722 1308.88641,716.572832 C1308.64875,716.223447 1308.21405,715.945158 1307.66763,715.776559 L1307.66153,665.822589 C1307.80982,664.758183 1307.83623,663.616587 1307.72044,662.399832 C1307.99264,661.252142 1308.22217,658.465185 1307.98248,657.071707 C1308.58984,656.149492 1309.12408,654.260374 1309.12408,648.19082 C1309.12408,645.349018 1309.01032,641.755631 1308.78078,637.205497 L1308.76453,636.880487 C1308.73203,636.238594 1308.70766,635.712484 1308.69953,635.338723 C1308.67313,634.822771 1308.3014,634.373851 1307.67778,634.07728 C1308.18764,632.098784 1308.17139,630.126383 1307.66763,627.745687 L1307.66763,626.701594 C1310.81616,625.373118 1312.91653,622.626787 1313.05872,614.332949 C1313.05872,613.810902 1312.69106,613.333545 1312.07354,613.026817 C1312.05729,612.909001 1312.01666,612.764778 1311.93541,612.620555 C1311.71806,612.254919 1311.38492,611.958348 1310.96444,611.74506 C1311.26305,610.351582 1311.40321,608.899195 1311.40321,607.209146 C1311.40321,605.894888 1311.31992,604.5786 1311.23461,603.18309 L1310.52974,603.213559 L1311.22445,603.032773 C1311.12898,601.438195 1311.02944,599.788771 1311.02944,597.921997 C1311.02944,596.363983 1311.09648,594.877064 1311.24273,593.38202 C1311.24679,593.36577 1311.25086,593.280455 1311.25086,593.264204 C1311.25086,592.614185 1310.66381,592.051512 1309.78019,591.781348 C1310.01988,590.69866 1309.91832,589.355964 1309.36986,586.642134 L1309.10986,585.409129 C1309.06923,585.212092 1309.01235,584.909427 1308.95548,584.580355 C1309.75784,584.287846 1310.26567,583.745487 1310.26567,583.134062 C1310.26567,583.111718 1310.25958,583.02234 1310.25552,583.002027 C1309.08142,573.972855 1309.0022,562.461423 1308.9311,552.304874 L1308.92704,552.15862 C1308.86813,542.532243 1308.81329,534.216061 1307.87482,529.588737 C1307.80576,529.277947 1307.74279,528.985438 1307.66763,528.70918 L1307.6595,521.991638 C1307.91138,520.608316 1308.19374,519.038114 1308.20592,517.725888 C1308.20592,517.474005 1308.10639,517.120558 1307.66356,516.761016 L1307.65544,514.853616 C1308.11452,512.539954 1308.14905,511.195227 1308.18155,509.893157 C1308.22827,508.054822 1308.27702,505.970698 1309.51409,500.628354 C1309.62175,500.104276 1309.34752,499.586292 1308.80313,499.228781 C1308.80313,499.098777 1308.80516,498.968773 1308.80516,498.836738 C1308.80516,497.012622 1308.64062,495.438357 1308.31968,494.148475 L1309.36377,491.41027 C1309.573,490.869941 1309.34346,490.280862 1308.74625,489.870537 L1307.66356,489.147391 L1307.66153,487.768131 C1307.88295,486.02933 1307.88701,484.113805 1307.66763,481.773736 L1307.66763,479.908994 C1308.87626,477.686741 1309.31096,473.733812 1309.73347,469.908856 C1309.95691,467.859264 1310.29208,464.761517 1310.67193,464.209001 C1310.99085,463.735706 1310.94819,463.177095 1310.55818,462.728176 C1310.18645,462.301601 1309.94473,461.779554 1309.81675,461.131566 C1309.62784,460.209352 1309.71519,458.846343 1309.82488,457.67834 C1311.01319,457.769749 1312.15276,457.35333 1312.64637,456.595652 C1313.49342,456.20564 1313.90578,455.521089 1313.65187,454.854819 C1313.22123,453.719317 1312.11416,453.099768 1310.61912,453.146488 C1310.28599,453.156644 1309.98332,453.19727 1309.703,453.268366 C1309.55471,452.80929 1309.34549,452.398966 1309.07126,452.023173 C1309.15048,451.771291 1309.22564,451.509252 1309.30486,451.228931 C1309.43284,451.218775 1309.56081,451.204556 1309.67659,451.184243 C1310.79178,451.005487 1312.12026,450.426564 1312.12026,448.657293 C1312.12026,448.397286 1312.08979,448.127121 1312.05119,447.875239 C1312.09791,447.739141 1312.12229,447.578668 1312.12229,447.397881 C1312.12229,446.479729 1311.49055,444.783585 1310.75522,442.819309 L1310.65162,442.541019 L1310.65162,442.524769 C1310.68006,442.260699 1310.70444,441.99866 1310.72678,441.734589 C1311.38696,441.423799 1311.78103,440.934253 1311.78103,440.404082 C1311.78103,440.326892 1311.7729,440.255796 1311.76072,440.196888 L1311.68556,439.762188 C1311.64493,439.538744 1311.44993,439.353894 1311.18586,439.288893 C1310.91772,439.223891 1310.63334,439.292955 1310.45458,439.463585 L1307.66763,442.124601 L1307.66763,409.950686 C1307.77326,409.556611 1307.84232,409.434733 1307.85451,409.41442 C1308.17952,408.951281 1308.12467,408.362201 1307.75904,407.945783 C1307.72857,407.913282 1307.70825,407.870624 1307.68388,407.832029 C1307.67778,407.821873 1307.67169,407.811716 1307.66763,407.799528 L1307.66763,402.879696 C1308.61422,402.804538 1309.44909,402.414526 1309.83097,401.813259 C1310.69022,401.419185 1311.09648,400.694007 1310.8446,400.06227 C1310.40786,398.926767 1309.29877,398.305187 1307.80576,398.351907 C1307.757,398.353938 1307.71028,398.355969 1307.66763,398.360032 L1307.66763,396.174343 C1308.5025,395.863552 1309.30486,395.207439 1309.30486,393.838336 C1309.30486,393.584423 1309.27846,393.326446 1309.23986,393.076595 C1309.28861,392.940498 1309.31096,392.782055 1309.31096,392.6033 C1309.31096,391.699367 1308.69953,390.041819 1307.99264,388.124262 L1307.85045,387.746438 L1307.91342,386.944071 C1308.57765,386.631249 1308.97376,386.137641 1308.97376,385.591219 C1308.97376,385.560749 1308.9636,385.416526 1308.95548,385.386057 L1308.87423,384.959481 C1308.75438,384.36837 1308.62234,383.799604 1308.49437,383.243025 L1308.16124,381.83939 L1308.14498,381.138588 C1308.14092,380.996396 1308.14092,380.870455 1308.1328,380.742482 C1308.10436,380.472318 1307.98654,380.224498 1307.79763,380.013242 C1307.58231,378.394288 1307.65138,376.982528 1308.01092,375.26404 C1308.02717,375.129974 1308.03936,375.026377 1308.00076,374.81512 C1307.85857,374.244322 1307.75294,373.655243 1307.66763,373.143353 L1307.66356,363.900893 C1307.78341,362.657732 1307.93779,361.404413 1308.09217,360.128751 L1308.22014,359.074501 C1308.65078,355.720809 1309.14033,351.916165 1309.14033,348.223244 C1309.14033,345.832393 1308.93923,343.693424 1308.53297,341.674302 C1308.36843,340.922717 1308.17952,340.165038 1307.96623,339.425642 C1307.9256,339.301732 1307.86466,339.187978 1307.78951,339.076256 C1307.76716,338.737028 1307.73466,338.403893 1307.70216,338.066695 L1307.66763,320.611651 C1308.17749,320.321173 1308.49234,319.927099 1308.54109,319.486305 C1309.18908,312.709856 1309.64612,307.501577 1309.64612,302.203922 L1309.64612,302.098293 C1310.69225,301.86063 1311.38696,301.241081 1311.38696,300.44887 L1311.38696,300.444807 C1311.19601,298.053956 1311.32602,294.218843 1311.5068,290.144035 L1311.53727,289.463547 C1311.67946,286.367831 1311.82978,283.162424 1311.82978,280.166242 C1311.82978,276.784111 1311.62868,274.159659 1311.22242,272.146631 C1310.94819,270.807998 1310.58256,269.72531 1310.0991,268.849815 C1310.17629,268.68731 1310.25958,268.520743 1310.34692,268.34605 C1311.01929,266.968822 1311.96994,265.053297 1311.70181,261.220216 C1311.70181,260.793641 1312.86778,258.908585 1313.6539,258.177314 C1314.2186,257.651204 1314.4522,257.167753 1314.60658,256.848837 C1314.64924,256.757428 1314.68174,256.680238 1314.68174,256.663988 C1315.01487,256.408043 1315.07785,255.983499 1315.13472,255.148631 C1315.14691,254.990189 1315.15097,254.858153 1315.16519,254.801277 C1315.22207,254.60424 1315.25254,254.407203 1315.25254,254.212197 C1315.25254,253.594679 1314.96206,253.117321 1314.78737,252.830906 C1314.7508,252.769967 1314.71221,252.719184 1314.70612,252.711059 C1314.26532,250.568027 1313.37967,249.45487 1312.08369,249.408149 C1310.60693,249.345179 1309.9691,250.383178 1309.51409,251.51868 L1308.6325,250.726469 C1308.535,249.213144 1308.48625,247.799352 1308.48625,246.403842 C1308.48625,243.104995 1308.76047,240.590234 1309.02251,238.158756 L1309.07939,237.624521 C1309.08548,237.600146 1309.09158,237.49858 1309.09158,237.474205 C1309.09158,237.366545 1309.07329,237.26498 1309.06111,237.248729 C1308.22217,233.502994 1307.81388,229.460687 1307.81388,224.898366 C1307.81388,221.177006 1308.07592,217.490179 1308.3278,213.923199 L1308.34405,213.69163 C1308.62437,209.854486 1308.91485,205.8914 1308.84172,202.048162 C1308.83563,201.761747 1308.72188,201.493615 1308.51468,201.260014 L1309.41252,190.737829 C1309.41252,190.617982 1309.39424,190.502197 1309.35158,190.38235 C1309.8391,188.302289 1310.0341,186.626458 1309.92847,185.218761 C1310.15395,183.937004 1310.2677,182.411491 1310.2677,180.680815 C1310.2677,177.749635 1309.92847,174.316721 1309.35565,171.529764 L1309.28049,164.444556 C1309.27439,163.749848 1308.63859,163.177018 1307.66763,162.935293 L1307.66763,151.046037 L1308.92298,146.8331 C1308.98188,146.69294 1309.04486,146.436995 1309.16877,145.817445 C1309.25408,145.37462 1309.34752,144.9257 1309.35158,144.931794 C1309.48362,144.728663 1309.573,144.488969 1309.54862,144.216773 C1309.52831,143.8552 1309.51409,143.536284 1309.5019,143.255964 L1309.49784,143.176742 C1310.34896,142.792825 1310.76334,142.10218 1310.51959,141.425753 C1310.08895,140.263844 1309.75988,139.122248 1309.51612,137.937995 C1309.25408,136.633894 1309.12611,135.43339 1308.99814,134.275543 L1308.98798,134.157727 C1308.88641,133.103477 1308.7686,131.980163 1308.535,130.836536 C1308.38468,130.093076 1308.18967,129.394306 1307.94592,128.711786 C1308.5025,127.860667 1308.56547,126.430625 1308.56547,123.684294 L1308.5614,122.317222 C1308.5614,121.492511 1308.96767,120.373259 1309.32721,119.390105 C1309.56284,118.74618 1309.78425,118.132724 1309.9041,117.59849 C1310.99898,117.230823 1311.56571,116.355328 1311.17773,115.599681 C1310.59271,114.431678 1310.25145,113.578528 1310.13161,112.989448 C1310.08285,112.741628 1310.08082,112.568967 1310.08082,112.4024 L1309.37596,112.317085 L1310.08082,112.245989 L1310.08082,112.12411 C1310.08082,111.496435 1309.93863,110.645317 1308.88641,109.093396 C1308.64875,108.746042 1308.21405,108.467752 1307.66763,108.297122 L1307.66153,58.345184 C1307.80982,57.2807777 1307.83623,56.1391816 1307.72044,54.922427 C1307.99264,53.774737 1308.22217,50.98778 1307.98248,49.5922702 C1308.58984,48.6720869 1309.12408,46.7809375 1309.12408,40.7134152 C1309.12408,37.8716128 1309.01032,34.2761946 1308.78078,29.728092 L1308.76453,29.4030824 C1308.73203,28.7611885 1308.70766,28.2350793 1308.69953,27.859287 C1308.67313,27.3453656 1308.3014,26.8964462 1307.67778,26.5978436 C1308.18764,24.6213792 1308.17139,22.6489775 1307.66763,20.2682824 L1307.66763,19.2221579 C1310.81616,17.8957126 1312.91653,15.1473505 1313.05872,6.85554401 C1313.05872,6.3334974 1312.69106,5.8541083 1312.07354,5.54738052 C1312.05729,5.42956456 1312.01666,5.28737287 1311.93541,5.14314988 C1311.71806,4.77548281 1311.38492,4.48094289 1310.96444,4.26765537 C1311.26305,2.87417687 1311.40321,1.42179038 1311.40321,-0.268259342 C1311.40321,-1.58251676 1311.31992,-2.89880549 1311.23461,-4.2943153 L1310.52974,-4.26587696 L1311.22445,-4.44463222 C1311.12898,-6.0412417 1311.02944,-7.68863392 1311.02944,-9.55743891 C1311.02944,-11.1134222 1311.09648,-12.6023722 1311.24273,-14.0974162 C1311.24679,-14.1116354 1311.25086,-14.1969504 1311.25086,-14.2152322 C1311.25086,-14.86322 1310.66381,-15.4258928 1309.78019,-15.696057 C1310.01988,-16.7787451 1309.91832,-18.1234722 1309.36986,-20.8352707 L1309.10986,-22.0682758 C1309.06923,-22.2653128 1309.01235,-22.567978 1308.95548,-22.8990815 C1309.75784,-23.1895588 1310.26567,-23.7319185 1310.26567,-24.3433427 C1310.26567,-24.3656871 1310.25958,-24.4550647 1310.25552,-24.4753778 C1309.08142,-33.5045498 1309.0022,-45.0159822 1308.9311,-55.172531 L1308.92704,-55.3187853 C1308.86813,-64.9451623 1308.81329,-73.2613445 1307.87482,-77.8886682 C1307.80576,-78.1994586 1307.74279,-78.4939985 1307.66763,-78.7702566 L1307.6595,-85.4857667 C1307.91138,-86.87112 1308.19374,-88.4413224 1308.20592,-89.7535485 C1308.20592,-90.0033996 1308.10639,-90.3588788 1307.66356,-90.7184207 L1307.65544,-92.6237892 C1308.11452,-94.937451 1308.14905,-96.2842094 1308.18155,-97.5842477 C1308.22827,-99.4246143 1308.27702,-101.508738 1309.51409,-106.851083 C1309.62175,-107.373129 1309.34752,-107.891113 1308.80313,-108.250655 C1308.80313,-108.378628 1308.80516,-108.510663 1308.80516,-108.640667 C1308.80516,-110.464783 1308.64062,-112.039048 1308.31968,-113.330961 L1309.36377,-116.069167 C1309.573,-116.609495 1309.34346,-117.198575 1308.74625,-117.606868 L1307.66356,-118.330014 L1307.66153,-119.709274 C1307.88295,-121.448075 1307.88701,-123.3636 1307.66763,-125.703669 L1307.66763,-127.570442 C1308.87626,-129.792695 1309.31096,-133.743593 1309.73347,-137.57058 C1309.95691,-139.618141 1310.29208,-142.717919 1310.67193,-143.268404 C1310.99085,-143.7417 1310.94819,-144.30031 1310.55818,-144.75126 C1310.18645,-145.177836 1309.94473,-145.697851 1309.81675,-146.34787 C1309.62784,-147.268053 1309.71519,-148.631062 1309.82488,-149.799065 C1311.01319,-149.707656 1312.15276,-150.124075 1312.64637,-150.881753 C1313.49342,-151.271765 1313.90578,-151.956316 1313.65187,-152.624617 C1313.22123,-153.758088 1312.11416,-154.377637 1310.61912,-154.332949 C1310.28599,-154.320761 1309.98332,-154.280135 1309.703,-154.209039 C1309.55471,-154.668115 1309.34549,-155.078439 1309.07126,-155.456263 C1309.15048,-155.706114 1309.22564,-155.970184 1309.30486,-156.248474 C1309.43284,-156.25863 1309.56081,-156.272849 1309.67659,-156.293163 C1310.79178,-156.471918 1312.12026,-157.052872 1312.12026,-158.820112 C1312.12026,-159.082151 1312.08979,-159.350284 1312.05119,-159.604197 C1312.09791,-159.740295 1312.12229,-159.898737 1312.12229,-160.079524 C1312.12229,-160.997676 1311.49055,-162.695851 1310.75522,-164.660127 L1310.65162,-164.938417 L1310.65162,-164.952636 C1310.68006,-165.216706 1310.70444,-165.480777 1310.72678,-165.742816 C1311.38696,-166.053606 1311.78103,-166.543152 1311.78103,-167.075355 C1311.78103,-167.150513 1311.7729,-167.221609 1311.76072,-167.282548 L1311.68556,-167.715217 C1311.64493,-167.940693 1311.44993,-168.125542 1311.18586,-168.188513 C1310.91772,-168.253514 1310.63334,-168.18445 1310.45458,-168.01382 L1307.29996,-165.003419 C1307.27965,-165.013575 1307.2573,-165.021701 1307.23496,-165.031857 L1307.52137,-165.336554 C1307.68388,-165.509215 1307.71028,-165.740784 1307.59856,-165.937821 C1307.48278,-166.132827 1307.24715,-166.2608 1306.98308,-166.266894 C1305.37834,-166.309551 1304.7141,-166.285175 1304.30784,-166.2608 C1304.01736,-166.240486 1303.76751,-166.205954 1303.68017,-166.175485 L1303.29625,-166.159234 C1302.06731,-166.080013 1301.42135,-165.805786 1300.97243,-165.529528 C1300.78149,-165.494996 1300.33257,-165.432025 1299.3941,-165.375149 C1298.78877,-165.33046 1298.03719,-165.291865 1297.15154,-165.265458 C1295.26851,-165.265458 1293.6719,-165.281708 1292.30077,-165.308115 L1288.2544,-168.895408 C1287.70798,-169.370735 1286.8792,-169.6734 1285.99761,-169.728245 C1285.77823,-169.746527 1285.56291,-169.746527 1285.31103,-169.734339 C1284.63257,-169.683557 1284.01709,-169.510895 1283.53567,-169.232606 L1279.11147,-166.721907 L1271.55297,-166.86613 C1270.97405,-166.870193 1270.65107,-166.858005 1270.46216,-166.843785 C1269.33072,-166.768627 1268.6421,-166.362365 1268.29272,-165.913446 C1264.21385,-166.346115 1259.60887,-166.539089 1257.16927,-166.372522 C1256.4644,-166.327833 1255.85907,-166.262831 1255.32687,-166.179547 C1254.74795,-166.094232 1254.25027,-165.880945 1253.89683,-165.592499 C1253.86839,-165.627031 1253.84401,-165.659532 1253.81557,-165.692033 C1254.33153,-165.990635 1254.7581,-166.522839 1254.55497,-167.250047 C1254.12636,-168.771498 1252.38553,-168.785718 1248.9709,-168.651651 C1248.40823,-169.807466 1246.27332,-169.972003 1244.63202,-170.097944 C1244.45936,-170.104038 1244.28061,-170.104038 1244.09779,-170.097944 C1243.00494,-170.028879 1242.09695,-169.512927 1241.83897,-168.810093 C1241.52006,-167.938661 1242.31227,-167.014416 1243.64277,-166.750345 C1243.68949,-166.74222 1243.72809,-166.734095 1243.75653,-166.728001 C1243.84387,-166.662999 1243.93528,-166.608154 1244.03888,-166.553308 C1238.95451,-166.522839 1233.94936,-166.386741 1229.08438,-166.256737 C1224.16455,-166.122671 1219.08018,-165.984541 1213.84143,-165.956103 C1211.01791,-165.937821 1207.92422,-166.047512 1204.9321,-166.157203 C1201.82217,-166.266894 1198.60457,-166.380647 1195.57792,-166.360334 C1193.31301,-166.346115 1190.77997,-166.543152 1188.33224,-166.728001 C1185.81951,-166.920975 1183.2235,-167.122075 1180.8428,-167.103793 C1172.95929,-167.057073 1165.00062,-166.864099 1157.30398,-166.673155 C1146.98087,-166.419242 1136.3043,-166.157203 1125.49774,-166.242518 C1124.85178,-166.248612 1124.11035,-165.996729 1123.61674,-165.714377 C1123.45627,-165.712346 1123.21454,-165.710315 1122.9525,-165.706252 C1122.41827,-165.700158 1121.81497,-165.694064 1121.56918,-165.675782 C1120.07008,-165.57828 1118.51816,-165.582342 1116.37309,-165.586405 C1115.39197,-165.588436 1114.29913,-165.592499 1113.03565,-165.586405 C1111.36388,-165.576248 1110.1065,-165.592499 1109.02991,-165.608749 C1107.24439,-165.635156 1105.9545,-165.651407 1104.10195,-165.531559 C1102.90957,-165.45437 1101.67657,-165.373117 1100.76248,-165.074515 L1096.19,-165.074515 C1096.05187,-165.157798 1095.90765,-165.230926 1095.75327,-165.291865 C1095.62123,-166.910819 1093.13288,-167.093637 1091.34126,-167.225672 C1091.12188,-167.248016 1090.91062,-167.245985 1090.75218,-167.227703 C1089.65121,-167.16067 1088.74119,-166.642686 1088.49337,-165.93579 C1088.4893,-165.923602 1088.48321,-165.907352 1088.47712,-165.893133 L1078.21697,-166.496432 C1071.78584,-168.682121 1057.60933,-168.320548 1041.20651,-167.900067 L1041.00134,-167.896004 C1029.25631,-167.587245 1017.11517,-167.264267 1006.4833,-167.814752 C1005.90031,-167.847253 1005.33358,-167.753812 1004.85419,-167.552713 C1003.79587,-167.59537 1002.72944,-167.631934 1001.663,-167.660372 C1000.85047,-168.905565 998.453529,-169.086351 996.98083,-169.198074 C996.739104,-169.220418 996.497378,-169.226512 996.23737,-169.206199 C994.96577,-169.118852 993.929802,-168.582587 993.521509,-167.802564 C985.329237,-167.851315 977.317751,-167.678654 970.474268,-167.493805 C970.10457,-168.160074 969.123447,-168.621182 967.996071,-168.598837 C967.658873,-168.592743 967.32777,-168.592743 967.012917,-168.590712 L967.012917,-168.598837 C966.783379,-169.4723 965.576781,-170.071537 964.193459,-169.986222 C951.652152,-169.066038 937.916435,-168.493209 922.248943,-168.245389 C922.324102,-168.481021 922.326133,-168.732904 922.236755,-168.994943 C921.976748,-169.697776 921.078909,-170.21576 920.002315,-170.286856 C919.835747,-170.294981 919.642773,-170.294981 919.425423,-170.282793 C917.873502,-170.160914 915.832036,-169.996378 915.232799,-168.838532 C912.498656,-168.938066 910.835014,-168.950254 910.077335,-168.109291 C904.539985,-168.080853 898.821848,-168.078822 892.646666,-168.10726 C891.336471,-168.176325 890.068934,-168.30836 888.720144,-168.450552 C886.824932,-168.645557 884.679869,-168.871033 881.941664,-168.968536 L881.200235,-169.395111 C880.704596,-169.675431 880.07489,-169.856218 879.457372,-169.892781 C879.223771,-169.915126 878.986108,-169.915126 878.774852,-169.894813 C877.874981,-169.833873 877.062457,-169.529177 876.526192,-169.051819 L875.620228,-168.233201 C874.92552,-168.239295 874.236906,-168.235233 873.548292,-168.235233 C871.878555,-168.233201 870.153973,-168.23117 868.482205,-168.298203 C865.057417,-168.438364 861.648879,-168.546023 858.069711,-168.61915 C857.608604,-168.832438 857.080463,-168.96041 856.525916,-168.994943 C856.515759,-168.996974 856.367474,-168.999005 856.355286,-169.001036 C852.881746,-169.11479 849.511803,-169.259013 846.401868,-169.423549 C845.158706,-169.577928 843.084739,-169.795279 841.319531,-169.911063 C838.804769,-170.075599 837.858179,-169.982159 837.108626,-169.772934 C836.954246,-169.744496 836.115315,-169.669337 835.44092,-169.606367 C833.373047,-169.421518 832.647869,-169.342297 832.318797,-169.259013 L824.329656,-169.096508 C824.173245,-169.096508 820.581889,-169.104633 819.066532,-168.413988 L814.947036,-168.346955 C812.818223,-168.363205 810.730037,-168.326642 808.759667,-168.239295 L807.780575,-168.210857 C806.65523,-168.462739 805.43035,-168.704465 804.08156,-168.938066 C803.921087,-168.96041 803.762645,-168.982755 803.64686,-168.984786 C802.742927,-169.051819 801.784149,-168.844626 801.05694,-168.43227 C800.309418,-168.328673 798.259826,-168.131636 792.659505,-167.887879 C792.456374,-167.879753 792.267463,-167.851315 792.080582,-167.818814 L791.349311,-167.87366 C787.997649,-168.133667 784.193006,-168.43227 780.703216,-168.570399 C778.570341,-168.651651 776.80107,-168.864939 775.238993,-169.057913 C774.111616,-169.19198 773.045178,-169.321983 771.984835,-169.382923 C771.251532,-169.423549 769.823521,-168.934003 769.273036,-168.68009 C769.195846,-168.669933 769.106469,-168.655714 768.988653,-168.641495 C766.372326,-169.053851 763.221764,-169.13104 759.35415,-168.879158 C755.661229,-168.629307 751.726582,-168.115385 748.253043,-167.666466 C745.114669,-167.258173 741.20846,-166.748314 737.864924,-166.526901 C736.873645,-166.461899 735.96565,-166.423304 735.1125,-166.409085 C735.100312,-166.461899 735.084061,-166.512682 735.065779,-166.565496 C734.744833,-167.410521 733.513859,-167.965068 732.199601,-167.855378 C731.066131,-167.755844 729.936722,-167.664435 728.807314,-167.59537 C722.951048,-167.203327 717.214629,-167.203327 710.751002,-167.593339 C710.316301,-167.617715 709.881601,-167.631934 709.450963,-167.638028 C708.21999,-169.742465 704.11065,-170.057318 701.315568,-170.272636 C700.923525,-170.301075 700.515232,-170.301075 700.133345,-170.276699 C697.911093,-170.136539 696.084945,-169.122915 695.587274,-167.759906 C695.475552,-167.45521 695.436957,-167.144419 695.465396,-166.829566 C683.496918,-166.931132 669.206654,-166.977852 653.262904,-166.610185 C652.369128,-167.339425 650.126562,-167.822877 649.190128,-167.717249 C648.103377,-167.597401 647.101941,-167.505992 646.208165,-167.449116 C642.129295,-167.178952 638.940139,-167.221609 637.455251,-167.570994 C636.199902,-167.857409 634.639856,-168.216951 632.222597,-168.312422 C632.029623,-168.316485 631.83868,-168.30836 631.629455,-168.288047 L617.700764,-166.728001 C617.597167,-166.998165 617.408255,-167.248016 617.160435,-167.438959 C616.68714,-167.822877 615.982276,-168.046321 615.224597,-168.058509 C602.636571,-168.286015 590.245581,-168.113354 578.167413,-167.946787 C572.223801,-167.867566 563.810116,-167.172858 554.902822,-166.433461 C547.488542,-165.822037 539.826441,-165.190299 533.848297,-164.95873 C532.948426,-165.322334 531.839331,-165.525465 530.709923,-165.525465 C529.491137,-165.525465 528.323134,-165.29999 527.394825,-164.895759 L507.526585,-164.895759 C506.742499,-165.874851 505.261674,-166.54112 503.557405,-166.652842 C503.136924,-166.683312 502.74285,-166.681281 502.360964,-166.64878 C500.163087,-166.474087 496.892678,-166.218142 495.178253,-164.895759 L449.016738,-164.891697 C447.60904,-165.03592 446.428849,-165.149673 445.248658,-165.224832 C441.46636,-165.472651 438.360487,-165.397493 435.758379,-164.985137 C435.658845,-164.995294 435.571499,-165.00545 435.494309,-165.017638 C434.943824,-165.273583 433.540189,-165.759066 432.804855,-165.71844 C431.760762,-165.655469 430.704481,-165.527497 429.58726,-165.389368 C428.055653,-165.202487 426.320914,-164.987168 424.226634,-164.903885 C424.222571,-164.903885 424.041784,-164.895759 424.041784,-164.895759 L376.584294,-164.895759 C367.800911,-165.023732 358.251724,-165.117172 347.948921,-164.895759 L329.573692,-164.895759 C328.649447,-165.214675 328.334593,-165.297959 328.090836,-165.297959 C324.523856,-165.318272 321.879091,-165.115141 319.634494,-164.895759 L268.72784,-164.895759 C259.7332,-165.194362 251.524677,-165.627031 243.631008,-166.212048 C242.328938,-166.291269 241.173123,-165.738753 240.884677,-164.895759 L213.872319,-164.895759 C213.370586,-165.186237 212.753068,-165.369055 212.098986,-165.413743 C211.869448,-165.425931 211.625691,-165.4239 211.400215,-165.401556 C210.372373,-165.326397 209.206401,-165.216706 208.265904,-164.895759 L183.441268,-164.895759 C183.177198,-165.050139 182.884689,-165.165924 182.571867,-165.239051 C182.252952,-166.147046 181.263704,-166.823472 180.097732,-166.888474 L178.241115,-167.68881 L177.788133,-168.021945 C177.723131,-168.066634 177.652035,-168.105229 177.572814,-168.129605 C175.998549,-168.627275 174.986957,-168.68009 174.944299,-168.682121 C174.751325,-168.694309 174.560381,-168.637432 174.41819,-168.529773 C174.278029,-168.418051 174.196777,-168.267734 174.196777,-168.10726 L174.196777,-167.887879 C174.196777,-167.822877 174.215059,-167.753812 174.245528,-167.68881 C174.349125,-167.308955 174.649759,-166.971758 175.106804,-166.723938 L175.253058,-166.567527 L175.313997,-165.824068 L175.22462,-165.57828 C174.483192,-163.579471 173.841298,-161.852857 173.841298,-160.922518 C173.841298,-160.741731 173.865674,-160.58532 173.914425,-160.447191 C173.873799,-160.187183 173.84536,-159.917019 173.84536,-159.650918 C173.84536,-157.875553 175.171806,-157.288504 176.297151,-157.105686 C176.414967,-157.087405 176.534815,-157.075217 176.654662,-157.063029 C176.72982,-156.780677 176.809041,-156.514575 176.892325,-156.262693 C176.618098,-155.886901 176.404811,-155.464388 176.256525,-155.009375 C175.976204,-155.076408 175.669477,-155.119066 175.338373,-155.131253 C173.825047,-155.165786 172.748453,-154.556393 172.301565,-153.40464 C172.049683,-152.750558 172.455945,-152.051788 173.298938,-151.661776 C173.715357,-150.916286 174.885391,-150.469397 176.128553,-150.564869 C176.256525,-149.277019 176.323558,-147.995262 176.138709,-147.081173 C175.996517,-146.398653 175.758854,-145.884731 175.391187,-145.466282 C175.011332,-145.027519 174.94633,-144.489222 175.277434,-143.9753 C175.657289,-143.422784 176.004643,-140.178782 176.211836,-138.238881 C176.646537,-134.2047 177.095456,-130.036453 178.407682,-127.871076 C178.07861,-124.675826 177.916105,-121.460263 178.436121,-118.957689 L177.197022,-118.10657 C176.593723,-117.720621 176.349965,-117.084821 176.555128,-116.566837 L177.605315,-113.800194 C177.274211,-112.477811 177.115769,-110.899483 177.115769,-108.981927 L177.1178,-108.675199 C176.55919,-108.315657 176.27887,-107.815955 176.402779,-107.257345 C177.623597,-101.965783 177.674379,-99.822751 177.719068,-97.9234764 C177.761726,-96.2415519 177.802352,-94.6510364 178.588469,-91.29125 C178.021733,-90.9824909 177.688599,-90.5234149 177.688599,-90.0196501 C177.704849,-88.7236745 177.968919,-87.1656599 178.261428,-85.5507686 C178.584406,-83.7205585 178.927697,-81.5064309 178.722535,-80.4785881 C178.681909,-80.2937389 178.633158,-80.1454533 178.616907,-80.1048271 C178.553936,-80.0154495 178.503154,-79.9057588 178.492997,-79.8529447 C178.314242,-79.3593364 178.153768,-78.7601001 178.00142,-78.0227346 C177.07108,-73.4177554 177.006078,-65.0304773 176.934983,-55.3147227 C176.859824,-45.0667649 176.774509,-33.453767 175.588224,-24.227558 C175.586193,-24.2052136 175.578068,-24.0955229 175.578068,-24.0731785 C175.578068,-23.4475351 176.114333,-22.8909562 176.8842,-22.6248546 C176.823261,-22.2957825 176.762321,-21.9971799 176.715601,-21.7920176 L176.46575,-20.5508874 C175.913234,-17.8248697 175.811668,-16.4638921 176.049332,-15.3669848 C175.167743,-15.092758 174.580695,-14.5118034 174.580695,-13.7764693 L174.580695,-13.7683441 C174.722886,-12.2590809 174.791951,-10.7701308 174.791951,-9.20805363 C174.791951,-7.31081031 174.690385,-5.64310499 174.58882,-3.93477347 C174.503505,-2.57582724 174.412096,-1.1742235 174.412096,0.203004524 C174.412096,1.89508556 174.550225,3.35762859 174.844765,4.75923233 C174.422252,4.97251986 174.09318,5.26909108 173.881924,5.63878946 C173.796609,5.78098114 173.753952,5.92520414 173.73567,6.05317665 C173.122214,6.36396705 172.756578,6.83726222 172.756578,7.373528 C172.886582,15.8258079 174.970706,18.5680761 178.320336,19.9148345 C177.589064,23.0796151 177.534219,25.0662361 178.098923,27.2702072 C177.481405,27.570841 177.109675,28.0339796 177.095456,28.547901 C177.089362,28.7815016 177.073112,29.0760416 177.05483,29.4254268 L177.006078,30.4227999 C176.770447,35.0562175 176.656693,38.7064812 176.656693,41.5787532 C176.656693,47.6381502 177.182802,49.5272683 177.788133,50.4454203 C177.550469,51.8287423 177.771882,54.6380437 178.035952,55.8182346 C177.694692,59.7244433 178.679878,62.909537 180.981352,65.3389835 L180.981352,82.7452769 C180.859473,83.0174724 180.843223,83.3282628 180.824941,83.7060864 C180.798534,84.287041 180.759939,85.0812831 180.274456,86.0684997 C180.189141,86.2452236 180.211485,86.4422607 180.337426,86.6007029 C180.355708,86.6250786 180.414616,86.7083623 180.522276,86.9480568 C180.696968,87.3197865 180.824941,87.6549526 180.952913,87.9860561 L180.981352,93.1618334 L180.908225,93.2390232 C180.345552,93.8382596 179.646781,94.5817189 179.38068,95.9386339 C179.260832,96.4423987 179.788973,96.9603827 180.487743,97.0497603 C180.656342,97.074136 180.82291,97.0761673 180.981352,97.0578855 L180.981352,109.8592 C180.644154,109.670288 180.225704,109.536221 179.752409,109.477313 C178.519404,109.324965 177.312806,109.717008 176.815135,110.438123 C175.771042,112.006294 175.626819,112.865538 175.626819,113.58259 L175.626819,113.592747 L175.62885,113.83041 C175.62885,113.976665 175.620725,114.135107 175.574005,114.352457 C175.448064,114.976069 175.102741,115.839376 174.519755,116.997222 C174.137869,117.775214 174.726949,118.650708 175.797449,119.004156 C175.913234,119.538391 176.136678,120.153878 176.370278,120.797803 C176.731852,121.791113 177.140145,122.914428 177.140145,123.763515 L177.134051,125.366218 C177.134051,127.935825 177.199053,129.355711 177.743444,130.202767 C177.495624,130.901538 177.30265,131.608433 177.156395,132.353924 C176.932951,133.458957 176.819198,134.523363 176.701382,135.689335 L176.672944,135.953405 C176.551065,137.078751 176.423093,138.242691 176.165116,139.506166 C175.917296,140.718858 175.590256,141.87061 175.16368,143.030488 C174.921955,143.694726 175.336342,144.403654 176.187461,144.791634 C176.173241,145.09633 176.156991,145.443684 176.128553,145.896666 C176.128553,146.12011 176.195586,146.343554 176.284963,146.481683 C176.321527,146.564967 176.410905,146.930603 176.510439,147.458743 L176.557159,147.674062 C176.634349,148.041729 176.703413,148.350488 176.735914,148.421584 L178.423933,154.162066 C178.555968,154.608954 178.945979,154.986777 179.514746,155.230535 C179.636625,156.613857 179.756472,157.859049 179.906789,158.890955 C179.354273,159.169244 178.954105,159.603945 178.71441,160.193024 C178.616907,160.424594 178.600657,160.674445 178.665659,160.910077 L179.663032,164.629405 C179.433494,164.592841 179.191768,164.576591 178.945979,164.578622 C177.52,164.588779 176.392623,165.307862 176.376372,166.223983 L176.297151,173.339661 C175.722291,176.16115 175.378999,179.63469 175.378999,182.626809 C175.378999,184.357485 175.492753,185.887062 175.714165,187.170849 C175.602443,188.580578 175.795418,190.219845 176.280901,192.379128 C176.242306,192.492881 176.224024,192.60054 176.224024,192.714294 C176.224024,192.726482 176.230118,192.823985 176.230118,192.836172 L177.103581,203.350232 C176.902482,203.587895 176.792791,203.858059 176.788728,204.13838 C176.711539,207.902397 176.967484,211.631882 177.245773,215.607155 L177.278274,216.060137 C177.528125,219.655555 177.788133,223.372852 177.788133,227.120619 C177.788133,231.80685 177.389996,235.782123 176.557159,239.552234 C176.520595,239.649737 176.504345,239.745209 176.504345,239.856931 C176.504345,239.873181 176.508408,239.960528 176.510439,239.976778 L176.567316,240.541482 C176.831386,242.987179 177.10155,245.51616 177.10155,248.790631 C177.10155,250.218642 177.050767,251.666966 176.94717,253.214824 L176.063551,254.01516 C175.6126,252.871533 174.978831,251.821345 173.500038,251.888379 C172.197968,251.935099 171.312317,253.058413 170.877617,255.185194 C170.861366,255.227852 170.824803,255.278635 170.788239,255.341605 C170.613547,255.62802 170.323069,256.107409 170.323069,256.726958 C170.323069,256.923996 170.351508,257.123064 170.408384,257.309944 C170.424635,257.383072 170.430729,257.517138 170.440885,257.67558 C170.493699,258.51248 170.554639,258.937024 170.849179,259.158436 C170.889805,259.209219 170.918243,259.286409 170.960901,259.375786 C171.11528,259.698765 171.346849,260.18831 171.915616,260.722545 C172.701733,261.461942 173.871767,263.373404 173.871767,263.793885 C173.595509,267.624935 174.540068,269.577024 175.208369,270.962377 C175.293684,271.143164 175.378999,271.315825 175.456189,271.484424 C174.980863,272.353825 174.617258,273.444638 174.343031,274.801553 C173.926613,276.861301 173.723482,279.550755 173.723482,283.022263 C173.723482,286.071259 173.87583,289.361981 174.009897,292.264723 C174.135838,295.120744 174.253654,297.816292 174.253654,300.172612 C174.253654,301.413742 174.221153,302.44971 174.148026,303.428801 C174.148026,304.13976 174.834608,304.757278 175.880733,304.999004 L175.880733,305.198072 C175.880733,310.497759 176.337778,315.726351 176.981703,322.521082 C177.02436,323.114224 177.546407,323.636271 178.395494,323.922686 C178.527529,323.963312 178.659565,323.997844 178.7916,324.024251 C178.858633,324.755523 178.891134,325.549765 178.891134,326.439478 C178.891134,329.082212 178.602688,332.068238 178.289866,335.287864 L178.267522,335.519433 C178.056266,337.71731 177.836884,339.982221 177.704849,342.277601 C177.625628,342.389323 177.56672,342.511201 177.524062,342.645268 C177.314838,343.352164 177.125926,344.111873 176.96139,344.904084 C176.551065,346.943519 176.351997,349.114989 176.351997,351.540373 C176.351997,355.21095 176.809041,358.885589 177.251867,362.43835 C177.680473,365.920015 178.086735,369.206674 178.086735,372.36333 C178.086735,374.595739 177.881573,376.541734 177.454998,378.331318 C177.42656,378.461322 177.422497,378.546637 177.454998,378.804613 C177.810477,380.466224 177.879542,381.912517 177.658129,383.551784 C177.463123,383.767103 177.34937,384.021016 177.3189,384.301337 C177.310775,384.443529 177.308744,384.618221 177.306712,384.813227 L177.306712,385.006202 L177.3189,385.296679 L177.10155,386.224987 C176.924826,386.968447 176.742008,387.736282 176.581535,388.532555 L176.492157,388.975381 C176.488094,389.003819 176.473875,389.14398 176.473875,389.172418 C176.473875,389.720872 176.869981,390.216511 177.53625,390.529333 L177.605315,391.343888 L177.493593,391.648585 C176.764353,393.612861 176.134647,395.309005 176.134647,396.233251 C176.134647,396.4181 176.161054,396.578573 176.211836,396.716702 C176.169179,396.980773 176.136678,397.252968 176.136678,397.523132 C176.136678,399.296466 177.467186,399.881483 178.584406,400.058207 C178.706285,400.076489 178.826132,400.088677 178.943948,400.098833 C179.021138,400.381185 179.10239,400.651349 179.17958,400.903232 C178.905353,401.281055 178.698159,401.697474 178.547843,402.160613 C178.269553,402.091548 177.966888,402.050922 177.629691,402.038734 C176.110271,401.994045 175.031645,402.605469 174.590851,403.763316 C174.343031,404.417398 174.749293,405.1182 175.594318,405.512274 C176.014799,406.249639 177.182802,406.692465 178.417839,406.596993 C178.535655,407.834061 178.616907,409.156443 178.423933,410.088815 C178.293929,410.744928 178.050172,411.271037 177.678442,411.701675 C177.290462,412.156688 177.264055,412.751862 177.568751,413.178437 C177.944544,413.743141 178.277678,416.865264 178.511279,419.024546 C178.948011,423.022164 179.400993,427.153848 180.692906,429.300942 C180.54462,430.789892 180.365865,432.605883 180.365865,434.346716 C180.365865,435.782852 180.485712,437.05242 180.727438,438.21433 L179.470057,439.061386 C179.073952,439.327487 178.905353,439.680935 178.852539,440.052665 L178.241115,439.788595 L177.788133,439.45546 C177.723131,439.410771 177.652035,439.372176 177.572814,439.349832 C175.998549,438.85013 174.986957,438.797316 174.944299,438.795284 C174.751325,438.783096 174.560381,438.842004 174.41819,438.947632 C174.278029,439.059355 174.196777,439.211703 174.196777,439.370145 L174.196777,439.591558 C174.196777,439.65656 174.215059,439.725624 174.245528,439.788595 C174.349125,440.16845 174.649759,440.505647 175.106804,440.755498 L175.253058,440.909878 L175.313997,441.653337 L175.22462,441.901157 C174.483192,443.899966 173.841298,445.626579 173.841298,446.554888 C173.841298,446.735674 173.865674,446.894116 173.914425,447.032245 C173.873799,447.292253 173.84536,447.560386 173.84536,447.828519 C173.84536,449.601852 175.171806,450.188901 176.297151,450.371719 C176.414967,450.39 176.534815,450.40422 176.654662,450.414376 C176.72982,450.696728 176.809041,450.964861 176.892325,451.214712 C176.618098,451.590504 176.404811,452.013017 176.256525,452.470062 C175.976204,452.400997 175.669477,452.35834 175.338373,452.348183 C173.825047,452.311619 172.748453,452.921012 172.301565,454.072765 C172.049683,454.726847 172.455945,455.425617 173.298938,455.81766 C173.715357,456.563151 174.885391,457.010039 176.128553,456.914567 C176.256525,458.202418 176.323558,459.482143 176.138709,460.396232 C175.996517,461.080784 175.758854,461.594705 175.391187,462.011124 C175.011332,462.449886 174.94633,462.988184 175.277434,463.502105 C175.657289,464.056652 176.004643,467.298623 176.211836,469.238524 C176.646537,473.272705 177.095456,477.440953 178.407682,479.60836 C178.07861,482.801579 177.916105,486.019174 178.436121,488.519716 L177.197022,489.372866 C176.593723,489.756784 176.349965,490.392584 176.555128,490.912599 L177.605315,493.679243 C177.274211,494.999594 177.115769,496.579953 177.115769,498.49751 L177.1178,498.804237 C176.55919,499.161748 176.27887,499.66145 176.402779,500.22006 C177.623597,505.511622 177.674379,507.656685 177.719068,509.55596 C177.761726,511.237884 177.802352,512.8284 178.588469,516.186155 C178.021733,516.494914 177.688599,516.956021 177.688599,517.457755 C177.704849,518.755762 177.968919,520.311745 178.261428,521.926636 C178.584406,523.756847 178.927697,525.970974 178.722535,527.000848 C178.681909,527.185697 178.633158,527.331952 178.616907,527.374609 C178.553936,527.461956 178.503154,527.571646 178.492997,527.62446 C178.314242,528.1201 178.153768,528.717305 178.00142,529.456702 C177.07108,534.05965 177.006078,542.446928 176.934983,552.162682 C176.859824,562.41064 176.774509,574.023638 175.588224,583.249847 C175.586193,583.272191 175.578068,583.383913 175.578068,583.406258 C175.578068,584.02987 176.114333,584.586449 176.8842,584.85255 C176.823261,585.181623 176.762321,585.480225 176.715601,585.685387 L176.46575,586.926518 C175.913234,589.652535 175.811668,591.015544 176.049332,592.11042 C175.167743,592.384647 174.580695,592.965602 174.580695,593.700936 L174.580695,593.711092 C174.722886,595.218324 174.791951,596.709306 174.791951,598.269351 C174.791951,600.166595 174.690385,601.836331 174.58882,603.544663 C174.503505,604.903609 174.412096,606.305213 174.412096,607.68041 C174.412096,609.374522 174.550225,610.835034 174.844765,612.236637 C174.422252,612.449925 174.09318,612.748527 173.881924,613.116195 C173.796609,613.260418 173.753952,613.404641 173.73567,613.530582 C173.122214,613.841372 172.756578,614.316699 172.756578,614.852964 C172.886582,623.305244 174.970706,626.047513 178.320336,627.39224 C177.589064,630.55702 177.534219,632.543641 178.098923,634.747612 C177.481405,635.048246 177.109675,635.511385 177.095456,636.025306 C177.089362,636.258907 177.073112,636.553447 177.05483,636.902832 L177.006078,637.900205 C176.770447,642.533623 176.656693,646.185918 176.656693,649.056158 C176.656693,655.115555 177.182802,657.004673 177.788133,657.922825 C177.550469,659.306147 177.771882,662.115449 178.035952,663.297671 C177.694692,667.201848 178.679878,670.386942 180.981352,672.816389 L180.981352,690.224713 C180.859473,690.494877 180.843223,690.805668 180.824941,691.183492 C180.798534,691.764446 180.759939,692.558688 180.274456,693.545905 C180.189141,693.722629 180.211485,693.919666 180.337426,694.078108 C180.355708,694.102484 180.414616,694.187799 180.522276,694.425462 C180.696968,694.797192 180.824941,695.132358 180.952913,695.463461 L180.981352,700.639238 L180.908225,700.71846 C180.345552,701.315665 179.646781,702.059124 179.38068,703.416039 C179.260832,703.919804 179.788973,704.439819 180.487743,704.527165 C180.656342,704.551541 180.82291,704.555604 180.981352,704.537322 L180.981352,717.338636 C180.644154,717.147693 180.225704,717.015658 179.752409,716.954719 C178.519404,716.804402 177.312806,717.194413 176.815135,717.915528 C175.771042,719.483699 175.626819,720.342943 175.626819,721.059996 L175.626819,721.070152 L175.62885,721.307815 C175.62885,721.45407 175.620725,721.612512 175.574005,721.829862 C175.448064,722.453474 175.102741,723.316781 174.519755,724.474627 C174.137869,725.252619 174.726949,726.128113 175.797449,726.481561 C175.913234,727.015796 176.136678,727.631283 176.370278,728.277239 C176.731852,729.268518 177.140145,730.391833 177.140145,731.24092 L177.134051,732.845655 C177.134051,735.41323 177.199053,736.833116 177.743444,737.680172 C177.654066,737.932054 177.607346,738.200187 177.532188,738.454101 C175.98433,738.027526 174.986957,737.980806 174.944299,737.978775 C174.751325,737.968618 174.560381,738.019401 174.41819,738.112841 C174.278029,738.210344 174.196777,738.342379 174.196777,738.484571 L174.196777,738.677545 C174.196777,738.734422 174.215059,738.795361 174.245528,738.850207 C174.349125,739.185373 174.649759,739.479913 175.106804,739.699294 L175.253058,739.835392 L175.313997,740.487442 L175.22462,740.704792 C174.483192,742.461875 173.841298,743.977232 173.841298,744.793819 C173.841298,744.952261 173.865674,745.09039 173.914425,745.212269 C173.873799,745.439775 173.84536,745.677439 173.84536,745.911039 C173.84536,747.272017 174.856953,747.818439 175.862451,748.045946 C175.708072,748.661433 175.545567,749.27692 175.340404,749.88225 L175.338373,749.880219 C173.825047,749.849749 172.748453,750.386015 172.301565,751.397607 C172.049683,751.970436 172.455945,752.585923 173.298938,752.929215 C173.715357,753.583296 174.885391,753.975339 176.128553,753.892055 C176.256525,755.023495 176.323558,756.14884 176.138709,756.951208 C175.996517,757.550444 175.758854,758.001395 175.391187,758.369062 C175.011332,758.755011 174.94633,759.226275 175.277434,759.679257 C175.657289,760.16474 176.004643,763.012636 176.211836,764.716905 C176.551065,767.481518 176.912638,770.288788 177.672348,772.305878 C176.916701,772.590262 176.386529,773.091995 176.376372,773.703419 L176.297151,780.817066 C175.722291,783.640587 175.378999,787.112095 175.378999,790.104215 C175.378999,791.83489 175.492753,793.364467 175.714165,794.648255 C175.602443,796.057983 175.795418,797.69725 176.280901,799.856533 C176.242306,799.970286 176.224024,800.079977 176.224024,800.191699 C176.224024,800.203887 176.230118,800.30139 176.230118,800.315609 L177.103581,810.829668 C176.902482,811.0653 176.792791,811.335464 176.788728,811.615785 C176.711539,815.379802 176.967484,819.111318 177.245773,823.086591 L177.27218,823.464415 C177.022329,827.356404 176.979671,832.225454 176.934983,837.549517 C176.912638,840.153656 176.882169,842.859361 176.831386,845.585378 C176.739977,846.066799 176.662787,846.556344 176.557159,847.031671 C176.520595,847.127142 176.504345,847.222614 176.504345,847.334336 C176.504345,847.350586 176.508408,847.437933 176.510439,847.454183 L176.567316,848.018887 C176.622161,848.526715 176.677006,849.044699 176.72982,849.566745 C176.60591,853.633428 176.366216,857.584325 175.976204,861.303653 C175.529316,860.241278 174.893516,859.304844 173.500038,859.365784 C172.197968,859.414535 171.312317,860.535818 170.877617,862.662599 C170.861366,862.705257 170.824803,862.75604 170.788239,862.81901 C170.613547,863.105425 170.323069,863.586845 170.323069,864.204364 C170.323069,864.403432 170.351508,864.6025 170.408384,864.787349 C170.424635,864.860477 170.430729,864.994543 170.440885,865.152985 C170.493699,865.989885 170.554639,866.414429 170.849179,866.635841 C170.889805,866.688655 170.918243,866.765845 170.960901,866.853191 C171.11528,867.178201 171.346849,867.667747 171.915616,868.19995 C172.701733,868.939347 173.871767,870.85284 173.871767,871.273322 C173.654417,874.293879 174.194746,876.128152 174.75945,877.454597 C174.763512,877.655697 174.791951,877.842577 174.791951,878.045708 C174.791951,879.063395 174.749293,880.00186 174.698511,880.922043 C174.570538,881.352681 174.444597,881.779256 174.343031,882.280989 C173.926613,884.340737 173.723482,887.02816 173.723482,890.499668 C173.723482,890.802334 173.739732,891.123281 173.741764,891.430008 C173.741764,891.436102 173.73567,891.444228 173.73567,891.450321 C173.122214,891.722517 172.756578,892.138935 172.756578,892.610199 C172.813455,895.856232 173.264406,898.104892 174.009897,899.750253 C174.133806,902.602212 174.253654,905.29776 174.253654,907.652048 C174.253654,908.893178 174.221153,909.927115 174.148026,910.908238 C174.148026,911.617165 174.834608,912.234683 175.880733,912.476409 L175.880733,912.677509 C175.880733,917.977196 176.337778,923.203756 176.981703,930.000518 C177.010141,930.398655 177.3189,930.733821 177.735319,931.018204 C177.627659,932.318243 177.806414,934.258143 178.035952,935.158014 C177.86126,936.900878 178.037984,938.477174 178.549874,939.888934 C178.464559,940.839587 178.387369,941.767896 178.289866,942.765269 L178.267522,942.998869 C178.056266,945.194715 177.836884,947.461657 177.704849,949.757037 C177.625628,949.868759 177.56672,949.988606 177.524062,950.122673 C177.314838,950.8316 177.125926,951.59131 176.96139,952.381489 C176.551065,954.420924 176.351997,956.592394 176.351997,959.017778 C176.351997,962.688355 176.809041,966.362994 177.251867,969.915755 C177.680473,973.39742 178.086735,976.684079 178.086735,979.842766 C178.086735,980.762949 178.029859,981.610005 177.958763,982.442842 C177.465154,982.593159 177.05483,982.82676 176.815135,983.131456 C175.771042,984.508685 175.626819,985.2623 175.626819,985.894038 L175.626819,985.900132 L175.62885,986.109357 C175.62885,986.23936 175.620725,986.37749 175.574005,986.568433 C175.448064,987.116886 175.102741,987.874565 174.519755,988.892251 C174.137869,989.574771 174.726949,990.342606 175.797449,990.653397 C175.913234,991.122629 176.136678,991.664989 176.370278,992.229693 C176.632317,992.86143 176.865918,993.5277 177.002016,994.145218 C176.857793,994.75258 176.711539,995.366035 176.581535,996.011992 L176.492157,996.454817 C176.488094,996.481224 176.473875,996.621385 176.473875,996.649823 C176.473875,997.06421 176.756227,997.419689 177.152333,997.716261 C177.176708,998.465814 177.24171,999.032549 177.353432,999.509907 C176.687163,1001.30558 176.134647,1002.84938 176.134647,1003.71066 C176.134647,1003.8955 176.161054,1004.05598 176.211836,1004.19614 C176.169179,1004.45818 176.136678,1004.73037 176.136678,1005.00054 C176.136678,1005.58149 176.311371,1005.99791 176.540909,1006.35136 C176.443406,1007.09888 176.356059,1007.84031 176.165116,1008.66299 C176.065582,1009.0916 175.888858,1009.49176 175.760886,1009.90818 C175.222588,1010.19866 174.818358,1010.64555 174.590851,1011.24275 C174.343031,1011.8948 174.749293,1012.59764 175.594318,1012.98968 C175.720259,1013.21109 175.929484,1013.39391 176.17121,1013.55641 C176.161054,1013.77173 176.148866,1013.97893 176.128553,1014.2755 C176.128553,1014.4705 176.195586,1014.66754 176.284963,1014.78942 C176.321527,1014.86052 176.410905,1015.18349 176.510439,1015.64663 L176.557159,1015.83554 C176.634349,1016.15852 176.703413,1016.43072 176.735914,1016.49166 L177.654066,1019.23799 C177.308744,1019.68488 177.276243,1020.24755 177.568751,1020.65584 C177.944544,1021.22055 178.277678,1024.3447 178.511279,1026.50195 C178.665659,1027.92184 178.83832,1029.32953 179.033326,1030.68848 C179.004887,1030.68848 178.976449,1030.68239 178.945979,1030.68239 C177.52,1030.69051 176.392623,1031.32428 176.376372,1032.12868 L176.297151,1038.37902 C175.722291,1040.85722 175.378999,1043.90621 175.378999,1046.53473 C175.378999,1048.05415 175.492753,1049.39684 175.714165,1050.52625 C175.602443,1051.76332 175.795418,1053.20352 176.280901,1055.10076 C176.242306,1055.2003 176.224024,1055.29577 176.224024,1055.39327 C176.224024,1055.40546 176.230118,1055.49077 176.230118,1055.50296 L177.103581,1064.7373 C176.902482,1064.94449 176.792791,1065.18215 176.788728,1065.42794 C176.711539,1068.73491 176.967484,1072.01142 177.245773,1075.50121 L177.278274,1075.89934 C177.528125,1079.056 177.788133,1082.32234 177.788133,1085.6151 C177.788133,1089.73053 177.389996,1093.22032 176.557159,1096.53339 C176.520595,1096.61667 176.504345,1096.70199 176.504345,1096.79949 C176.504345,1096.81371 176.508408,1096.8909 176.510439,1096.90512 L176.567316,1097.40076 C176.831386,1099.54785 177.10155,1101.7701 177.10155,1104.64644 C177.10155,1105.90179 177.050767,1107.17339 176.94717,1108.53233 L176.063551,1109.23517 C175.6126,1108.2317 174.978831,1107.30949 173.500038,1107.36636 C172.197968,1107.40902 171.312317,1108.3942 170.877617,1110.26301 C170.861366,1110.29957 170.824803,1110.34426 170.788239,1110.39911 C170.613547,1110.65099 170.323069,1111.0735 170.323069,1111.61586 C170.323069,1111.79055 170.351508,1111.96525 170.408384,1112.12775 C170.424635,1112.19275 170.430729,1112.3126 170.440885,1112.45073 C170.493699,1113.18606 170.554639,1113.55779 170.849179,1113.7528 C170.889805,1113.79749 170.918243,1113.86655 170.960901,1113.94374 C171.11528,1114.22813 171.346849,1114.65876 171.915616,1115.12597 C172.701733,1115.77598 173.871767,1117.45588 173.871767,1117.82354 C173.595509,1121.18942 174.540068,1122.90385 175.208369,1124.1206 C175.293684,1124.27905 175.378999,1124.4314 175.456189,1124.57765 C174.980863,1125.34345 174.617258,1126.3002 174.343031,1127.49258 C173.926613,1129.30248 173.723482,1131.66286 173.723482,1134.71185 C173.723482,1137.38912 173.87583,1140.28171 174.009897,1142.831 C174.135838,1145.33764 174.253654,1147.70614 174.253654,1149.77605 C174.253654,1150.86686 174.221153,1151.77486 174.148026,1152.63613 C174.148026,1153.25974 174.834608,1153.8021 175.880733,1154.01539 L175.880733,1154.19008 C175.880733,1158.84585 176.337778,1163.43661 176.981703,1169.40459 C177.02436,1169.92664 177.546407,1170.38368 178.395494,1170.63557 C178.527529,1170.6701 178.659565,1170.70057 178.7916,1170.72494 C178.858633,1171.36684 178.891134,1172.06358 178.891134,1172.84563 C178.891134,1175.16742 178.602688,1177.78984 178.289866,1180.61742 L178.267522,1180.82055 C178.056266,1182.7503 177.836884,1184.74098 177.704849,1186.75807 C177.625628,1186.85558 177.56672,1186.9612 177.524062,1187.07902 C177.314838,1187.7006 177.125926,1188.3689 176.96139,1189.06361 C176.551065,1190.85522 176.351997,1192.76262 176.351997,1194.89144 C176.351997,1198.11513 176.809041,1201.34288 177.251867,1204.46297 C177.680473,1207.52212 178.086735,1210.40861 178.086735,1213.18135 C178.086735,1215.14156 177.881573,1216.85193 177.454998,1218.42213 C177.42656,1218.53791 177.422497,1218.61104 177.454998,1218.83855 C177.810477,1220.29703 177.879542,1221.56863 177.658129,1223.0068 C177.463123,1223.19571 177.34937,1223.42118 177.3189,1223.66697 C177.310775,1223.79088 177.308744,1223.94323 177.306712,1224.11589 L177.306712,1224.28652 L177.3189,1224.54043 L177.10155,1225.35702 C176.924826,1226.00907 176.742008,1226.68347 176.581535,1227.38224 L176.492157,1227.77225 C176.488094,1227.79662 176.473875,1227.9185 176.473875,1227.94288 C176.473875,1228.42633 176.869981,1228.86306 177.53625,1229.13526 L177.605315,1229.85231 L177.493593,1230.11841 C176.764353,1231.84502 176.134647,1233.33397 176.134647,1234.1465 C176.134647,1234.30697 176.161054,1234.44916 176.211836,1234.57104 C176.169179,1234.80261 176.136678,1235.04027 176.136678,1235.27794 C176.136678,1236.83595 177.467186,1237.34987 178.584406,1237.50425 C178.706285,1237.5205 178.826132,1237.53269 178.943948,1237.54285 C179.021138,1237.79067 179.10239,1238.0263 179.17958,1238.24771 C178.905353,1238.58085 178.698159,1238.94445 178.547843,1239.35071 C178.269553,1239.29181 177.966888,1239.25524 177.629691,1239.24509 C176.110271,1239.20446 175.031645,1239.74276 174.590851,1240.76044 C174.343031,1241.33327 174.749293,1241.95079 175.594318,1242.29611 C176.014799,1242.94207 177.182802,1243.33208 178.417839,1243.2488 C178.535655,1244.33555 178.616907,1245.49746 178.423933,1246.31608 C178.293929,1246.89094 178.050172,1247.35407 177.678442,1247.7319 C177.290462,1248.13207 177.264055,1248.65411 177.568751,1249.02787 C177.944544,1249.52554 178.277678,1252.26781 178.511279,1254.16302 C178.948011,1257.67516 179.400993,1261.30308 180.692906,1263.18813 C180.54462,1264.4963 180.365865,1266.09291 180.365865,1267.62045 C180.365865,1268.88393 180.485712,1269.99708 180.727438,1271.0168 L179.470057,1271.76229 C178.876915,1272.11168 178.633158,1272.61544 178.846445,1273.12124 L179.896632,1275.5385 C179.563497,1276.7065 179.403024,1278.10404 179.403024,1279.80628 L179.403024,1280.04597 C178.856602,1280.36083 178.564093,1280.75287 178.692066,1281.28914 C179.910851,1285.94693 179.961634,1287.82792 180.010386,1289.52203 C180.057106,1291.00286 180.101795,1292.40446 180.879786,1295.31127 C180.317113,1295.58143 179.981947,1295.98363 179.981947,1296.42646 C179.994135,1297.60868 180.276487,1299.00419 180.566964,1300.44236 C180.725407,1301.24269 180.88588,1302.04709 180.981352,1302.74383 L180.99354,1304.84623 C180.940725,1305.05749 180.887911,1305.16109 180.847285,1305.22609 C180.835097,1305.24843 180.782283,1305.34594 180.772127,1305.37031 C180.577121,1305.8822 180.416648,1306.4205 180.294769,1306.96489 C179.921008,1308.57978 179.667094,1310.77969 179.494433,1313.88556 C179.484276,1314.05619 179.579748,1314.19432 179.746315,1314.29589 C179.914914,1314.39542 180.138358,1314.43605 180.349614,1314.40355 L187.548576,1313.26398 C198.694373,1312.94913 210.792854,1313.05882 224.313252,1313.22132 L224.526539,1313.22336 C236.470641,1313.36758 248.825067,1313.51586 261.368404,1313.3168 C262.126083,1313.30664 262.83501,1313.1096 263.296117,1312.78256 C263.554094,1312.6099 263.743006,1312.38849 263.846602,1312.14879 L277.791544,1313.51993 C277.982487,1313.53618 278.171399,1313.54227 278.378592,1313.53821 C280.781632,1313.45696 282.280738,1313.15429 283.605152,1312.88819 C285.081915,1312.58349 288.271071,1312.5449 292.360098,1312.78256 C293.249811,1312.83334 294.253278,1312.91257 295.337998,1313.02023 C296.276463,1313.11163 298.512935,1312.68506 299.410774,1312.0452 C315.334211,1312.36411 329.6326,1312.32552 341.615297,1312.23817 C341.584827,1312.51037 341.623422,1312.78866 341.735144,1313.05476 C342.232815,1314.2512 344.060994,1315.14294 346.277153,1315.26482 C346.663102,1315.28717 347.075457,1315.28717 347.481719,1315.26076 C350.256488,1315.07388 354.369891,1314.79762 355.598833,1312.94913 C356.031502,1312.941 356.464171,1312.93085 356.898871,1312.9085 C363.362499,1312.56724 369.100949,1312.56724 374.961278,1312.91257 C376.084592,1312.97147 377.216032,1313.05273 378.351534,1313.14007 C379.661729,1313.23554 380.890671,1312.74803 381.219743,1311.99645 C381.235994,1311.95582 381.250213,1311.91316 381.260369,1311.8705 C382.11352,1311.88269 383.023546,1311.91519 384.012794,1311.97613 C387.299453,1312.16301 391.073627,1312.59365 394.400912,1312.97351 C397.689603,1313.3493 401.784723,1313.81853 405.504052,1314.03994 C409.36354,1314.25932 412.518164,1314.19229 415.140585,1313.83072 C415.236057,1313.84087 415.323403,1313.85306 415.422937,1313.86525 C415.977485,1314.08869 417.401433,1314.5173 418.136767,1314.48074 C419.193048,1314.42589 420.259486,1314.31214 421.390925,1314.19432 C422.950971,1314.02775 424.718211,1313.83884 426.853117,1313.76775 C430.37744,1313.64587 434.220678,1313.37977 437.610934,1313.1482 C439.272545,1313.03241 440.858998,1312.92475 442.303259,1312.83741 C446.711201,1313.2843 450.946482,1313.39805 454.887223,1313.47524 C456.900251,1313.55243 458.988438,1313.58493 461.076624,1313.57071 L468.253242,1313.67837 C483.386499,1313.914 497.682857,1314.13745 514.630075,1313.53008 C516.299811,1313.46914 518.024393,1313.47118 519.69413,1313.47321 C520.445715,1313.47321 521.197299,1313.47524 521.950915,1313.47118 L522.125608,1313.52399 C523.840033,1314.06635 524.258483,1314.15776 524.544898,1314.15979 C525.853061,1314.16792 527.104348,1314.15166 528.355635,1314.10698 C528.438919,1314.16385 528.542515,1314.20854 528.656269,1314.23089 C528.920339,1314.2837 529.204722,1314.22073 529.381446,1314.07041 L529.383478,1314.06838 C531.516353,1313.96885 533.291718,1313.80634 534.868014,1313.66212 C536.214772,1313.53618 537.486372,1313.42039 538.751878,1313.36149 C560.165946,1313.27414 585.419189,1313.40211 610.353516,1315.01294 C611.712463,1315.08404 612.910935,1314.56808 613.160786,1313.78603 C613.475639,1313.78603 613.800649,1313.78806 614.139878,1313.79212 C615.27538,1313.81244 616.264628,1313.40211 616.62417,1312.82116 C623.514372,1312.98366 631.556328,1313.13601 639.667348,1313.09335 C640.065484,1313.77181 641.105515,1314.24917 642.387271,1314.32636 C642.63306,1314.34058 642.872754,1314.34058 643.106355,1314.32026 C644.597336,1314.22073 647.000376,1314.05822 647.810868,1312.96741 C648.881369,1312.941 649.943744,1312.91053 651.002056,1312.87194 C651.481445,1313.05273 652.048181,1313.13195 652.627104,1313.10351 C663.252885,1312.62006 675.400118,1312.90241 687.151245,1313.1746 L687.34625,1313.17867 C703.755171,1313.54837 717.935744,1313.86728 724.36484,1311.94769 L734.627017,1311.41752 C734.629048,1311.42971 734.635142,1311.44393 734.641236,1311.45612 C734.891087,1312.07567 735.801114,1312.53068 736.861457,1312.58553 C737.060526,1312.60381 737.269751,1312.60381 737.464756,1312.58756 C739.244184,1312.47177 741.663474,1312.31333 741.893012,1310.89141 C742.051454,1310.83657 742.199739,1310.77157 742.335837,1310.69844 L746.912378,1310.69844 C747.824436,1310.95641 749.05541,1311.02954 750.251851,1311.09861 C752.102375,1311.20423 753.394288,1311.18798 755.175746,1311.16564 C756.258434,1311.15345 757.513784,1311.1372 759.185552,1311.14533 C760.444964,1311.15142 761.537808,1311.14939 762.512837,1311.14736 C764.663994,1311.14126 766.213883,1311.1372 767.71299,1311.22658 C767.964872,1311.2408 768.576297,1311.24892 769.116625,1311.25299 C769.368508,1311.25502 769.604139,1311.25705 769.764613,1311.25908 C770.258221,1311.5069 770.997618,1311.72425 771.643574,1311.72222 C782.466393,1311.64706 793.153114,1311.8766 803.488418,1312.10004 C811.172863,1312.26661 819.115284,1312.43927 826.990672,1312.4799 C829.371367,1312.49208 831.967381,1312.31942 834.474017,1312.15082 C836.925808,1311.98426 839.458851,1311.81363 841.725793,1311.82582 C844.799164,1311.84613 848.065511,1311.74456 851.226229,1311.64503 L852.077347,1311.61862 C853.422074,1311.87254 854.856179,1311.98426 856.200906,1312.0777 C856.59498,1312.10817 856.991086,1312.1102 857.40141,1312.08379 C858.33175,1312.03098 859.221464,1311.81769 859.989299,1311.47034 C865.236172,1311.49674 870.332728,1311.61862 875.256623,1311.73441 C880.111453,1311.85222 885.108475,1311.97004 890.182687,1311.99441 C890.085184,1312.04113 889.989713,1312.09395 889.902367,1312.14879 C889.867834,1312.15692 889.827208,1312.16301 889.772363,1312.17317 C888.466231,1312.40068 887.661832,1313.20507 887.988873,1313.97697 C888.244818,1314.59449 889.154845,1315.0495 890.259877,1315.10638 C890.430507,1315.11451 890.607231,1315.11451 890.814425,1315.10435 C892.40494,1314.99872 894.517502,1314.85856 895.104551,1313.84087 C898.53137,1313.95666 900.274234,1313.94447 900.700809,1312.60787 C900.90394,1311.97207 900.477365,1311.50081 899.961412,1311.2408 C899.989851,1311.21236 900.018289,1311.18189 900.046727,1311.15345 C900.396113,1311.40533 900.889721,1311.59018 901.464582,1311.66534 C901.990691,1311.7405 902.596021,1311.79535 903.315105,1311.838 C905.758771,1311.98223 910.361718,1311.81363 914.440588,1311.43377 C914.789974,1311.82785 915.480619,1312.18536 916.616121,1312.25036 C916.803002,1312.26052 917.12598,1312.2727 917.708966,1312.26864 L925.257313,1312.1427 L929.675412,1314.34667 C930.166989,1314.59246 930.782476,1314.74684 931.483277,1314.79153 C931.708753,1314.80168 931.926103,1314.79965 932.133297,1314.78543 C933.027073,1314.73871 933.853816,1314.47058 934.408364,1314.04807 L938.444576,1310.9036 C939.819773,1310.87922 941.414351,1310.86501 943.275031,1310.86297 C944.18912,1310.88735 944.936642,1310.92188 945.550098,1310.96048 C946.486531,1311.01126 946.935451,1311.06611 947.1203,1311.09657 C947.571251,1311.34033 948.22127,1311.58003 949.478651,1311.65112 L949.669594,1311.65925 L949.691938,1311.64909 C949.913351,1311.69175 950.163202,1311.72019 950.461805,1311.73847 C950.859941,1311.76081 951.52418,1311.7791 953.132977,1311.74456 C953.395016,1311.73847 953.630648,1311.62675 953.744401,1311.45409 C953.858155,1311.28346 953.829716,1311.08032 953.669243,1310.92798 L953.384859,1310.65781 C953.405172,1310.65172 953.427517,1310.64359 953.445799,1310.63547 L956.600423,1313.2782 C956.781209,1313.42852 957.067624,1313.48946 957.331694,1313.43461 C957.597796,1313.37774 957.796864,1313.21523 957.833428,1313.01819 L957.906555,1312.64646 C958.03859,1312.1041 957.622172,1311.59425 956.872618,1311.28346 C956.850274,1311.05189 956.825898,1310.81829 956.79746,1310.57453 L956.81371,1310.53593 L1045.20412,1310.53593 C1045.74648,1310.82844 1046.48385,1310.97673 1047.21512,1310.93204 C1047.31262,1310.93001 1047.43247,1310.91782 1047.55029,1310.9036 C1047.94842,1310.85079 1048.26734,1310.79797 1048.47453,1310.75531 C1049.05346,1310.67406 1049.70754,1310.60094 1050.34537,1310.53593 L1130.29163,1310.52781 C1131.9959,1310.75735 1134.19784,1310.94016 1137.12698,1311.17173 C1138.1528,1311.25095 1139.36955,1311.34846 1140.39739,1311.43784 C1141.07788,1312.00863 1142.24588,1312.32349 1143.50327,1312.24833 C1143.5317,1312.24833 1143.55608,1312.2463 1143.57639,1312.2463 C1143.67593,1312.23817 1143.76937,1312.23208 1143.86281,1312.22801 C1144.40923,1312.77241 1145.39035,1313.12788 1146.5096,1313.16851 C1152.12821,1313.38383 1154.16967,1313.55649 1154.90907,1313.6479 C1155.63831,1314.00947 1156.58896,1314.18823 1157.45227,1314.13338 C1157.62087,1314.12932 1157.78337,1314.11104 1157.9865,1314.08463 C1164.40951,1313.10148 1168.40306,1311.91113 1169.87576,1310.54406 L1184.17009,1310.53593 C1182.56332,1310.59281 1181.09468,1310.64562 1179.79871,1310.69438 C1178.94353,1310.72485 1178.35445,1310.85079 1177.88521,1310.95235 C1177.52364,1311.02954 1177.23723,1311.09048 1176.90612,1311.10267 C1176.85737,1311.10267 1172.1102,1311.26517 1172.1102,1312.82725 C1172.18942,1314.11104 1176.38205,1314.23495 1178.1635,1314.23089 L1186.17296,1314.37308 C1186.49797,1314.4462 1187.21908,1314.51527 1189.28289,1314.67777 C1189.96135,1314.73262 1190.80231,1314.79762 1190.92622,1314.8159 C1191.70828,1315.00685 1192.65893,1315.09013 1195.1676,1314.94591 C1196.93687,1314.84231 1199.01084,1314.65137 1200.19306,1314.52136 C1203.36596,1314.37105 1206.73388,1314.24511 1210.18101,1314.14557 C1210.19929,1314.14557 1210.3557,1314.14151 1210.37601,1314.14151 C1212.04778,1314.04807 1213.31532,1313.24773 1213.31532,1312.2138 L1213.31532,1312.21176 C1213.30719,1312.1041 1213.28485,1311.99848 1213.24626,1311.89488 C1213.95315,1311.89894 1214.33097,1311.88472 1214.58489,1311.8705 C1214.8388,1311.86035 1215.06631,1311.83394 1215.2735,1311.79738 L1215.42382,1311.79128 C1215.42788,1311.79128 1215.58226,1311.78519 1215.58429,1311.78519 C1216.80511,1311.71612 1217.43888,1311.4744 1217.87561,1311.22658 C1218.10718,1311.19408 1218.57032,1311.1433 1219.41534,1311.08845 C1220.01864,1311.06001 1220.75601,1311.02954 1221.62947,1311.00313 C1223.48609,1311.00313 1225.04817,1311.01735 1226.40711,1311.04579 L1230.38442,1314.19432 C1230.92271,1314.61277 1231.71695,1314.87481 1232.60057,1314.92966 C1232.8423,1314.94997 1233.07184,1314.94997 1233.28106,1314.93169 C1233.92905,1314.89512 1234.55673,1314.73871 1235.0544,1314.48886 L1239.39937,1312.29099 L1246.83396,1312.41693 C1247.4007,1312.41693 1247.72368,1312.41083 1247.9004,1312.39864 C1249.01762,1312.33567 1249.69811,1311.98019 1250.04546,1311.59018 C1254.05121,1311.96598 1258.5729,1312.13661 1260.99219,1312.00051 C1261.6483,1311.95582 1262.2516,1311.90097 1262.79396,1311.82785 C1263.36476,1311.75066 1263.85024,1311.56784 1264.1976,1311.31799 C1264.22197,1311.34643 1264.24635,1311.37283 1264.27682,1311.39924 C1263.76899,1311.66128 1263.35054,1312.12442 1263.54961,1312.76225 C1263.97212,1314.09885 1265.68655,1314.1151 1269.05649,1314.00541 C1269.61104,1315.01497 1271.70735,1315.16123 1273.31412,1315.27498 C1273.49084,1315.2831 1273.68585,1315.2831 1273.86054,1315.27498 C1274.93104,1315.21404 1275.82888,1314.757 1276.09092,1314.13135 C1276.40374,1313.36758 1275.61356,1312.56521 1274.30133,1312.33161 C1274.26071,1312.32552 1274.23227,1312.31942 1274.20383,1312.31536 C1274.12055,1312.25848 1274.02711,1312.20567 1273.9296,1312.15895 C1278.90022,1312.13864 1283.8038,1312.02082 1288.56316,1311.9091 C1293.42408,1311.79331 1298.45157,1311.67347 1303.62329,1311.65112 C1303.91377,1311.65112 1304.17174,1311.52112 1304.27737,1311.32611 C1304.383,1311.13111 1304.30987,1310.90969 1304.09658,1310.7675 L1303.74111,1310.53593 L1304.92333,1310.53593 C1305.05536,1310.5664 1305.20162,1310.5664 1305.34381,1310.53593 L1306.9587,1310.53593 C1307.34871,1310.53593 1307.66763,1310.31046 1307.66763,1310.03014 L1307.66763,1246.1942 C1307.77326,1245.84684 1307.84232,1245.73918 1307.85451,1245.72293 C1308.17952,1245.31667 1308.12467,1244.79869 1307.75904,1244.43508 C1307.72857,1244.40461 1307.70825,1244.36805 1307.68388,1244.33352 C1307.67778,1244.32336 1307.67169,1244.31524 1307.66763,1244.30508 L1307.66763,1239.98448 C1308.61422,1239.91745 1309.44909,1239.57619 1309.83097,1239.04602 C1310.69022,1238.70069 1311.09648,1238.06489 1310.8446,1237.51035 C1310.40786,1236.51297 1309.29877,1235.96655 1307.80576,1236.00718 C1307.757,1236.00921 1307.71028,1236.01124 1307.66763,1236.01327 L1307.66763,1234.09368 C1308.5025,1233.82149 1309.30486,1233.2446 1309.30486,1232.04206 C1309.30486,1231.81862 1309.27846,1231.59314 1309.23986,1231.37376 C1309.28861,1231.25391 1309.31096,1231.11578 1309.31096,1230.95734 C1309.31096,1230.16513 1308.69953,1228.70868 1307.99264,1227.0227 L1307.85045,1226.69159 L1307.91342,1225.98673 C1308.57765,1225.7125 1308.97376,1225.27983 1308.97376,1224.80044 C1308.97376,1224.772 1308.9636,1224.64606 1308.95548,1224.61966 L1308.87423,1224.24386 C1308.75438,1223.72588 1308.62234,1223.22415 1308.49437,1222.73663 L1308.16124,1221.50363 L1308.14498,1220.88814 C1308.14092,1220.76423 1308.14092,1220.65251 1308.1328,1220.54079 C1308.10436,1220.30312 1307.98654,1220.08577 1307.79763,1219.89889 C1307.58231,1218.47901 1307.65138,1217.23788 1308.01092,1215.72861 C1308.02717,1215.6108 1308.03936,1215.51939 1308.00076,1215.33454 C1307.85857,1214.83281 1307.75294,1214.31482 1307.66763,1213.8659 L1307.66356,1205.74879 C1307.78341,1204.65797 1307.93779,1203.55497 1308.09217,1202.43572 L1308.22014,1201.50944 C1308.65078,1198.56405 1309.14033,1195.22254 1309.14033,1191.97854 C1309.14033,1189.8802 1308.93923,1187.9992 1308.53297,1186.2279 C1308.36843,1185.56569 1308.17952,1184.90146 1307.96623,1184.25144 C1307.9256,1184.14175 1307.86466,1184.04221 1307.78951,1183.94471 C1307.76716,1183.64611 1307.73466,1183.3536 1307.70216,1183.05906 L1307.66763,1167.72673 C1308.17749,1167.47282 1308.49234,1167.12546 1308.54109,1166.73748 C1309.18908,1160.78575 1309.64612,1156.21327 1309.64612,1151.55954 L1309.64612,1151.4661 C1310.69225,1151.2589 1311.38696,1150.71451 1311.38696,1150.01777 L1311.38696,1150.01371 C1311.19601,1147.91537 1311.32602,1144.54542 1311.5068,1140.96829 L1311.53727,1140.37108 C1311.67946,1137.65116 1311.82978,1134.83576 1311.82978,1132.20522 C1311.82978,1129.23341 1311.62868,1126.92787 1311.22242,1125.16064 C1310.94819,1123.98451 1310.58256,1123.03385 1310.0991,1122.26399 C1310.17629,1122.1218 1310.25958,1121.97554 1310.34692,1121.82116 C1311.01929,1120.61253 1311.96994,1118.93061 1311.70181,1115.5627 C1311.70181,1115.18894 1312.86778,1113.53139 1313.6539,1112.89152 C1314.2186,1112.42839 1314.4522,1112.00384 1314.60658,1111.72352 C1314.64924,1111.6443 1314.68174,1111.57524 1314.68174,1111.56305 C1315.01487,1111.33757 1315.07785,1110.96381 1315.13472,1110.23051 C1315.14691,1110.09238 1315.15097,1109.97456 1315.16519,1109.92581 C1315.22207,1109.75315 1315.25254,1109.58049 1315.25254,1109.40783 C1315.25254,1108.86547 1314.96206,1108.44702 1314.78737,1108.19514 C1314.7508,1108.14232 1314.71221,1108.0956 1314.70612,1108.09154 C1314.26532,1106.20852 1313.37967,1105.23146 1312.08369,1105.1888 C1310.60693,1105.13395 1309.9691,1106.04601 1309.51409,1107.04338 L1308.6325,1106.34664 C1308.535,1105.01817 1308.48625,1103.77501 1308.48625,1102.55013 C1308.48625,1099.65145 1308.76047,1097.44544 1309.02251,1095.30851 L1309.07939,1094.83927 C1309.08548,1094.81693 1309.09158,1094.72755 1309.09158,1094.70724 C1309.09158,1094.61177 1309.07329,1094.52442 1309.06111,1094.5102 C1308.22217,1091.21948 1307.81388,1087.67078 1307.81388,1083.66098 C1307.81388,1080.3926 1308.07592,1077.15469 1308.3278,1074.02241 L1308.34405,1073.81928 C1308.62437,1070.44731 1308.91485,1066.96767 1308.84172,1063.59367 C1308.83563,1063.34179 1308.72188,1063.10412 1308.51468,1062.89896 L1309.41252,1053.65853 C1309.41252,1053.5529 1309.39424,1053.45134 1309.35158,1053.34571 C1309.8391,1051.51956 1310.0341,1050.04686 1309.92847,1048.81183 C1310.15395,1047.68648 1310.2677,1046.34582 1310.2677,1044.8264 C1310.2677,1042.2507 1309.92847,1039.23623 1309.35565,1036.7885 L1309.28049,1030.56457 C1309.27439,1029.95518 1308.63859,1029.45141 1307.66763,1029.24016 L1307.66763,1018.79719 L1308.92298,1015.09818 C1308.98188,1014.97427 1309.04486,1014.74879 1309.16877,1014.2044 C1309.25408,1013.81642 1309.34752,1013.42032 1309.35158,1013.42641 C1309.48362,1013.24969 1309.573,1013.03843 1309.54862,1012.80077 C1309.52831,1012.48185 1309.51409,1012.20153 1309.5019,1011.95574 L1309.49784,1011.88668 C1310.34896,1011.54745 1310.76334,1010.94212 1310.51959,1010.34898 C1310.34489,1009.93662 1310.25552,1009.52223 1310.11536,1009.11191 C1310.76131,1008.70158 1311.06601,1008.09219 1310.8446,1007.54171 C1310.57646,1006.84497 1310.03207,1006.36964 1309.32518,1006.09541 C1309.21142,1005.41086 1309.07939,1004.70803 1308.99814,1004.06817 L1308.98798,1003.96457 C1308.94938,1003.61112 1308.86407,1003.22111 1308.81532,1002.85141 C1309.10783,1002.47968 1309.30486,1001.98607 1309.30486,1001.31574 C1309.30486,1001.06183 1309.27846,1000.80385 1309.23986,1000.55603 C1309.28861,1000.4179 1309.31096,1000.26149 1309.31096,1000.08071 C1309.31096,999.40631 1308.9697,998.313466 1308.50453,997.003271 C1308.54515,996.385753 1308.56547,995.680888 1308.56547,994.764768 L1308.56343,993.931931 C1308.80719,993.673954 1308.97376,993.38754 1308.97376,993.070655 C1308.97376,993.038154 1308.9636,992.895963 1308.95548,992.863462 L1308.87423,992.436887 C1308.86204,992.377979 1308.84782,992.323133 1308.83563,992.264225 C1308.97985,991.841713 1309.15658,991.404981 1309.32721,990.994657 C1309.56284,990.427921 1309.78425,989.887593 1309.9041,989.41836 C1310.99898,989.097413 1311.56571,988.327547 1311.17773,987.66534 C1310.59271,986.639528 1310.25145,985.889975 1310.13161,985.371991 C1310.08285,985.154641 1310.08082,985.002293 1310.08082,984.856038 L1309.37596,984.78088 L1310.08082,984.719941 L1310.08082,984.612281 C1310.08082,984.059765 1309.93863,983.312243 1308.88641,981.951266 C1308.67109,981.672976 1308.27905,981.457657 1307.80372,981.305309 C1307.76107,981.077802 1307.70216,980.829983 1307.66763,980.620758 L1307.66763,980.163713 L1307.6656,971.36611 C1307.78544,970.127011 1307.93779,968.877756 1308.09217,967.606156 L1308.22014,966.553937 C1308.65078,963.198214 1309.14033,959.393571 1309.14033,955.702681 C1309.14033,953.311829 1308.93923,951.170829 1308.53297,949.153738 C1308.36843,948.400122 1308.17952,947.642444 1307.96623,946.903047 C1307.9256,946.779137 1307.86466,946.665384 1307.78951,946.555693 C1307.76716,946.214433 1307.73466,945.881298 1307.70216,945.544101 L1307.68388,936.26914 C1307.71841,935.647559 1307.79357,935.046292 1307.72044,934.371897 C1307.99264,933.362336 1308.22217,930.914608 1307.98248,929.689728 C1308.58984,928.881267 1309.12408,927.221686 1309.12408,921.89153 C1309.12408,921.491362 1309.11595,921.044473 1309.10986,920.607742 C1309.43284,916.699502 1309.64612,913.189399 1309.64612,909.681327 L1309.64612,909.575699 C1310.69225,909.340067 1311.38696,908.718486 1311.38696,907.926275 L1311.38696,907.922212 C1311.23258,906.004656 1311.28945,903.146603 1311.4093,899.99401 C1312.39042,898.332399 1312.9856,895.890765 1313.05872,892.155186 C1313.05872,891.69611 1312.69106,891.275629 1312.07354,891.005465 C1312.05729,890.901868 1312.01666,890.777958 1311.93541,890.649985 C1311.89885,890.59514 1311.81353,890.570764 1311.77087,890.519982 C1311.79525,889.555109 1311.82978,888.580081 1311.82978,887.645678 C1311.82978,884.261516 1311.62868,881.637064 1311.22242,879.624036 C1311.17773,879.404655 1311.11273,879.234025 1311.06398,879.028862 C1311.05179,878.600256 1311.02944,878.191963 1311.02944,877.738981 C1311.02944,876.371909 1311.09648,875.063746 1311.24273,873.751519 C1311.24679,873.7373 1311.25086,873.664173 1311.25086,873.647923 C1311.25086,873.635735 1311.23258,873.625578 1311.23258,873.611359 C1311.59821,872.416949 1311.85619,870.891435 1311.70181,868.697621 C1311.70181,868.271046 1312.86778,866.38599 1313.6539,865.65675 C1314.2186,865.128609 1314.4522,864.645158 1314.60658,864.326242 C1314.64924,864.236865 1314.68174,864.157643 1314.68174,864.143424 C1315.01487,863.885448 1315.07785,863.460904 1315.13472,862.626036 C1315.14691,862.469625 1315.15097,862.335559 1315.16519,862.278682 C1315.22207,862.083676 1315.25254,861.886639 1315.25254,861.689602 C1315.25254,861.072084 1314.96206,860.594726 1314.78737,860.308311 C1314.7508,860.247372 1314.71221,860.196589 1314.70612,860.190495 C1314.26532,858.045432 1313.37967,856.934306 1312.08369,856.887586 C1310.7024,856.826646 1310.06457,857.738705 1309.61362,858.784829" transform="translate(742.787804, 572.493301) rotate(-270.000000) translate(-742.787804, -572.493301) "></path>
                </g>
            </g>
        </g>
    </g>
</svg>