<?xml version="1.0" encoding="UTF-8"?>
<svg width="60px" height="60px" viewBox="0 0 60 60" version="1.1" xmlns="http://www.w3.org/2000/svg" xmlns:xlink="http://www.w3.org/1999/xlink">
    <!-- Generator: Sketch 46.2 (44496) - http://www.bohemiancoding.com/sketch -->
    <title>icon-cm-twitter</title>
    <desc>Created with Sketch.</desc>
    <defs></defs>
    <g id="Page-1" stroke="none" stroke-width="1" fill="none" fill-rule="evenodd">
        <g id="Twitter-icon" transform="translate(-0.839844, -0.172638)">
            <g transform="translate(0.922107, 0.000000)">
                <circle id="Oval-Copy-4" fill="#00A3DF" cx="29.800436" cy="30.0138974" r="29.3861009"></circle>
                <path d="M42.5159395,24.141375 C42.466024,24.1687282 42.4161084,24.1960813 42.3662701,24.2234344 C42.4016592,24.2589007 42.4370482,24.2942897 42.4724373,24.3296788 C42.4998677,24.2798405 42.5272208,24.2299249 42.5159395,24.141375 M18.7171924,27.9275394 C18.7586084,27.9919042 18.7976291,28.0582007 18.845613,28.1173112 C18.8496309,28.1223336 18.9131458,28.0791405 18.9489984,28.0583552 C18.8846336,28.0018718 18.8201916,27.9453884 18.7171924,27.9275394 M20.2625656,40.8314055 C20.2783284,40.7698996 20.2941685,40.708471 20.3099313,40.6469652 C20.2229268,40.6766364 20.1359996,40.7063075 20.0489951,40.7359014 C20.1072556,40.78064 20.1655935,40.8253013 20.2625656,40.8314055 M21.7693045,40.4836965 C21.7844492,40.4215725 21.7996711,40.3595258 21.8148157,40.2974018 C21.6782047,40.3006471 21.5409756,40.2977881 21.4056009,40.312701 C21.3811067,40.3153281 21.3645713,40.390665 21.3443269,40.4324674 C21.3849702,40.4495438 21.4245317,40.4768969 21.4664886,40.4814557 C21.5408983,40.4894917 21.6167762,40.4836965 21.7693045,40.4836965 M36.3344468,22.4414645 C36.3344468,22.4031393 36.3404737,22.3635777 36.3332105,22.3266433 C36.317834,22.2482929 36.2955034,22.1713333 36.2760317,22.0937556 C36.1925043,22.1885642 36.084869,22.2724007 36.0347989,22.3824313 C36.0067504,22.4440917 36.0739741,22.5490998 36.0983138,22.6346362 C36.1641467,22.583098 36.2299796,22.5316371 36.3344468,22.4414645 M21.3056925,25.4163079 C21.166918,25.3748147 21.0280662,25.3333214 20.8892917,25.2918281 C20.9722783,25.4319935 21.0408928,25.5845218 21.1458237,25.7056791 C21.1827581,25.7482541 21.3084742,25.7138695 21.3937015,25.7146422 C21.3772433,25.6281013 21.3607851,25.5414832 21.3056925,25.4163079 M42.9022828,21.5142406 C42.8843565,21.3726072 42.8665074,21.2308965 42.8485811,21.089263 C42.790166,21.1011624 42.6891759,21.0997715 42.6805991,21.1272792 C42.638024,21.263272 42.5753591,21.4169594 42.6043349,21.5453026 C42.6418102,21.7114302 42.7648992,21.8198382 42.9022828,21.5142406 M33.8618497,26.3821662 C33.8875802,26.187681 33.914856,25.9933503 33.9363367,25.7984015 C33.9381139,25.7824068 33.9011022,25.7620852 33.8820941,25.7437725 C33.7980258,25.9013233 33.6875316,26.0520745 33.6446475,26.2201338 C33.6299664,26.2776217 33.784581,26.3784573 33.8618497,26.3821662 M26.4826927,29.5115469 C26.3502542,29.4121794 26.217893,29.3127346 26.0854545,29.2133671 C26.1207663,29.3444148 26.1315067,29.4896026 26.1969532,29.603342 C26.3022704,29.7863915 26.4437493,29.9486557 26.5700063,30.1196512 C26.5537799,29.9298794 26.5375535,29.7400303 26.4826927,29.5115469 M35.9481035,28.3911513 C35.6070396,28.4980139 35.6418105,28.8216923 35.5696416,29.0749017 C35.5467701,29.1553384 35.6170073,29.2622009 35.6445922,29.3570096 C35.7200064,29.2798182 35.8393092,29.2136762 35.8620262,29.1233491 C35.9152643,28.9111694 35.922373,28.6874766 35.9481035,28.3911513 M21.0738866,26.9616811 C21.0993079,26.9616811 21.1282837,26.9535679 21.1496098,26.9629947 C21.2917069,27.0258141 21.4321813,27.0924197 21.5731966,27.157789 C21.4767653,27.0078878 21.3821885,26.856673 21.2821256,26.7092444 C21.2638902,26.6824322 21.2233241,26.655929 21.1923394,26.6551563 C21.0234301,26.6505975 20.8543663,26.6540746 20.6853025,26.6548473 C20.793015,26.7352067 20.9007275,26.8155661 21.0081309,26.8962346 C21.0181759,26.9038069 21.0262891,26.9140836 21.0738866,26.9616811 M32.8959914,39.0928606 C33.0434973,39.015592 33.1973392,38.9478274 33.3357274,38.8566503 C33.3966924,38.8165479 33.4738065,38.7151714 33.4595118,38.6660286 C33.4376447,38.5911552 33.3180329,38.4723933 33.283262,38.4856835 C33.1067803,38.5531391 32.9253535,38.6359711 32.7870426,38.7596782 C32.737668,38.8037986 32.8048144,38.9780394 32.8959914,39.0928606 M20.8420806,31.2114574 C20.7368407,31.1577557 20.6353869,31.0935454 20.5251245,31.053752 C20.4443015,31.0246218 20.3519655,31.0274807 20.2648064,31.0160449 C20.3171946,31.0957089 20.3525064,31.1998671 20.4250616,31.2507099 C20.7092558,31.4499085 21.0031085,31.6357396 21.2992792,31.8167801 C21.3418543,31.8428196 21.4171912,31.8152347 21.4773062,31.8125303 C21.4587618,31.7623829 21.454821,31.694541 21.4191229,31.665179 C21.244264,31.5212274 21.0609827,31.3874754 20.8420806,31.2114574 M31.8142302,22.1710242 C31.7870316,22.2496837 31.7567423,22.3275705 31.7339481,22.4074663 C31.7219714,22.4493459 31.7231305,22.4949345 31.7184171,22.5388231 C31.7789184,22.5421456 31.8816085,22.5680306 31.8935851,22.5455454 C32.0674396,22.2202444 32.2325627,21.8900754 32.3874091,21.5553476 C32.4002357,21.5277626 32.3236625,21.458839 32.2885825,21.409078 C32.2522662,21.4382855 32.2022734,21.4600753 32.1817972,21.4978597 C32.0682123,21.7072577 31.9617361,21.920442 31.8142302,22.1710242 M25.2850285,39.3633009 C25.5223205,39.3762048 25.7599989,39.4023216 25.9965956,39.3940539 C26.0701553,39.391504 26.1999667,39.2963863 26.2002758,39.2429164 C26.2010485,39.1178957 26.1587825,38.9797393 26.0909406,38.8744994 C26.0693054,38.8408875 25.8972281,38.8679316 25.8208866,38.9129792 C25.6338965,39.0231643 25.4626691,39.1599298 25.2850285,39.3633009 M29.2257301,28.700226 C29.2257301,28.7387057 29.2129035,28.7835216 29.2282027,28.8143518 C29.268537,28.8954839 29.3211569,28.9705117 29.3688317,29.0479349 C29.4007436,28.9811748 29.4377553,28.9164237 29.4635631,28.8474227 C29.5383591,28.647606 29.6343268,28.4505709 29.6701795,28.2434136 C29.6889557,28.1349284 29.6227365,27.9895088 29.5500267,27.8954729 C29.5031246,27.8348942 29.3747041,27.8373668 29.2829089,27.8116364 C29.2638236,27.9154854 29.2339979,28.0187164 29.2282027,28.1232609 C29.2189305,28.2893885 29.2257301,28.4563661 29.2257301,28.700226 M24.4737076,35.5385023 C24.3695494,35.5139309 24.2653913,35.4892822 24.1611558,35.4647107 C24.1496428,35.5281483 24.1063724,35.6273613 24.1314074,35.6495374 C24.4472044,35.9294045 24.7698011,36.2020083 25.0988883,36.4662671 C25.1572261,36.5131692 25.2530393,36.513401 25.3315442,36.5351135 C25.3160132,36.4475681 25.3303852,36.3325923 25.2797742,36.2771134 C25.046732,36.0218178 24.7956088,35.7831349 24.4737076,35.5385023 M27.7576256,30.3228678 C27.8091638,30.4292667 27.8545978,30.5392973 27.9143264,30.6408283 C27.9540425,30.7085157 28.0143121,30.7641491 28.0653094,30.8251141 C28.0915807,30.754336 28.1315286,30.6854896 28.1418054,30.612548 C28.228269,29.9971031 27.848339,29.5385136 27.5976022,29.0382763 C27.5763533,28.9959331 27.477913,28.9923015 27.4153254,28.9706663 C27.4225114,29.0311676 27.4215842,29.0939098 27.4381197,29.1517067 C27.5424324,29.5169557 27.6506858,29.8811229 27.7576256,30.3228678 M26.4440584,35.1907933 C26.4622165,35.2089515 26.4778248,35.2311276 26.4989964,35.2446496 C26.649593,35.3414672 26.8013487,35.4364304 26.9527952,35.5320117 C26.8743676,35.3806424 26.7954762,35.2294277 26.7178212,35.077672 C26.7015948,35.0460691 26.697036,35.0057349 26.6747826,34.9803908 C26.3840979,34.6501445 26.0959631,34.3174257 25.7930699,33.9986925 C25.7545901,33.9582037 25.6362146,33.9935927 25.5547734,33.9938245 C25.5748632,34.0649117 25.5756359,34.1516844 25.618211,34.2046907 C25.8752838,34.5248148 26.1419379,34.837212 26.4440584,35.1907933 M27.5644539,27.5025617 C27.6538538,27.5661538 27.7452626,27.6271188 27.8320353,27.6941107 C27.934339,27.773002 28.0325475,27.8570703 28.1326104,27.9388979 C28.1130614,27.7573165 28.1139114,27.56994 28.0650776,27.3965491 C28.0421288,27.3149534 27.9341072,27.2382256 27.8468709,27.1971187 C27.298418,26.9389641 26.7472606,26.6862183 26.1902308,26.4474582 C26.1244752,26.4192551 26.0176127,26.4868652 25.9297582,26.5101231 C25.9823781,26.557566 26.0285075,26.6163675 26.0885453,26.6508293 C26.5661429,26.9244376 27.0463676,27.1934871 27.5644539,27.5025617 M21.8079388,30.3228678 C21.7815129,30.1676351 21.7797358,30.0018938 21.7194662,29.8611876 C21.6830727,29.7761148 21.5579747,29.679838 21.4692703,29.6763609 C21.2767941,29.6687886 21.0785999,29.7034822 20.8897553,29.7495343 C20.8011282,29.7711696 20.7286502,29.8591013 20.6489089,29.9170528 C20.7029197,29.9879082 20.7427904,30.0812487 20.8134139,30.1256782 C21.0752774,30.2904922 21.3447132,30.4438705 21.6164671,30.5921491 C21.76915,30.6754447 21.9318778,30.7402731 22.0900467,30.8134465 C22.0089146,30.6627726 21.9277052,30.512176 21.8079388,30.3228678 M39.2706558,32.3318529 C39.4062623,32.0417091 39.5510638,31.7553515 39.6713711,31.4590262 C39.7039785,31.3785895 39.6628716,31.2680953 39.655531,31.1713549 C39.5529955,31.2021851 39.4095849,31.2000216 39.3541833,31.268868 C38.6978633,32.0833569 38.0531336,32.9071954 37.4115719,33.7334292 C37.3662925,33.7916897 37.3700014,33.8878892 37.350916,33.9664714 C37.4385387,33.9480815 37.5518918,33.9585128 37.6096887,33.90682 C38.0134175,33.5453572 38.4068695,33.1724587 38.8008624,32.8003328 C38.9483683,32.6610174 39.0885336,32.5139752 39.2706558,32.3318529 M25.1691255,31.288726 C25.3601336,31.5828106 25.5489782,31.8782859 25.7431544,32.1702842 C25.841131,32.3176355 25.9441302,32.4622824 26.055397,32.5995888 C26.0831365,32.6338961 26.151751,32.6352097 26.2015121,32.6516679 C26.1904626,32.6077021 26.1872946,32.5597182 26.1672048,32.5203885 C25.8687932,31.9360829 25.5905488,31.3396461 25.2565164,30.7762803 C25.1301048,30.5630961 24.8986079,30.3754105 24.6716699,30.2662299 C24.190827,30.0348102 23.6827856,29.859024 23.1819301,29.6707976 C23.1230514,29.6486215 23.0397558,29.6912738 22.9677414,29.7039458 C22.9854359,29.7735649 22.9797953,29.8717734 23.0244566,29.9083214 C23.3009239,30.1339459 23.4583974,30.6137843 23.9699932,30.3662928 C24.0266311,30.3389397 24.1172672,30.3699244 24.188818,30.3873099 C24.6602341,30.5017447 24.9197795,30.8497628 25.1691255,31.288726 M31.9301332,31.9455096 C32.292755,31.1450063 32.623774,30.3280448 33.029898,29.5502585 C33.2738352,29.0830922 33.2447822,28.6537875 33.0823635,28.2009159 C33.0574829,28.1316832 32.9416572,28.0951351 32.8679429,28.0434423 C32.8386581,28.1244972 32.7841837,28.2060929 32.7860381,28.2864523 C32.7887425,28.4047506 32.8768288,28.5340983 32.8493984,28.6378701 C32.7399088,29.0521074 32.6161244,29.4643357 32.4673822,29.8660555 C32.2160272,30.5450152 31.9366238,31.2136209 31.6817917,31.8913443 C31.6376713,32.0087154 31.6566021,32.149808 31.6463254,32.2798511 C31.7280757,32.1813336 31.8097486,32.0827388 31.9301332,31.9455096 M38.8843125,21.6687779 C38.6231445,21.3772433 38.0149629,21.3887563 37.7891066,21.6796728 C37.4352934,22.1357125 37.3251083,22.6351771 37.4954857,23.1894252 C37.5190526,23.2662302 37.5692772,23.3349221 37.6072161,23.4073228 C37.6694947,23.3458169 37.7673168,23.2942787 37.7878703,23.221028 C37.881829,22.8854503 37.9332126,22.5368141 38.043475,22.2074178 C38.0961722,22.0497897 38.2606772,21.7998256 38.3482999,21.8104114 C38.5360627,21.8329739 38.7254482,21.9768481 38.8761993,22.1130727 C38.9489864,22.1789056 38.9610403,22.3406289 38.9570224,22.4574592 C38.9429595,22.8713101 38.902548,23.2842338 38.8907258,23.6980075 C38.8883305,23.7802213 38.9683036,23.8647532 39.0102605,23.9482034 C39.0713027,23.8838386 39.159389,23.8299051 39.1890601,23.7533318 C39.4179299,23.1639265 39.5019209,22.5798527 39.0884563,22.0235956 C39.0183737,21.9293279 38.9774213,21.8133476 38.8843125,21.6687779 M19.8955395,32.8534164 C20.1981236,32.8340992 20.4817768,32.8426761 20.7643483,32.8290768 C20.8538254,32.824827 20.9404436,32.7613894 21.0283753,32.7250732 C20.9616925,32.6795619 20.8933097,32.6362915 20.8285586,32.5881531 C20.0063428,31.9780398 19.135525,31.4023882 18.565205,30.5368247 C18.0102615,29.6946736 17.6199775,28.7618091 17.4801212,27.7447217 C17.4601859,27.6000748 17.4374689,27.454887 17.4020799,27.3134853 C17.307194,26.9351007 17.4965794,26.6779506 17.8727233,26.7362884 C18.2893559,26.8008078 18.6973344,26.9198788 19.1112626,27.0041789 C19.2282474,27.0279776 19.3530362,27.0130648 19.4742708,27.0159237 C19.4391908,26.8931438 19.4204918,26.7625598 19.366481,26.6488203 C18.8245186,25.5083349 18.2221321,24.3922664 17.7583657,23.2211826 C17.5797205,22.7702427 17.6881284,22.1947457 17.7108454,21.6780502 C17.7325579,21.1841489 17.8121446,20.6927975 17.8673917,20.2005189 C17.9369335,19.5812878 18.225841,19.3898934 18.7349642,19.7076994 C19.5183139,20.1967327 20.2688244,20.7394678 21.0230438,21.2737806 C21.8711446,21.8746217 22.6952921,22.5102337 23.5569149,23.0905986 C23.8348503,23.2778205 24.2065898,23.3196229 24.5206096,23.4610245 C24.900926,23.6323291 25.3017958,23.7905753 25.6302649,24.0386077 C26.6632696,24.8186348 27.8590021,25.2415262 29.0564345,25.656768 C29.3985028,25.7753754 29.7867779,25.7783889 30.1557357,25.7967788 C30.5154213,25.8147051 30.4192991,25.4604283 30.4455705,25.2981641 C30.5837268,24.44535 30.705734,23.5861225 30.7595903,22.7244996 C30.8057197,21.9871248 31.0579246,21.3329684 31.5148914,20.8002782 C31.9050982,20.3453204 32.432225,20.0070382 32.9043365,19.6239401 C32.9755009,19.5661432 33.1040759,19.5690021 33.1598639,19.5040965 C33.800962,18.7582994 34.7254042,18.7440047 35.5800729,18.5297387 C36.0508708,18.4117494 36.534109,18.5040855 37.0148746,18.260921 C37.4637282,18.0339057 37.9469664,18.4204808 38.37998,18.6260927 C38.8228067,18.836418 39.2209721,19.1419383 39.6657305,19.3470865 C40.1718402,19.5803606 40.4663111,20.014765 40.8164926,20.4021128 C40.9613714,20.5622907 41.0868557,20.7636529 41.267278,20.8603932 C41.4000256,20.9316349 41.648058,20.9273079 41.7752422,20.8468712 C42.5032675,20.3861182 43.2095803,19.8911352 43.9257835,19.4116059 C44.024301,19.3456184 44.1385041,19.253746 44.2427395,19.2571458 C44.4016812,19.2624001 44.5948528,19.3005708 44.7035698,19.4006337 C44.7809158,19.4717982 44.801701,19.6985817 44.7470721,19.803358 C44.4315069,20.4086034 44.0899021,21.0005586 43.7486837,21.5921274 C43.6007142,21.8485821 43.7017044,22.1085912 43.9891438,22.0830152 C44.3601879,22.0499442 44.7418951,21.9838795 45.086127,21.8485049 C45.3868566,21.7302838 45.634889,21.7771859 45.7627686,22.0091464 C45.8472233,22.1623701 45.8292969,22.4908392 45.7175664,22.6133873 C45.1718179,23.2117558 44.6291601,23.8255008 43.8719272,24.1817866 C43.5296271,24.3428917 43.3976522,24.6201317 43.3546136,25.0039251 C43.2717816,25.7433089 43.1232712,26.4752749 43.001264,27.2102544 C42.9173502,27.716055 42.7949567,28.2188422 42.7558587,28.7280427 C42.6831489,29.6745837 42.4357347,30.5392973 41.9547373,31.3758078 C41.4645449,32.2283902 41.1405574,33.1746995 40.7016714,34.0591166 C40.2766165,34.9154851 39.8575886,35.785762 39.3225031,36.5728979 C38.9469002,37.1253688 38.3809845,37.5485692 37.9000644,38.0294894 C37.7544129,38.1751408 37.6138612,38.3263555 37.4621829,38.4654391 C36.8955718,38.9853027 36.3944073,39.6322732 35.7356919,39.9789004 C35.1610449,40.2812526 34.6086513,40.6191485 34.0656071,40.9631485 C33.7192117,41.1825143 33.4255908,41.0118278 33.1088666,41.0261998 C32.9435889,41.0336948 32.7622394,41.0194001 32.6175925,41.0824514 C32.3009455,41.2206077 31.979817,41.3702771 31.7032724,41.5734164 C31.3562589,41.8283257 30.9638113,41.8076177 30.5787044,41.8865863 C29.8987401,42.025979 29.2337661,42.2388541 28.5628423,42.4222899 C28.4940732,42.4411435 28.4199725,42.5016448 28.3616347,42.4875819 C27.7915465,42.3505073 27.266506,42.6643726 26.7117943,42.6442828 C26.2433917,42.6273609 25.7700439,42.6195568 25.3099863,42.5421336 C25.0028434,42.4904409 24.7275351,42.4540473 24.4126653,42.5331704 C24.1633966,42.5958353 23.8753391,42.4811686 23.6079122,42.4983223 C22.7660702,42.5524876 21.969044,42.3991093 21.1667635,42.1409547 C20.4529556,41.911235 19.6826643,41.8569151 18.9689337,41.6271954 C18.3157045,41.4169474 17.5949424,41.3352744 17.0508165,40.8619266 C16.9173736,40.7458691 16.7693268,40.5004638 16.8072657,40.3647028 C16.8807482,40.1021439 17.0345901,39.7295544 17.2394293,39.6632579 C17.7065957,39.5119658 18.180948,39.3836226 18.7280101,39.4425013 C19.3749805,39.5121204 20.0649124,39.3615238 20.7122692,39.206291 C21.6425839,38.9832937 22.5217467,38.6007365 23.3358493,38.0869 C23.5008952,37.9826645 23.6801584,37.8823698 23.8054109,37.7388047 C23.9389312,37.5858127 23.8265825,37.462801 23.664782,37.3930274 C23.3698475,37.2659205 23.0775402,37.1321684 22.7791286,37.0137156 C21.7928714,36.6223498 21.1370151,35.845568 20.4490922,35.0870988 C20.0075791,34.6001517 19.7327344,34.0656844 19.5543984,33.4427445 C19.4514765,33.0832134 19.572711,32.9520885 19.8955395,32.8534164" id="twitter" fill="#FFFFFF"></path>
            </g>
        </g>
    </g>
</svg>