<?xml version="1.0" encoding="UTF-8"?>
<svg width="16px" height="16px" viewBox="0 0 16 16" version="1.1" xmlns="http://www.w3.org/2000/svg" xmlns:xlink="http://www.w3.org/1999/xlink">
    <!-- Generator: Sketch 46.2 (44496) - http://www.bohemiancoding.com/sketch -->
    <title>icon-search</title>
    <desc>Created with Sketch.</desc>
    <defs></defs>
    <g id="Page-1" stroke="none" stroke-width="1" fill="none" fill-rule="evenodd" fill-opacity="0.521031476">
        <path d="M10.5643029,6.73740385 C10.5643029,4.51084135 8.75240385,2.69894231 6.52584135,2.69894231 C4.29927885,2.69894231 2.48737981,4.51084135 2.48737981,6.73740385 C2.48737981,8.96396635 4.29927885,10.7758654 6.52584135,10.7758654 C8.75240385,10.7758654 10.5643029,8.96396635 10.5643029,6.73740385 Z M15.1796875,14.2374038 C15.1796875,14.8684135 14.656851,15.39125 14.0258413,15.39125 C13.719351,15.39125 13.421875,15.2650481 13.2145433,15.0487019 L10.1225962,11.9657692 C9.06790865,12.6959375 7.80588942,13.0835577 6.52584135,13.0835577 C3.01923077,13.0835577 0.1796875,10.2440144 0.1796875,6.73740385 C0.1796875,3.23079327 3.01923077,0.39125 6.52584135,0.39125 C10.0324519,0.39125 12.8719952,3.23079327 12.8719952,6.73740385 C12.8719952,8.01745192 12.484375,9.27947115 11.7542067,10.3341587 L14.8461538,13.4261058 C15.0534856,13.6334375 15.1796875,13.9309135 15.1796875,14.2374038 Z" id="icon-search" fill="#333333"></path>
    </g>
</svg>