<?xml version="1.0" encoding="UTF-8"?>
<svg width="78px" height="70px" viewBox="0 0 78 70" version="1.1" xmlns="http://www.w3.org/2000/svg" xmlns:xlink="http://www.w3.org/1999/xlink">
    <!-- Generator: Sketch 46.2 (44496) - http://www.bohemiancoding.com/sketch -->
    <title>icon-cm-cta</title>
    <desc>Created with Sketch.</desc>
    <defs></defs>
    <g id="Page-1" stroke="none" stroke-width="1" fill="none" fill-rule="evenodd">
        <path d="M45.0767183,54.7492491 C44.8266142,59.64704 45.7816448,65.7924544 44.0811303,69.2774953 C40.5101463,67.8666766 38.558562,64.2966582 36.0691091,61.7656822 C33.5786906,59.2337406 31.1713182,56.6187529 28.5563304,54.2509723 C27.2691153,54.0858456 25.8167735,54.0027995 24.321943,54.0027995 C20.95954,54.0027995 17.2649524,54.2924953 13.6958997,54.2924953 C8.59049342,54.2924953 3.77478298,53.712138 0.993702952,50.722477 C-0.16797735,41.1760335 0.0792297634,28.1416522 0.745530186,19.5077507 C11.2470042,18.8849046 17.015814,19.1765318 31.5440602,19.1765318 C39.8467428,19.134043 48.273029,18.5546514 52.7555893,22.3718768 C54.4165121,23.7846269 54.9968694,31.8777629 55.2875309,34.4927506 C56.0349461,40.9684182 55.9519,44.0816828 55.0799155,54.2509723 C51.5098972,55.2069685 49.1034904,54.2509723 45.0767183,54.7492491 M76.9973368,43.1266522 C73.5103646,44.4138673 73.17818,44.4138673 71.2681188,43.4598024 C67.1592662,41.3836489 65.9550972,39.9718645 64.626359,37.1907845 C62.7597521,36.4433692 62.0123369,36.485858 59.4379065,37.0662153 C59.9786721,31.1303476 58.2771919,21.9566461 54.6656505,17.5986551 C48.9364325,15.938698 43.5818878,15.3988981 38.3519123,15.3988981 C33.9108751,15.3988981 29.5519185,15.77164 25.0268695,16.1453477 C24.6126045,4.31513537 39.6796849,0.538467325 52.1337089,0.538467325 C74.9627064,0.538467325 77.6607403,15.8141288 77.6607403,22.3718768 C77.6607403,27.1045411 76.0423062,31.7541593 72.1401033,35.1986428 C72.8054381,40.8863377 73.5103646,41.2175566 76.9973368,43.1266522" id="icon-cm-cta" fill="#C5014B"></path>
    </g>
</svg>