<?xml version="1.0" encoding="UTF-8"?>
<svg width="37px" height="37px" viewBox="0 0 37 37" version="1.1" xmlns="http://www.w3.org/2000/svg" xmlns:xlink="http://www.w3.org/1999/xlink">
    <!-- Generator: Sketch 46.2 (44496) - http://www.bohemiancoding.com/sketch -->
    <title>icon-cm--filter</title>
    <desc>Created with Sketch.</desc>
    <defs></defs>
    <g id="Page-1" stroke="none" stroke-width="1" fill="none" fill-rule="evenodd">
        <path d="M14.5036453,6.7614783 C14.3959055,6.95978317 14.2636185,7.06727161 14.0914527,7.20542316 C13.9629357,7.30847132 13.8963314,7.34809878 13.7388269,7.37298114 C13.4250746,7.42241075 13.1321832,7.48499365 12.8148284,7.48524499 C12.4517303,7.48549633 12.0620742,7.49714161 11.7286338,7.32614869 C11.6942844,7.3085551 11.6647104,7.28333762 11.6289368,7.26834119 C11.5972683,7.25502033 11.5532006,7.25728236 11.5257211,7.24111301 C11.4846694,7.21698466 11.4454608,7.17191157 11.4066711,7.1378973 C11.3529688,7.09072973 11.2500044,7.01876357 11.2294786,6.94470295 C11.2073609,6.86444267 11.2212682,6.79004693 11.1891809,6.70543015 C11.1193092,6.52069748 11.0598261,6.30153164 11.0311737,6.10599148 C11.0166799,6.00721605 11.0281577,5.90090051 11.0281577,5.80078462 C11.0282414,5.65023377 11.0034429,5.481838 11.0370382,5.3347221 C11.081106,5.14161152 11.1138636,4.91674871 11.2075285,4.73938859 C11.2553663,4.6488235 11.2831809,4.60375041 11.3884911,4.60115326 C11.4661542,4.59922634 11.5149136,4.5714955 11.5887229,4.56202847 L11.5087139,4.52206589 C11.6065678,4.42814964 11.6703236,4.34688402 11.7860224,4.27382874 C11.8691312,4.22129932 11.9482185,4.14179306 12.040543,4.10744367 C12.0834378,4.09144188 12.1125929,4.09370392 12.1542311,4.08482334 C12.2622222,4.06153278 12.3500226,3.98981797 12.4561705,3.96619229 C12.536347,3.94826359 12.6177802,3.96987857 12.6989621,3.96351137 C12.788438,3.95647393 12.8697874,3.92095164 12.9601012,3.9195274 C13.1385504,3.91676269 13.3079515,4.02827252 13.4652885,4.10124402 C13.6040265,4.16550251 13.7415916,4.22749896 13.8832619,4.2855578 C13.9972851,4.33230648 14.1971817,4.36766121 14.2703208,4.46576641 C14.2991408,4.50438853 14.3019055,4.59445094 14.3147237,4.6392727 C14.3485704,4.75706596 14.4087237,4.86488952 14.4426542,4.98486103 C14.4900731,5.15200012 14.5531587,5.30942084 14.5518182,5.4834298 C14.5496399,5.77556714 14.5907754,6.05882391 14.5917808,6.35096124 C14.5921997,6.49212884 14.5720927,6.63539092 14.5036453,6.7614783 M0.518432456,16.617336 C0.494478096,16.6170375 0.470583924,16.6169286 0.446611503,16.6166632 C0.472608791,16.6107155 0.499066217,16.6113938 0.524571255,16.6167558 C0.915580465,16.6228875 1.31109163,16.6424337 1.69811881,16.6063809 C1.85956093,16.5913845 2.01614386,16.5598836 2.1786751,16.5830904 C2.34288192,16.6064647 2.48396574,16.6169371 2.65202639,16.6160993 C3.23035276,16.6129995 3.80549553,16.6585752 4.38315166,16.6566483 C4.98192011,16.6547214 5.58068855,16.6551403 6.17945699,16.6551403 C7.28559099,16.6551403 8.391725,16.6521243 9.49769145,16.6549727 C9.77491613,16.6557268 10.0510517,16.6574023 10.3281088,16.644249 C10.6005581,16.6311795 10.8633728,16.6509513 11.1359896,16.6563132 C11.7418793,16.6682936 12.3496958,16.6551403 12.9556693,16.6551403 C13.119541,16.6551403 13.2834127,16.6557268 13.4472844,16.6566483 C13.6812791,16.6579888 13.9102471,16.6166857 14.1438229,16.6129995 C14.4848034,16.6077214 14.8303917,16.6383007 15.1706182,16.6171884 C15.2531405,16.6120779 15.3292956,16.5809959 15.4113152,16.5730369 C15.534219,16.5611403 15.6648305,16.5751314 15.7883207,16.5750476 C16.0301906,16.5749638 16.271893,16.5750476 16.5136792,16.5750476 C16.708214,16.5750476 16.9028326,16.5746287 17.0973674,16.5760529 C17.2722979,16.5773934 17.412544,16.5347499 17.5883961,16.535085 C17.6807205,16.5352526 17.7733801,16.5322365 17.8656208,16.5344148 C18.1988936,16.5423738 18.5289828,16.6894059 18.8673661,16.6558105 C18.7495729,16.6600833 18.6309418,16.6243934 18.509965,16.6165182 C18.5235372,16.6153453 18.5370256,16.6135021 18.54976,16.6091456 C18.5647564,16.4931117 18.6427547,16.3656839 18.6845604,16.2566036 C18.7220934,16.158666 18.7914624,16.0700278 18.8426513,15.9794627 C18.9589366,15.7738691 19.0866158,15.5888013 19.1857263,15.373992 C19.2782183,15.1733413 19.3822718,14.9626371 19.5362576,14.8104945 C19.8156605,14.5343589 20.0938068,14.2348491 20.396584,13.9808312 C20.5838301,13.8236618 20.7790351,13.6956475 21.004652,13.6039095 C21.2440923,13.5063907 21.4803491,13.4325814 21.7342832,13.3746902 C21.8822369,13.3410948 22.0245774,13.2682908 22.1701015,13.2506135 C22.3820623,13.2247258 22.5799483,13.2114887 22.797271,13.2114887 C23.0895759,13.2114887 23.3845617,13.2262338 23.6763639,13.2134994 C23.800692,13.2081375 23.9110289,13.1705208 24.0361109,13.1715261 C24.1766921,13.172699 24.3172732,13.171945 24.4577706,13.1705208 C24.5805068,13.1691803 24.6800362,13.207216 24.7996726,13.2315119 C24.9676495,13.2656099 25.1402342,13.2793497 25.3020952,13.3385814 C25.4663858,13.3985672 25.609983,13.4779897 25.7581043,13.5678845 C25.9061418,13.6576956 26.0467229,13.7602411 26.1976926,13.8453605 C26.3240314,13.9165727 26.4424949,13.9698561 26.5481402,14.0735745 C26.7692329,14.2907296 27.0493899,14.4431236 27.261602,14.6721754 C27.5056502,14.9358279 27.7836289,15.1704928 27.9735559,15.4819831 C28.0610212,15.6254965 28.1120426,15.8079672 28.2055399,15.955502 C28.226736,15.9890135 28.3083367,16.0766464 28.324171,16.1306 C28.3349785,16.167379 28.3219089,16.1993826 28.330622,16.2350724 C28.3428537,16.2855912 28.3553368,16.345912 28.3694116,16.394839 C28.3865025,16.4544058 28.4375239,16.5132187 28.4874562,16.5379335 C28.5103279,16.5492437 28.7030196,16.5348337 28.6898663,16.5349174 C28.8508057,16.534331 29.0118289,16.534331 29.1728521,16.5349174 C29.3574173,16.5355877 29.5291642,16.5029139 29.7105457,16.4929442 C30.1328756,16.4697374 30.5607349,16.5013221 30.9838188,16.4860743 C31.318851,16.4739263 31.6531291,16.4542383 31.9885802,16.4528978 C32.2189724,16.4519762 32.4551454,16.4726697 32.6846998,16.457003 C32.8732026,16.4442686 33.0440279,16.4146108 33.2373061,16.4150297 C33.445832,16.4155324 33.6582955,16.4016251 33.8664863,16.4135217 C34.0817145,16.4257534 34.2940105,16.4812151 34.5114169,16.4919388 C34.6904526,16.5009032 34.8700748,16.4957927 35.0492781,16.4946198 C35.1811462,16.493782 35.3066471,16.4959602 35.4396882,16.5040868 C35.5912443,16.5133025 35.7965029,16.4969656 35.9401001,16.5420387 C35.9084316,16.8870405 35.9783871,17.2305344 35.9782195,17.5744472 C35.9778844,18.0639678 35.8912569,18.5481266 35.8962837,19.0396579 C35.897289,19.1495759 35.8647828,19.2358683 35.8532213,19.3410947 C35.8455136,19.4113015 35.8727418,19.4671821 35.8862302,19.5342053 C35.9136259,19.6700948 35.9210822,19.9138079 35.8903353,20.0548917 C35.8615154,20.0646939 35.8389788,20.0580753 35.8090697,20.0587455 C35.6535759,20.0624318 35.5044493,20.0668721 35.3488717,20.0823712 C34.8372334,20.1330575 34.3302868,20.1415192 33.8168053,20.137414 C33.3544291,20.1337277 32.9117409,20.1972322 32.4536374,20.2330058 C32.0675838,20.2631663 31.6739063,20.2087937 31.2859258,20.2220308 C30.8939239,20.2353517 30.5028436,20.2769898 30.1102553,20.2560451 C29.8183693,20.2404622 29.5301695,20.218177 29.2374457,20.2191823 C29.1332247,20.2195174 29.0288361,20.2190148 28.9245312,20.2190148 C28.8447736,20.2190148 28.7280695,20.1982376 28.6523333,20.2251306 C28.6267807,20.3875781 28.575089,20.5313428 28.4903885,20.6780398 C28.4121389,20.8137618 28.3219927,20.9415248 28.2499428,21.0806817 C28.1754633,21.2243626 28.1189124,21.3725677 28.0246611,21.505106 C27.9251316,21.6452683 27.7952742,21.7509974 27.6960799,21.8888976 C27.5194738,22.1339511 27.2857304,22.3288211 27.079299,22.5497463 C26.8972472,22.7446162 26.6216981,22.8211902 26.3985947,22.9585877 C26.2353932,23.058955 26.1010117,23.1590709 25.9213895,23.2239158 C25.6336087,23.3276342 25.3672753,23.4904168 25.0985961,23.6359409 C24.9817244,23.699194 24.8305871,23.8173224 24.6941111,23.8282974 C24.4695834,23.8462261 24.2210112,23.8333242 23.9960646,23.8244436 C23.8962,23.8204222 23.8031216,23.7873295 23.7040948,23.7718304 C23.6069112,23.7564988 23.5012659,23.7593473 23.405674,23.7369783 C23.2427239,23.6988589 23.0979538,23.6149961 22.9274636,23.5860924 C22.7831961,23.5616289 22.6697594,23.53239 22.5423315,23.4642777 C22.2594099,23.3128053 21.9586433,23.2057358 21.6805808,23.0451314 C21.4863811,22.9330351 21.298046,22.8149068 21.117586,22.6816982 C20.9336074,22.5458924 20.7730868,22.4000332 20.5623827,22.2972364 C20.3751366,22.2058335 20.2258425,22.0711169 20.0696784,21.9328816 C19.8574662,21.7447977 19.6519564,21.5417175 19.4369795,21.3607548 C19.3441524,21.2827566 19.2886069,21.2012396 19.2167245,21.1033858 C19.1499527,21.0125694 19.0654197,20.9411059 18.9967209,20.8528028 C18.9127743,20.7448117 18.8396353,20.6218241 18.7614695,20.509309 C18.7312253,20.4657439 18.7061754,20.4264515 18.6792823,20.3814622 C18.6701504,20.3662144 18.6857333,20.3358027 18.6745907,20.3209738 C18.6428384,20.2785816 18.5305746,20.2413837 18.4758669,20.2170878 C18.389407,20.1788008 18.320792,20.1767901 18.2267082,20.1785495 C17.4120413,20.1943837 16.6235134,20.0229719 15.8156326,19.9505031 C15.5848215,19.9298935 15.3575291,19.9541894 15.1277234,19.9407847 C14.9498606,19.9303961 14.7792028,19.8962981 14.5982401,19.8972197 C14.4170262,19.8981412 14.235896,19.8987277 14.0545983,19.8987277 C13.5680937,19.8985601 13.0720383,19.8657188 12.5885497,19.9221858 C11.987603,19.9923088 11.371241,20.0124995 10.7668594,19.969856 C10.5733299,19.9562838 10.3844921,19.935758 10.1902086,19.938774 C10.0330392,19.9412036 9.87654004,19.8908525 9.7223867,19.9053462 C9.54435634,19.9221858 9.38735452,19.945225 9.20538655,19.9307313 C9.03699078,19.9174104 8.87161105,19.8871662 8.70271261,19.9016599 C8.28063406,19.9382714 7.86157155,19.954692 7.43714719,19.9298097 C6.78702222,19.891774 6.13798639,19.8987277 5.48660474,19.8987277 C5.15928023,19.8987277 4.80305196,19.8552464 4.47916239,19.9076083 C4.00103569,19.98502 3.49584838,19.938774 3.01085181,19.938774 C2.72558435,19.938774 2.44023311,19.937266 2.15488187,19.9391929 C1.91217413,19.940701 1.67675517,19.896717 1.43547168,19.8987277 C1.25945202,19.9003195 1.04263199,19.9341662 0.871890412,19.8898471 C0.762810167,19.861446 0.641163073,19.8291073 0.523202255,19.7974389 C0.365446417,19.7550467 0.375667454,19.6621358 0.376756581,19.5074798 C0.378180823,19.2831197 0.396193306,19.0530626 0.356565844,18.8324725 C0.32288669,18.6448913 0.306801124,18.411483 0.365613975,18.2275882 C0.431045366,18.0227485 0.409681724,17.8275435 0.415127358,17.6148286 C0.418981192,17.464194 0.4863395,17.3249533 0.496644315,17.1769158 C0.502257508,17.0979123 0.593241491,16.8989372 0.503514193,16.844397 C0.532669281,16.7711742 0.550346648,16.7109371 0.53275306,16.620372 C0.528246837,16.6187153 0.523321278,16.6181594 0.518432456,16.617336 Z M36.2176515,5.57709471 C36.2150543,5.77799673 36.1951149,5.97822852 36.1843912,6.17871164 C36.1768511,6.31853878 36.2060062,6.58629643 36.176516,6.73408257 C36.1698137,6.76801306 36.1500418,6.81057278 36.1443449,6.84157101 C36.1342076,6.89644625 36.1490365,6.95592933 36.1376425,7.00803986 C36.1202165,7.08712723 36.0932397,7.10530727 36.0944126,7.20190445 C36.0956693,7.29732872 36.1104144,7.41160326 36.0968422,7.50627352 C36.0758974,7.65322187 35.9855837,7.60496517 35.83763,7.60328959 C35.0204497,7.593655 34.2105582,7.70340548 33.397148,7.75945363 C33.2283333,7.7710989 33.1174937,7.75786182 32.9527842,7.73423615 C32.8367503,7.71764791 32.712925,7.72745005 32.5976451,7.72669604 C32.3893705,7.72518802 32.1836093,7.70642152 31.9761726,7.69435735 C31.626479,7.67391528 31.272429,7.71186716 30.92483,7.6654536 C30.6103237,7.62339655 30.2896177,7.65372454 29.9731007,7.63663363 C29.5456603,7.61342685 29.131038,7.6072272 28.7039328,7.63663363 C28.4845156,7.65171384 28.2658524,7.64618443 28.0461839,7.64417373 C27.7924173,7.64207926 27.5419182,7.67240725 27.2892407,7.6786069 C26.9730588,7.68631457 26.6603119,7.62230742 26.3444651,7.65338942 C26.0509873,7.6822094 25.7904346,7.68346608 25.4950299,7.65523256 C24.0977639,7.52152129 22.7120594,7.68530922 21.3154636,7.685393 C20.9067059,7.68547678 20.4899055,7.71128071 20.0834936,7.66578871 C19.7997341,7.63403648 19.5051672,7.62054806 19.2204024,7.60328959 C18.8682793,7.58200972 18.5065216,7.60697586 18.1549012,7.60312203 C18.0415483,7.60186534 17.8772577,7.56584038 17.7849332,7.65095983 C17.7634858,7.67073167 17.729304,7.75082439 17.7179938,7.77076379 C17.6429278,7.90363727 17.564762,8.03692964 17.4997495,8.17499742 C17.438172,8.30552508 17.3966176,8.44912227 17.3228083,8.57345029 C17.2628225,8.67457153 17.1920293,8.77418475 17.1277708,8.87396553 C16.9886139,9.08994777 16.8545675,9.32285336 16.664473,9.49929191 C16.4750487,9.67497645 16.3027153,9.88526172 16.087906,10.0306183 C15.9545298,10.1210158 15.8265155,10.1872012 15.6983337,10.2922601 C15.6020716,10.3710123 15.5559094,10.3862601 15.4530288,10.428736 C15.3255172,10.481433 15.201608,10.5817165 15.0795421,10.6505828 C14.9651,10.7151764 14.8477256,10.7770891 14.7264974,10.828278 C14.5005455,10.9237861 14.2510516,11.0440927 14.0147111,11.1049163 C13.8911371,11.1366685 13.7658037,11.1194938 13.6413081,11.1379252 C13.4977947,11.159205 13.3739694,11.1686721 13.2281102,11.1694261 C12.9466128,11.1710179 12.6775146,11.083804 12.3967712,11.0869038 C12.2351616,11.0886631 12.0887997,11.0450143 11.9298709,11.0178699 C11.6891739,10.9766506 11.4442041,10.9355989 11.2029206,10.899574 C11.0316764,10.8739376 10.9208368,10.7840427 10.772548,10.7003475 C10.5584926,10.579622 10.3215657,10.4808466 10.129628,10.3255203 C10.0180344,10.2352066 9.92998266,10.1197591 9.82869386,10.0185541 C9.69607172,9.88593195 9.54753157,9.77601392 9.42764383,9.63015469 C9.35140495,9.53749513 9.26569905,9.45715108 9.1845172,9.36960203 C9.08708224,9.2644594 9.03254212,9.13409929 8.9560519,9.01479801 C8.79779339,8.76764999 8.63090564,8.48472834 8.40386458,8.29354469 C8.18620676,8.11023626 8.06196252,7.82580659 7.7912726,7.71086181 C7.63360054,7.64383862 7.39994094,7.685393 7.23824749,7.685393 C6.93237039,7.685393 6.62615819,7.69025218 6.32019731,7.68757125 C5.64720069,7.68137161 4.97872813,7.60530028 4.30514505,7.60530028 C3.72908071,7.60530028 3.15259748,7.5988493 2.57661692,7.6052165 C2.39464896,7.6072272 2.21494302,7.58058548 2.03498575,7.55436266 C1.81682526,7.52244286 1.60804802,7.52998297 1.38871462,7.52822361 C1.16343292,7.52654803 0.954739455,7.45550345 0.736914081,7.44436084 C0.582425623,7.43648562 0.423915774,7.4433555 0.26992999,7.4497227 C0.318856921,7.39007206 0.296571709,7.2902075 0.296404151,7.21698466 C0.295733919,6.99941063 0.301598449,6.78451752 0.276464752,6.56794883 C0.251917508,6.35573665 0.248315011,6.13975441 0.25501733,5.92620177 C0.259122501,5.7992766 0.295733919,5.67989153 0.297409499,5.55196102 C0.300006648,5.35952068 0.29648793,5.16657766 0.29648793,4.97396976 C0.29648793,4.81093585 0.306038735,4.6460588 0.293136771,4.48361134 C0.284507535,4.37721202 0.244880072,4.26880201 0.256441573,4.16164868 L0.496719716,4.08155596 C0.558967506,4.15109252 0.652967533,4.15402479 0.740013904,4.16340804 C0.901037122,4.18091784 1.06197656,4.19281446 1.22383757,4.19851143 C1.71704449,4.2157699 2.20857582,4.20378951 2.70044227,4.17052925 C3.48226781,4.11766471 4.26342311,4.24358453 5.04214882,4.15812996 C5.19831286,4.14103905 5.34819347,4.08524224 5.50511152,4.08071817 C5.67643955,4.07577521 5.84877294,4.08155596 6.02018475,4.08155596 C6.31274098,4.08155596 6.60848082,4.06932423 6.90070194,4.07870748 C7.29982504,4.0913581 7.69643478,4.17798558 8.09505522,4.20655422 C8.07151332,4.15963798 8.02928871,4.1799125 7.99485555,4.15368967 C7.96838139,4.13358272 7.9120819,4.07460231 7.90186087,4.04444187 C7.88837245,4.00464685 7.90504447,3.93862901 7.91275214,3.89724218 C7.93537246,3.77559509 7.95430652,3.64305673 7.99477177,3.5259337 C8.03465057,3.41015114 8.07972366,3.28724736 8.14322814,3.1821885 C8.28012301,2.95565012 8.46041539,2.80602084 8.64556696,2.62304752 C8.71795201,2.55141649 8.76587359,2.46219186 8.83457236,2.38771234 C8.92480234,2.29010982 9.03497171,2.19996362 9.13299313,2.11023633 C9.26377213,1.99076749 9.40695042,1.88017922 9.5402428,1.76330753 C9.60575797,1.70575136 9.62779184,1.70156241 9.70436584,1.67894209 C10.1103588,1.55855168 10.5454231,1.4472094 10.8853983,1.1836407 C11.0114019,1.08603817 11.0542967,1.07414156 11.1933698,1.03652479 C11.2853592,1.01155865 11.3668761,0.945624586 11.458279,0.923842049 C11.59132,0.89217359 11.747149,0.906416019 11.8847141,0.886979293 C11.9756143,0.874161108 12.0640849,0.877763604 12.1559066,0.878182499 C12.6678801,0.88061209 13.1803561,0.882455228 13.6923295,0.878182499 C13.8587146,0.876842035 14.0220836,0.903735091 14.1806773,0.95442138 C14.4461729,1.03912194 14.6928182,1.11762285 14.95069,1.22921647 C15.3357382,1.3957691 15.7219594,1.56014348 16.1181502,1.69879771 C16.2565531,1.74713818 16.5195353,1.79087082 16.6216619,1.92106337 C16.6432769,1.94871043 16.6606192,2.00040207 16.6805586,2.03265698 C16.8673857,2.33367489 17.1078314,2.58668744 17.3064714,2.87857344 C17.4119491,3.0334808 17.5537032,3.21402452 17.6317852,3.38602279 C17.6669724,3.46343457 17.6631186,3.5307091 17.6743449,3.6108856 C17.686074,3.69416191 17.7299742,3.76327958 17.747484,3.84320474 C17.7587942,3.89472881 17.7503325,3.9426504 17.7582915,3.99450959 C17.9751115,4.07518876 18.2496553,4.02735096 18.4710831,4.03732066 C18.811561,4.05265221 19.1365397,4.15804618 19.477939,4.16558629 C19.7536557,4.17161838 20.030629,4.16022443 20.3065132,4.16206757 C20.5266844,4.16340804 20.7199626,4.11163262 20.9363637,4.08943119 C21.251624,4.05726006 21.574592,4.08163974 21.8911928,4.08155596 C22.5084764,4.08130463 23.1309543,4.05658982 23.7471488,4.09043654 C24.5913059,4.1368501 25.440406,4.07879126 26.2828037,4.14304974 C26.7244866,4.17681267 27.1690179,4.11925651 27.6117898,4.12068075 C28.0685529,4.12202121 28.5257348,4.13115312 28.9822466,4.11263797 C29.6169562,4.08683404 30.2561061,4.05248465 30.891486,4.08943119 C31.0748782,4.1001549 31.2574326,4.1180836 31.4402384,4.13349894 C31.8036716,4.16399449 32.1516058,4.15335456 32.5155417,4.12956132 C32.9611621,4.10040624 33.3969804,4.21426188 33.8431873,4.2046273 C34.0325279,4.20060591 34.2217846,4.20161126 34.4112927,4.20161126 L35.1694088,4.20161126 C35.3760915,4.20161126 35.5862092,4.21342409 35.7924731,4.2026166 C35.8808599,4.19792498 35.9488047,4.16525117 36.0374429,4.15980554 C36.147696,4.15301944 36.2477281,4.12352924 36.258033,4.2409036 C36.2644002,4.31345621 36.2180704,4.37612289 36.2146354,4.45001596 C36.1965392,4.82442427 36.2221755,5.20235129 36.2176515,5.57709471 Z M0.376572267,16.6629275 L0.336442131,16.6151275 C0.373137328,16.6151275 0.409916305,16.6157275 0.446611503,16.6161275 C0.420137342,16.6234275 0.395171203,16.6387275 0.376572267,16.6629275 Z M0.518432456,16.617336 C0.521557678,16.6173749 0.524683924,16.6174171 0.527811503,16.6174632 C0.526733205,16.6172191 0.525653087,16.6169832 0.524571255,16.6167558 C0.52123818,16.6167035 0.517905432,16.6166522 0.514573019,16.616602 C0.515851323,16.6168821 0.517140607,16.6171184 0.518432456,16.617336 Z M21.9279802,17.9342779 C21.876121,18.2182049 21.9623296,18.4988645 21.9604864,18.7812835 C21.9593973,18.9273941 21.9599838,19.0735884 21.9599838,19.219699 C21.9599838,19.2685421 21.9453225,19.3498915 21.9559624,19.3973942 C21.9796718,19.5029557 22.1194152,19.5850591 22.2015186,19.6545119 C22.2963564,19.7351073 22.3798003,19.807241 22.4604795,19.9005708 C22.6256079,20.0910842 22.9147291,20.0587455 23.1416026,20.0588293 C23.3772729,20.0589969 23.6128595,20.0588293 23.8485298,20.0588293 C23.992881,20.0588293 24.1990611,20.0980379 24.3244782,20.020291 C24.428029,19.9562001 24.4900255,19.8419255 24.5862038,19.7790075 C24.6032109,19.7678649 24.6258312,19.7699594 24.6430059,19.7581465 C24.6704854,19.7392125 24.6946976,19.6579469 24.7149721,19.6323105 C24.7995889,19.5244869 24.9460345,19.4030912 25.0660061,19.3343086 C25.1283376,19.298535 25.1578278,19.2947649 25.2039063,19.239387 C25.2996657,19.1241909 25.3253858,19.0101677 25.3235427,18.8643085 C25.3219509,18.7326079 25.3645106,18.6465669 25.3636728,18.5130232 C25.3627512,18.3612157 25.3637566,18.2094081 25.3637566,18.0576844 C25.3637566,17.9369588 25.3837798,17.7941157 25.3600703,17.6761549 C25.3403822,17.5784685 25.2846692,17.4965327 25.2155515,17.425907 C25.170646,17.3799123 25.1106603,17.339112 25.0773162,17.2830638 C25.0576282,17.2501387 25.0553661,17.2077465 25.0373536,17.1756592 C24.9741005,17.0628926 24.8242199,17.0236003 24.7571129,16.9120905 C24.7222609,16.8541154 24.7287118,16.8288141 24.6658776,16.7939621 C24.6045514,16.7597803 24.5049382,16.7503132 24.4348151,16.7251795 C24.3510362,16.6951867 24.254439,16.6616751 24.1656332,16.6532972 C23.9016456,16.628331 23.6076652,16.6460084 23.3435938,16.6537161 C23.2222818,16.6572348 23.0886543,16.672315 22.9695206,16.6940975 C22.9103726,16.704905 22.8633726,16.7462918 22.8009573,16.735233 L22.9610589,16.7752794 L22.9851035,16.7731011 C22.9577915,16.8176715 22.8757719,16.8307411 22.8307826,16.8454024 C22.7432336,16.873971 22.6595383,16.8888837 22.5685544,16.895586 C22.3981479,16.9080691 22.2161799,17.0172331 22.1188287,17.1608303 C22.0678073,17.2358963 22.0455221,17.3206806 22.0301906,17.4091512 C21.9996112,17.5848358 21.9596487,17.7609392 21.9279802,17.9342779 Z M36.0527493,29.155862 C36.0931308,29.4191794 36.0366637,29.7022686 36.0586976,29.9688534 C36.0696726,30.1014755 36.1022627,30.2260549 36.0962306,30.3596824 C36.0910363,30.4726164 36.057776,30.5742404 36.0537546,30.6889338 C36.0473037,30.8756772 36.0540898,31.0471727 36.0241807,31.2297272 C36.0027332,31.3602548 36.0153001,31.4952228 36.0153001,31.6272585 C36.0153001,31.6892549 36.0196566,31.7519216 36.0173108,31.8137505 C36.0143785,31.8957701 35.9942716,31.9696632 35.9839667,32.0498397 C35.9723215,32.141075 36.0071735,32.3269806 35.9672947,32.413273 C35.9191218,32.5171589 35.8240327,32.5395279 35.7281057,32.5561999 C35.5724443,32.5830092 35.4352981,32.6655315 35.2729345,32.6872303 C35.0124656,32.7220823 34.7513265,32.7169718 34.4889307,32.7147935 C33.7487433,32.7088452 33.0046183,32.6941001 32.2649336,32.7160502 C32.1119532,32.7205743 31.9679371,32.7549237 31.8172187,32.7530805 C31.4095501,32.7481376 30.9969386,32.7387543 30.5897727,32.7617098 C30.0606246,32.7915351 29.5303874,32.807118 29.0004852,32.8246278 C28.4379931,32.8432267 27.8806115,32.7893568 27.3187058,32.7917864 C26.6173081,32.7948025 25.9200156,32.751405 25.2187016,32.7527454 C24.8207514,32.7535832 24.4214608,32.7633854 24.0241808,32.7416866 C23.8581308,32.7326385 23.706072,32.7458756 23.5416138,32.7492267 C23.4140184,32.7518239 23.2955549,32.7347329 23.1692162,32.7214121 C22.6912571,32.6709771 22.198469,32.7175583 21.7176614,32.7141233 C21.3177005,32.711191 20.9209232,32.6702231 20.519957,32.6716474 C20.2072938,32.6728203 19.8947144,32.6725689 19.5820512,32.6725689 L16.704578,32.6725689 C16.550676,32.6725689 16.3968578,32.6724852 16.242872,32.6725689 C16.1734192,32.6725689 15.9142908,32.6336955 15.847854,32.678601 C15.7825902,32.7228363 15.8025296,32.7905298 15.794403,32.8528613 C15.7825902,32.9434264 15.7350875,33.0369238 15.6878362,33.1146707 C15.5525331,33.336685 15.4060874,33.5259417 15.2113013,33.6960131 C15.0289982,33.8551932 14.8518894,34.0224998 14.6632191,34.1742236 C14.6189,34.2098296 14.555982,34.2338742 14.5153492,34.268056 C14.4671763,34.3086051 14.4864455,34.3031594 14.4459802,34.3514999 C14.3022155,34.5233306 14.1261958,34.6551987 14.0173669,34.8589492 C13.9407929,35.0021275 13.8841583,35.1569511 13.8115219,35.3021401 C13.7965255,35.3318816 13.6687625,35.5949477 13.5925236,35.6454664 C13.5420887,35.6788942 13.5333757,35.6633951 13.482438,35.6830832 C13.3967321,35.7160083 13.3119478,35.7653541 13.2220529,35.7892311 C13.0305342,35.8402525 12.8288781,35.8426821 12.6359351,35.896552 C12.5145394,35.9304825 12.3968299,35.9436358 12.2764395,35.9732098 C11.9439207,36.054643 11.6558047,36.2919889 11.2973144,36.2792545 C10.9461129,36.2668552 10.5771502,36.1648124 10.2462232,36.0574915 C9.86762596,35.9346715 9.43415346,35.91247 9.0838735,35.7200297 C8.95292694,35.6481473 8.82365596,35.5802863 8.69497143,35.5045501 C8.58329404,35.4388674 8.49750435,35.3638852 8.39227794,35.2912488 C8.30305332,35.2296713 8.20628858,35.2007675 8.11698018,35.1318174 C7.95042755,35.0032167 7.77842928,34.8895286 7.60701747,34.7715678 C7.41742561,34.6412076 7.21518313,34.5532397 7.05575171,34.3894518 C6.97172139,34.3031594 6.90360907,34.2006977 6.82150566,34.1120595 C6.74015626,34.0243429 6.65034518,33.9266566 6.57913304,33.8306459 C6.48898685,33.7089988 6.41802604,33.5690041 6.35326488,33.4325282 C6.28255541,33.2834853 6.24259284,33.1320129 6.14381741,32.9941965 C6.04914715,32.8621608 5.96587083,32.7188987 5.79437524,32.7312142 C5.6202825,32.7436973 5.46043218,32.7663176 5.28206671,32.7457918 C4.97292224,32.7102695 4.6895817,32.6690502 4.37708606,32.6726527 C4.16303074,32.6750823 3.96003425,32.6299254 3.74623027,32.6310146 C3.54197709,32.6320199 3.33780769,32.6325226 3.13363829,32.6325226 L2.22714962,32.6325226 C2.06218879,32.6325226 1.89739552,32.633109 1.73243469,32.6332766 C1.39832407,32.633863 1.07828833,32.5389414 0.752136723,32.4782855 C0.63962154,32.4573407 0.517723109,32.4534869 0.407386179,32.4293585 C0.358291691,32.418551 0.366502032,32.4415065 0.324863874,32.398109 C0.270239973,32.3409717 0.296043902,32.1991339 0.296546576,32.1265813 C0.298724829,31.8225473 0.296462797,31.5184296 0.296462797,31.2143956 C0.296462797,31.0227931 0.295541228,30.8311067 0.296379018,30.6394204 C0.297049249,30.4728678 0.259264925,30.3185469 0.254321965,30.153586 C0.247116971,29.9105432 0.217459209,29.6718568 0.21653764,29.4294842 C0.215867408,29.2519566 0.284901296,29.1976678 0.419617912,29.0845661 C0.418612564,29.0926089 0.417607216,29.1006517 0.416685647,29.1086945 L0.336509154,29.2288335 C0.379739113,29.2235555 0.411826466,29.1959084 0.453715961,29.1867765 C0.521912059,29.1717801 0.690726724,29.1859387 0.736972726,29.1867765 C0.952703626,29.1902952 1.16340779,29.2273255 1.37913868,29.230928 C1.65477156,29.2355359 1.93115845,29.2297551 2.20679133,29.2290011 C2.59326381,29.2277444 2.97286641,29.2439138 3.35707686,29.2903273 C3.46163304,29.3028942 3.57364555,29.326855 3.67836929,29.3059102 C3.75444061,29.2906624 3.81777753,29.2708068 3.89711623,29.2673719 C4.02270094,29.2617587 4.14920721,29.2737391 4.27504325,29.2709744 C4.38982047,29.2683772 4.49077415,29.2349494 4.60245155,29.2267391 C4.74764054,29.2161829 4.89919673,29.2284147 5.04505595,29.2287498 C5.2087601,29.2290849 5.34079579,29.2098995 5.49461401,29.1879494 C5.731541,29.1542702 5.97131647,29.2380492 6.20748944,29.2305091 C6.11441098,29.2506161 6.13393149,29.089174 6.14096892,29.0306125 C6.16476215,28.8310509 6.30584597,28.6389457 6.38317398,28.4580668 C6.47901715,28.2342932 6.59647529,28.0119437 6.72876232,27.8085283 C6.80332562,27.6936673 6.90813313,27.595981 6.99283369,27.4891628 C7.23269294,27.1861342 7.53898893,26.9706547 7.84076085,26.7369113 C7.93182861,26.6663694 8.03948461,26.6212963 8.13113883,26.5510895 C8.27666294,26.4395796 8.41464693,26.323462 8.56678958,26.2204138 C8.70804095,26.1247382 8.83990909,26.0619039 9.00713195,26.0252925 C9.18365428,25.9867542 9.36788428,25.968993 9.54139057,25.9267684 C9.64351716,25.9018861 9.74254392,25.883706 9.84684877,25.86628 C9.96682028,25.8462568 10.0843622,25.7871926 10.2049202,25.7831712 C10.352455,25.7781445 10.4789612,25.7231017 10.6275852,25.7080215 C10.8643446,25.6840607 11.1112413,25.7050054 11.349425,25.7050054 C11.8304001,25.7050054 12.3294716,25.7030785 12.7875751,25.8623424 C13.0808016,25.9643014 13.3409353,26.1497881 13.6115415,26.2985796 C13.7760834,26.3890609 13.9401227,26.4353907 14.0910924,26.544806 C14.1615505,26.5957437 14.1990835,26.649446 14.2539588,26.719569 C14.3909374,26.8944995 14.567376,27.031562 14.7332584,27.1764996 C15.0050374,27.4139293 15.2283922,27.6605746 15.4550981,27.937548 C15.6363121,28.1588921 15.6890091,28.4060401 15.79633,28.6661739 C15.81451,28.7102416 15.8303442,28.7680491 15.8553104,28.807509 C15.9052427,28.8865964 15.9697525,28.9300777 15.9989076,29.0265911 C16.0741411,29.0229886 16.1498773,28.9918228 16.2248595,28.9795073 C16.4613676,28.9408014 16.7029862,28.9090491 16.9428454,28.9054466 C17.2259347,28.9012577 17.510113,28.9084627 17.7933698,28.9084627 C17.9929313,28.9084627 18.1924091,28.9087978 18.3918869,28.9100545 C18.5363218,28.9109761 18.6783272,28.8735269 18.8200813,28.87537 C18.9287426,28.876878 19.0393309,28.9069547 19.1495003,28.9139083 C19.4119798,28.9304128 19.6536822,28.9329262 19.9154078,28.9162541 C20.1437055,28.9015928 20.3674792,28.9588976 20.5944365,28.9529493 C20.6844989,28.9505197 20.7632512,28.9106409 20.8533136,28.9153326 C20.9753796,28.9217836 21.0905757,28.9511062 21.2154902,28.9475875 C21.5471712,28.938288 21.8752497,28.9986089 22.2052551,29.0218157 C22.461954,29.0398281 22.7214175,29.0306962 22.9788703,29.0284342 C23.7306192,29.0218157 24.4693824,29.234363 25.2191205,29.2335252 C25.449429,29.2332738 25.6798212,29.2297551 25.9102134,29.2290011 C26.5560657,29.2266553 27.2126416,29.3164664 27.8541373,29.2261526 C28.1168682,29.1892061 28.3805207,29.1148941 28.6462677,29.1089458 C28.7015618,29.1076891 28.7517454,29.1099512 28.806872,29.1176588 C28.9982232,29.1442168 29.1811128,29.1502489 29.3748098,29.149076 C29.5136316,29.1482382 29.6772519,29.1747123 29.8135603,29.1453897 C29.8622359,29.1349173 29.9005229,29.1102025 29.9502039,29.1056784 C30.0778831,29.0941169 30.2205587,29.1387711 30.3483216,29.1457248 C30.7109171,29.1654966 31.0768637,29.1504164 31.4381187,29.1176588 C32.1622206,29.0517248 32.897465,29.1503326 33.6224046,29.1487408 C33.8912514,29.1480706 34.1600981,29.1485733 34.4288611,29.1488246 C34.6797792,29.149076 34.9179629,29.1880332 35.1693836,29.1895412 C35.2362393,29.1899601 35.2552571,29.1692667 35.3023409,29.1576214 C35.3579701,29.1439654 35.4119238,29.1497462 35.4700664,29.1492435 C35.546054,29.1484895 35.6043641,29.1273772 35.6785923,29.1155644 C35.7952965,29.0969654 35.9379721,29.131231 36.0527493,29.155862 Z M12.67883,31.1059018 C12.6655091,31.0409731 12.6624931,30.9622209 12.6668496,30.8976273 C12.6722952,30.8205506 12.725076,30.7268857 12.712928,30.6515684 C12.704969,30.6017199 12.6800029,30.5750781 12.6684414,30.5256485 C12.6213576,30.3238249 12.7199655,30.152832 12.5901918,29.9688534 C12.5584396,29.9237803 12.5130313,29.8468712 12.4708067,29.8121029 C12.4121614,29.7640137 12.3167372,29.7380423 12.2492113,29.682413 C12.0087656,29.4843595 11.7879242,29.3317141 11.4846442,29.2259851 C11.328564,29.1715287 11.1195354,29.0495465 10.9481236,29.0687319 L10.869874,29.1468139 C10.7491485,29.1423736 10.618537,29.1303932 10.5059381,29.1523433 C10.3495227,29.1827551 10.1950342,29.2749958 10.0800895,29.3820653 C9.97938713,29.4759816 9.93749763,29.6318105 9.84257604,29.727905 C9.75603234,29.8153703 9.68716601,29.850725 9.62768293,29.9676805 C9.57456705,30.0721529 9.4571089,30.18316 9.42644579,30.2921565 C9.39662047,30.3978018 9.42309463,30.5155951 9.38841013,30.6294507 C9.33588071,30.8027057 9.26726571,30.9917111 9.2964208,31.1598555 C9.30848498,31.2298947 9.29692348,31.2925614 9.31711421,31.3595846 C9.36235487,31.5098003 9.51072746,31.6295205 9.56803229,31.7749608 C9.57967757,31.8042835 9.57976135,31.8438272 9.59425511,31.871558 C9.60657062,31.8953512 9.65088971,31.9243388 9.6601054,31.9507292 C9.69923019,32.0632443 9.61469718,32.0696953 9.75963484,32.1318593 C9.86896642,32.1787756 9.94847268,32.2328968 10.047667,32.2907043 C10.1358025,32.3420608 10.2886154,32.3438202 10.3889826,32.3721375 C10.5515976,32.4180484 10.7184016,32.4573407 10.8882216,32.4288559 C11.11476,32.3909877 11.3431415,32.407576 11.5697637,32.3632569 C11.6307548,32.3512765 11.7871702,32.337453 11.8463181,32.3087168 C11.8779866,32.2933852 11.889967,32.2618005 11.918033,32.2410234 C11.9467692,32.2197435 11.9935178,32.2042444 12.0262754,32.1829645 C12.096566,32.137305 12.1632541,32.1057203 12.2404983,32.0718736 C12.373288,32.0138985 12.4717283,31.922747 12.551821,31.8013512 C12.6281437,31.6857362 12.6399565,31.5469982 12.6660956,31.4147112 C12.6778246,31.3551443 12.7058068,31.292729 12.7141009,31.2347539 C12.7176196,31.2100391 12.6795002,31.1090854 12.67883,31.1059018 Z" id="icon-cm--filter" fill="#765AA8"></path>
    </g>
</svg>