<?xml version="1.0" encoding="UTF-8"?>
<svg width="60px" height="60px" viewBox="0 0 60 60" version="1.1" xmlns="http://www.w3.org/2000/svg" xmlns:xlink="http://www.w3.org/1999/xlink">
    <!-- Generator: Sketch 46.2 (44496) - http://www.bohemiancoding.com/sketch -->
    <title>icon-cm-instagram</title>
    <desc>Created with Sketch.</desc>
    <defs></defs>
    <g id="Page-1" stroke="none" stroke-width="1" fill="none" fill-rule="evenodd">
        <g id="Instagram-icon" transform="translate(0.181790, -0.479684)">
            <g>
                <circle id="Oval-Copy-4" fill="#A14F8C" cx="29.8596021" cy="30.0734874" r="29.4444444"></circle>
                <path d="M44.0408953,38.1402682 C44.1386941,37.3659043 44.2551301,36.5932934 44.3291251,35.8167152 C44.4077332,34.9913298 44.5229698,34.1581021 44.4810824,33.3355769 C44.4374419,32.480206 44.2047545,31.6396895 44.305598,30.7650356 C44.3474855,30.401796 44.2261595,30.0227793 44.2313263,29.6516973 C44.2441508,28.7264833 44.2939729,27.8018228 44.3125178,26.8766088 C44.3168541,26.6594216 44.2209005,26.4392819 44.2315108,26.2233863 C44.2791185,25.2489961 44.4045963,24.274975 44.3928789,23.302061 C44.3828222,22.4631129 44.2315108,21.6250875 44.1319589,20.7879847 C43.8917059,18.7687153 42.9167621,17.1498676 41.3880554,15.8505269 C41.1798177,15.6735663 40.8877128,15.5677406 40.6167362,15.4974362 C39.9332514,15.3201988 39.2351891,15.1990574 38.5521656,15.0203439 C38.2675341,14.9458876 38.0155637,14.7091405 37.7325928,14.6732502 C36.9330411,14.5719454 36.1256471,14.5267365 35.3202828,14.4776525 C34.5959255,14.4334585 33.8699997,14.4164821 33.1450888,14.3813299 C32.7286133,14.3611243 32.3131528,14.3184987 31.896585,14.304567 C31.4289958,14.2888823 30.9602072,14.3044747 30.4927103,14.2874983 C29.982311,14.2689535 29.4624086,14.1519639 28.965572,14.2186701 C28.4202051,14.2917424 27.9087909,14.3345525 27.3594566,14.2151641 C26.8747987,14.1098919 26.3918939,13.9134639 25.8436667,14.1724463 C25.4902992,14.3393502 25.0207725,14.2737511 24.602544,14.2840846 C24.4009492,14.2890668 24.1947413,14.1900685 23.9958221,14.205661 C23.5121791,14.2435811 23.032688,14.3602016 22.5495986,14.3739488 C21.6779894,14.3987676 20.8353509,14.529043 20.0134715,14.8274218 C19.7175839,14.934816 19.3868208,14.9427506 19.0834598,15.0341833 C18.7717952,15.1280148 18.4029275,15.1939829 18.1840795,15.4029588 C17.6311469,15.9313493 17.1493492,16.5340117 16.6371047,17.1052123 C16.3366962,17.4403117 16.0320435,17.7715361 15.730251,18.1054362 C15.5706359,18.2821199 15.3531719,18.4356457 15.2667214,18.6433298 C15.0537783,19.1546517 14.8838297,19.686087 14.732426,20.2196443 C14.6568626,20.4860077 14.6821426,20.7795888 14.6229098,21.0523184 C14.476396,21.7269459 14.2829204,22.3921626 14.1605795,23.0706652 C14.1159242,23.3181147 14.1258886,23.6767413 14.2723101,23.8380171 C14.6830653,24.2903829 14.6359188,24.8130532 14.5991059,25.3207768 C14.5057357,26.609415 14.2919621,27.8925174 14.2578248,29.1813402 C14.2145534,30.8115362 14.3014652,32.445146 14.3320966,34.0772796 C14.3329269,34.1234112 14.3263763,34.1703731 14.3330192,34.2154897 C14.4857146,35.2434847 14.7374082,36.2681583 14.7697003,37.2996594 C14.8135252,38.7012276 15.4626882,39.857376 16.1215387,40.9863069 C16.5085822,41.649586 17.1581142,42.2010424 17.7879941,42.6709382 C18.5797035,43.2617908 19.4099788,43.8288396 20.4670367,43.916674 C21.3784113,43.992422 22.2795446,44.202505 23.1911037,44.2620147 C24.1353239,44.3237387 25.0867406,44.2757619 26.0350203,44.2757619 C26.6859363,44.2757619 27.3370367,44.2860953 27.9876758,44.2717023 C28.3443648,44.2637677 28.6996699,44.200752 29.0565434,44.1870971 C29.4608402,44.1715969 29.8679971,44.2069336 30.2708176,44.177594 C30.7750352,44.140781 31.2748242,44.041506 31.7791341,44.006815 C32.0384856,43.9890083 32.3441532,44.1506532 32.5582035,44.061527 C33.2284024,43.7821545 33.825898,44.1344149 34.454763,44.1834988 C34.8522323,44.2144992 35.2497938,44.2444847 35.6471708,44.2758541 C36.1977968,44.31931 36.7498067,44.350864 37.2986797,44.4110195 C37.8720946,44.4738507 38.4723581,44.7153031 39.0077607,44.6095696 C39.9352812,44.4263352 40.8422271,44.0819172 41.6563564,43.5635833 C41.9279789,43.3906823 42.2735963,43.2293142 42.4111605,42.9701473 C42.8166567,42.2065782 43.1993639,41.4179135 43.4686798,40.598802 C43.7243407,39.8211166 43.8256456,38.9925943 44.0408953,38.1402682 M48.308062,28.4295807 C48.3212556,28.8579581 48.3762444,29.2627162 48.3883308,29.6687659 C48.3994947,30.0407706 48.3667413,30.4142515 48.3470893,30.7866252 C48.3442291,30.84023 48.2813057,30.8958647 48.288779,30.9439337 C48.4098281,31.7175595 48.0238917,32.5029027 48.3630508,33.2804958 C48.4424893,33.4624386 48.3595448,33.7244657 48.3218092,33.9446053 C48.3009577,34.0662081 48.2191204,34.1772928 48.1647774,34.2931752 C48.1104345,34.1894715 48.061166,34.0825386 47.9996266,33.9832636 C47.9681649,33.9324266 47.9147445,33.8949678 47.8712886,33.8515119 C47.7843768,33.9682247 47.6853786,34.0783868 47.6158122,34.2046949 C47.5847196,34.2611599 47.5887791,34.4038909 47.6172884,34.4165309 C48.2924695,34.7168472 48.101485,35.3899062 47.964013,35.7585894 C47.734278,36.3749067 47.7519002,36.9953758 47.6508722,37.6073567 C47.4286105,38.9544897 47.2921534,40.3156467 47.0750584,41.6637023 C46.9846406,42.2252153 46.8215195,42.7856211 46.6074692,43.312351 C46.4847593,43.6144202 46.1253947,43.8174912 45.9908751,44.117992 C45.5348188,45.1366685 44.604069,45.6685651 43.7880022,46.298445 C43.24079,46.7207331 42.5681923,46.9789774 41.9597174,47.3245948 C41.7944742,47.4184263 41.6348591,47.5436273 41.5131641,47.6883881 C41.206574,48.053104 40.7677709,48.0882562 40.4907049,47.8357322 C40.067771,47.4502571 39.5866191,47.4563465 39.1133096,47.4354028 C38.4888732,47.4077238 37.8559486,47.4413999 37.2341878,47.5134573 C36.3197686,47.6194676 35.3853283,47.7958745 34.4941593,47.8069461 C33.6472767,47.8174641 32.7592447,48.3110715 31.9156835,47.7891393 C31.343468,48.0644523 30.7333323,47.6073811 30.118399,47.9361144 C29.7527605,48.1316198 29.2263997,48.020166 28.7734803,48.0603927 C28.1679578,48.1143666 27.5647419,48.1971266 26.9585736,48.239014 C26.26005,48.2872676 25.5588507,48.3367206 24.8597734,48.3257413 C24.235337,48.3159614 23.6260318,48.2175167 23.0203247,47.9901806 C22.5791228,47.8246606 22.0880987,47.7901542 21.5580474,47.9281798 C21.0929493,48.0492289 20.5355882,47.8779887 20.0316473,47.7741927 C19.1160287,47.585607 18.207053,47.3620536 17.3013065,47.1297352 C17.0011747,47.0527878 16.7109151,46.9212207 16.4308967,46.7845791 C15.7396619,46.4471731 15.0332959,46.1311721 14.3785972,45.7319498 C13.879823,45.4277585 13.4508921,45.0090687 12.9908684,44.6414004 C12.4976301,44.2470681 12.198421,43.7450647 12.1114169,43.1128782 C12.0949941,42.9937666 12.0043917,42.8797295 11.9317807,42.7744573 C11.4993437,42.1468839 11.5153052,41.4014907 11.3813393,40.6963241 C11.2483882,39.9965087 11.1156217,39.2961398 11.0073048,38.5922649 C10.950563,38.2239508 10.9403218,37.8477942 10.9198394,37.4746824 C10.8842259,36.8265344 10.8567315,36.1780173 10.8265615,35.5296848 C10.8237013,35.4683298 10.8082934,35.3998706 10.8288681,35.3462658 C11.2458971,34.2614367 11.1704259,33.1107318 11.2929513,31.9855837 C11.4438936,30.5990544 11.444724,29.2371593 11.0264955,27.8819072 C10.8679876,27.3684632 10.8666959,26.8014144 10.8324663,26.2563243 C10.8023886,25.7763718 10.7776621,25.2870085 10.8364336,24.8124996 C10.9530541,23.8716009 11.1407172,22.9397439 11.2760671,22.0007827 C11.3626099,21.4002424 11.3924108,20.7913985 11.4824596,20.1914118 C11.5067248,20.029121 11.6310031,19.857604 11.7556505,19.739046 C12.1413101,19.3721158 12.3817477,18.8665142 12.0590115,18.3026946 C11.9238461,18.0667779 12.0022697,17.6904369 12.0303177,17.382186 C12.1504442,16.0646695 12.9769367,15.0538353 13.6315431,13.9959471 C13.8872963,13.5827931 14.2392799,12.9916636 14.931991,12.9882499 C15.0083848,12.9878808 15.1088593,12.8591739 15.1562825,12.7681102 C15.4900903,12.1280813 16.1077915,12.0670032 16.7173736,11.9824902 C16.7877703,11.9727103 16.8757892,11.9678204 16.922013,11.9247335 C17.3651525,11.5111182 17.942627,11.6184202 18.4644669,11.5274488 C19.6235678,11.3252082 20.811547,11.4331559 21.9703711,11.0886457 C22.7655864,10.8522677 23.6364575,10.8501456 24.4768817,10.7914663 C25.3742323,10.7288197 26.2754579,10.7192244 27.1752995,10.6960663 C27.302069,10.6928371 27.4519965,10.7104594 27.5541317,10.7760584 C27.981771,11.0510023 28.3976929,10.9029201 28.841755,10.8239429 C29.2771444,10.746442 29.7349537,10.801523 30.1821528,10.7815942 C30.5850656,10.7636029 30.9911153,10.7490253 31.3884001,10.6863787 C32.1635943,10.5642224 32.9265176,10.4315481 33.7218252,10.5855352 C34.1367322,10.6659886 34.579964,10.6005741 35.0104634,10.5995592 C36.2606279,10.596699 37.5065483,10.6615599 38.7383525,10.8840985 C38.955632,10.9233103 39.149938,11.0762824 39.3640806,11.1501851 C39.8219822,11.3082318 40.285235,11.4512395 40.7476575,11.5960925 C41.8047154,11.9273169 42.712953,12.5270268 43.6057827,13.1597669 C44.2809638,13.6382432 45.0795006,13.9980691 45.6214538,14.5940885 C46.2145208,15.2463884 46.9532712,15.9114205 46.9016961,16.9525169 C46.897083,17.0445032 46.8614694,17.1705345 46.9070474,17.2241394 C47.5391416,17.9687023 47.2798824,18.9597921 47.6224552,19.7898829 C47.7815167,20.1751735 47.7776416,20.632706 47.8202672,21.0601608 C47.8940776,21.8021403 48.0512939,22.5558373 47.9846799,23.2872989 C47.8731339,24.5126446 48.2403409,25.65929 48.3655419,26.8433941 C48.4198848,27.3574839 48.3465357,27.8850441 48.308062,28.4295807 Z M31.5853817,23.9317656 C32.4442586,23.9464354 33.1334637,24.3370772 33.8492405,24.6335185 C33.9077353,24.6577836 33.9486078,24.7411895 33.9828374,24.8051278 C34.354104,25.4961781 34.6889266,26.2095561 35.1014348,26.8748651 C35.4603381,27.4537235 35.5337795,28.0739158 35.5502023,28.7184656 C35.5628424,29.2151177 35.5472499,29.7124156 35.5538006,30.2092522 C35.5694853,31.4165144 34.8021334,32.1769465 34.0143914,32.9279679 C33.8471185,33.0873984 33.6981136,33.267865 33.520784,33.4146555 C32.9076037,33.922656 32.3337274,34.505574 31.6495968,34.8904032 C31.2210349,35.1313944 30.616435,35.1527071 30.0999464,35.1217067 C29.3471721,35.0765901 28.5711474,34.9886634 27.8623826,34.7492407 C26.9657701,34.4463411 26.0970211,34.0257138 25.2702518,33.5600621 C24.2178993,32.9673642 23.7826022,31.9551461 23.6474368,30.7904172 C23.6073024,30.4446153 23.4476873,30.0955841 23.4803484,29.7614995 C23.6081327,28.4555159 23.5429027,27.1160407 24.1070914,25.8765787 C24.2713196,25.5158301 24.4556612,25.2403326 24.8524847,25.0673394 C25.2444181,24.8963759 25.6065507,24.6160807 25.9217213,24.3199163 C26.3669828,23.9016878 26.8422299,23.6153033 27.4672199,23.7046139 C28.2192561,23.8120081 28.7590873,23.2337033 29.4409113,23.1219727 C29.5102009,23.1106243 29.5925918,23.0399508 29.6409377,23.0609868 C30.2919458,23.3446035 30.9380641,23.6395685 31.5853817,23.9317656 Z M20.7675375,32.858217 C21.0840921,33.4822844 21.3211159,34.1197299 21.6817722,34.6771833 C22.6522874,36.1773807 23.6628447,37.6692744 25.5364307,38.1646348 C25.956689,38.2757196 26.4193883,38.2266356 26.8625278,38.2496091 C27.0868193,38.2612343 27.3317777,38.2150105 27.531435,38.2902049 C27.9156184,38.4350579 28.2797807,38.6376676 28.6420977,38.8351105 C28.9840246,39.0215742 29.2695788,39.0096722 29.5505199,38.7103708 C29.6852239,38.5668095 29.9180959,38.3561729 30.0459725,38.3920633 C30.7169095,38.5800954 31.2314606,38.1414768 31.8021999,37.9866594 C32.5825609,37.7748234 33.2794238,37.3067729 34.1266755,37.2478168 C34.5288502,37.2198611 34.9711594,37.1011185 35.302476,36.8827318 C35.7616693,36.5800167 36.1399478,36.1513625 36.5403695,35.7636731 C36.7772088,35.5344917 37.0057444,35.292947 37.2103839,35.035164 C37.7869358,34.3088691 38.3576751,33.5776844 38.9106076,32.8333982 C39.0332253,32.6683396 39.0788032,32.4437713 39.1488309,32.2427301 C39.1911796,32.1212196 39.2166442,31.9931585 39.2422011,31.8664813 C39.3364939,31.3978772 39.4611413,30.9322255 39.5102253,30.4587315 C39.5559878,30.0178063 39.428388,29.5429283 39.5430709,29.128944 C39.6882007,28.6055356 39.5870804,28.1611967 39.3241307,27.7613286 C39.002963,27.2730724 38.9957665,26.7236459 38.866875,26.1945172 C38.7867906,25.8655071 38.6999711,25.5057735 38.5041889,25.2433773 C37.8863954,24.415224 37.2170269,23.6255445 36.5640812,22.8238707 C36.4771693,22.7171224 36.3860134,22.5976417 36.2694852,22.5339802 C35.5702234,22.151642 34.9516919,21.6176234 34.1245535,21.4716633 C33.844166,21.422118 33.5905349,21.2088981 33.3298917,21.0612772 C32.8812164,20.8070924 32.4482259,20.5225531 31.9877409,20.2925413 C31.1947399,19.8962715 30.3132586,19.8920274 29.4600098,19.8422976 C28.6778958,19.7966274 27.8848025,19.8546608 27.1024117,19.9289326 C26.4977196,19.9864125 25.8421905,20.0175051 25.3149071,20.275934 C24.2292477,20.8077383 23.143865,21.397207 22.5415717,22.5475429 C22.2898781,23.0283257 22.0817326,23.5486894 21.747279,23.9656261 C21.1870577,24.663873 20.7414271,25.4093586 20.4959151,26.2643604 C20.3527228,26.7627654 20.3199694,27.2955846 20.1523274,27.7836562 C19.9243454,28.4473967 19.7796769,29.0892708 19.9512862,29.7960982 C20.1156067,30.47294 20.1817593,31.1733089 20.3396214,31.851996 C20.4188754,32.1926313 20.6060772,32.5082632 20.7675375,32.858217 Z M38.1129935,21.1408079 C38.477248,21.732491 38.854973,21.8805732 39.509764,21.7730867 C39.7534307,21.7330445 40.0147197,21.8028877 40.2682586,21.8190337 C40.3818345,21.8262302 40.5563962,21.8733766 40.6003134,21.819126 C40.931261,21.4102161 41.3930376,21.0202201 41.5127951,20.5480177 C41.6881872,19.8555834 41.5887276,19.1012406 41.1534305,18.4642565 C40.8064291,17.9564406 40.0086304,17.4548985 39.5390114,17.624109 C38.8853276,17.8595643 38.3184633,18.2452239 37.9400002,18.8647704 C37.4559882,19.6571256 37.7207832,20.3882181 38.1129935,21.1408079 Z" fill="#FFFFFF"></path>
            </g>
        </g>
    </g>
</svg>