<?xml version="1.0" encoding="UTF-8"?>
<svg width="283px" height="99px" viewBox="0 0 283 99" version="1.1" xmlns="http://www.w3.org/2000/svg" xmlns:xlink="http://www.w3.org/1999/xlink">
    <!-- Generator: Sketch 46.2 (44496) - http://www.bohemiancoding.com/sketch -->
    <title>ttc-logo</title>
    <desc>Created with Sketch.</desc>
    <defs>
        <polygon id="path-1" points="0.624194349 13.6485645 257.85414 13.6485645 257.85414 0.477396456 0.624194349 0.477396456"></polygon>
    </defs>
    <g id="Page-1" stroke="none" stroke-width="1" fill="none" fill-rule="evenodd">
        <g id="ttc-logo" transform="translate(0.195312, 0.023438)">
            <g id="Group-3" transform="translate(0.000000, 0.423864)" fill="#C5014B">
                <path d="M282.643421,36.1313898 C282.648729,35.8917817 282.47888,35.6855367 282.249129,35.6536901 C282.021653,35.6226017 281.803276,35.7742524 281.747165,36.0070362 C281.478743,37.1224273 281.453721,37.277111 281.616746,37.4932133 C281.703186,37.6084678 281.84043,37.6782271 281.980707,37.6782271 L281.981466,37.6782271 C282.299932,37.6782271 282.409879,37.4287617 282.57442,37.0526679 L282.588827,37.0193048 C282.614607,36.9616775 282.628256,36.8987425 282.629772,36.8335326 L282.643421,36.1313898 Z M282.46599,31.4506905 C282.497836,31.2019833 282.337845,30.9714742 282.100511,30.9244625 C282.098237,30.9237042 282.095962,30.9237042 282.093687,30.922946 C281.980707,30.3679043 281.852562,29.4253951 281.758539,28.7391756 C281.533338,27.0914906 281.43249,26.3514351 281.225487,26.0435842 C281.279323,25.1897906 281.215629,24.4125807 281.15042,23.6020076 C281.071561,22.6428168 280.991186,21.6517794 281.070803,20.3581988 C281.082177,20.1747014 280.98967,20.0010614 280.83347,19.9131039 C280.808447,19.8986971 280.782667,19.8873233 280.756886,19.8789825 C280.725798,19.6522647 280.68561,19.3216661 280.635565,18.8447246 C280.627983,18.7742071 280.601444,18.7006565 280.565048,18.6399962 C280.543058,18.6043583 280.48164,18.4633231 280.414914,18.2821005 L280.408089,18.1865605 C280.39065,17.9325456 280.17758,17.7391909 279.937972,17.7490482 C279.891719,17.751323 279.848498,17.7596638 279.806794,17.7740706 C279.657418,17.0893676 279.512592,16.318982 279.382931,15.631246 C279.240379,14.8775419 279.112992,14.1989049 278.993946,13.6840508 C279.126641,13.583203 279.204741,13.4019804 279.225214,13.143416 C279.229763,13.0835139 279.223697,13.0236119 279.207016,12.9659846 L278.900681,11.9180782 C278.909022,11.7550536 278.918121,11.5912709 278.92722,11.4312794 C278.933286,11.3145083 278.939352,11.2007703 278.945418,11.086274 C278.976507,11.0877905 279.007595,11.0915818 279.038683,11.0855157 C279.279808,11.041537 279.445107,10.8079949 279.411744,10.5562547 L279.055365,7.88568561 C279.054607,7.84853119 279.054607,7.80606899 279.052332,7.77194757 C279.053848,7.69157269 279.036409,7.63015415 279.014419,7.57631815 L279.000771,7.47167916 C278.984089,7.35111684 278.923429,7.25178562 278.840021,7.17899327 C278.833197,6.72176636 278.761921,6.07876732 278.589039,5.08545513 C278.614061,4.86177032 278.605721,4.57287571 278.556434,4.26274999 C278.59283,4.18389162 278.611028,4.09365944 278.600413,4.00115251 C278.583731,3.86011734 278.510181,3.74334629 278.405542,3.66903744 C278.259957,3.24138242 278.025657,2.80993613 277.658662,2.4543152 C277.495637,2.2958402 277.285601,2.13660695 277.024004,2.00542908 L276.846572,1.68241305 C276.870078,1.66876449 276.892826,1.65359941 276.914057,1.63540133 L277.453175,1.16755887 C277.609375,1.03183148 277.660178,0.805871908 277.57677,0.613275498 C277.494121,0.420679088 277.29925,0.309215811 277.096796,0.338787701 C275.764544,0.540483154 274.556646,0.73232131 273.411684,0.918851692 C273.40031,0.900653606 273.401068,0.88245552 273.384386,0.865015687 C273.191032,0.674694038 272.701958,0.608725976 272.221984,0.710331957 C270.935986,0.978753725 270.067027,1.14026174 269.484688,1.2388347 C269.361093,1.07808494 269.009263,0.940082792 268.098601,1.01969942 C267.680803,1.05609559 267.298643,1.21305408 267.128794,1.40868351 C267.128794,1.40868351 267.088607,1.43067286 266.964253,1.47389331 C266.534324,1.62478578 266.344002,1.87349295 266.471388,2.07291365 C263.873612,2.49601914 261.296308,2.8774207 258.139698,3.22318433 C258.02596,3.23455813 257.925871,3.28991065 257.853078,3.37180203 C255.779255,3.73424725 254.591071,3.79945705 253.581836,3.61671794 C253.487812,3.60079461 253.390756,3.61444318 253.304315,3.65766363 C253.141291,3.74031327 253.053333,3.84419401 253.007838,3.94428349 C250.870321,3.81917165 248.963313,4.06484581 247.255726,4.2854976 C245.665668,4.49098432 244.292471,4.66841566 243.096705,4.50235812 C243.080024,4.50008336 243.064859,4.50311638 243.048177,4.50235812 L242.089745,3.42260502 C241.963116,3.28005335 241.76597,3.23228337 241.591572,3.30128445 L240.112977,3.89196399 C239.927964,3.96551459 239.811193,4.15507798 239.821808,4.3605647 C239.833182,4.56529317 239.971184,4.73893324 240.163022,4.78973623 C240.796164,4.95958504 241.351206,5.10971924 241.973732,5.40164687 C241.703793,5.52296745 241.402009,5.64504627 241.142686,5.74741051 L238.764803,6.02644783 L238.808023,5.9779196 C238.964982,5.80579603 238.964223,5.53813252 238.808023,5.35539341 C238.652581,5.17341255 238.387951,5.13322511 238.199145,5.26591948 C237.504585,5.74437749 237.186877,5.96882055 237.150481,6.21601122 L226.779846,7.43679949 C226.818517,7.34201779 226.832166,7.25026911 226.830649,7.16837772 C226.820792,6.72783239 226.399203,6.3161007 225.809282,5.99308467 C226.603173,5.92787486 229.355634,5.56391314 231.568218,5.24544664 C231.412776,5.36904197 231.335434,5.50628587 231.352874,5.68902498 C231.390786,6.07042653 231.857871,6.15990046 232.082314,6.20236266 C232.10127,6.20615393 232.120985,6.20767043 232.140699,6.20767043 C232.156623,6.20767043 232.171788,6.20615393 232.187711,6.20387916 C233.891507,5.95062247 234.258502,5.76257558 234.647486,5.56391314 C234.874962,5.44714209 235.109262,5.32733802 235.709041,5.17492905 C235.879648,5.13246685 235.986561,4.95731027 235.95244,4.77836243 C235.936517,4.69419628 235.89178,4.6236787 235.831119,4.57515047 C235.918319,4.56074365 236.004001,4.54785334 236.089684,4.53344652 C236.263324,4.50539114 236.384645,4.34009186 236.36493,4.15886925 C236.345215,3.9784049 236.194323,3.84495227 236.016133,3.85784258 C235.199494,3.91926112 234.4329,3.9571738 233.735307,3.97309712 C233.670855,3.97461363 233.610953,3.99584473 233.561666,4.02996614 L233.171166,4.0944177 C232.978569,4.08152739 232.779907,4.07394485 232.601717,4.07394485 C232.125534,4.07394485 231.990565,4.12929736 231.920047,4.18389162 C231.882135,4.21422176 231.866211,4.26123349 231.863178,4.30900346 L225.675829,5.3227885 C225.502189,5.35084388 225.381627,5.51614317 225.400583,5.69736577 C225.405133,5.73831146 225.418781,5.77546589 225.435463,5.81034556 C225.094249,5.66021135 224.719671,5.53889077 224.347369,5.45548288 C224.263961,5.43652654 224.17752,5.5024946 224.154014,5.58893551 C224.091837,5.64504627 223.668732,5.74665225 222.741388,5.9680623 L221.955837,6.15535094 C221.877737,6.17354902 221.824659,6.24785787 221.828451,6.32974926 C221.833,6.41315715 221.89366,6.48064172 221.972519,6.48974077 C222.111279,6.50793885 222.335722,6.52765344 222.60566,6.55115931 C223.247901,6.60878658 224.878146,6.75437127 225.25424,6.94924244 C225.218602,6.97047354 225.160975,6.99928717 225.073018,7.03340858 C224.076672,7.42239267 223.40031,7.60285703 222.943083,7.60285703 C222.645848,7.60285703 222.464625,7.52854817 222.254589,7.44210727 C222.000574,7.33822652 221.711679,7.21993897 221.190759,7.21918071 L221.190001,7.21918071 C221.107351,7.21918071 221.036834,7.28439052 221.027735,7.37007318 C221.018636,7.44817329 221.062614,7.52096564 221.130857,7.54826277 C220.888216,7.67564937 220.35668,7.85687198 219.944949,7.99790714 C219.54914,8.13363453 219.223091,8.24964733 218.947845,8.35731934 L209.936001,9.4181161 C211.514685,9.02382424 213.226822,8.33305523 214.959431,8.22917448 C215.183116,8.21628417 215.364339,8.03506157 215.38557,7.80379422 C215.406801,7.57176863 215.262733,7.35945763 215.045114,7.3010721 C214.420313,7.13728933 214.091989,7.14032234 213.822809,7.175202 C213.720445,7.18960882 213.623389,7.20249913 213.468705,7.20249913 C213.191942,7.20249913 212.807508,7.16003693 212.293412,7.07207952 C212.05532,7.03113382 211.826328,7.19036708 211.775525,7.43452473 C211.774766,7.43755774 211.774008,7.43983251 211.774008,7.44210727 C211.236406,7.54219674 210.324227,7.96302748 209.659997,8.03961109 C208.058565,8.22462496 207.34884,8.3072746 207.04933,8.51200307 C206.737688,8.48091467 206.416188,8.46726611 206.067392,8.46726611 C205.609406,8.46726611 205.163553,8.49153022 204.69192,8.51882735 C204.184648,8.54688274 203.659936,8.57721288 203.079114,8.57721288 C202.562744,8.57721288 202.067604,8.55294876 201.564124,8.50442054 C201.388209,8.48849721 201.217602,8.57797113 201.128128,8.73720439 C201.112963,8.76525977 201.100072,8.7940734 201.090215,8.82440355 C200.928707,8.83956862 200.730045,8.85776671 200.485887,8.87899781 C200.427501,8.88278907 200.369874,8.89947065 200.317555,8.92752603 C200.245521,8.95330666 200.018044,9.00790091 199.880042,9.04050582 C199.710194,9.08069326 199.554752,9.11936419 199.503949,9.13756228 L197.178385,9.82908954 C197.029767,9.87306825 196.91982,9.9883228 196.872809,10.1301162 C196.176732,10.249162 195.551931,10.356834 195.071956,10.461473 C194.977933,10.3196796 194.805809,10.2347552 194.556344,10.2051833 C194.500233,10.198359 194.441848,10.2036668 194.386495,10.2180736 L192.706963,10.6904656 C192.650853,10.6669598 192.588676,10.6472452 192.518917,10.6282888 C192.563654,10.5426062 192.583368,10.4410002 192.568961,10.3371194 C192.534082,10.0853793 192.316463,9.90718966 192.07003,9.93524505 L189.109808,10.2681184 L189.088577,10.2681184 C187.487904,10.2681184 185.031921,10.4341759 183.397884,10.8011706 C182.666169,10.8496989 181.795694,11.0567021 181.233828,11.2015285 C181.183025,11.1924295 181.130706,11.1916712 181.077628,11.200012 L176.65701,11.9453753 C176.57891,11.9013966 176.487919,11.8824402 176.396171,11.8915393 C174.811421,12.0613881 173.238803,12.3138865 171.57292,12.5815501 C168.421618,13.0865469 165.161886,13.6120167 161.668611,13.5725875 C161.642072,13.571071 161.613259,13.5748622 161.585962,13.5794118 L161.355453,13.6211157 C159.899606,13.8857462 158.394472,14.1587175 156.005974,14.3452479 L155.573011,14.1329369 C155.488845,14.0927494 155.395579,14.0783426 155.303072,14.0950242 C155.1173,14.1276291 154.910297,14.1579592 154.690404,14.1852564 C155.293215,13.8895375 156.377518,13.7348538 156.294868,13.3034075 C156.234966,12.9856992 155.371315,12.9659846 155.059673,12.9659846 C154.948968,12.9659846 154.65704,12.8287407 154.273364,12.943237 C154.178582,12.9720506 153.696333,13.0205789 153.622024,13.08958 C153.545441,13.161614 153.28536,13.2025597 153.004806,13.4270028 C152.726527,13.6491711 151.896239,14.0912329 151.623268,14.1117058 C149.790569,14.2512244 149.098283,14.6584066 148.492439,14.8866409 C148.122411,14.8055078 147.650777,14.7653204 147.056306,14.7653204 C145.191761,14.7653204 142.48707,15.1573375 139.871096,15.5364643 C138.118771,15.7912375 136.463504,16.0308456 135.273804,16.1172865 C135.069076,16.1316933 134.899985,16.2856188 134.859039,16.4948968 L134.839325,16.5949863 C132.526651,16.8588585 130.298144,17.2379853 127.446352,17.7384327 C127.294702,17.7657298 127.166557,17.8696105 127.105138,18.0159535 C127.077841,18.0811633 127.065709,18.1501644 127.067984,18.2184072 C125.721325,18.4671144 123.989474,18.5747864 122.170424,18.6862496 C121.198343,18.7461517 120.207305,18.806812 119.201861,18.8917364 C119.159399,18.8742965 119.113904,18.8651975 119.066134,18.8629227 C118.762832,18.8454829 118.448915,18.8371421 118.131207,18.8371421 C115.734367,18.8371421 113.30189,19.3065011 110.950546,19.7591785 C108.59996,20.2118559 106.387376,20.6364779 104.318102,20.5962904 C104.280189,20.5947739 104.241518,20.6000817 104.204363,20.6084225 C103.347537,20.8177005 102.682549,20.8836685 102.104759,20.9011084 C102.034242,20.8647122 101.953867,20.8480306 101.869701,20.8548549 C101.794634,20.8601627 101.698335,20.8707782 101.59218,20.8836685 L101.427639,20.9011084 L101.068985,20.8950423 C100.749002,20.8889763 100.418403,20.8836685 100.073398,20.8836685 L99.8914171,20.8836685 C99.699579,20.885185 99.5365544,21.0087804 99.4705864,21.1831787 C99.2977046,21.2112341 99.1248227,21.2415642 98.9519409,21.2703779 C97.9063092,21.1710466 96.9645583,21.0739902 96.7446647,21.1907612 C96.2737893,21.199102 95.696,21.2597623 95.6216912,21.7617262 C95.6103174,21.8337603 95.6125921,21.8997283 95.6239659,21.9611469 C95.4055889,22.0202907 95.2069265,22.0771597 95.0310116,22.1340287 C94.8088433,22.0566868 94.5525536,22.0187741 94.2530435,22.0187741 C94.2234716,22.0187741 94.1923832,22.0218072 94.1628113,22.0225654 C94.2507687,21.9300585 94.3046047,21.8102544 94.2939892,21.6472299 C94.2810989,21.4455344 94.1643278,21.1945525 93.6828368,21.1445078 C93.4978229,21.1263097 93.3219081,21.2301904 93.2362254,21.4015557 C93.2362254,21.4015557 93.2172691,21.4182373 93.1596418,21.4447762 C92.9465725,21.5456239 92.8411753,21.7981224 92.9170007,22.0271149 C92.932924,22.0764014 92.9564298,22.1203801 92.9844852,22.1598093 C92.9109346,22.1726996 92.8381423,22.1848317 92.7623169,22.197722 C92.2376054,22.2902289 91.6954541,22.3850106 91.2078971,22.3850106 C90.8939801,22.3850106 90.6354156,22.3463397 90.4170386,22.2659648 C90.298751,22.2227444 90.1675732,22.2318434 90.0553516,22.2917454 C89.7952707,22.4335389 88.6351427,22.6450916 87.6122586,22.8323802 C85.9372764,23.1387147 84.2084583,23.4549064 83.4130502,23.8727042 C82.1209861,23.9485295 80.7925259,24.0319374 79.5853862,24.3435796 L79.0993456,24.0152558 C78.9825746,23.9363975 78.8377481,23.9181994 78.705812,23.9636946 L77.536585,24.3739098 C76.7669576,24.3466126 75.9002737,24.4360866 75.2603077,24.5187362 C75.150361,24.4027234 74.9880947,24.3496457 74.8265867,24.3913496 C72.6488824,24.9501825 71.7541432,25.0699866 70.9640429,25.1746256 C70.2505263,25.2701655 69.5711311,25.3611559 68.1137677,25.7478653 C68.1122512,25.7463488 68.1107347,25.7433157 68.1092182,25.741041 C68.0121617,25.6053136 67.8506537,25.5355543 67.6906622,25.5545106 C67.1568517,25.6227534 66.5130944,25.7660634 65.8905682,25.9070985 C65.0830281,26.0875629 64.2481909,26.2748515 63.7272707,26.2748515 C63.6309725,26.2748515 63.5505976,26.2687855 63.4891791,26.2566534 C63.4717393,26.2536204 63.4550577,26.2505874 63.4376179,26.2483126 C63.2306146,26.2301145 62.9803909,26.2217738 62.6952876,26.2217738 C60.7860051,26.2217738 57.320028,26.6160656 53.3081082,27.0740508 C49.0452066,27.5593331 44.2136148,28.1098252 40.3821594,28.273608 C40.1728814,28.2811905 39.9969666,28.438149 39.9552626,28.6497017 C39.9545044,28.6542512 39.9537461,28.6588008 39.9529879,28.6618338 C39.7406769,28.6671416 39.5192668,28.6671416 39.3964298,28.6671416 L38.8732348,28.6663833 C37.7760419,28.6663833 37.0367446,28.7050542 36.5848255,28.8771778 C36.5226487,28.6451522 36.3019969,28.4965345 36.0714878,28.5374802 C34.4450339,28.8218253 33.1324969,28.928739 31.9738854,29.0235207 C30.6674145,29.1311928 29.5012205,29.2267327 28.2645089,29.5497487 C28.2023321,29.4534505 28.0923853,29.3563941 27.8982724,29.3162066 C27.8345791,29.3017998 27.7488965,29.3078658 27.6821702,29.3237892 C27.5881467,29.1903365 27.427397,29.1122364 27.2598229,29.1334675 C23.6057989,29.5997935 22.739115,30.2738809 22.3713621,31.1026521 C20.9625269,31.0692889 20.0291167,31.1526968 19.0433871,31.4453827 C18.9554297,31.2975232 18.7916469,31.2050163 18.6142156,31.2224561 C18.4367842,31.239896 18.1676042,31.2634018 17.8324561,31.293732 C11.9013966,31.8192017 10.1665124,32.1391847 9.63042711,32.4644755 C8.98666981,32.4584095 7.77877186,32.6805778 7.37993047,32.7867333 C3.48402356,33.0316492 1.67938004,34.890887 1.86363566,38.4683274 C1.86515216,38.5092731 1.86742692,38.5471857 1.87045994,38.5820654 C1.89093279,38.8277396 2.08883697,39.0119952 2.32237907,39.0119952 C2.38683063,39.4699804 2.42019379,39.9598122 2.46189773,40.5474587 C2.50435993,41.1593693 2.55212991,41.8440723 2.64766986,42.6827008 C2.624164,42.7380533 2.61354845,42.8002301 2.6127902,42.8631651 C2.53544833,42.8214612 2.44749092,42.7934058 2.3383024,42.7934058 C1.99481353,42.7934058 1.77567824,43.0375635 1.68772082,43.5190545 C1.64450037,43.7541131 1.74989762,43.9891717 1.94401054,44.1173166 C1.94401054,44.1173166 1.96145037,44.1430972 1.98647274,44.2189225 C2.06760587,44.4570142 2.28294989,44.6101814 2.51649199,44.6101814 L2.52786579,44.6101814 C2.58625132,44.6094231 2.64084558,44.5965328 2.69392333,44.579093 C2.79173804,46.2131295 2.89106926,46.7416322 2.98736747,47.2511786 C3.02982967,47.4756217 3.07153361,47.6962735 3.11172105,48.0306633 C2.85164007,48.5659903 2.65980192,49.1756262 2.53393182,49.6449852 C2.46948027,49.8868681 2.56426197,50.1446743 2.74700108,50.3031493 C2.79552931,50.4669321 2.89031101,50.9385658 3.03210443,52.2958397 C3.04878601,52.4505234 3.1223366,52.5832178 3.22545909,52.6833073 C3.20498624,53.2262169 3.22773385,53.7312137 3.35663696,53.938217 C3.40213218,54.0102511 3.46430897,54.0656036 3.5340683,54.1019997 L3.59321208,54.7707794 C3.6076189,54.9360787 3.7039171,55.0809051 3.84798528,55.1529392 C3.98067966,55.2196655 4.0420982,55.3182385 4.07546136,55.642771 C4.02920789,55.633672 3.98371267,55.6222982 3.93518444,55.6238147 C3.82220466,55.3622172 3.54771686,55.2082917 3.26792129,55.2636442 C2.94718003,55.3280958 2.73259426,55.6435293 2.782639,55.9779191 C2.90699259,56.8097233 3.01011507,57.5967905 3.08821519,58.3148567 C3.09655598,58.3929568 3.11854534,58.4665074 3.15190849,58.5332337 L4.17024306,63.7143804 C4.22938683,64.0123741 4.48112702,64.2178608 4.76395561,64.2178608 C4.79959353,64.2178608 4.83523145,64.2148278 4.87162762,64.2080035 C5.04754245,64.1753986 5.19009412,64.0654518 5.27805154,63.9191089 C5.31065644,64.2815541 5.34250309,64.6477906 5.37359149,65.0163018 C5.01038803,65.2718333 4.68282248,65.7730389 4.58955729,66.7352627 C4.53193001,67.3320083 4.83144018,67.905248 5.34477786,68.180494 C5.3538769,68.1850435 5.36297594,68.1895931 5.37207498,68.1949008 C5.39254783,68.2259892 5.43197702,68.2927156 5.48505477,68.4163109 C5.52827522,68.5156421 5.58362773,68.605116 5.64428802,68.6892822 C5.64504627,68.6915569 5.64428802,68.6953482 5.64504627,68.697623 C5.68144245,68.9812098 5.73982797,69.3330395 5.82323587,69.7697935 C5.76939986,70.4916509 6.37296971,71.3204221 6.6444245,71.6540537 C6.91739579,71.9892018 7.67716588,72.8187312 8.83350259,73.3570912 C8.64848872,73.6429528 8.5916197,74.0091893 8.70611599,74.3564695 C8.86079972,74.8227954 9.28163046,75.1223056 9.73885737,75.1223056 C9.82302352,75.1223056 9.90946442,75.11169 9.99438883,75.0904589 C10.6540694,74.9259179 11.6231175,74.6825185 11.7110749,73.793087 C11.8483188,73.7741307 11.986321,73.7544161 12.1212901,73.7233277 C13.6446216,73.3851466 15.0200936,73.2274299 16.4524346,73.2274299 C16.7276806,73.2274299 17.0021684,73.2342542 17.2781727,73.2441114 C17.5170226,73.2524522 17.7172016,73.0674384 17.7414657,72.8210059 C17.7498065,72.7375981 17.7361579,72.6579814 17.7058278,72.5859473 C17.963634,72.5556172 18.2464626,72.5419686 18.5641708,72.5419686 C19.3527545,72.5419686 20.2444608,72.6375086 21.1065951,72.7307738 C22.0051256,72.8278302 22.9355027,72.9271614 23.7968788,72.9271614 C24.7204317,72.9271614 25.4642784,72.8088739 26.0655735,72.5654745 C26.1292668,72.5715405 26.1724873,72.5768483 26.2005427,72.5813978 C26.3013904,72.6579814 26.6767259,72.8232807 26.8079038,72.7952253 C27.3925173,72.6678387 27.974856,72.3819771 28.8513972,72.2204691 C30.088867,71.9907183 31.4514487,71.6017342 32.4978387,71.3568183 C33.5457451,71.4470505 34.5117602,71.3909397 35.536919,71.3135978 C35.9873216,71.3007075 36.4824612,71.2574871 37.0124805,71.1907607 C41.2768986,70.823766 45.1356511,70.5788501 49.7655475,69.7121663 C50.3539523,69.6029777 50.9544891,69.555966 51.5497182,69.4786242 C51.6194775,69.5089543 52.0956608,69.7470459 52.1737609,69.7394634 C53.8123469,69.5726476 54.5933481,69.1669819 55.5176592,68.9736273 C61.2197261,68.2775505 67.0044427,67.7240254 72.6913446,67.7983342 C72.9301945,67.7953012 73.1303734,67.6042213 73.1387142,67.3555141 C73.140989,67.2872713 73.1296152,67.2220615 73.1061093,67.163676 C73.2350124,67.1469944 73.3730146,67.1318293 73.5201158,67.1196973 C73.7582074,67.0999827 73.9379135,66.8891882 73.9272979,66.6419975 C73.9272979,66.6298654 73.9227484,66.6177334 73.9212319,66.6048431 C75.643984,66.488072 77.6677629,66.3364213 79.6968494,66.0755821 C79.7021572,66.1089452 79.7089815,66.1415501 79.719597,66.174155 C79.8052797,66.4334778 80.0395801,66.6002936 80.293595,66.6002936 C80.3406067,66.6002936 80.3876185,66.5942275 80.4353884,66.5820955 C80.8076909,66.4888303 81.3528753,66.3470369 81.3854802,65.8314244 C81.6902981,65.7821379 81.9966326,65.7290602 82.2984175,65.6729494 C82.3962322,65.7442253 82.5205858,65.7745554 82.6464559,65.7487748 C85.149451,65.2308876 88.0717603,65.0299504 90.8977714,64.8350792 C94.8475143,64.5636244 98.2710292,64.3285658 99.660908,63.252604 L102.289773,62.6740565 C102.281432,62.7445741 102.282191,62.8150917 102.305697,62.8856093 C102.36939,63.0804804 102.545305,63.204834 102.735626,63.204834 C102.771264,63.204834 102.806902,63.2002845 102.84254,63.1919437 C103.230766,63.0956455 103.713773,62.9743249 103.682685,62.5057242 C103.68041,62.460229 103.670553,62.4109425 103.653871,62.3639308 C103.837369,62.2782481 103.948832,62.0742779 103.916985,61.8619669 C103.897271,61.7269978 103.816896,61.6253918 103.716806,61.554116 C103.581837,61.7709765 103.209535,61.9499243 102.802353,61.984804 C100.12875,62.2077305 99.5668846,62.3389084 99.487268,62.3624143 C99.2711657,62.4298988 99.0338323,62.454163 98.8275873,62.4321736 C98.8245543,62.4321736 98.8237961,62.4306571 98.8207631,62.4306571 C98.8002902,62.5815496 98.7282561,62.7225847 98.5766054,62.7885528 C98.1739727,62.9629511 97.5749524,63.0076881 96.5717829,62.94172 C96.5619256,62.9409618 96.5513101,62.9402035 96.5406945,62.938687 C96.3056359,62.9075986 96.0834676,62.8643782 95.9424325,62.6861886 C95.8658488,62.5898904 95.8264197,62.4496134 95.8438595,62.3298094 C95.8696401,62.1394877 96.0000597,61.9961778 96.2298106,61.9044291 C96.3420321,61.8604504 96.4686604,61.8604504 96.5823985,61.9029126 C96.6225859,61.9158029 96.9061728,61.9779797 98.1679067,61.9256602 C98.2012699,61.8445271 98.2566224,61.7633939 98.3483711,61.6928764 C98.6258919,61.4828401 99.0459644,61.3926079 99.487268,61.3122331 C99.5077408,61.3084418 99.5274554,61.3054088 99.5486865,61.3023758 C101.429914,61.0301627 102.548338,60.9543374 103.288393,61.0491191 C103.625816,61.0930978 103.800214,61.2591553 103.753203,61.455543 C104.006459,61.3402884 104.824615,61.4798071 104.901199,61.4760158 C105.262885,61.6208423 104.760163,61.6026442 104.786702,61.7133492 C104.893616,62.1349382 105.344777,62.1364547 105.840675,62.1364547 C106.553433,62.1364547 106.91512,62.0234749 107.959993,61.9150447 C108.923734,61.8149552 109.474984,61.7194152 110.012586,61.7194152 C110.1195,61.7194152 110.501659,61.6754365 110.549429,61.6792278 C110.647244,61.7717347 110.828467,61.8649999 110.960403,61.8475601 C115.463671,61.2690126 119.803914,61.1514833 124.198752,60.6957729 C125.314901,60.5797601 126.575877,60.0982691 127.678378,59.9852893 C129.095554,59.8404629 130.6386,59.4620943 132.01483,59.3180261 C134.711938,59.0359558 137.19446,58.9874276 139.821051,58.6765436 C139.73006,58.7622263 139.677741,58.8805138 139.674708,59.0109334 C139.52609,59.0291315 139.391879,59.120122 139.320603,59.2619154 C139.320603,59.2619154 139.302405,59.278597 139.244778,59.3051358 C139.030951,59.4052253 138.925553,59.6577237 139.001379,59.8882328 C139.065072,60.0823458 139.241745,60.2066993 139.431308,60.2066993 C139.466946,60.2066993 139.502584,60.2029081 139.538222,60.193809 C139.926448,60.0975108 140.409456,59.9769485 140.379125,59.5075895 C140.378367,59.5007653 140.376851,59.4924245 140.376092,59.4848419 C141.344382,59.4393467 141.616595,59.3961263 141.637068,58.9472401 C141.651475,58.6424222 141.469494,58.5157939 141.237468,58.4483093 C141.342107,58.3732422 141.418691,58.2595041 141.434614,58.121502 C141.44523,58.0396106 141.433856,57.9577192 141.405043,57.8841686 L141.556693,57.8667288 C141.580199,58.0782815 141.738674,58.2511634 141.946436,58.2807352 C142.076855,58.2996916 142.220923,58.3087906 142.376365,58.3087906 C142.997375,58.3087906 144.161294,58.0775233 145.093946,57.7833209 C145.140958,57.9645435 145.299433,58.1404583 145.567096,58.1404583 C145.609559,58.1404583 145.685384,58.1366671 145.813529,58.1207437 L147.661393,57.8485307 L148.882939,58.8054467 C148.988337,58.8888546 149.115723,58.9313168 149.244626,58.9313168 C149.289363,58.9313168 149.333342,58.926009 149.377321,58.9161517 C149.550203,58.8752061 149.696545,58.758435 149.777679,58.5954105 L150.614032,56.9227031 C150.958279,56.8703836 151.360154,56.8157893 151.844678,56.7604368 C152.067604,56.7475465 152.249585,56.7422387 152.398203,56.7422387 C152.690131,56.7422387 152.806902,56.7642281 152.845573,56.7748436 C152.951728,56.8726583 153.08973,56.9621323 153.364218,56.9621323 C153.390757,56.9621323 153.420329,56.961374 153.453692,56.9598575 C153.499945,56.9689565 153.551507,56.9750226 153.609134,56.9750226 C153.699366,56.9750226 153.85405,56.9659235 154.230144,56.9060215 C154.151285,57.0281003 154.11034,57.1759598 154.123988,57.33216 C154.15356,57.6726159 154.428048,57.9296638 154.75258,57.9296638 C154.764712,57.9296638 154.776844,57.9296638 154.788977,57.9289056 C155.665518,57.8781026 156.489739,57.8447394 157.238894,57.8303326 C157.577833,57.8606628 158.076764,57.8902346 158.481671,57.8902346 C159.067043,57.8902346 159.274805,57.8326074 159.436313,57.7325179 C159.508347,57.6885392 160.530473,57.4474146 160.579001,57.3806882 L162.545152,57.0880024 C162.887125,57.0516062 163.824326,56.8635593 163.797787,56.5086966 C163.771248,56.1530757 163.076688,56.0332716 162.735474,56.0567775 C162.505723,56.0696678 162.354831,55.9309074 162.010584,55.9453142 C161.480564,55.9665453 160.829983,55.9923259 160.114191,56.0355464 C160.113433,56.0173483 160.112675,55.9968754 160.111158,55.9771609 C160.095993,55.7936635 160.025476,55.6586944 159.930694,55.5532971 C160.074004,55.5093184 160.181676,55.4547241 160.25371,55.3811735 C161.338013,55.3864813 162.815849,55.2772928 164.450644,55.1142683 C164.878299,55.8512908 166.268936,56.2524069 167.466976,56.4654762 C167.499581,56.4707839 167.532186,56.473817 167.564791,56.473817 C167.768003,56.473817 167.962116,56.3646284 168.084953,56.1932631 C168.249494,56.1288116 168.73326,55.9877764 170.152711,55.7178381 C170.41355,55.6693099 170.610696,55.4577572 170.659224,55.1984344 C170.721401,55.1991927 170.787369,55.1999509 170.85637,55.2007092 L170.857128,55.2007092 C170.858645,55.1999509 170.860161,55.2007092 170.863194,55.2007092 C171.139957,55.2007092 171.375015,55.0156953 171.460698,54.7586473 C171.719263,54.6805472 172.042279,54.5941063 172.309942,54.5205557 C173.171318,54.2877719 173.777921,54.1194396 174.181312,53.9268432 C175.382386,53.7789837 176.308213,53.6804108 176.715395,53.6804108 L176.757099,53.6804108 C176.80032,53.6819273 176.839749,53.6766195 176.879178,53.6660039 C179.160005,53.0647088 181.703946,52.6325043 185.386025,52.2184978 C185.626391,52.1927172 185.803823,51.9750984 185.791691,51.7241165 C185.790174,51.7028854 185.787899,51.6831708 185.784108,51.6619397 C185.893297,51.6452581 186.016134,51.6285766 186.154894,51.6111367 C186.362656,52.0107364 186.89495,52.093386 187.628939,52.093386 C188.234784,52.093386 189.01806,52.0319675 189.847589,51.9652411 C190.796164,51.890174 191.776586,51.8128322 192.633413,51.8128322 C193.117179,51.8128322 193.505404,51.836338 193.819321,51.887141 C193.877707,51.9030644 193.955049,51.9182294 194.051347,51.9311197 C194.071062,51.9341528 194.091534,51.934911 194.112007,51.934911 C194.30612,51.9333945 194.485826,51.8037331 194.548003,51.6164445 C195.046934,51.5155968 195.827935,51.3935179 196.45122,51.294945 C198.433294,50.984061 199.287846,50.8362016 199.639676,50.6117585 C199.817866,50.8081462 200.112068,50.8847298 200.723979,50.9006531 C200.7581,50.9014114 200.790705,50.8983784 200.82331,50.8907958 C203.872247,50.2659949 207.320026,49.9551109 210.969501,49.6260288 C213.839491,49.3674644 216.807295,49.1005591 219.803155,48.660772 C219.939641,48.6410574 220.060203,48.5584078 220.130721,48.4355707 C220.195931,48.3210744 220.215645,48.1557751 220.179249,48.0283885 L223.753656,48.3081841 C223.790811,48.3104589 223.828723,48.3089424 223.865878,48.3013598 C224.413337,48.2027869 224.745452,48.023839 225.038896,47.8661223 C225.428639,47.6553278 226.25741,47.5620626 227.180204,47.5620626 C227.39934,47.5620626 227.645014,47.5726781 227.912677,47.5939092 C228.150769,47.6121073 228.688371,47.2678602 228.728558,47.0290103 C234.419251,46.6074213 239.438132,45.897696 245.094703,45.1257938 C252.747757,44.0816786 260.660133,43.0026838 268.436024,42.8070544 C268.651368,42.8009883 268.828041,42.6409968 268.870503,42.4317189 C269.019879,42.4104878 269.150298,42.3945644 269.235981,42.3824324 C269.478622,42.3505857 269.653021,42.1261427 269.632548,41.8736442 C269.631031,41.8562044 269.627998,41.8387645 269.624965,41.8213247 L274.714363,41.6833226 C274.801562,41.6810478 274.885729,41.6529924 274.957763,41.6029477 C275.418781,41.2791734 276.537205,41.0949178 277.582836,40.9584321 C277.638947,40.9622234 277.697333,40.9644982 277.756477,40.9644982 C278.927978,40.9644982 280.808447,40.1380018 281.34984,39.385056 C281.560635,39.0916118 281.550019,38.8413881 281.505282,38.6829131 C281.457512,38.5168556 281.325576,38.3902273 281.161793,38.3561058 C280.997252,38.3212262 280.827404,38.3811282 280.72049,38.5145808 C280.497563,38.7898269 280.22535,39.0195777 279.890202,39.2114159 C279.683199,38.9520932 279.244928,38.8338056 278.615578,38.7375074 C279.776464,38.168059 280.518794,36.8737201 280.358045,35.4823248 L280.292077,34.8575238 C280.347429,34.8453918 280.401265,34.8218859 280.448277,34.7854897 C280.557465,34.6982906 280.617367,34.5625632 280.608268,34.4200115 C280.582488,34.0264779 280.545333,33.5101072 280.483156,32.9065373 C280.507421,32.8489101 280.519553,32.7867333 280.517278,32.7215235 C280.43387,30.301178 280.341363,29.5050118 280.251131,28.9431459 C280.301176,28.9264643 280.348187,28.9029584 280.387617,28.87187 C280.831953,30.5506435 281.27174,32.3848589 281.429457,34.2501627 C281.449172,34.4806718 281.628878,34.6634109 281.852562,34.678576 C281.863178,34.6793342 281.873035,34.6793342 281.882893,34.6793342 C282.094445,34.6793342 282.280217,34.5276835 282.327229,34.310823 C282.47888,33.6026141 282.459924,33.3592147 282.411395,33.03999 C282.374999,32.8018983 282.329504,32.5061795 282.46599,31.4506905 L282.46599,31.4506905 Z M7.57025212,69.4354037 C7.57101037,69.7569032 7.42921695,69.9563239 7.23282928,69.9108287 C7.0364416,69.8653335 6.84005392,69.5878127 6.76801983,69.2511481 C6.57239041,68.3473098 6.42604746,67.7444982 6.32216672,67.3441403 C6.16748299,67.3304918 5.96047976,67.166709 5.74210273,66.5707217 C5.64277151,66.2954756 5.6397385,65.9982402 5.73072893,65.8147428 C5.73072893,65.8147428 5.7345202,65.7821379 5.72845417,65.6873562 C5.70494831,65.3340101 5.84825823,65.0966767 6.05829448,65.1421719 C6.18492283,65.1679525 6.52916995,65.1944914 6.62243514,65.3681315 C6.91208801,65.4818695 6.8681093,66.117286 6.95682497,66.3917738 C6.95909973,66.3985981 6.96137449,66.4054224 6.96364926,66.4130049 C6.96592402,66.4213457 6.96895703,66.4296865 6.97123179,66.4395438 C7.38978777,67.914347 7.56797736,68.8106027 7.57025212,69.4354037 L7.57025212,69.4354037 Z M80.4240146,66.269695 C80.3466728,66.2120677 80.2716057,66.1210773 80.2261104,66.0050645 C80.2518911,66.0020315 80.2784299,65.9982402 80.3042106,65.9952072 L80.4240146,66.269695 Z M170.077644,54.0739444 C170.151194,54.2877719 169.388391,54.7518231 169.199586,54.8648029 C168.831075,55.0869712 168.260868,55.1984344 167.292578,55.2378636 L167.275138,55.2378636 L167.26149,55.2378636 C167.078751,55.2325558 166.720855,55.218149 166.584369,54.9201554 C166.460774,54.8723854 166.356893,54.7715377 166.311398,54.6335355 C166.235573,54.4037847 166.34097,54.1512862 166.554797,54.0504385 C166.611666,54.0238996 166.630623,54.007218 166.630623,54.007218 C166.716305,53.836611 166.892978,53.7312137 167.077992,53.7501701 C167.480625,53.791874 167.62621,53.9753714 167.671705,54.1528027 C167.931786,54.1308134 168.321528,54.0860764 168.900076,53.992053 C169.116178,53.9541403 170.004093,53.8601169 170.077644,54.0739444 L170.077644,54.0739444 Z M277.101345,4.1057915 C277.140016,4.30066267 277.431944,4.80717607 277.284843,4.92470537 C277.25982,4.94290346 277.071015,4.80414305 277.04296,4.81854987 C276.842023,4.92243061 276.450006,4.58500777 276.284706,4.41819198 C276.060263,4.19374892 275.749379,4.06712057 275.448353,3.73803851 C274.404237,3.4066817 272.673145,3.08669869 271.436433,3.13143565 C271.227913,3.13901818 271.044416,2.97978493 271.019393,2.76974869 C270.993613,2.55971245 271.136165,2.37318206 271.34241,2.34436843 L274.712088,1.882592 C274.853882,1.86439391 274.996434,1.92429594 275.085907,2.03955049 L275.484749,2.56198721 C275.624267,2.54758039 276.25286,2.72728649 276.368873,2.82889247 C277.499429,3.82372117 277.080114,4.00115251 277.101345,4.1057915 L277.101345,4.1057915 Z M218.543696,7.68702317 C218.508058,7.44893155 218.305604,7.27529148 218.075095,7.28818179 C216.913451,7.33898478 216.60105,7.35187509 216.578303,7.83564088 C216.557072,8.29210953 216.974869,8.35276982 217.343381,8.40736408 L217.377502,8.4119136 C217.398733,8.41494661 217.419964,8.41646312 217.440437,8.41646312 C217.480625,8.41646312 217.52157,8.41039709 217.560241,8.40053979 L218.213856,8.21476767 C218.437541,8.15183262 218.579334,7.92359829 218.543696,7.68702317 L218.543696,7.68702317 Z M201.655114,6.31837546 C201.630092,6.07725082 201.439012,5.98626039 201.206228,5.98626039 C201.203953,5.98626039 200.767957,5.90816027 200.700473,5.91877582 C200.700473,5.91877582 200.17197,5.93621565 200.144673,5.94152343 C199.973308,5.97640309 199.987714,5.88768742 199.540345,5.97488658 C199.318176,6.01810704 199.159701,6.22662677 199.170317,6.46092713 C199.180933,6.69674399 199.357606,6.8878239 199.582807,6.90829674 L199.663182,6.91739579 C199.677589,6.91815404 199.691237,6.91891229 199.705644,6.91891229 C199.737491,6.91891229 199.770854,6.91512103 199.801942,6.90753849 L200.626164,6.72176636 C200.661802,6.71342557 200.701989,6.70508478 200.742935,6.69446923 L200.794496,6.68309543 L200.794496,6.67854591 C200.9924,6.61636911 201.688477,6.64214974 201.655114,6.31837546 L201.655114,6.31837546 Z M195.189486,8.16017341 C195.378291,8.04643537 195.462457,7.80834375 195.389665,7.59375798 C195.316114,7.37993047 195.106078,7.2487526 194.889976,7.28590703 C194.311428,7.38068873 193.921686,7.42694219 193.661605,7.44741504 C193.616109,7.27074196 193.469767,7.08724459 193.067892,7.0462989 C192.88212,7.0265843 192.706205,7.1312233 192.620523,7.30258861 C192.620523,7.30258861 192.601566,7.31927019 192.544697,7.34580906 C192.330111,7.44589853 192.225472,7.69839698 192.301298,7.92890607 C192.346793,8.06690822 192.450674,8.16775594 192.574269,8.21628417 C192.710755,8.51351958 193.06865,8.52868465 193.25139,8.53399243 L193.265038,8.53399243 L193.282478,8.53399243 C194.250768,8.49380499 194.820974,8.38234171 195.189486,8.16017341 L195.189486,8.16017341 Z M84.8287097,21.6373726 C84.8150611,21.4227868 84.6990483,21.0520008 84.0818299,20.9875493 C83.8490461,20.9640434 83.6238447,21.088397 83.5017659,21.291609 C83.4949416,21.2954002 83.4881174,21.2984332 83.4812931,21.300708 C83.1961897,21.4349189 82.6904346,21.9588721 82.7920406,22.2644483 C82.876965,22.5245293 83.4767435,22.5040564 83.7307585,22.5040564 C83.7777702,22.5040564 83.8247819,22.4987487 83.8725519,22.4866166 C84.2691185,22.3872854 84.8681389,22.2386677 84.8287097,21.6373726 L84.8287097,21.6373726 Z M4.61306315,31.6387374 C4.81096733,31.4946692 4.86404508,31.2133571 4.73362547,31.0002878 C4.6039641,30.7879768 4.33554234,30.719734 4.12474784,30.8440876 L0.677727052,32.8807567 C0.533658872,32.9664394 0.445701456,33.1264309 0.447976217,33.2993127 L0.460866528,34.0712148 C0.322106122,34.161447 0.218225381,34.3070317 0.185620477,34.4852213 C-0.131329521,36.2284463 0.0415522963,36.5666274 0.0976630615,36.6780907 C0.204576817,36.8858521 0.412338298,37.0124805 0.633748345,37.0124805 C0.67090277,37.0124805 0.708057196,37.0086892 0.745211621,37.0018649 C1.00680911,36.951062 1.20547155,36.7311684 1.23655994,36.4581971 C1.27902214,36.0858946 1.31693482,35.6552066 1.3548475,35.1320116 C2.07594666,34.0621158 3.4392866,32.5016299 4.61306315,31.6387374 L4.61306315,31.6387374 Z M0.0946300472,39.6481699 C0.356985787,41.0554886 0.328930404,41.3603065 0.321347868,41.4027687 C0.293292486,41.5210563 0.311490572,41.6469264 0.371392605,41.7515654 C0.492713178,41.9669094 0.652704684,42.0768562 0.845301094,42.0768562 C0.966621668,42.0768562 1.09855779,42.0199872 1.18424045,41.929755 C1.34195719,41.7667305 1.35333099,41.5392544 1.35257274,41.3026793 C1.35257274,41.292822 1.35257274,41.2814482 1.35105623,41.2708326 C1.28053865,40.2684214 1.15315205,39.6822914 0.926434228,39.3061976 C0.809663176,39.1151177 0.577637579,39.0347428 0.373667366,39.1189089 C0.169697152,39.2023168 0.0529261001,39.4252434 0.0946300472,39.6481699 L0.0946300472,39.6481699 Z M12.8787855,74.893313 C12.889401,75.1291299 13.0653158,75.3202098 13.2912754,75.3406826 L13.3724085,75.3497816 C13.3860571,75.3505399 13.3997057,75.3512982 13.4141125,75.3512982 C13.4467174,75.3512982 13.4793223,75.3475069 13.5104107,75.3399244 L14.3346323,75.1541522 C14.3702703,75.1458114 14.4104577,75.1374706 14.4514034,75.1268551 L14.5029646,75.1154813 L14.5029646,75.1109318 C14.7008688,75.0495132 15.3969456,75.0745356 15.3635824,74.7507613 C15.3385601,74.5096367 15.1467219,74.4186462 14.9146963,74.4186462 C14.9124216,74.4186462 14.4764258,74.3405461 14.4089412,74.3511617 C14.4089412,74.3511617 13.8804384,74.3686015 13.8531413,74.3739093 C13.681776,74.408789 13.6961828,74.3200733 13.2488132,74.4072724 C13.0258867,74.4504929 12.8681699,74.6590126 12.8787855,74.893313 L12.8787855,74.893313 Z M113.119151,62.6012642 C113.129766,62.837081 113.305681,63.0281609 113.531641,63.0486338 L113.612016,63.0569746 C113.625664,63.0584911 113.640071,63.0592493 113.65372,63.0592493 C113.686325,63.0592493 113.718929,63.0546998 113.750776,63.0471173 L114.574239,62.8621034 C114.610636,62.8537626 114.650065,62.8446636 114.691769,62.834048 L114.74333,62.8226742 L114.742572,62.8188829 C114.941234,62.7567061 115.15127,62.6331108 115.117149,62.30782 C115.092885,62.0682119 114.897256,61.886231 114.66523,61.886231 C114.662955,61.886231 114.625042,61.8900223 114.557558,61.9006378 L114.557558,61.8998796 L114.541635,61.9036709 C114.519645,61.9074621 114.494623,61.9120117 114.466567,61.9180777 C114.29596,61.9537156 113.93579,62.0280244 113.489179,62.1159819 C113.266252,62.1584441 113.107777,62.3669638 113.119151,62.6012642 L113.119151,62.6012642 Z M151.855293,58.1404583 C151.868942,58.3421538 151.984955,58.5931357 152.466446,58.6431805 C152.480853,58.644697 152.495259,58.6454552 152.510425,58.6454552 C152.678757,58.6454552 152.834957,58.5446075 152.913815,58.3868907 C152.913815,58.3868907 152.932013,58.3702092 152.989641,58.342912 C153.203468,58.2435808 153.308866,57.9903241 153.232282,57.759815 C153.156457,57.5308224 152.922914,57.3966116 152.696197,57.4542388 C152.307213,57.5512953 151.824205,57.6718576 151.855293,58.1404583 L151.855293,58.1404583 Z M198.783608,52.718187 C198.794223,52.9547621 199.357606,53.0927642 199.582807,53.1139953 L199.663182,53.1215779 C199.677589,53.1230944 199.691237,53.1238526 199.705644,53.1238526 C199.737491,53.1238526 199.770854,53.1200614 199.801942,53.1132371 L200.626164,52.9274649 C200.661802,52.9198824 200.701989,52.9100251 200.742935,52.8994096 L200.794496,52.888794 L200.794496,52.8850027 C200.9924,52.822826 201.780984,52.8448153 201.746863,52.5195245 C201.723357,52.2799164 200.94918,51.9515926 200.716396,51.9515926 C200.71488,51.9515926 200.676967,51.9546256 200.609482,51.9659994 L200.609482,51.9652411 L200.593559,51.9697907 C200.570811,51.9735819 200.545789,51.9773732 200.518492,51.9834392 C200.347127,52.0183189 199.987714,52.093386 199.540345,52.1798269 C199.318176,52.2245639 198.772992,52.4831283 198.783608,52.718187 L198.783608,52.718187 Z" id="Fill-1"></path>
            </g>
            <path d="M14.2094447,44.1118571 C13.8962859,41.7339739 14.9601157,40.5033283 17.1036986,40.221258 C19.2472815,39.9384294 20.5939398,40.8513667 20.9070986,43.22925 L21.1990262,45.4395592 L23.2083982,45.1749287 C24.5815954,44.9937061 25.435389,45.5282748 25.6158533,46.9022303 C25.7970759,48.2746693 25.1108564,49.01245 23.7376592,49.1929144 L21.7290455,49.4583032 L22.7299402,57.0605536 L22.7959082,57.5625174 C22.8671841,58.0986027 23.2372118,58.3222875 23.6724494,58.2646603 C26.284633,57.9204131 27.1611741,58.6240725 27.3727269,60.2308118 C27.5577407,61.6366139 26.8464989,62.9574917 22.8944812,63.4776536 C19.0099481,63.9894748 16.6100755,62.3296577 16.0937048,58.4117615 L15.0306333,50.3401521 L13.7575255,50.5092426 C12.3850865,50.6889487 11.5305348,50.1551382 11.3493122,48.7811827 C11.1688478,47.409502 11.8550673,46.670963 13.2282645,46.4904986 L14.500614,46.3221663 L14.2094447,44.1118571 Z M27.2104606,39.6055561 C27.4493105,41.4132326 29.0787974,42.6628345 30.8872322,42.4247429 C32.695667,42.1866513 33.9460272,40.5579226 33.7079356,38.7487295 C33.4698439,36.9395365 31.8395987,35.6906928 30.0311639,35.9280262 C28.2227291,36.1661178 26.9731272,37.7956048 27.2104606,39.6055561 L27.2104606,39.6055561 Z M29.5784865,59.1222451 C29.8870957,61.4667651 31.4688127,62.3478558 33.4781847,62.0832253 C35.4875567,61.8193531 36.7856868,60.5568608 36.4770776,58.2138573 L34.9545044,46.6588309 C34.6458952,44.3158274 33.0649365,43.4332202 31.0548063,43.6978507 C29.0461925,43.9632394 27.7465459,45.2234569 28.0559133,47.5687352 L29.5784865,59.1222451 Z M61.5290178,48.2003605 C61.2423979,46.0234144 60.4037694,45.349327 58.8637564,45.5525389 C57.6914964,45.7072227 56.7118328,47.0637383 56.9673642,49.0048675 L57.8105422,55.402253 C58.1191514,57.7460148 56.820263,59.0077488 54.810891,59.2723793 C52.801519,59.5370098 51.2205603,58.6559191 50.9111928,56.3106408 L50.0422342,49.7138346 C49.7548561,47.5368886 48.9169859,46.8628011 47.3762146,47.0660131 C46.2039546,47.2214551 45.224291,48.5772125 45.4805807,50.5190999 L46.3237587,56.9164854 C46.6323679,59.2602472 45.3334795,60.5219812 43.3241075,60.7858534 C41.3147355,61.0504839 39.7337768,60.168635 39.4244093,57.8248732 L37.8843963,46.1363942 C37.6015677,43.9928113 38.4902409,42.7181871 40.7672764,42.4186769 C42.8100116,42.1487386 43.7684441,43.2148432 44.276474,45.2613696 L44.3432003,45.2515123 C45.2083676,43.0252798 46.9629664,41.6012795 49.6085132,41.2524829 C51.8529438,40.956764 54.3294,41.6528408 55.2453703,43.9511074 C56.3963993,41.3131432 58.1820865,40.122685 60.626696,39.8011855 C65.3824625,39.1741098 67.7125757,41.8651518 68.2160561,45.6829586 L69.2973257,53.8887788 C69.6059349,56.2325407 68.3078048,57.4935164 66.2984328,57.7581469 C64.2883026,58.0235356 62.7073438,57.1416867 62.3987346,54.7971666 L61.5290178,48.2003605 Z M90.5367668,50.6123651 C90.3911821,49.5068314 89.299297,48.4581667 88.0936738,48.6173999 C85.9842123,48.895679 84.7929959,51.2333748 82.2809018,51.5639734 C80.0372295,51.8596923 78.5753166,50.5865845 78.1158149,48.3990229 L87.8950114,47.1099918 C90.1053205,46.8188224 90.9803452,45.9551716 90.7058574,43.878315 C90.3616103,41.2661314 87.3202551,36.2828889 79.617157,37.2989487 C74.1251263,38.0230809 70.1799329,41.438255 71.0147701,47.7673977 C71.8526403,54.1306617 76.5477465,56.4076972 82.0412937,55.6843233 C88.7055844,54.8062657 90.788507,52.5208894 90.5367668,50.6123651 L90.5367668,50.6123651 Z M77.6661705,44.9830905 C77.4440022,42.5248324 78.941553,41.4754094 80.4823243,41.2729557 C82.1899114,41.0477544 83.8118158,41.7203253 84.1295241,44.1308135 L77.6661705,44.9830905 Z M101.78925,32.5712376 C101.476091,30.1933544 102.540679,28.9627088 104.683504,28.6798802 C106.827087,28.3978099 108.174503,29.3099889 108.487662,31.6886304 L108.778832,33.8981814 L110.788204,33.6343091 C112.161401,33.4530865 113.015194,33.9876553 113.196417,35.3600943 C113.376881,36.7340498 112.690662,37.4710723 111.317465,37.6522949 L109.308093,37.9169254 L110.310504,45.5191758 L110.376472,46.0226562 C110.446989,46.5579832 110.817017,46.781668 111.252255,46.7240407 C113.864438,46.3797936 114.740979,47.0819364 114.952532,48.689434 C115.138304,50.0967527 114.426304,51.4161139 110.474287,51.9370341 C106.589753,52.4488553 104.189881,50.7897964 103.67351,46.8719002 L102.610439,38.7995325 L101.338089,38.9671066 C99.9648919,39.1483292 99.1103401,38.6137604 98.9298757,37.2405632 C98.7486531,35.8673659 99.4348726,35.1295852 100.80807,34.9483626 L102.081178,34.7807885 L101.78925,32.5712376 Z M115.061721,41.9629665 C115.900349,48.3269888 120.595455,50.6040243 126.088244,49.8791339 C131.581033,49.15576 135.525468,45.7398276 134.68684,39.3765635 C133.852761,33.0474209 129.157655,30.7703853 123.664866,31.4937593 C118.172835,32.2178914 114.227642,35.6330656 115.061721,41.9629665 L115.061721,41.9629665 Z M127.814788,40.487405 C128.198464,43.4013735 127.321165,45.0156954 125.478608,45.2590948 C123.63681,45.5009777 122.371285,44.1687262 121.986851,41.2547576 C121.554646,37.9730361 122.431946,36.357956 124.273744,36.1153149 C126.1163,35.8726737 127.381825,37.2056835 127.814788,40.487405 L127.814788,40.487405 Z M153.806962,27.522027 C158.629455,26.8866105 162.115905,28.7776949 162.433613,31.1889413 C162.641375,32.7630758 161.663986,33.8799833 160.290789,34.0604476 C158.515717,34.2955063 157.423832,31.9517444 154.978464,32.2747605 C152.165343,32.6447882 151.837778,35.0727162 152.084968,36.9478773 C152.385237,39.2256711 153.417978,41.3722869 155.829225,41.0538204 C158.139623,40.7490025 158.856173,38.1679073 160.764697,37.9169254 C162.405558,37.7000648 163.520949,38.9163036 163.679424,40.1219268 C163.864438,41.5284872 162.358546,45.1006198 156.230341,45.9074016 C150.737552,46.6307755 146.042446,44.35374 145.203817,37.990476 C144.369738,31.6613333 148.314932,28.2454009 153.806962,27.522027 L153.806962,27.522027 Z M178.118847,39.5479288 C178.427456,41.8916906 180.008415,42.7735396 182.018545,42.5096673 C184.027159,42.2442786 185.326047,40.9825446 185.017438,38.6387828 L183.936168,30.4337208 C183.433446,26.615914 181.102575,23.924872 176.313445,24.555739 C173.968925,24.8651064 172.480473,25.9812557 171.479579,27.952715 L171.412852,27.9610558 L170.636401,22.0671507 C170.327791,19.7233889 168.746074,18.84154 166.736702,19.1061705 C164.72733,19.370801 163.428442,20.6325349 163.737051,22.9762968 L166.129341,41.1281293 C166.43795,43.4718911 168.019667,44.35374 170.029798,44.0898678 C172.038411,43.824479 173.3373,42.5627451 173.027932,40.2189832 L172.220392,34.0900195 C171.947421,32.013163 172.60786,30.5641404 174.315447,30.3389391 C176.023792,30.1137377 176.99739,31.0418401 177.24913,32.9503644 L178.118847,39.5479288 Z M206.369859,33.6441664 C206.529092,34.8505479 206.871065,35.8954213 206.98177,36.7332915 C207.206213,38.4408786 205.729893,39.3849043 204.089032,39.6002483 C201.711149,39.9141653 200.681441,38.8230384 200.239379,37.2799924 C199.164933,39.4660374 196.82193,40.5579226 194.444047,40.8725978 C190.625482,41.37532 187.705447,40.158323 187.198175,36.307153 C186.814499,33.3931845 188.537251,30.9531245 195.344852,29.6125321 C197.901683,29.1045022 198.891204,28.5995053 198.73652,27.4272453 C198.590935,26.3217116 197.574117,25.8424953 195.732319,26.086653 C192.751625,26.4786701 192.361124,28.9490602 190.017362,29.2576694 C188.644165,29.4388921 187.73881,28.7739037 187.557588,27.4014647 C187.21789,24.8234025 190.614108,22.6722371 195.403237,22.0413701 C199.05347,21.5591208 204.790417,21.6546608 205.359865,25.9751897 L206.369859,33.6441664 Z M199.310518,31.7811374 C198.475681,32.9473314 196.20547,33.0421131 195.032451,33.7071015 C194.494091,34.0172272 194.187757,34.5343561 194.284813,35.2713786 C194.421299,36.3094278 195.514701,36.8470296 196.619476,36.7014449 C198.562122,36.4459134 199.742723,35.0628589 199.570599,33.756388 L199.310518,31.7811374 Z M221.389346,33.8458619 C221.697955,36.1896237 223.279672,37.0722309 225.288286,36.8068421 C227.297658,36.5429699 228.596546,35.2812359 228.287937,32.9374741 L227.206667,24.7316538 C226.703187,20.913847 224.373074,18.2228051 219.583944,18.8544303 C216.937639,19.2024687 215.183799,20.6264689 214.318631,22.8527014 L214.251905,22.8625587 C213.743117,20.8160323 212.785442,19.7499278 210.742707,20.019866 C208.464914,20.3193762 207.576999,21.5947587 207.859069,23.7375834 L209.39984,35.4260623 C209.708449,37.7705824 211.290925,38.6516731 213.299538,38.3870426 C215.30891,38.1231703 216.607799,36.8606781 216.298431,34.5176746 L215.490891,28.3887108 C215.21792,26.3118543 215.878359,24.8613152 217.585946,24.6368721 C219.294291,24.4124291 220.267889,25.3390149 220.519629,27.2490557 L221.389346,33.8458619 Z M243.049618,30.4132479 L242.982891,30.4215887 C242.499884,32.1883195 240.587568,33.1907308 238.478107,33.4682516 C235.296475,33.8883241 230.693876,32.3134314 229.872687,26.0843782 C229.269117,21.4961858 231.540087,17.2787793 236.396701,16.6395716 C238.406073,16.3734246 241.242699,16.9542468 242.102559,19.0894889 L242.169285,19.0803899 C241.936501,17.3053182 242.793328,15.7956353 244.768579,15.5355544 C246.845435,15.2618248 247.999497,16.2672691 248.290667,18.4783365 L250.149146,32.5773036 C250.86797,38.0359712 247.143429,40.5374497 241.31625,41.3048024 C234.718686,42.1745192 232.695665,39.7496243 232.514442,38.3771853 C232.329429,36.9698666 233.117254,35.7073744 234.691389,35.5011295 C236.298886,35.2880602 237.78658,37.2731681 240.164463,36.9600093 C242.977584,36.5892233 243.680485,35.2016193 243.353677,32.7228883 L243.049618,30.4132479 Z M239.1757,21.1784775 C237.06548,21.4567566 236.484658,22.9982861 236.780377,25.2419585 C237.076096,27.4856308 238.036045,28.8247067 240.146265,28.5471858 C242.289848,28.2643573 242.796361,26.4255923 242.54083,24.4829466 C242.285298,22.5410592 241.318525,20.8964072 239.1757,21.1784775 L239.1757,21.1784775 Z M271.129264,26.8145764 C270.982163,25.7090427 269.890278,24.6611362 268.684655,24.8203695 C266.575193,25.097132 265.383977,27.4348278 262.871883,27.7661847 C260.628211,28.0619035 259.165539,26.789554 258.706796,24.6019925 L268.485992,23.3122031 C270.696302,23.021792 271.570568,22.1566246 271.296838,20.0812846 C270.952591,17.4683427 267.911236,12.4858584 260.208138,13.5004017 C254.716107,14.2245339 250.770914,17.6397081 251.605751,23.9703672 C252.443621,30.332873 257.138728,32.6099085 262.631517,31.8857764 C269.295807,31.0077187 271.379488,28.7231007 271.129264,26.8145764 L271.129264,26.8145764 Z M258.257152,21.1860601 C258.034983,18.7270437 259.532534,17.6791372 261.073305,17.475167 C262.780892,17.2499657 264.402797,17.9217784 264.720505,20.3345413 L258.257152,21.1860601 Z" id="Fill-4" fill="#FEFEFE"></path>
            <g id="Group-8" transform="translate(13.648564, 85.348265)">
                <mask id="mask-2" fill="white">
                    <use xlink:href="#path-1"></use>
                </mask>
                <g id="Clip-7"></g>
                <path d="M0.624194349,13.4526318 L0.624194349,1.52606116 L2.72455677,0.477396456 L2.72455677,13.4526318 L0.624194349,13.4526318 Z M11.2852397,8.78937223 C11.2852397,6.22723338 10.2168604,3.91152693 7.86779083,3.91152693 C5.83870424,3.91152693 4.41470401,5.65702668 4.41470401,8.78937223 C4.41470401,11.6730106 5.67871273,13.6490194 7.99214441,13.6490194 C9.22051522,13.6490194 10.2888945,13.0962526 10.9826965,11.9573557 L9.48666223,10.8358987 C9.07720529,11.387149 8.77542037,11.6540543 8.02778233,11.6540543 C7.20962672,11.6540543 6.62198019,11.01333 6.53250627,9.57264818 L11.2496018,9.57264818 C11.2677999,9.32394101 11.2852397,9.03883766 11.2852397,8.78937223 L11.2852397,8.78937223 Z M9.1848773,7.84534652 L6.53250627,7.84534652 C6.63942002,6.47594055 7.06707504,5.7988201 7.85035099,5.7988201 C8.75798053,5.7988201 9.07720529,6.70720789 9.1848773,7.84534652 L9.1848773,7.84534652 Z M17.2853003,13.2388043 C16.8220074,13.4875114 16.306395,13.6490194 15.6823523,13.6490194 C14.1703946,13.6490194 13.4227566,12.8301056 13.4227566,10.7828209 L13.4227566,6.10212153 L12.2656616,6.10212153 L12.2656616,4.10791461 L13.4227566,4.10791461 L13.4227566,1.52606116 L15.5223607,0.477396456 L15.5223607,4.10791461 L17.4096539,4.10791461 L17.4096539,6.10212153 L15.5223607,6.10212153 L15.5223607,10.7289849 C15.5223607,11.4235452 15.7900243,11.6540543 16.2881969,11.6540543 C16.6976538,11.6540543 17.1253088,11.5122608 17.5347658,11.2089594 L17.2853003,13.2388043 Z M21.715776,0.993008892 L19.0641632,0.993008892 L19.6336117,6.81336339 L21.1463276,6.81336339 L21.715776,0.993008892 Z M26.0416127,13.6490194 C24.8845177,13.6490194 23.9586901,13.3282782 23.0866985,12.6337179 L23.8343365,10.8358987 C24.6176125,11.387149 25.3296126,11.6540543 26.0764924,11.6540543 C26.736173,11.6540543 27.0553977,11.3522693 27.0553977,10.8889764 C27.0553977,10.3726057 26.682337,10.1238985 25.3652505,9.48393251 C24.0125261,8.82501015 23.3361639,8.04097595 23.3361639,6.59877763 C23.3361639,4.92607023 24.5463366,3.91152693 26.2198023,3.91152693 C27.1987077,3.91152693 28.0176215,4.19738853 28.853217,4.76683697 L28.1245353,6.47594055 C27.3230613,6.04828553 26.8430867,5.90573386 26.1667245,5.90573386 C25.6859918,5.90573386 25.3826903,6.17263912 25.3826903,6.54721639 C25.3826903,6.95591507 25.6670354,7.22206208 26.9492422,7.82790669 C28.3194065,8.4860708 29.1034407,9.25114866 29.1034407,10.7115451 C29.1034407,12.6337179 27.8219921,13.6490194 26.0416127,13.6490194 L26.0416127,13.6490194 Z M41.4197536,8.78937223 C41.4197536,6.22723338 40.3513743,3.91152693 38.0015465,3.91152693 C35.9724599,3.91152693 34.5484597,5.65702668 34.5484597,8.78937223 C34.5484597,11.6730106 35.8124684,13.6490194 38.1266583,13.6490194 C39.3542709,13.6490194 40.4218919,13.0962526 41.1156939,11.9573557 L39.6219344,10.8358987 C39.2124774,11.387149 38.9099343,11.6540543 38.1622962,11.6540543 C37.3433824,11.6540543 36.7549776,11.01333 36.6670202,9.57264818 L41.3833574,9.57264818 C41.4007973,9.32394101 41.4197536,9.03883766 41.4197536,8.78937223 L41.4197536,8.78937223 Z M39.3186329,7.84534652 L36.6670202,7.84534652 C36.7739339,6.47594055 37.2000724,5.7988201 37.9841066,5.7988201 C38.8917362,5.7988201 39.2124774,6.70720789 39.3186329,7.84534652 L39.3186329,7.84534652 Z M47.2567897,13.4526318 L47.2567897,7.40100992 C47.2567897,6.24391495 47.114238,5.87009594 46.3666,5.87009594 C45.9040653,5.87009594 45.3694965,6.27879462 45.1207894,6.65261364 L45.1207894,13.4526318 L43.0204269,13.4526318 L43.0204269,4.10791461 L45.1207894,4.10791461 L45.1207894,4.74863889 C45.583324,4.24970803 46.1884104,3.91152693 46.8640143,3.91152693 C48.8582213,3.91152693 49.3571521,5.13989774 49.3571521,7.32973408 L49.3571521,13.4526318 L47.2567897,13.4526318 Z M57.525818,13.4526318 L57.525818,0.477396456 L55.4246973,1.52606116 L55.4246973,4.62352705 C55.0159986,4.19738853 54.4291103,3.91152693 53.8058259,3.91152693 C51.7592995,3.91152693 50.9047477,5.94137177 50.9047477,8.78937223 C50.9047477,12.0817093 51.8836531,13.6490194 53.6276363,13.6490194 C54.3039985,13.6490194 54.9629209,13.3108383 55.4246973,12.8119075 L55.4246973,13.4526318 L57.525818,13.4526318 Z M55.4246973,10.9079327 C55.1759901,11.2809935 54.6429379,11.6912087 54.1265672,11.6912087 C53.2538173,11.6912087 53.040748,10.7646228 53.040748,8.71733814 C53.040748,6.54721639 53.342533,5.87009594 54.0909292,5.87009594 C54.6778175,5.87009594 55.1403522,6.26211304 55.4246973,6.67156997 L55.4246973,10.9079327 Z M71.7635455,13.4526318 L71.7635455,7.40100992 C71.7635455,6.24391495 71.6399502,5.87009594 70.9453899,5.87009594 C70.4995368,5.87009594 70.0203205,6.27879462 69.7700968,6.65261364 L69.7700968,13.4526318 L67.6704927,13.4526318 L67.6704927,7.40100992 C67.6704927,6.24391495 67.5461391,5.87009594 66.8515788,5.87009594 C66.4064839,5.87009594 65.9257512,6.27879462 65.677044,6.65261364 L65.677044,13.4526318 L63.5759233,13.4526318 L63.5759233,4.10791461 L65.677044,4.10791461 L65.677044,4.74863889 C66.1388204,4.24970803 66.744665,3.91152693 67.3497514,3.91152693 C68.4894065,3.91152693 69.058855,4.32098387 69.3970361,4.94351006 C69.9134068,4.39377621 70.5366912,3.91152693 71.4435625,3.91152693 C73.4370112,3.91152693 73.8646662,5.13989774 73.8646662,7.32973408 L73.8646662,13.4526318 L71.7635455,13.4526318 Z M82.2471595,8.78937223 C82.2471595,6.22723338 81.1787802,3.91152693 78.8297106,3.91152693 C76.8006241,3.91152693 75.3766238,5.65702668 75.3766238,8.78937223 C75.3766238,11.6730106 76.6406325,13.6490194 78.9540642,13.6490194 C80.182435,13.6490194 81.2508143,13.0962526 81.9446164,11.9573557 L80.448582,10.8358987 C80.0391251,11.387149 79.7373402,11.6540543 78.9897021,11.6540543 C78.1715465,11.6540543 77.5839,11.01333 77.4951843,9.57264818 L82.2115216,9.57264818 C82.2297197,9.32394101 82.2471595,9.03883766 82.2471595,8.78937223 L82.2471595,8.78937223 Z M80.1467971,7.84534652 L77.4951843,7.84534652 C77.6013398,6.47594055 78.0289949,5.7988201 78.8122708,5.7988201 C79.7199003,5.7988201 80.0391251,6.70720789 80.1467971,7.84534652 L80.1467971,7.84534652 Z M88.0849539,13.4526318 L88.0849539,7.40100992 C88.0849539,6.24391495 87.9424022,5.87009594 87.1947642,5.87009594 C86.7322295,5.87009594 86.1969025,6.27879462 85.9481953,6.65261364 L85.9481953,13.4526318 L83.8485911,13.4526318 L83.8485911,4.10791461 L85.9481953,4.10791461 L85.9481953,4.74863889 C86.4114882,4.24970803 87.0165746,3.91152693 87.6929368,3.91152693 C89.6863854,3.91152693 90.1853163,5.13989774 90.1853163,7.32973408 L90.1853163,13.4526318 L88.0849539,13.4526318 Z M96.786672,11.2089594 C96.3787316,11.5122608 95.9510765,11.6540543 95.5416196,11.6540543 C95.0426888,11.6540543 94.7765417,11.4235452 94.7765417,10.7289849 L94.7765417,6.10212153 L96.6630767,6.10212153 L96.6630767,4.10791461 L94.7765417,4.10791461 L94.7765417,0.477396456 L92.6754211,1.52606116 L92.6754211,4.10791461 L91.5190844,4.10791461 L91.5190844,6.10212153 L92.6754211,6.10212153 L92.6754211,10.7828209 C92.6754211,12.8301056 93.4238174,13.6490194 94.9365332,13.6490194 C95.5598177,13.6490194 96.0761884,13.4875114 96.5387231,13.2388043 L96.786672,11.2089594 Z M102.356803,13.4526318 L102.356803,12.8119075 C101.929906,13.345718 101.289182,13.6490194 100.684095,13.6490194 C99.0462677,13.6490194 97.9240524,12.4024506 97.9240524,10.3908038 C97.9240524,8.4860708 99.1349833,7.27589808 100.790251,7.27589808 C101.609165,7.27589808 101.947346,7.40100992 102.356803,7.65047535 L102.356803,6.93771698 C102.356803,6.27879462 102.072458,5.78213852 101.235346,5.78213852 C100.45207,5.78213852 99.9364574,5.95805335 99.3488108,6.35158696 L98.4942591,4.81915647 C99.3488108,4.23302645 100.239001,3.91152693 101.377897,3.91152693 C103.549536,3.91152693 104.457165,4.97990623 104.457165,7.02643265 L104.457165,13.4526318 L102.356803,13.4526318 Z M102.356803,9.50061409 C102.018622,9.216269 101.71532,9.05551924 101.075354,9.05551924 C100.487708,9.05551924 100.060811,9.57264818 100.060811,10.3551659 C100.060811,11.2627954 100.43463,11.7791661 101.12919,11.7791661 C101.627363,11.7791661 102.089139,11.4417433 102.356803,10.9966484 L102.356803,9.50061409 Z M108.51458,13.4526318 L108.51458,0.477396456 L106.414218,1.52606116 L106.414218,13.4526318 L108.51458,13.4526318 Z M118.89128,13.4526318 L118.89128,7.40100992 C118.89128,6.24391495 118.748729,5.87009594 118.001091,5.87009594 C117.53704,5.87009594 117.003229,6.27879462 116.754522,6.65261364 L116.754522,13.4526318 L114.654918,13.4526318 L114.654918,1.52606116 L116.754522,0.477396456 L116.754522,4.74863889 C117.217815,4.24970803 117.822143,3.91152693 118.499263,3.91152693 C120.492712,3.91152693 120.990885,5.13989774 120.990885,7.32973408 L120.990885,13.4526318 L118.89128,13.4526318 Z M129.374136,8.78937223 C129.374136,6.22723338 128.306515,3.91152693 125.956687,3.91152693 C123.927601,3.91152693 122.502842,5.65702668 122.502842,8.78937223 C122.502842,11.6730106 123.766093,13.6490194 126.081041,13.6490194 C127.309412,13.6490194 128.376275,13.0962526 129.070835,11.9573557 L127.576317,10.8358987 C127.16686,11.387149 126.863559,11.6540543 126.116679,11.6540543 C125.297765,11.6540543 124.710118,11.01333 124.621403,9.57264818 L129.338498,9.57264818 C129.35518,9.32394101 129.374136,9.03883766 129.374136,8.78937223 L129.374136,8.78937223 Z M127.273016,7.84534652 L124.621403,7.84534652 C124.728317,6.47594055 125.154455,5.7988201 125.938489,5.7988201 C126.846877,5.7988201 127.16686,6.70720789 127.273016,7.84534652 L127.273016,7.84534652 Z M134.839628,13.4526318 L134.839628,12.8119075 C134.411215,13.345718 133.771249,13.6490194 133.165404,13.6490194 C131.528335,13.6490194 130.407636,12.4024506 130.407636,10.3908038 C130.407636,8.4860708 131.617809,7.27589808 133.272318,7.27589808 C134.09199,7.27589808 134.429413,7.40100992 134.839628,7.65047535 L134.839628,6.93771698 C134.839628,6.27879462 134.554525,5.78213852 133.717413,5.78213852 C132.934895,5.78213852 132.418524,5.95805335 131.830878,6.35158696 L130.977084,4.81915647 C131.830878,4.23302645 132.721068,3.91152693 133.859964,3.91152693 C136.032361,3.91152693 136.939232,4.97990623 136.939232,7.02643265 L136.939232,13.4526318 L134.839628,13.4526318 Z M134.839628,9.50061409 C134.500689,9.216269 134.198904,9.05551924 133.557421,9.05551924 C132.969775,9.05551924 132.542878,9.57264818 132.542878,10.3551659 C132.542878,11.2627954 132.916697,11.7791661 133.610499,11.7791661 C134.10943,11.7791661 134.571965,11.4417433 134.839628,10.9966484 L134.839628,9.50061409 Z M140.996647,13.4526318 L140.996647,0.477396456 L138.896285,1.52606116 L138.896285,13.4526318 L140.996647,13.4526318 Z M147.528244,13.2388043 C147.065709,13.4875114 146.549338,13.6490194 145.926812,13.6490194 C144.413338,13.6490194 143.6657,12.8301056 143.6657,10.7828209 L143.6657,6.10212153 L142.508605,6.10212153 L142.508605,4.10791461 L143.6657,4.10791461 L143.6657,1.52606116 L145.76682,0.477396456 L145.76682,4.10791461 L147.651839,4.10791461 L147.651839,6.10212153 L145.76682,6.10212153 L145.76682,10.7289849 C145.76682,11.4235452 146.033726,11.6540543 146.531898,11.6540543 C146.941355,11.6540543 147.367494,11.5122608 147.776951,11.2089594 L147.528244,13.2388043 Z M155.876615,13.4526318 L155.876615,7.32973408 C155.876615,5.13989774 155.377685,3.91152693 153.383478,3.91152693 C152.707874,3.91152693 152.101271,4.24970803 151.640253,4.74863889 L151.640253,0.477396456 L149.53989,1.52606116 L149.53989,13.4526318 L151.640253,13.4526318 L151.640253,6.65261364 C151.88896,6.27879462 152.422012,5.87009594 152.885305,5.87009594 C153.632943,5.87009594 153.775495,6.24391495 153.775495,7.40100992 L153.775495,13.4526318 L155.876615,13.4526318 Z M166.037213,13.4526318 L166.037213,12.8119075 C165.576195,13.3108383 164.916515,13.6490194 164.240152,13.6490194 C162.495411,13.6490194 161.517264,12.0817093 161.517264,8.78937223 C161.517264,5.94137177 162.371057,3.91152693 164.418342,3.91152693 C165.041627,3.91152693 165.628515,4.19738853 166.037213,4.62352705 L166.037213,1.52606116 L168.138334,0.477396456 L168.138334,13.4526318 L166.037213,13.4526318 Z M166.037213,6.67156997 C165.75211,6.26211304 165.290334,5.87009594 164.703445,5.87009594 C163.955807,5.87009594 163.653264,6.54721639 163.653264,8.71733814 C163.653264,10.7646228 163.867092,11.6912087 164.738325,11.6912087 C165.255454,11.6912087 165.789265,11.2809935 166.037213,10.9079327 L166.037213,6.67156997 Z M172.569568,1.86575877 C172.569568,1.13480231 171.96524,0.530474207 171.235042,0.530474207 C170.505602,0.530474207 169.899757,1.13480231 169.899757,1.86575877 C169.899757,2.59519871 170.505602,3.20028507 171.235042,3.20028507 C171.96524,3.20028507 172.569568,2.59519871 172.569568,1.86575877 L172.569568,1.86575877 Z M170.184861,13.4526318 L172.285223,13.4526318 L172.285223,4.10791461 L170.184861,4.10791461 L170.184861,13.4526318 Z M176.930284,13.6490194 C175.773189,13.6490194 174.84812,13.3282782 173.97537,12.6337179 L174.72225,10.8358987 C175.506284,11.387149 176.218284,11.6540543 176.965164,11.6540543 C177.624845,11.6540543 177.944828,11.3522693 177.944828,10.8889764 C177.944828,10.3726057 177.57025,10.1238985 176.253922,9.48393251 C174.901198,8.82501015 174.224836,8.04097595 174.224836,6.59877763 C174.224836,4.92607023 175.435008,3.91152693 177.107716,3.91152693 C178.087379,3.91152693 178.906293,4.19738853 179.742647,4.76683697 L179.013207,6.47594055 C178.211733,6.04828553 177.730242,5.90573386 177.055396,5.90573386 C176.573905,5.90573386 176.270604,6.17263912 176.270604,6.54721639 C176.270604,6.95591507 176.555707,7.22206208 177.837914,7.82790669 C179.208836,8.4860708 179.992112,9.25114866 179.992112,10.7115451 C179.992112,12.6337179 178.710664,13.6490194 176.930284,13.6490194 L176.930284,13.6490194 Z M187.713409,6.02932919 C187.143202,4.64172513 186.183253,3.91152693 184.740296,3.91152693 C182.711968,3.91152693 181.234132,5.65702668 181.234132,8.80605381 C181.234132,11.9573557 182.694528,13.6490194 184.758494,13.6490194 C186.200693,13.6490194 187.12652,12.705752 187.677771,11.4061053 L186.128659,10.2846483 C185.826874,11.067166 185.381779,11.6540543 184.777451,11.6540543 C183.797787,11.6540543 183.370132,10.5151574 183.370132,8.77117415 C183.370132,7.02643265 183.762149,5.90573386 184.705417,5.90573386 C185.328701,5.90573386 185.70252,6.40314821 186.022503,7.16898433 L187.713409,6.02932919 Z M193.925022,6.43954438 C193.569401,6.15444103 193.195582,5.97776795 192.696651,5.97776795 C192.144643,5.97776795 191.700306,6.26211304 191.343927,6.77696722 L191.343927,13.4526318 L189.243564,13.4526318 L189.243564,4.10791461 L191.343927,4.10791461 L191.343927,4.74863889 C191.700306,4.33918195 192.359228,3.91152693 193.052272,3.91152693 C193.675557,3.91152693 194.085772,4.07227669 194.530108,4.39377621 L193.925022,6.43954438 Z M198.196264,1.86575877 C198.196264,1.13480231 197.591936,0.530474207 196.86098,0.530474207 C196.132298,0.530474207 195.526454,1.13480231 195.526454,1.86575877 C195.526454,2.59519871 196.132298,3.20028507 196.86098,3.20028507 C197.591936,3.20028507 198.196264,2.59519871 198.196264,1.86575877 L198.196264,1.86575877 Z M195.811557,13.4526318 L197.911919,13.4526318 L197.911919,4.10791461 L195.811557,4.10791461 L195.811557,13.4526318 Z M208.146068,13.4526318 L208.146068,7.40100992 C208.146068,6.24391495 208.021714,5.87009594 207.327154,5.87009594 C206.882059,5.87009594 206.401326,6.27879462 206.151861,6.65261364 L206.151861,13.4526318 L204.051499,13.4526318 L204.051499,7.40100992 C204.051499,6.24391495 203.927145,5.87009594 203.232585,5.87009594 C202.788248,5.87009594 202.307515,6.27879462 202.05805,6.65261364 L202.05805,13.4526318 L199.958446,13.4526318 L199.958446,4.10791461 L202.05805,4.10791461 L202.05805,4.74863889 C202.521343,4.24970803 203.126429,3.91152693 203.730757,3.91152693 C204.870412,3.91152693 205.439861,4.32098387 205.7788,4.94351006 C206.295171,4.39377621 206.917697,3.91152693 207.826085,3.91152693 C209.818775,3.91152693 210.24643,5.13989774 210.24643,7.32973408 L210.24643,13.4526318 L208.146068,13.4526318 Z M214.587432,1.86575877 C214.587432,1.13480231 213.983104,0.530474207 213.252906,0.530474207 C212.523466,0.530474207 211.917621,1.13480231 211.917621,1.86575877 C211.917621,2.59519871 212.523466,3.20028507 213.252906,3.20028507 C213.983104,3.20028507 214.587432,2.59519871 214.587432,1.86575877 L214.587432,1.86575877 Z M212.202725,13.4526318 L214.303087,13.4526318 L214.303087,4.10791461 L212.202725,4.10791461 L212.202725,13.4526318 Z M220.586734,13.4526318 L220.586734,7.40100992 C220.586734,6.24391495 220.443425,5.87009594 219.696545,5.87009594 C219.233252,5.87009594 218.699441,6.27879462 218.449218,6.65261364 L218.449218,13.4526318 L216.350372,13.4526318 L216.350372,4.10791461 L218.449218,4.10791461 L218.449218,4.74863889 C218.912511,4.24970803 219.518355,3.91152693 220.194717,3.91152693 C222.188166,3.91152693 222.68558,5.13989774 222.68558,7.32973408 L222.68558,13.4526318 L220.586734,13.4526318 Z M230.588857,13.4526318 L230.588857,7.02643265 C230.588857,4.97990623 229.681228,3.91152693 227.508831,3.91152693 C226.369935,3.91152693 225.479745,4.23302645 224.625951,4.81915647 L225.479745,6.35158696 C226.067391,5.95805335 226.58452,5.78213852 227.367038,5.78213852 C228.203392,5.78213852 228.488495,6.27879462 228.488495,6.93771698 L228.488495,7.65047535 C228.079038,7.40100992 227.740099,7.27589808 226.921943,7.27589808 C225.266676,7.27589808 224.056503,8.4860708 224.056503,10.3908038 C224.056503,12.4024506 225.177202,13.6490194 226.815029,13.6490194 C227.420116,13.6490194 228.06084,13.345718 228.488495,12.8119075 L228.488495,13.4526318 L230.588857,13.4526318 Z M228.488495,10.9966484 C228.22159,11.4417433 227.758297,11.7791661 227.260124,11.7791661 C226.565564,11.7791661 226.190987,11.2627954 226.190987,10.3551659 C226.190987,9.57264818 226.6194,9.05551924 227.206288,9.05551924 C227.847771,9.05551924 228.148797,9.216269 228.488495,9.50061409 L228.488495,10.9966484 Z M236.941506,13.2388043 C236.47973,13.4875114 235.963359,13.6490194 235.340074,13.6490194 C233.827359,13.6490194 233.078962,12.8301056 233.078962,10.7828209 L233.078962,6.10212153 L231.922626,6.10212153 L231.922626,4.10791461 L233.078962,4.10791461 L233.078962,1.52606116 L235.179325,0.477396456 L235.179325,4.10791461 L237.066618,4.10791461 L237.066618,6.10212153 L235.179325,6.10212153 L235.179325,10.7289849 C235.179325,11.4235452 235.44623,11.6540543 235.945161,11.6540543 C236.354618,11.6540543 236.782273,11.5122608 237.190971,11.2089594 L236.941506,13.2388043 Z M241.426576,1.86575877 C241.426576,1.13480231 240.82149,0.530474207 240.091291,0.530474207 C239.36261,0.530474207 238.756765,1.13480231 238.756765,1.86575877 C238.756765,2.59519871 239.36261,3.20028507 240.091291,3.20028507 C240.82149,3.20028507 241.426576,2.59519871 241.426576,1.86575877 L241.426576,1.86575877 Z M239.04111,13.4526318 L241.142231,13.4526318 L241.142231,4.10791461 L239.04111,4.10791461 L239.04111,13.4526318 Z M246.374939,13.6490194 C244.274576,13.6490194 242.832378,11.9573557 242.832378,8.80605381 C242.832378,5.65702668 244.292016,3.91152693 246.392379,3.91152693 C248.474543,3.91152693 249.915983,5.62063051 249.915983,8.77117415 C249.915983,11.9217178 248.457103,13.6490194 246.374939,13.6490194 L246.374939,13.6490194 Z M246.356741,5.90573386 C245.342956,5.90573386 244.968378,7.02643265 244.968378,8.77117415 C244.968378,10.5151574 245.377835,11.6540543 246.392379,11.6540543 C247.388724,11.6540543 247.780741,10.3726057 247.780741,8.80605381 C247.780741,7.08102691 247.353086,5.90573386 246.356741,5.90573386 L246.356741,5.90573386 Z M257.85414,13.4526318 L257.85414,7.32973408 C257.85414,5.13989774 257.356725,3.91152693 255.362519,3.91152693 C254.685398,3.91152693 254.08107,4.24970803 253.617777,4.74863889 L253.617777,4.10791461 L251.517415,4.10791461 L251.517415,13.4526318 L253.617777,13.4526318 L253.617777,6.65261364 C253.866484,6.27879462 254.401053,5.87009594 254.863588,5.87009594 C255.611984,5.87009594 255.753777,6.24391495 255.753777,7.40100992 L255.753777,13.4526318 L257.85414,13.4526318 Z" id="Fill-6" fill="#000000" mask="url(#mask-2)"></path>
            </g>
        </g>
    </g>
</svg>