<?xml version="1.0" encoding="UTF-8" standalone="no"?>
<svg width="135px" height="46px" viewBox="0 0 135 46" version="1.1" xmlns="http://www.w3.org/2000/svg" xmlns:xlink="http://www.w3.org/1999/xlink">
    <!-- Generator: Sketch 3.8.3 (29802) - http://www.bohemiancoding.com/sketch -->
    <title>app_store_btn</title>
    <desc>Created with Sketch.</desc>
    <defs></defs>
    <g id="Page-1" stroke="none" stroke-width="1" fill="none" fill-rule="evenodd">
        <g id="app-store-buttons-copy" transform="translate(-0.135846, -0.153264)">
            <g id="app_store_btn" transform="translate(0.252336, 0.464994)">
                <g id="App-Store-+-locked" transform="translate(0.000000, -0.000000)">
                    <g id="Group" transform="translate(0.000000, -0.000000)">
                        <rect id="Rectangle-path" fill="#000000" x="9.09494702e-13" y="-1.13686838e-13" width="134.307888" height="45.664682" rx="6"></rect>
                        <g transform="translate(9.401552, 7.386934)" id="Shape" fill="#FFFFFF">
                            <path d="M17.9858408,14.3998202 C17.9569647,11.1334524 20.6491663,9.54459008 20.7727295,9.47072074 C19.248335,7.2378521 16.8845162,6.93230165 16.0538219,6.90879777 C14.0687513,6.69860592 12.1434477,8.10145182 11.1327809,8.10145182 C10.1012963,8.10145182 8.54399631,6.92894395 6.86581925,6.96319246 C4.70681994,6.99676944 2.6868293,8.25254819 1.57878923,10.2013556 C-0.707131031,14.1768691 0.997907609,20.0192623 3.18846927,23.2339216 C4.28442163,24.80801 5.56571889,26.5647572 7.24120979,26.5029756 C8.88110911,26.4358216 9.49355308,25.4526879 11.4719083,25.4526879 C13.4328034,25.4526879 14.0083127,26.5029756 15.7173806,26.4620117 C17.476814,26.4351501 18.584854,24.8818794 19.6425287,23.2923455 C20.9083805,21.4912767 21.4167359,19.7130403 21.436882,19.6210394 C21.3965897,19.6076086 18.0207609,18.3135521 17.9851693,14.3984772 M14.7570792,4.79479161 C15.6388105,3.68675153 16.2425245,2.17981703 16.0746396,0.650050179 C14.7987147,0.707131031 13.2017939,1.53648224 12.2831279,2.6203469 C11.4705652,3.57527598 10.7439595,5.13996288 10.931319,6.6113058 C12.3650557,6.71875211 13.8377417,5.88470012 14.7577508,4.79412007"></path>
                        </g>
                        <path d="M41.007556,15.425261 C41.4104796,15.4756264 41.9544266,15.5159188 42.6796892,15.5159188 C43.9992642,15.5159188 45.077085,15.2036529 45.7519821,14.5891944 C46.39666,14.004955 46.8096567,13.0983768 46.8096567,11.8896058 C46.8096567,10.7312003 46.4067331,9.92535294 45.7519821,9.39147908 C45.1274504,8.86767832 44.2510915,8.60577794 42.9818819,8.60577794 C42.2465462,8.60577794 41.5515029,8.6561434 41.007556,8.74680122 L41.007556,15.425261 L41.007556,15.425261 Z M42.2465462,9.64330637 C42.4177888,9.60301401 42.6998354,9.57279473 43.0926859,9.57279473 C44.643942,9.57279473 45.5102279,10.4290075 45.5001548,11.9298982 C45.5001548,13.6523968 44.5432111,14.5388289 42.9315165,14.5287558 C42.6796892,14.5287558 42.4177888,14.5287558 42.2465462,14.4985365 L42.2465462,9.64330637 L42.2465462,9.64330637 Z M50.3318811,10.4290075 C48.8511366,10.4290075 47.793462,11.4161705 47.793462,13.0278652 C47.793462,14.5992674 48.8612097,15.5562112 50.2512964,15.5562112 C51.5003597,15.5562112 52.7695693,14.7503638 52.7695693,12.9472804 C52.7695693,11.4564629 51.7924794,10.4290075 50.3318811,10.4290075 L50.3318811,10.4290075 Z M50.3016618,11.3355858 C51.1478015,11.3355858 51.4902866,12.2119447 51.4902866,12.9774997 C51.4902866,13.9646627 50.9967052,14.659706 50.2915887,14.659706 C49.5361069,14.659706 49.0727447,13.9445165 49.0727447,12.9976459 C49.0727447,12.1817255 49.4253029,11.3355858 50.3016618,11.3355858 L50.3016618,11.3355858 Z M53.4511818,10.5398115 L54.901707,15.4454071 L56.0601125,15.4454071 L56.6846442,13.450935 C56.8256675,12.9674266 56.9566177,12.4839182 57.0573486,11.8795327 L57.0774948,11.8795327 C57.1882988,12.4738451 57.2991028,12.9372073 57.4501992,13.450935 L58.0344385,15.4454071 L59.1827709,15.4454071 L60.723954,10.5398115 L59.5051099,10.5398115 L58.9611629,12.7155993 C58.8302127,13.2897655 58.7194087,13.8236394 58.638824,14.3575132 L58.6186778,14.3575132 C58.5078738,13.8236394 58.3769236,13.2897655 58.2258272,12.7155993 L57.6113686,10.5398115 L56.6040595,10.5398115 L55.9694547,12.7760379 C55.8284314,13.2796924 55.667262,13.8236394 55.566531,14.3575132 L55.5463849,14.3575132 C55.455727,13.8236394 55.344923,13.2897655 55.234119,12.7659648 L54.7203914,10.5398115 L53.4511818,10.5398115 L53.4511818,10.5398115 Z M61.788344,15.4454071 L63.0374073,15.4454071 L63.0374073,12.5645029 C63.0374073,12.4234797 63.0474804,12.2723833 63.0877728,12.1615793 C63.218723,11.7888749 63.5612081,11.4363167 64.0547896,11.4363167 C64.7296867,11.4363167 64.9915871,11.9701905 64.9915871,12.6753069 L64.9915871,15.4454071 L66.2305774,15.4454071 L66.2305774,12.5342837 C66.2305774,10.9830276 65.3441453,10.4290075 64.4879325,10.4290075 C63.6720121,10.4290075 63.1381382,10.8923697 62.9266033,11.2751472 L62.896384,11.2751472 L62.8359455,10.5398115 L61.7480516,10.5398115 C61.7782709,10.9628814 61.788344,11.4363167 61.788344,12.0004098 L61.788344,15.4454071 L61.788344,15.4454071 Z M67.8187682,15.4454071 L69.0678315,15.4454071 L69.0678315,8.2935121 L67.8187682,8.2935121 L67.8187682,15.4454071 L67.8187682,15.4454071 Z M72.9023217,10.4290075 C71.4215773,10.4290075 70.3639026,11.4161705 70.3639026,13.0278652 C70.3639026,14.5992674 71.4316503,15.5562112 72.821737,15.5562112 C74.0708003,15.5562112 75.3400099,14.7503638 75.3400099,12.9472804 C75.3400099,11.4564629 74.36292,10.4290075 72.9023217,10.4290075 L72.9023217,10.4290075 Z M72.8721024,11.3355858 C73.7182421,11.3355858 74.0607273,12.2119447 74.0607273,12.9774997 C74.0607273,13.9646627 73.5671458,14.659706 72.8620294,14.659706 C72.1065475,14.659706 71.6431853,13.9445165 71.6431853,12.9976459 C71.6431853,12.1817255 71.9957435,11.3355858 72.8721024,11.3355858 L72.8721024,11.3355858 Z M80.5041482,15.4454071 C80.4537827,15.1432144 80.4336366,14.7100715 80.4336366,14.2668554 L80.4336366,12.4939913 C80.4336366,11.4262436 79.9803474,10.4290075 78.4089451,10.4290075 C77.6333171,10.4290075 76.9987123,10.6405424 76.636081,10.8621505 L76.8778352,11.6679978 C77.2102472,11.4564629 77.7139018,11.3053665 78.1974102,11.3053665 C79.0636961,11.3053665 79.1946463,11.8392403 79.1946463,12.1615793 L79.1946463,12.242164 C77.3814898,12.2320909 76.2835228,12.8566226 76.2835228,14.0956129 C76.2835228,14.8410216 76.8375428,15.5562112 77.8247058,15.5562112 C78.4593106,15.5562112 78.9730383,15.2842377 79.275231,14.9014602 L79.3054503,14.9014602 L79.386035,15.4454071 L80.5041482,15.4454071 L80.5041482,15.4454071 Z M79.2248656,13.7229085 C79.2248656,13.8034932 79.2147925,13.9042241 79.1845732,13.994882 C79.0737692,14.3474402 78.7111379,14.6697791 78.2175564,14.6697791 C77.8247058,14.6697791 77.51244,14.4481711 77.51244,13.9646627 C77.51244,13.2192539 78.3485066,13.0278652 79.2248656,13.0480113 L79.2248656,13.7229085 L79.2248656,13.7229085 Z M85.2955821,8.2935121 L85.2955821,11.0736854 L85.2754359,11.0736854 C85.0538279,10.7110541 84.5703195,10.4290075 83.8954224,10.4290075 C82.7168707,10.4290075 81.6894153,11.4060974 81.6994884,13.0480113 C81.6994884,14.5589751 82.6262128,15.5562112 83.7946915,15.5562112 C84.509881,15.5562112 85.1041934,15.213726 85.396313,14.6697791 L85.4164592,14.6697791 L85.4668247,15.4454071 L86.5748647,15.4454071 C86.5547186,15.1129951 86.5345724,14.5690482 86.5345724,14.0653936 L86.5345724,8.2935121 L85.2955821,8.2935121 L85.2955821,8.2935121 Z M85.2955821,13.3199848 C85.2955821,13.450935 85.285509,13.5718121 85.2552897,13.6826161 C85.1344126,14.21649 84.6911966,14.5589751 84.187542,14.5589751 C83.4018409,14.5589751 82.9586249,13.9042241 82.9586249,13.007719 C82.9586249,12.0910676 83.4018409,11.3859512 84.1976151,11.3859512 C84.7617082,11.3859512 85.1545588,11.7788018 85.2653628,12.2623102 C85.285509,12.3630411 85.2955821,12.4839182 85.2955821,12.5846491 L85.2955821,13.3199848 L85.2955821,13.3199848 Z M92.7127352,10.4290075 C91.2319908,10.4290075 90.1743161,11.4161705 90.1743161,13.0278652 C90.1743161,14.5992674 91.2420639,15.5562112 92.6321505,15.5562112 C93.8812139,15.5562112 95.1504234,14.7503638 95.1504234,12.9472804 C95.1504234,11.4564629 94.1733335,10.4290075 92.7127352,10.4290075 L92.7127352,10.4290075 Z M92.682516,11.3355858 C93.5286557,11.3355858 93.8711408,12.2119447 93.8711408,12.9774997 C93.8711408,13.9646627 93.3775593,14.659706 92.6724429,14.659706 C91.916961,14.659706 91.4535988,13.9445165 91.4535988,12.9976459 C91.4535988,12.1817255 91.806157,11.3355858 92.682516,11.3355858 L92.682516,11.3355858 Z M96.4364214,15.4454071 L97.6854848,15.4454071 L97.6854848,12.5645029 C97.6854848,12.4234797 97.6955579,12.2723833 97.7358503,12.1615793 C97.8668004,11.7888749 98.2092856,11.4363167 98.702867,11.4363167 C99.3777642,11.4363167 99.6396646,11.9701905 99.6396646,12.6753069 L99.6396646,15.4454071 L100.878655,15.4454071 L100.878655,12.5342837 C100.878655,10.9830276 99.9922228,10.4290075 99.13601,10.4290075 C98.3200896,10.4290075 97.7862157,10.8923697 97.5746808,11.2751472 L97.5444615,11.2751472 L97.484023,10.5398115 L96.3961291,10.5398115 C96.4263483,10.9628814 96.4364214,11.4363167 96.4364214,12.0004098 L96.4364214,15.4454071 L96.4364214,15.4454071 Z M105.032126,9.43177145 L105.032126,10.5398115 L104.32701,10.5398115 L104.32701,11.466536 L105.032126,11.466536 L105.032126,13.7732739 C105.032126,14.4179518 105.153003,14.8611678 105.414904,15.1432144 C105.646585,15.3950417 106.029362,15.5461381 106.482651,15.5461381 C106.875502,15.5461381 107.197841,15.4957726 107.379157,15.425261 L107.35901,14.4783903 C107.248206,14.5086096 107.087037,14.5388289 106.875502,14.5388289 C106.402067,14.5388289 106.240897,14.2265631 106.240897,13.6322507 L106.240897,11.466536 L107.419449,11.466536 L107.419449,10.5398115 L106.240897,10.5398115 L106.240897,9.13965179 L105.032126,9.43177145 L105.032126,9.43177145 Z M108.624862,15.4454071 L109.873926,15.4454071 L109.873926,12.5141375 C109.873926,12.3731142 109.883999,12.242164 109.924291,12.1414331 C110.055241,11.7687287 110.397726,11.4463898 110.881235,11.4463898 C111.566205,11.4463898 111.828105,11.9802636 111.828105,12.6954531 L111.828105,15.4454071 L113.067096,15.4454071 L113.067096,12.5544299 C113.067096,10.9830276 112.190737,10.4290075 111.35467,10.4290075 C111.042404,10.4290075 110.750285,10.5095923 110.50853,10.6506155 C110.24663,10.7916388 110.045168,10.9830276 109.894072,11.2147087 L109.873926,11.2147087 L109.873926,8.2935121 L108.624862,8.2935121 L108.624862,15.4454071 L108.624862,15.4454071 Z M118.815473,13.340131 C118.835619,13.229327 118.855766,13.0480113 118.855766,12.8163302 C118.855766,11.7385094 118.331965,10.4290075 116.740416,10.4290075 C115.169014,10.4290075 114.343021,11.7082902 114.343021,13.0681575 C114.343021,14.5690482 115.279818,15.5461381 116.871367,15.5461381 C117.576483,15.5461381 118.160722,15.4151879 118.583792,15.2439453 L118.402477,14.3877325 C118.029772,14.5287558 117.616775,14.6093405 117.042609,14.6093405 C116.256908,14.6093405 115.561865,14.2265631 115.531645,13.340131 L118.815473,13.340131 L118.815473,13.340131 Z M115.531645,12.4738451 C115.582011,11.9701905 115.90435,11.2751472 116.669905,11.2751472 C117.495898,11.2751472 117.69736,12.020556 117.687287,12.4738451 L115.531645,12.4738451 L115.531645,12.4738451 Z M47.8001774,29.8566435 L48.9888022,33.5769721 L51.5587837,33.5769721 L47.2945082,20.4510621 L44.2363176,20.4510621 L40.0304661,33.5769721 L42.5030743,33.5769721 L43.6326036,29.8566435 L47.8001774,29.8566435 L47.8001774,29.8566435 Z M44.0220965,28.0461732 L45.034778,24.8133823 C45.2684737,24.0343966 45.4632202,23.1190883 45.6579666,22.3595772 L45.6969159,22.3595772 C45.8916623,23.1184168 46.1065549,24.014922 46.3590538,24.8133823 L47.3912099,28.0461732 L44.0227681,28.0461732 L44.0220965,28.0461732 Z M52.9267095,37.4329515 L55.3214192,37.4329515 L55.3214192,32.5253413 L55.3603684,32.5253413 C55.8472345,33.2841809 56.8404414,33.7911931 58.0283946,33.7911931 C60.1907516,33.7911931 62.3531086,32.1351769 62.3531086,28.7076396 C62.3531086,25.7474937 60.5412952,23.8779279 58.3601351,23.8779279 C56.9190115,23.8779279 55.8082852,24.4823134 55.1078696,25.5527473 L55.0695919,25.5527473 L54.952744,24.092149 L52.8488109,24.092149 C52.8877602,24.9879826 52.9267095,26.0006641 52.9267095,27.2470413 L52.9267095,37.43228 L52.9267095,37.4329515 Z M55.3214192,28.144218 C55.3214192,27.9494715 55.3603684,27.7345789 55.4187924,27.5398325 C55.6524881,26.4882017 56.5671248,25.7669684 57.5610032,25.7669684 C59.0988285,25.7669684 59.9181066,27.1301934 59.9181066,28.8056843 C59.9181066,30.6752501 59.0216015,31.9417735 57.5025793,31.9417735 C56.4898978,31.9417735 55.6330135,31.2400148 55.3993177,30.2662826 C55.3408938,30.05139 55.3214192,29.8378404 55.3214192,29.6041447 L55.3214192,28.144218 L55.3214192,28.144218 Z M64.0500888,37.4316084 L66.44547,37.4316084 L66.44547,32.5239982 L66.4844193,32.5239982 C66.9712854,33.2828378 67.9644922,33.7898501 69.1524455,33.7898501 C71.3148025,33.7898501 73.4758164,32.1338338 73.4758164,28.7062965 C73.4758164,25.7461506 71.6646745,23.8765848 69.4835144,23.8765848 C68.0417192,23.8765848 66.9316645,24.4809703 66.2305774,25.5514042 L66.1916281,25.5514042 L66.0747802,24.0908059 L63.9715187,24.0908059 C64.010468,24.9866395 64.0494173,25.999321 64.0494173,27.2456982 L64.0494173,37.4309369 L64.0500888,37.4316084 Z M66.44547,28.1422034 C66.44547,27.9474569 66.4844193,27.7325643 66.5428432,27.5378179 C66.7765389,26.4861871 67.6911757,25.7649537 68.685054,25.7649537 C70.2228794,25.7649537 71.0421575,27.1281788 71.0421575,28.8036697 C71.0421575,30.6732355 70.1456523,31.9397589 68.6266301,31.9397589 C67.6139486,31.9397589 66.7570643,31.2380002 66.5233686,30.264268 C66.4656162,30.0493754 66.4461415,29.8358258 66.4461415,29.6021301 L66.4461415,28.144218 L66.44547,28.1422034 Z M78.449909,32.9517688 C79.1711424,33.380211 80.612266,33.7697039 81.9956373,33.7697039 C85.3835538,33.7697039 86.9804746,31.9390874 86.9804746,29.8358258 C86.9804746,27.9467854 85.8704199,26.7977814 83.5918865,25.9408971 C81.8391686,25.2592845 81.080329,24.7925646 81.080329,23.7785401 C81.080329,23.0197005 81.7417954,22.2017655 83.2608176,22.2017655 C84.4877202,22.2017655 85.4030284,22.5711122 85.8704199,22.8249541 L86.4546592,20.8976359 C85.7730466,20.5464207 84.7220874,20.2348264 83.2997669,20.2348264 C80.4564689,20.2348264 78.6648017,21.8706965 78.6648017,24.0129073 C78.6648017,25.9026193 80.0481729,27.0516233 82.2091868,27.8306091 C83.8840062,28.4349946 84.5461441,29.0192339 84.5461441,30.0117692 C84.5461441,31.0828746 83.6892598,31.8034364 82.1507629,31.8034364 C80.9245319,31.8034364 79.7560533,31.4139435 78.9770675,30.9666982 L78.4512521,32.9531119 L78.449909,32.9517688 Z M89.10724,21.9485951 L89.10724,24.0908059 L87.7440149,24.0908059 L87.7440149,25.8824731 L89.10724,25.8824731 L89.10724,30.341495 C89.10724,31.5885438 89.3409357,32.4454281 89.8472764,32.9907181 C90.2951932,33.4775842 91.0359012,33.7697039 91.9115887,33.7697039 C92.6704282,33.7697039 93.2949599,33.6723307 93.6441604,33.5360081 L93.6058827,31.7053916 C93.3909901,31.7638156 93.0793958,31.8222395 92.6704282,31.8222395 C91.75512,31.8222395 91.4435257,31.217854 91.4435257,30.0695216 L91.4435257,25.8824731 L93.722059,25.8824731 L93.722059,24.0908059 L91.4435257,24.0908059 L91.4435257,21.384502 L89.1065684,21.9485951 L89.10724,21.9485951 Z M99.4523051,23.8759133 C96.5895324,23.8759133 94.5446948,25.7850999 94.5446948,28.9010429 C94.5446948,31.9390874 96.6090071,33.7898501 99.2965079,33.7898501 C101.711364,33.7898501 104.165169,32.2318786 104.165169,28.7452458 C104.165169,25.8629985 102.276128,23.8765848 99.4523051,23.8765848 L99.4523051,23.8759133 Z M99.3938811,25.6286312 C101.029751,25.6286312 101.691889,27.3235968 101.691889,28.8036697 C101.691889,30.7121848 100.738303,32.0559352 99.375078,32.0559352 C97.9138082,32.0559352 97.0179746,30.672564 97.0179746,28.842619 C97.0179746,27.2645013 97.6995871,25.6293028 99.3938811,25.6293028 L99.3938811,25.6286312 Z M105.862821,33.5769721 L108.258202,33.5769721 L108.258202,28.6693618 C108.258202,28.3967168 108.29648,28.1435464 108.335429,27.9293254 C108.550321,26.8582199 109.329307,26.1181835 110.47764,26.1181835 C110.769759,26.1181835 110.98398,26.1571328 111.178727,26.1960821 L111.178727,23.9363518 C110.98398,23.8974025 110.846986,23.8779279 110.613291,23.8779279 C109.600609,23.8779279 108.491226,24.5595404 108.023163,25.9032909 L107.945936,25.9032909 L107.868037,24.092149 L105.783579,24.092149 C105.842003,24.9490333 105.861477,25.8650131 105.861477,27.1496681 L105.861477,33.5769721 L105.862821,33.5769721 Z M120.394934,29.507443 C120.433883,29.2925504 120.472833,28.9420068 120.472833,28.4934185 C120.472833,26.4103031 119.460151,23.8785994 116.383157,23.8785994 C113.345113,23.8785994 111.748192,26.3518792 111.748192,28.9809561 C111.748192,31.8820065 113.559334,33.7717185 116.636999,33.7717185 C118.000224,33.7717185 119.128411,33.5185481 119.947689,33.1874792 L119.596474,31.5321345 C118.875912,31.8047795 118.077451,31.9605766 116.967397,31.9605766 C115.448375,31.9605766 114.104624,31.2205402 114.0462,29.5067715 L120.394934,29.5067715 L120.394934,29.507443 Z M114.0462,27.8319521 C114.143573,26.8582199 114.766762,25.5151411 116.246835,25.5151411 C117.843756,25.5151411 118.233249,26.9555932 118.214446,27.8319521 L114.0462,27.8319521 L114.0462,27.8319521 Z" id="Shape" fill="#FFFFFF"></path>
                    </g>
                </g>
            </g>
        </g>
    </g>
</svg>