<?xml version="1.0" encoding="UTF-8" standalone="no"?>
<svg width="71px" height="71px" viewBox="0 0 71 71" version="1.1" xmlns="http://www.w3.org/2000/svg" xmlns:xlink="http://www.w3.org/1999/xlink">
    <!-- Generator: Sketch 3.8.3 (29802) - http://www.bohemiancoding.com/sketch -->
    <title>back</title>
    <desc>Created with Sketch.</desc>
    <defs>
        <filter x="-50%" y="-50%" width="200%" height="200%" filterUnits="objectBoundingBox" id="filter-1">
            <feMorphology radius="1.5" operator="dilate" in="SourceAlpha" result="shadowSpreadOuter1"></feMorphology>
            <feOffset dx="0" dy="1" in="shadowSpreadOuter1" result="shadowOffsetOuter1"></feOffset>
            <feGaussianBlur stdDeviation="1" in="shadowOffsetOuter1" result="shadowBlurOuter1"></feGaussianBlur>
            <feComposite in="shadowBlurOuter1" in2="SourceAlpha" operator="out" result="shadowBlurOuter1"></feComposite>
            <feColorMatrix values="0 0 0 0 0   0 0 0 0 0   0 0 0 0 0  0 0 0 0.5 0" type="matrix" in="shadowBlurOuter1" result="shadowMatrixOuter1"></feColorMatrix>
            <feMerge>
                <feMergeNode in="shadowMatrixOuter1"></feMergeNode>
                <feMergeNode in="SourceGraphic"></feMergeNode>
            </feMerge>
        </filter>
    </defs>
    <g id="Page-1" stroke="none" stroke-width="1" fill="none" fill-rule="evenodd">
        <g id="back" transform="translate(3.578080, 2.796830)">
            <g id="Group-25" filter="url(#filter-1)">
                <rect id="Rectangle-4-Copy-3" stroke="#CF4257" stroke-width="3" fill="#F0576E" x="0" y="0" width="63.0248787" height="62.8942927" rx="31.4471464"></rect>
                <g id="Group-12" transform="translate(14.192236, 14.992942)" fill="#FEFEFE">
                    <path d="M29.9889016,15.0879577 C29.9889016,13.7160532 29.0810236,12.5055492 27.6284189,12.5055492 L13.4251723,12.5055492 L19.3364667,6.59425481 C19.8206683,6.11005322 20.1031192,5.44427604 20.1031192,4.75832379 C20.1031192,4.07237154 19.8206683,3.40659435 19.3364667,2.92239277 L17.8233367,1.42943787 C17.3391351,0.945236284 16.693533,0.662785357 16.0075808,0.662785357 C15.3216285,0.662785357 14.6558513,0.945236284 14.1716498,1.42943787 L1.03768168,14.5432309 C0.57365516,15.0274325 0.291204234,15.6932096 0.291204234,16.3791619 C0.291204234,17.0651141 0.57365516,17.7308913 1.03768168,18.1949178 L14.1716498,31.349061 C14.6558513,31.8130875 15.3216285,32.0955384 16.0075808,32.0955384 C16.693533,32.0955384 17.3593102,31.8130875 17.8233367,31.349061 L19.3364667,29.815756 C19.8206683,29.3517294 20.1031192,28.6859522 20.1031192,28 C20.1031192,27.3140478 19.8206683,26.6482706 19.3364667,26.184244 L13.4251723,20.2527746 L27.6284189,20.2527746 C29.0810236,20.2527746 29.9889016,19.0422706 29.9889016,17.6703661 L29.9889016,15.0879577 Z" id="ï "></path>
                </g>
            </g>
        </g>
    </g>
</svg>