<?xml version="1.0" encoding="UTF-8" standalone="no"?>
<svg width="600px" height="613px" viewBox="0 0 600 613" version="1.1" xmlns="http://www.w3.org/2000/svg" xmlns:xlink="http://www.w3.org/1999/xlink" style="background: #8AD4E7;">
    <!-- Generator: Sketch 3.8.3 (29802) - http://www.bohemiancoding.com/sketch -->
    <title>island-mobile</title>
    <desc>Created with Sketch.</desc>
    <defs>
        <rect id="path-1" x="-29" y="478" width="733" height="271"></rect>
        <mask id="mask-2" maskContentUnits="userSpaceOnUse" maskUnits="objectBoundingBox" x="0" y="0" width="733" height="271" fill="white">
            <use xlink:href="#path-1"></use>
        </mask>
    </defs>
    <g id="Page-1" stroke="none" stroke-width="1" fill="none" fill-rule="evenodd">
        <g id="island-mobile">
            <use id="Rectangle-422" stroke="#979797" mask="url(#mask-2)" stroke-width="2" fill="#6ECBE5" xlink:href="#path-1"></use>
            <g id="Clouds" opacity="0.3" transform="translate(-48.000000, 138.846694)" fill="#FEFEFE">
                <path d="M21.1304387,191.220933 L0.376970731,191.220933 L6.58520588,46.5712376 C14.8320096,42.3536996 24.1616785,39.9505304 34.0609609,39.9505304 C42.5368092,39.9505304 50.603735,41.6965455 57.9259662,44.8456086 C64.9172219,19.1782264 88.387695,0.304234249 116.271173,0.304234249 C134.982076,0.304234249 151.705927,8.8028671 162.797201,22.1498099 C173.750568,11.1316868 188.919075,4.30831709 205.682499,4.30831709 C229.978012,4.30831709 250.9218,18.6373934 260.536875,39.304169 C266.059128,37.6432961 271.912356,36.7463048 277.975441,36.7463048 C301.764898,36.7463048 322.334539,50.4913774 332.20624,70.4662225 C347.437105,66.734355 361.182177,66.3206357 369.668818,66.940615 C380.505864,50.6712553 399.014105,39.9505304 420.028644,39.9505304 C428.504493,39.9505304 436.570219,41.6965455 443.89245,44.8456086 C450.883706,19.1782264 474.355378,0.304234249 502.238857,0.304234249 C520.94976,0.304234249 537.673611,8.8028671 548.766084,22.1498099 C559.718251,11.1316868 574.886758,4.30831709 591.651382,4.30831709 C615.945696,4.30831709 636.889483,18.6373934 646.97344,39.1722585 C654.766952,34.6021598 669.185967,28.0582005 687.722988,28.0749891 L687.722988,69.2538452 L683.826718,145.800027 L21.1304387,145.800027 L21.1304387,191.220933 Z" id="Combined-Shape"></path>
            </g>
            <path d="M-127.452822,359.796056 C-127.512584,367.093013 -117.609075,386.463314 -117.609075,403.323034 C-117.609076,420.182754 -118.973057,449.244642 -117.609075,464.118477 C-114.428337,498.788946 -117.609075,507.45391 -91.509661,525.905539 C-53.9225284,552.320731 -5.49403477,573.843165 36.8688782,581.011571 C101.282167,591.794699 185.378335,608.467694 256.278635,606.719543 C301.161739,605.617723 453.113567,605.003236 518.966112,597.2013 C568.311568,591.412835 650.121778,598.230453 717.51543,555.57012 C744.418019,538.697866 724.703333,515.210504 730.138761,490.25505 C737.531483,468.131385 771.288095,401.292594 771.288095,378.166404 C771.288095,356.207721 755.018908,334.195943 677.428611,320.281464 C599.838314,306.167484 485.058653,340.112321 485.058653,340.112321 L-27.0321325,325.794224 C-27.0321325,325.794224 -78.23015,322.253358 -97.2308504,337.035857 C-106.390397,344.180806 -127.387678,351.842064 -127.452822,359.796056 Z" id="sea-1" fill="#B7E3F1"></path>
            <path d="M-70.4751197,326.70844 C-78.9400307,333.511192 -79.1558764,341.830404 -79.2160797,349.300185 C-79.2713093,356.152849 -71.8783723,371.161048 -71.8783725,387.004816 C-71.8783727,402.848583 -73.1389139,434.663373 -71.8783725,448.640663 C-68.9388531,481.235004 -71.8783722,489.36474 -47.7582693,506.87371 C-13.021646,532.089296 31.7341581,552.957961 70.8843793,560.253719 C130.412733,571.347001 208.13127,588.543377 273.654677,587.872328 C315.133965,587.447523 455.562166,589.072773 516.420627,582.267886 C562.023854,577.168763 637.629792,585.208126 699.912487,542.767089 C724.774854,525.82523 706.555278,501.713444 711.578498,476.303172 C718.410576,453.757517 749.607175,385.381134 749.607175,361.702912 C749.607175,339.220065 743.422778,313.67387 671.716725,300.604241 C600.010672,287.534612 485.084621,325.934476 485.084621,325.934476 L-28.8453358,308.179578 C-28.8453358,308.179578 -52.9153824,312.596709 -70.4751197,326.70844 Z" id="sand" fill="#E9E4CD"></path>
            <path d="M-115.398075,370.787827 C-115.398075,397.358724 -128.2521,399.289042 -131.72939,420.591239 C-135.641249,444.555647 -106.842468,472.860323 -46.1316941,491.562637 C14.5790802,510.264952 158.784697,521.474078 301.160118,521.474078 C359.539187,521.474078 571.479844,515.371522 597.903823,512.197979 C685.863202,501.63398 648.947266,473.782876 678.30674,441.171805 C707.666213,408.560733 721.554858,382.498456 723.970301,353.147872 C726.385744,323.797288 715.429592,313.85015 678.306754,298.62302 C641.183916,283.39589 587.164358,271.069937 551.824276,264.928137 C498.296331,255.625446 461.127754,256.601377 407.540308,253.246604 C282.959164,245.447361 167.383692,254.843866 57.8906127,272.163804 C7.87243009,280.075828 -45.275064,283.798845 -89.6536554,298.62302 C-99.8670474,302.03469 -117.637405,302.710435 -123.968856,320.669026 C-130.300307,338.627616 -115.398075,333.316207 -115.398075,370.787827 Z" id="grass" fill="#8FA32B"></path>
            <path d="M500.824129,514.100322 L496.408463,514.230214 L496.54109,514.370362 L496.238919,514.235684 L491.667382,514.370362 L119.894135,514.370362 L116.4595,513.983418 C116.4595,513.983418 116.441725,514.129035 116.41438,514.370362 L113.478122,514.370362 C113.478122,514.370362 114.485132,514.49 116.376779,514.706032 C116.173053,516.553242 115.718429,521.248519 116.4595,520.329016 C117.236805,519.365759 120.397982,516.215521 121.355769,515.265254 C121.53215,515.285079 124.89842,519.417716 124.89842,519.417716 L128.274261,516.227143 L126.265711,528.532762 L131.783414,516.871137 L133.357166,521.25809 L136.095166,517.649809 L139.170887,521.25809 L141.073472,518.531028 L143.584502,524.527966 L145.651162,519.325424 L148.142366,523.063598 L149.934201,520.056241 L152.123234,522.835944 L154.405926,520.804833 L155.206475,528.532762 L157.154865,521.25809 L158.624702,524.527966 L160.219647,521.25809 C160.219647,521.25809 159.080694,524.625044 160.219647,524.527966 C161.359284,524.430889 162.689658,522.155717 162.689658,522.155717 L162.689658,529.900052 L165.461157,521.941735 L165.461157,526.026517 L167.512094,521.941735 L169.037307,529.900052 L172.310601,523.664522 L172.310601,529.900052 L176.855476,520.785007 L174.472972,520.517018 C175.378118,520.596321 176.289418,520.676308 177.208921,520.756294 C177.025704,522.37585 176.485624,527.598902 177.263613,526.633594 C178.181748,525.494641 182.444278,521.28817 182.444278,521.28817 L185.701849,525.722295 L189.07769,522.532405 L187.06914,534.83734 L192.586842,523.175716 L194.160594,527.562669 L196.898594,523.954388 L199.974315,527.562669 L201.876901,524.835607 L204.387931,530.832545 L206.454591,525.630003 L208.945795,529.368176 L210.738313,526.36082 L212.927346,529.140522 L215.210038,527.109412 L216.009904,534.83734 L217.958293,527.562669 L219.428131,530.832545 L221.023076,527.562669 C221.023076,527.562669 219.884123,530.929623 221.023076,530.832545 C222.162713,530.735467 223.493087,528.460295 223.493087,528.460295 L223.493087,536.204631 L226.264586,528.246314 L226.264586,532.331096 L228.315522,528.246314 L229.840735,536.204631 L233.11403,529.969101 L233.11403,536.204631 L235.227862,531.097116 C235.301695,531.555842 235.425435,531.752048 235.624376,531.477223 C236.483035,530.292465 240.522696,525.87133 240.522696,525.87133 L244.004502,530.131808 L247.211483,526.771691 L245.84009,539.164132 L250.749349,527.233835 L252.546652,531.533965 L255.095283,527.788272 L258.352853,531.233845 L260.112557,528.411756 L262.92986,534.271282 L264.725113,528.969611 L267.405687,532.574474 L269.040283,529.478243 L271.370147,532.141042 L273.544823,529.995079 L274.74257,537.671734 L276.312904,530.306138 L277.950235,533.496028 L279.374268,530.148216 C279.374268,530.148216 278.409644,533.569178 279.543129,533.413307 C280.675929,533.258119 281.886665,530.916633 281.886665,530.916633 L282.286598,538.651398 L284.643808,530.560454 L284.85437,534.639083 L286.692009,530.454489 L288.626042,538.323932 L291.572554,531.927745 L291.893868,538.155072 L294.804147,530.375186 C294.970273,532.303066 295.245098,534.316402 295.645031,533.608829 C296.276719,532.491752 299.057789,528.63189 299.734598,527.695296 C299.857654,527.697347 303.822114,531.33229 303.822114,531.33229 L306.519096,527.782802 C306.556696,527.782802 306.658559,540.102094 306.658559,540.102094 L310.167028,527.809465 C310.199159,527.810148 312.467495,531.767772 312.467495,531.767772 L314.547828,527.822454 C314.583378,527.822454 318.20328,530.818872 318.20328,530.818872 L319.635518,527.817668 L323.092029,533.324433 L324.281572,527.854585 L327.34909,531.136083 L328.626823,527.876462 L331.2404,530.261701 L333.16076,527.885349 L335.211696,535.379471 L335.946615,527.883982 L337.930554,530.870145 L338.934146,527.505926 C338.865098,528.107534 338.516438,530.860574 339.504306,530.609676 C340.612495,530.328698 341.553875,527.866207 341.553875,527.866207 L342.817252,535.507313 L344.225562,527.36031 C344.243337,527.36031 344.919462,531.233161 344.919462,531.233161 L346.142504,527.299465 C346.238898,527.296047 349.080128,534.47159 349.080128,534.47159 L351.291721,527.785537 L352.308986,533.936979 L354.442643,527.006181 C354.807026,528.556005 355.200806,533.922622 355.802414,532.822637 C356.438205,531.661807 359.312934,527.561301 359.85985,526.78468 C359.937786,526.781262 363.947366,530.43398 363.947366,530.43398 L366.70656,526.697857 L366.904133,539.164132 L370.273822,526.710846 L372.598216,530.751191 L374.655989,526.714948 L378.320329,529.723672 L379.711548,526.702643 L383.242576,532.161552 L384.357602,526.67598 L387.469556,529.915093 L388.702169,526.63838 L391.348561,528.987386 L393.236106,526.585056 L395.389589,534.049781 L396.021278,526.545404 L398.046236,529.504222 L399.038889,526.003957 C399.038889,526.003957 398.511798,529.518578 399.615886,529.221876 C400.720657,528.925174 401.627854,526.450377 401.627854,526.450377 L402.996512,534.073024 L404.317999,525.750324 L405.039929,529.770843 L406.336804,525.387992 L409.244348,532.951846 L411.363649,526.235713 L412.465686,532.373482 L414.804437,524.387819 C415.090201,526.445592 415.706166,530.333484 416.166943,529.346983 C416.762398,528.069934 419.679513,523.301506 419.894861,522.949429 C419.914003,522.948062 424.140983,526.440123 424.140983,526.440123 L426.654748,522.533772 L427.65287,534.962447 L430.215857,522.31774 L432.794568,526.200163 L434.588454,522.04018 L438.438745,524.807577 L439.63239,521.703143 L443.507292,526.924144 L444.267506,521.377728 L447.581136,524.410379 L448.601135,521.0612 L451.392459,523.235193 L453.122082,520.716643 L455.750699,528.027548 L455.89905,520.497876 L458.109276,523.319965 L458.874959,519.763641 C458.874959,519.763641 458.574839,523.304925 459.658417,522.937807 C460.741311,522.570689 461.487852,520.043252 461.487852,520.043252 L463.343266,527.561985 L464.127407,519.171604 L465.105704,523.136748 L466.118183,518.680063 L469.50633,526.040874 L471.189465,519.203052 L472.683914,525.256732 L473.13512,523.243396 C473.453699,524.293476 473.738779,524.918328 473.885763,524.47054 C474.342438,523.080689 476.843213,517.638871 476.843213,517.638871 L481.45782,520.635973 L483.402108,516.636647 C483.441759,516.631861 485.958258,528.679745 485.958258,528.679745 L486.966635,516.216888 C487.079437,516.203215 490.021163,519.368494 490.021163,519.368494 L491.101323,515.719878 C491.512878,515.669972 491.91281,515.620749 492.302488,515.572894 L495.459563,517.314139 L496.016734,515.112801 C496.401627,515.064946 496.764642,515.019141 497.113302,514.974704 L500.744143,518.81269 L500.817293,514.498887 C501.446247,514.416166 501.788753,514.370362 501.788753,514.370362 L500.824129,514.100322 Z" id="Fill-29" fill="#8FA32B"></path>
        </g>
    </g>
</svg>