<?xml version="1.0" encoding="UTF-8" standalone="no"?>
<svg width="1006px" height="658px" viewBox="0 0 1006 658" version="1.1" xmlns="http://www.w3.org/2000/svg" xmlns:xlink="http://www.w3.org/1999/xlink">
    <!-- Generator: Sketch 3.8.3 (29802) - http://www.bohemiancoding.com/sketch -->
    <title>island</title>
    <desc>Created with Sketch.</desc>
    <defs>
        <linearGradient x1="50%" y1="0%" x2="50%" y2="71.2631537%" id="linearGradient-1">
            <stop stop-color="#97AA3A" stop-opacity="0" offset="0%"></stop>
            <stop stop-color="#8FA32B" offset="100%"></stop>
        </linearGradient>
    </defs>
    <g id="Page-1" stroke="none" stroke-width="1" fill="none" fill-rule="evenodd">
        <g id="island">
            <g id="Group" transform="translate(357.180709, 16.865032)">
                <g id="Page-1" transform="translate(3.023403, 0.000000)">
                    <g id="Group-99" transform="translate(0.000000, 0.585169)">
                        <path d="M216.537894,19.885868 L216.537894,15.5768235 L216.537894,3.21462488 C216.537894,3.21462488 199.259389,2.54042615 193.756392,15.5768235 L190.030876,15.5768235 L190.030876,19.885868 L186.143697,19.885868 L186.143697,90.4573977 L220.90117,90.4573977 L220.90117,19.885868 L216.537894,19.885868 L216.537894,19.885868 Z" id="Fill-1" fill="#7F8D33"></path>
                        <polygon id="Fill-3" fill="#8FA32B" points="190.506811 30.041907 196.026782 30.041907 196.026782 24.5147724 190.506811 24.5147724"></polygon>
                        <polygon id="Fill-5" fill="#8FA32B" points="200.90172 30.041907 206.421692 30.041907 206.421692 24.5147724 200.90172 24.5147724"></polygon>
                        <polygon id="Fill-6" fill="#8FA32B" points="211.017761 30.041907 216.537733 30.041907 216.537733 24.5147724 211.017761 24.5147724"></polygon>
                        <polygon id="Fill-7" fill="#8FA32B" points="190.506811 39.2484023 196.026782 39.2484023 196.026782 33.7212677 190.506811 33.7212677"></polygon>
                        <polygon id="Fill-8" fill="#8FA32B" points="200.90172 39.2484023 206.421692 39.2484023 206.421692 33.7212677 200.90172 33.7212677"></polygon>
                        <polygon id="Fill-9" fill="#8FA32B" points="211.017761 39.2484023 216.537733 39.2484023 216.537733 33.7212677 211.017761 33.7212677"></polygon>
                        <polygon id="Fill-10" fill="#8FA32B" points="190.506811 48.5560679 196.026782 48.5560679 196.026782 43.0289333 190.506811 43.0289333"></polygon>
                        <polygon id="Fill-11" fill="#8FA32B" points="200.90172 48.5560679 206.421692 48.5560679 206.421692 43.0289333 200.90172 43.0289333"></polygon>
                        <polygon id="Fill-12" fill="#8FA32B" points="211.017761 48.5560679 216.537733 48.5560679 216.537733 43.0289333 211.017761 43.0289333"></polygon>
                        <polygon id="Fill-13" fill="#8FA32B" points="190.506811 57.6209248 196.026782 57.6209248 196.026782 52.0937902 190.506811 52.0937902"></polygon>
                        <polygon id="Fill-14" fill="#8FA32B" points="200.90172 57.6209248 206.421692 57.6209248 206.421692 52.0937902 200.90172 52.0937902"></polygon>
                        <polygon id="Fill-15" fill="#8FA32B" points="211.017761 57.6209248 216.537733 57.6209248 216.537733 52.0937902 211.017761 52.0937902"></polygon>
                        <polygon id="Fill-16" fill="#8FA32B" points="190.506811 66.7262498 196.026782 66.7262498 196.026782 61.1991152 190.506811 61.1991152"></polygon>
                        <polygon id="Fill-17" fill="#8FA32B" points="200.90172 66.7262498 206.421692 66.7262498 206.421692 61.1991152 200.90172 61.1991152"></polygon>
                        <polygon id="Fill-18" fill="#8FA32B" points="211.017761 66.7262498 216.537733 66.7262498 216.537733 61.1991152 211.017761 61.1991152"></polygon>
                        <path d="M159.16624,19.5674499 L159.16624,17.9208174 L170.287823,17.9208174 L170.287823,0.2241124 L172.09117,0.2241124 L172.09117,17.9208174 L183.213561,17.9208174 L183.213561,23.7288007 L186.143697,23.7288007 L186.143697,90.4574786 L156.236104,90.4574786 L156.236104,81.5521563 L131.724986,81.3083214 L131.521319,74.0956416 L136.933489,73.9091 L135.835425,68.5238959 L138.955158,68.7373121 L138.521774,63.8073961 L144.338909,63.9275416 L143.518716,31.4843152 L135.923838,31.4274041 L134.461858,26.0896259 C134.461858,26.0896259 131.514215,25.8406402 131.030309,25.8785809 L131.655518,18.832682 L136.691931,18.9670552 L136.764556,16.342035 L144.176291,16.4179163 L144.859128,13.1739889 L150.051053,13.4166511 L150.270508,16.4803604 L157.615144,16.5546608 L156.778373,19.5037576 L159.16624,19.5674499 Z M156.236104,31.5791619 L156.236104,64.4511733 L150.895718,64.0627052 L150.383393,31.5356931 L156.236104,31.5791619 Z" id="Combined-Shape" fill="#7F8D33"></path>
                        <polygon id="Fill-20" fill="#7F8D33" points="246.678766 23.7288007 246.678766 17.9208174 235.556375 17.9208174 235.556375 0.2241124 233.753028 0.2241124 233.753028 17.9208174 222.631445 17.9208174 222.631445 23.7288007 219.701309 23.7288007 219.701309 90.4574786 249.608902 90.4574786 249.608902 23.7288007"></polygon>
                        <polygon id="Fill-21" fill="#7F8D33" points="297.919202 23.7288007 297.919202 17.9208174 286.796811 17.9208174 286.796811 0.2241124 284.993464 0.2241124 284.993464 17.9208174 273.871881 17.9208174 273.871881 23.7288007 270.941745 23.7288007 270.941745 90.4574786 300.849338 90.4574786 300.849338 23.7288007"></polygon>
                        <polygon id="Fill-23" fill="#7F8D33" points="105.548231 90.4575596 126.732507 90.4575596 126.732507 3.79267138 105.548231 3.79267138"></polygon>
                        <polygon id="Fill-24" fill="#7F8D33" points="253.728228 90.4575596 274.912504 90.4575596 274.912504 3.79267138 253.728228 3.79267138"></polygon>
                        <polygon id="Fill-25" fill="#7F8D33" points="16.9074616 16.7138965 16.9074616 9.86831079 13.6742084 9.86831079 13.6742084 16.7138965 0.265098787 28.1113353 0.265098787 79.3650075 30.3157629 79.3650075 30.3157629 28.1113353"></polygon>
                        <polygon id="Fill-26" fill="#7F8D33" points="23.8463464 79.3652503 40.1379013 79.3652503 40.1379013 46.0875131 23.8463464 46.0875131"></polygon>
                        <polygon id="Fill-27" fill="#97AA3A" points="0.265422113 35.972104 14.309866 35.972104 14.309866 33.1377175 0.265422113 33.1377175"></polygon>
                        <polygon id="Fill-28" fill="#97AA3A" points="0.265422113 41.5486098 14.309866 41.5486098 14.309866 38.7142233 0.265422113 38.7142233"></polygon>
                        <polygon id="Fill-29" fill="#97AA3A" points="0.265422113 47.1243061 14.309866 47.1243061 14.309866 44.2899196 0.265422113 44.2899196"></polygon>
                        <polygon id="Fill-30" fill="#97AA3A" points="0.265422113 52.7008118 14.309866 52.7008118 14.309866 49.8664253 0.265422113 49.8664253"></polygon>
                        <polygon id="Fill-31" fill="#97AA3A" points="0.265422113 58.2773176 14.309866 58.2773176 14.309866 55.4429311 0.265422113 55.4429311"></polygon>
                        <polygon id="Fill-32" fill="#97AA3A" points="0.265422113 63.8530139 14.309866 63.8530139 14.309866 61.0186274 0.265422113 61.0186274"></polygon>
                        <polygon id="Fill-33" fill="#97AA3A" points="0.265422113 69.2433663 14.309866 69.2433663 14.309866 66.4089798 0.265422113 66.4089798"></polygon>
                        <polygon id="Fill-34" fill="#97AA3A" points="0.265422113 74.8198721 14.309866 74.8198721 14.309866 71.9854855 0.265422113 71.9854855"></polygon>
                        <polygon id="Fill-35" fill="#8FA32B" points="15.2911583 35.972104 18.4524717 35.972104 18.4524717 33.1377175 15.2911583 33.1377175"></polygon>
                        <polygon id="Fill-36" fill="#8FA32B" points="15.2911583 41.5486098 18.4524717 41.5486098 18.4524717 38.7142233 15.2911583 38.7142233"></polygon>
                        <polygon id="Fill-37" fill="#8FA32B" points="15.2911583 47.1243061 18.4524717 47.1243061 18.4524717 44.2899196 15.2911583 44.2899196"></polygon>
                        <polygon id="Fill-38" fill="#8FA32B" points="15.2911583 52.7008118 18.4524717 52.7008118 18.4524717 49.8664253 15.2911583 49.8664253"></polygon>
                        <polygon id="Fill-39" fill="#8FA32B" points="15.2911583 58.2773176 18.4524717 58.2773176 18.4524717 55.4429311 15.2911583 55.4429311"></polygon>
                        <polygon id="Fill-40" fill="#8FA32B" points="15.2911583 63.8530139 18.4524717 63.8530139 18.4524717 61.0186274 15.2911583 61.0186274"></polygon>
                        <polygon id="Fill-41" fill="#8FA32B" points="15.2911583 69.2433663 18.4524717 69.2433663 18.4524717 66.4089798 15.2911583 66.4089798"></polygon>
                        <polygon id="Fill-42" fill="#8FA32B" points="15.2911583 74.8198721 18.4524717 74.8198721 18.4524717 71.9854855 15.2911583 71.9854855"></polygon>
                        <path d="M64.8529701,19.885868 L64.8529701,15.5768235 L64.8529701,3.21462488 C64.8529701,3.21462488 47.5744646,2.54042615 42.0714676,15.5768235 L38.3459515,15.5768235 L38.3459515,19.885868 L34.4587728,19.885868 L34.4587728,90.4573977 L69.2162453,90.4573977 L69.2162453,19.885868 L64.8529701,19.885868 Z" id="Fill-43" fill="#7F8D33"></path>
                        <polygon id="Fill-44" fill="#8FA32B" points="38.5568405 28.1374777 41.7181538 28.1374777 41.7181538 25.3030912 38.5568405 25.3030912"></polygon>
                        <polygon id="Fill-45" fill="#8FA32B" points="38.5568405 33.7139834 41.7181538 33.7139834 41.7181538 30.8795969 38.5568405 30.8795969"></polygon>
                        <polygon id="Fill-46" fill="#8FA32B" points="38.5568405 39.2896798 41.7181538 39.2896798 41.7181538 36.4552933 38.5568405 36.4552933"></polygon>
                        <polygon id="Fill-47" fill="#8FA32B" points="38.5568405 44.8661855 41.7181538 44.8661855 41.7181538 42.031799 38.5568405 42.031799"></polygon>
                        <polygon id="Fill-48" fill="#8FA32B" points="38.5568405 50.4418819 41.7181538 50.4418819 41.7181538 47.6074954 38.5568405 47.6074954"></polygon>
                        <polygon id="Fill-49" fill="#8FA32B" points="38.5568405 56.0183876 41.7181538 56.0183876 41.7181538 53.1840011 38.5568405 53.1840011"></polygon>
                        <polygon id="Fill-50" fill="#8FA32B" points="38.5568405 61.40874 41.7181538 61.40874 41.7181538 58.5743535 38.5568405 58.5743535"></polygon>
                        <polygon id="Fill-51" fill="#8FA32B" points="38.5568405 66.9852457 41.7181538 66.9852457 41.7181538 64.1508592 38.5568405 64.1508592"></polygon>
                        <polygon id="Fill-52" fill="#8FA32B" points="43.7114545 28.1374777 46.8727678 28.1374777 46.8727678 25.3030912 43.7114545 25.3030912"></polygon>
                        <polygon id="Fill-53" fill="#8FA32B" points="43.7114545 33.7139834 46.8727678 33.7139834 46.8727678 30.8795969 43.7114545 30.8795969"></polygon>
                        <polygon id="Fill-54" fill="#8FA32B" points="43.7114545 39.2896798 46.8727678 39.2896798 46.8727678 36.4552933 43.7114545 36.4552933"></polygon>
                        <polygon id="Fill-55" fill="#8FA32B" points="43.7114545 44.8661855 46.8727678 44.8661855 46.8727678 42.031799 43.7114545 42.031799"></polygon>
                        <polygon id="Fill-56" fill="#8FA32B" points="43.7114545 50.4418819 46.8727678 50.4418819 46.8727678 47.6074954 43.7114545 47.6074954"></polygon>
                        <polygon id="Fill-57" fill="#8FA32B" points="43.7114545 56.0183876 46.8727678 56.0183876 46.8727678 53.1840011 43.7114545 53.1840011"></polygon>
                        <polygon id="Fill-58" fill="#8FA32B" points="43.7114545 61.40874 46.8727678 61.40874 46.8727678 58.5743535 43.7114545 58.5743535"></polygon>
                        <polygon id="Fill-59" fill="#8FA32B" points="43.7114545 66.9852457 46.8727678 66.9852457 46.8727678 64.1508592 43.7114545 64.1508592"></polygon>
                        <polygon id="Fill-60" fill="#8FA32B" points="48.898401 28.1374777 52.0597144 28.1374777 52.0597144 25.3030912 48.898401 25.3030912"></polygon>
                        <polygon id="Fill-61" fill="#8FA32B" points="48.898401 33.7139834 52.0597144 33.7139834 52.0597144 30.8795969 48.898401 30.8795969"></polygon>
                        <polygon id="Fill-62" fill="#8FA32B" points="48.898401 39.2896798 52.0597144 39.2896798 52.0597144 36.4552933 48.898401 36.4552933"></polygon>
                        <polygon id="Fill-63" fill="#8FA32B" points="48.898401 44.8661855 52.0597144 44.8661855 52.0597144 42.031799 48.898401 42.031799"></polygon>
                        <polygon id="Fill-64" fill="#8FA32B" points="48.898401 50.4418819 52.0597144 50.4418819 52.0597144 47.6074954 48.898401 47.6074954"></polygon>
                        <polygon id="Fill-65" fill="#8FA32B" points="48.898401 56.0183876 52.0597144 56.0183876 52.0597144 53.1840011 48.898401 53.1840011"></polygon>
                        <polygon id="Fill-66" fill="#8FA32B" points="48.898401 61.40874 52.0597144 61.40874 52.0597144 58.5743535 48.898401 58.5743535"></polygon>
                        <polygon id="Fill-67" fill="#8FA32B" points="48.898401 66.9852457 52.0597144 66.9852457 52.0597144 64.1508592 48.898401 64.1508592"></polygon>
                        <polygon id="Fill-68" fill="#7F8D33" points="97.8184928 40.4410785 97.8184928 34.6330952 86.6961016 34.6330952 86.6961016 16.9363902 84.8927546 16.9363902 84.8927546 34.6330952 73.7711717 34.6330952 73.7711717 40.4410785 70.8410359 40.4410785 70.8410359 90.4572358 100.748629 90.4572358 100.748629 40.4410785"></polygon>
                        <polygon id="Fill-69" fill="#8FA32B" points="74.7684687 61.40874 78.8528758 61.40874 78.8528758 58.5743535 74.7684687 58.5743535"></polygon>
                        <polygon id="Fill-70" fill="#8FA32B" points="74.7684687 66.9852457 78.8528758 66.9852457 78.8528758 64.1508592 74.7684687 64.1508592"></polygon>
                        <polygon id="Fill-71" fill="#8FA32B" points="74.7684687 72.5609421 78.8528758 72.5609421 78.8528758 69.7265556 74.7684687 69.7265556"></polygon>
                        <polygon id="Fill-72" fill="#8FA32B" points="74.7684687 78.1374478 78.8528758 78.1374478 78.8528758 75.3030613 74.7684687 75.3030613"></polygon>
                        <polygon id="Fill-73" fill="#8FA32B" points="74.7684687 83.7139535 78.8528758 83.7139535 78.8528758 80.879567 74.7684687 80.879567"></polygon>
                        <polygon id="Fill-74" fill="#8FA32B" points="80.7386708 61.4184524 84.823078 61.4184524 84.823078 58.5840658 80.7386708 58.5840658"></polygon>
                        <polygon id="Fill-75" fill="#8FA32B" points="80.7386708 66.9941487 84.823078 66.9941487 84.823078 64.1597622 80.7386708 64.1597622"></polygon>
                        <polygon id="Fill-76" fill="#8FA32B" points="80.7386708 72.5706544 84.823078 72.5706544 84.823078 69.7362679 80.7386708 69.7362679"></polygon>
                        <polygon id="Fill-77" fill="#8FA32B" points="80.7386708 78.1471602 84.823078 78.1471602 84.823078 75.3127737 80.7386708 75.3127737"></polygon>
                        <polygon id="Fill-78" fill="#8FA32B" points="80.7386708 83.7228565 84.823078 83.7228565 84.823078 80.88847 80.7386708 80.88847"></polygon>
                        <polygon id="Fill-79" fill="#8FA32B" points="86.7395888 61.4184524 90.823996 61.4184524 90.823996 58.5840658 86.7395888 58.5840658"></polygon>
                        <polygon id="Fill-80" fill="#8FA32B" points="86.7395888 66.9941487 90.823996 66.9941487 90.823996 64.1597622 86.7395888 64.1597622"></polygon>
                        <polygon id="Fill-81" fill="#8FA32B" points="86.7395888 72.5706544 90.823996 72.5706544 90.823996 69.7362679 86.7395888 69.7362679"></polygon>
                        <polygon id="Fill-82" fill="#8FA32B" points="86.7395888 78.1471602 90.823996 78.1471602 90.823996 75.3127737 86.7395888 75.3127737"></polygon>
                        <polygon id="Fill-83" fill="#8FA32B" points="86.7395888 83.7228565 90.823996 83.7228565 90.823996 80.88847 86.7395888 80.88847"></polygon>
                        <polygon id="Fill-84" fill="#8FA32B" points="92.9029779 61.40874 96.9873851 61.40874 96.9873851 58.5743535 92.9029779 58.5743535"></polygon>
                        <polygon id="Fill-85" fill="#8FA32B" points="92.9029779 66.9852457 96.9873851 66.9852457 96.9873851 64.1508592 92.9029779 64.1508592"></polygon>
                        <polygon id="Fill-86" fill="#8FA32B" points="92.9029779 72.5609421 96.9873851 72.5609421 96.9873851 69.7265556 92.9029779 69.7265556"></polygon>
                        <polygon id="Fill-87" fill="#8FA32B" points="92.9029779 78.1374478 96.9873851 78.1374478 96.9873851 75.3030613 92.9029779 75.3030613"></polygon>
                        <polygon id="Fill-88" fill="#8FA32B" points="92.9029779 83.7139535 96.9873851 83.7139535 96.9873851 80.879567 92.9029779 80.879567"></polygon>
                        <polygon id="Fill-89" fill="#8FA32B" points="81.8564873 54.7684895 74.8847849 50.5808494 74.8847849 56.528043 81.8564873 56.528043"></polygon>
                        <polygon id="Fill-90" fill="#8FA32B" points="90.0154402 54.7684895 96.9871426 50.5808494 96.9871426 56.528043 90.0154402 56.528043"></polygon>
                        <polygon id="Fill-91" fill="#8FA32B" points="74.8847849 47.6076572 82.1967872 52.6920707 83.3219593 51.8851366 81.1492131 44.4997063 74.8847849 44.4997063"></polygon>
                        <polygon id="Fill-92" fill="#8FA32B" points="96.9871426 47.6076572 89.6751403 52.6920707 88.5507765 51.8851366 90.7227144 44.4997063 96.9871426 44.4997063"></polygon>
                        <polygon id="Fill-93" fill="#8FA32B" points="83.3215552 44.4997063 84.6350643 51.5816258 87.0600042 51.5816258 87.9693567 44.4997063"></polygon>
                        <path d="M88.730707,56.5278002 C88.758998,56.3618809 88.7816308,56.1927242 88.7816308,56.0187113 C88.7816308,54.366803 87.4446806,53.0273086 85.7949131,53.0273086 C84.1451456,53.0273086 82.8073871,54.366803 82.8073871,56.0187113 C82.8073871,56.1927242 82.8308282,56.3618809 82.8591191,56.5278002 L88.730707,56.5278002 Z" id="Fill-94" fill="#8FA32B"></path>
                        <polygon id="Fill-95" fill="#7F8D33" points="125.149829 90.4575596 141.181107 90.4575596 141.181107 43.2887385 125.149829 43.2887385"></polygon>
                        <polygon id="Fill-96" fill="#7F8D33" points="246.543131 90.4575596 262.574409 90.4575596 262.574409 43.2887385 246.543131 43.2887385"></polygon>
                        <polygon id="Fill-97" fill="#7F8D33" points="97.5321882 90.5085494 113.563466 90.5085494 113.563466 43.3397284 97.5321882 43.3397284"></polygon>
                        <polygon id="Fill-98" fill="#7F8D33" points="63.9605113 90.4575596 73.1251677 90.4575596 73.1251677 43.2887385 63.9605113 43.2887385"></polygon>
                    </g>
                </g>
                <rect id="Rectangle-137" fill="url(#linearGradient-1)" x="9.09494702e-13" y="49.1302937" width="304.607821" height="46.8627417"></rect>
            </g>
            <path d="M4.82679126,230.977307 C4.76036033,243.409748 13.6526822,270.728191 13.6526819,299.453517 C13.6526816,328.178843 12.1364862,385.85974 13.6526819,411.201546 C17.1883745,470.272547 13.6526823,485.035776 42.664659,516.473372 C84.446326,561.479162 138.279195,598.148748 185.369596,610.362165 C256.971082,628.73429 350.451959,657.141477 429.264374,654.163005 C479.156207,652.285741 648.065092,651.238789 721.26645,637.945971 C776.11861,628.083676 867.058426,639.699427 941.97287,567.015421 C971.877652,538.268739 949.962907,498.25134 956.004901,455.732628 C964.222614,418.038675 1001.74629,304.159792 1001.74629,264.757753 C1001.74629,227.344892 990.202225,163.397032 903.953243,139.689761 C817.70426,115.642583 683.575089,199.921803 683.575089,199.921803 L79.9283262,159.669787 C79.9283262,159.669787 36.4616156,164.975806 15.3405329,190.161996 C5.15882667,202.335448 4.89920461,217.42542 4.82679126,230.977307 Z" id="sea-1-copy" fill="#8AD4E7"></path>
            <path d="M29.9975363,218.99962 C29.9343714,231.430568 40.4018248,264.42942 40.4018246,293.151298 C40.4018243,321.873175 38.9601721,371.382421 40.4018247,396.721185 C43.7636868,455.785094 40.4018251,470.546551 67.9874425,501.980373 C107.714935,546.980759 158.901138,583.645942 203.676362,595.857894 C271.757598,614.227813 360.642534,642.631589 435.580176,639.653475 C483.019102,637.776436 643.623666,636.72961 713.226115,623.438388 C765.381496,613.577277 851.850303,625.191633 923.081615,552.516353 C951.516143,523.773122 930.678825,483.760528 936.423769,441.246921 C944.237462,403.557493 979.916308,289.692281 979.916308,250.294973 C979.916308,212.886604 962.720689,175.387786 880.712094,151.683361 C798.7035,127.63907 677.387832,185.466808 677.387832,185.466808 L136.136576,161.074787 C136.136576,161.074787 82.0231413,155.042639 61.9404661,180.225805 C52.2593384,192.397795 30.0663894,205.44936 29.9975363,218.99962 Z" id="sea-1" fill="#B7E3F1"></path>
            <path d="M52.189302,184.89389 C42.7410888,196.482922 42.50017,210.655363 42.4329733,223.380729 C42.3713281,235.05479 50.6230445,260.622454 50.6230443,287.613576 C50.623044,314.604698 49.2160757,368.80373 50.6230443,392.615157 C53.9040246,448.142217 50.6230447,461.991871 77.5449905,491.819799 C116.316695,534.77656 166.271429,570.327996 209.969424,582.756901 C276.412719,601.655192 363.159208,630.95059 436.293955,629.807404 C482.591566,629.083716 639.332208,631.852458 707.260119,620.259791 C758.160714,611.573028 842.549201,625.268724 912.066788,552.967033 C939.817221,524.105225 919.48122,483.028874 925.087948,439.740448 C932.713654,401.332127 967.534117,284.847504 967.534117,244.509765 C967.534117,206.208442 960.631327,162.68846 880.595745,140.423305 C800.560163,118.158151 672.284055,183.57538 672.284055,183.57538 L98.654891,153.328497 C98.654891,153.328497 71.788816,160.853431 52.189302,184.89389 Z" id="sand" fill="#E9E4CD"></path>
            <path d="M83.7737329,270.547018 C83.7737328,316.488261 70.6109001,319.825794 67.0500712,356.657421 C63.0442328,398.092028 90.8033516,466.382346 152.972654,498.718761 C215.141957,531.055177 368.625987,541.750011 514.421865,541.750011 C574.203446,541.750011 779.230249,528.065211 806.289043,522.578136 C896.361578,504.312918 866.48187,448.626085 896.546682,392.241344 C926.611494,335.856603 940.833803,290.794768 943.307275,240.04743 C945.780747,189.300091 934.561382,172.10143 896.546697,145.773629 C858.532012,119.445828 803.214676,98.1341801 767.025577,87.514972 C712.211665,71.4305613 674.150142,73.1179529 619.2753,67.3175292 C491.701192,53.8325905 373.34911,70.0792048 261.225545,100.025484 C210.005715,113.705422 155.581394,120.14254 110.136642,145.773629 C99.6778815,151.672427 81.4806048,152.840795 74.9970458,183.891307 C68.5134869,214.941819 83.773733,205.75836 83.7737329,270.547018 Z" id="grass" fill="#8FA32B"></path>
            <path d="M572.032513,521.854392 L567.616847,521.984285 L567.749474,522.124432 L567.447302,521.989754 L562.875765,522.124432 L191.102519,522.124432 L187.667884,521.737489 C187.667884,521.737489 187.650109,521.883105 187.622763,522.124432 L184.686506,522.124432 C184.686506,522.124432 185.693516,522.24407 187.585163,522.460102 C187.381436,524.307312 186.926812,529.002589 187.667884,528.083086 C188.445189,527.11983 191.606365,523.969591 192.564153,523.019324 C192.740533,523.03915 196.106804,527.171787 196.106804,527.171787 L199.482645,523.981213 L197.474094,536.286832 L202.991797,524.625207 L204.565549,529.01216 L207.303549,525.403879 L210.37927,529.01216 L212.281856,526.285098 L214.792885,532.282037 L216.859546,527.079495 L219.35075,530.817668 L221.142585,527.810312 L223.331617,530.590014 L225.61431,528.558903 L226.414858,536.286832 L228.363248,529.01216 L229.833086,532.282037 L231.428031,529.01216 C231.428031,529.01216 230.289077,532.379114 231.428031,532.282037 C232.567668,532.184959 233.898042,529.909787 233.898042,529.909787 L233.898042,537.654123 L236.669541,529.695806 L236.669541,533.780587 L238.720477,529.695806 L240.24569,537.654123 L243.518985,531.418592 L243.518985,537.654123 L248.06386,528.539078 L245.681355,528.271089 C246.586502,528.350391 247.497801,528.430378 248.417304,528.510365 C248.234087,530.129921 247.694008,535.352972 248.471996,534.387665 C249.390132,533.248711 253.652662,529.042241 253.652662,529.042241 L256.910232,533.476365 L260.286074,530.286475 L258.277523,542.59141 L263.795226,530.929786 L265.368978,535.316739 L268.106978,531.708458 L271.182699,535.316739 L273.085284,532.589677 L275.596314,538.586615 L277.662974,533.384073 L280.154178,537.122247 L281.946697,534.11489 L284.13573,536.894593 L286.418422,534.863482 L287.218287,542.59141 L289.166677,535.316739 L290.636514,538.586615 L292.231459,535.316739 C292.231459,535.316739 291.092506,538.683693 292.231459,538.586615 C293.371096,538.489538 294.70147,536.214365 294.70147,536.214365 L294.70147,543.958701 L297.472969,536.000384 L297.472969,540.085166 L299.523906,536.000384 L301.049119,543.958701 L304.322413,537.723171 L304.322413,543.958701 L306.436245,538.851186 C306.510079,539.309912 306.633819,539.506118 306.832759,539.231293 C307.691418,538.046535 311.731079,533.6254 311.731079,533.6254 L315.212886,537.885879 L318.419867,534.525761 L317.048474,546.918203 L321.957732,534.987905 L323.755036,539.288035 L326.303666,535.542342 L329.561237,538.987915 L331.32094,536.165827 L334.138243,542.025352 L335.933496,536.723681 L338.61407,540.328544 L340.248667,537.232313 L342.578531,539.895113 L344.753207,537.749149 L345.950954,545.425805 L347.521287,538.060208 L349.158618,541.250098 L350.582652,537.902286 C350.582652,537.902286 349.618028,541.323248 350.751512,541.167377 C351.884313,541.012189 353.095049,538.670704 353.095049,538.670704 L353.494981,546.405468 L355.852191,538.314524 L356.062754,542.393153 L357.900393,538.208559 L359.834426,546.078002 L362.780938,539.681815 L363.102251,545.909142 L366.01253,538.129256 C366.178656,540.057137 366.453481,542.070473 366.853414,541.362899 C367.485103,540.245823 370.266172,536.38596 370.942981,535.449366 C371.066038,535.451417 375.030498,539.08636 375.030498,539.08636 L377.727479,535.536873 C377.76508,535.536873 377.866943,547.856164 377.866943,547.856164 L381.375411,535.563535 C381.407543,535.564219 383.675878,539.521842 383.675878,539.521842 L385.756212,535.576524 C385.791761,535.576524 389.411664,538.572942 389.411664,538.572942 L390.843901,535.571739 L394.300413,541.078503 L395.489956,535.608655 L398.557473,538.890154 L399.835206,535.630532 L402.448783,538.015771 L404.369143,535.63942 L406.42008,543.133541 L407.154999,535.638052 L409.138938,538.624216 L410.142529,535.259996 C410.073481,535.861604 409.724822,538.614645 410.71269,538.363747 C411.820879,538.082768 412.762259,535.620277 412.762259,535.620277 L414.025636,543.261383 L415.433945,535.11438 C415.45172,535.11438 416.127845,538.987231 416.127845,538.987231 L417.350887,535.053535 C417.447281,535.050117 420.288512,542.22566 420.288512,542.22566 L422.500105,535.539607 L423.517369,541.691049 L425.651027,534.760251 C426.01541,536.310076 426.40919,541.676693 427.010798,540.576707 C427.646588,539.415877 430.521317,535.315372 431.068234,534.53875 C431.146169,534.535332 435.15575,538.18805 435.15575,538.18805 L437.914943,534.451927 L438.112517,546.918203 L441.482205,534.464917 L443.8066,538.505261 L445.864373,534.469018 L449.528712,537.477742 L450.919931,534.456713 L454.45096,539.915622 L455.565986,534.430051 L458.67794,537.669163 L459.910553,534.39245 L462.556944,536.741456 L464.444489,534.339126 L466.597973,541.803851 L467.229661,534.299474 L469.254619,537.258292 L470.247272,533.758027 C470.247272,533.758027 469.720182,537.272649 470.824269,536.975946 C471.92904,536.679244 472.836238,534.204448 472.836238,534.204448 L474.204896,541.827095 L475.526383,533.504395 L476.248312,537.524914 L477.545188,533.142063 L480.452732,540.705916 L482.572033,533.989783 L483.674069,540.127552 L486.012821,532.141889 C486.298584,534.199662 486.914549,538.087554 487.375326,537.101054 C487.970781,535.824004 490.887897,531.055577 491.103245,530.703499 C491.122387,530.702132 495.349367,534.194193 495.349367,534.194193 L497.863131,530.287843 L498.861254,542.716518 L501.424241,530.071811 L504.002951,533.954233 L505.796837,529.794251 L509.647128,532.561648 L510.840773,529.457213 L514.715676,534.678214 L515.47589,529.131798 L518.789519,532.16445 L519.809518,528.81527 L522.600843,530.989263 L524.330466,528.470713 L526.959083,535.781618 L527.107434,528.251947 L529.31766,531.074035 L530.083343,527.517711 C530.083343,527.517711 529.783222,531.058995 530.8668,530.691877 C531.949695,530.32476 532.696236,527.797322 532.696236,527.797322 L534.551649,535.316055 L535.335791,526.925674 L536.314087,530.890818 L537.326566,526.434133 L540.714713,533.794944 L542.397849,526.957122 L543.892298,533.010803 L544.343504,530.997467 C544.662082,532.047546 544.947163,532.672398 545.094146,532.22461 C545.550822,530.834759 548.051597,525.392941 548.051597,525.392941 L552.666204,528.390043 L554.610491,524.390717 C554.650143,524.385931 557.166642,536.433816 557.166642,536.433816 L558.175019,523.970959 C558.28782,523.957286 561.229547,527.122564 561.229547,527.122564 L562.309707,523.473948 C562.721261,523.424042 563.121194,523.37482 563.510872,523.326964 L566.667947,525.06821 L567.225118,522.866871 C567.61001,522.819016 567.973026,522.773212 568.321685,522.728775 L571.952526,526.56676 L572.025676,522.252957 C572.65463,522.170236 572.997136,522.124432 572.997136,522.124432 L572.032513,521.854392 Z" id="Fill-29" fill="#8FA32B" transform="translate(378.841821, 534.796826) rotate(5.000000) translate(-378.841821, -534.796826) "></path>
            <path d="M820.51847,512.134285 L619.178852,533.295931 L615.722586,533.270125 C615.722586,533.270125 615.72013,533.416802 615.718159,533.659665 L612.797987,533.966587 C612.797987,533.966587 613.811986,533.980309 615.715852,533.997426 C615.706327,535.855812 615.744984,540.57289 616.385882,539.58096 C617.058241,538.54173 619.87281,535.078316 620.726021,534.033139 C620.903508,534.034419 624.683315,537.792546 624.683315,537.792546 L627.707158,534.266579 L626.995898,546.714737 L631.264402,534.540239 L633.288094,538.738658 L635.633927,534.863945 L639.069967,538.130959 L640.677074,535.219962 L643.801199,540.921574 L645.312724,535.531507 L648.181027,538.988801 L649.648692,535.810621 L652.116291,538.34628 L654.174169,536.087689 L655.778121,543.689603 L656.955427,536.251121 L658.759008,539.349445 L660.00342,535.930764 C660.00342,535.930764 659.222649,539.398327 660.345216,539.182728 C661.468462,538.967057 662.553728,536.565287 662.553728,536.565287 L663.363232,544.267199 L665.287677,536.062778 L665.714653,540.125182 L667.327378,535.848396 L669.676107,543.603689 L672.27968,537.060165 L672.93147,543.261536 L676.498666,533.721355 L674.101201,533.703874 C675.009678,533.688129 675.924346,533.67242 676.847173,533.655855 C676.83425,535.28569 676.843086,540.536583 677.51591,539.495241 C678.309964,538.266556 682.109447,533.637573 682.109447,533.637573 L685.812664,537.706898 L688.836578,534.181612 L688.125247,546.629089 L692.393751,534.454592 L694.417443,538.653011 L696.763276,534.778297 L700.199316,538.045311 L701.806423,535.134314 L704.930548,540.835926 L706.442074,535.44586 L709.310376,538.903153 L710.778721,535.724902 L713.24632,538.260561 L715.304198,536.001971 L716.90747,543.603956 L718.084776,536.165474 L719.888357,539.263797 L721.13277,535.845117 C721.13277,535.845117 720.351998,539.312679 721.474565,539.09708 C722.597811,538.88141 723.683077,536.479639 723.683077,536.479639 L724.492581,544.181551 L726.417026,535.97713 L726.844002,540.039535 L728.456727,535.762749 L730.805456,543.518041 L733.409029,536.974517 L734.060819,543.175889 L735.62919,537.875397 C735.750569,538.323893 735.894141,538.50609 736.063264,538.211975 C736.793378,536.943953 740.348775,532.124778 740.348775,532.124778 L744.256849,535.997969 L747.095034,532.321038 L747.026517,544.788942 L750.661826,532.410843 L752.89877,536.499547 L755.041907,532.507968 L758.641793,535.594157 L760.096868,532.60359 L763.511225,538.136527 L764.742468,532.676245 L767.785168,535.981163 L769.087166,532.731033 L771.682604,535.135708 L773.621053,532.774185 L775.614668,540.283588 L776.406485,532.794196 L778.36828,535.795464 L779.434571,532.317139 C779.434571,532.317139 778.83282,535.820192 779.943802,535.546693 C781.054175,535.273946 782.013527,532.81873 782.013527,532.81873 L783.219771,540.469319 L784.718334,532.176303 L785.354076,536.210578 L786.744239,531.856823 L789.490258,539.480995 L791.752045,532.811852 L792.722531,538.971478 L794.803648,530.930005 C795.170382,532.829959 795.654153,534.803539 795.977933,534.058037 C796.489395,532.881051 798.851764,528.751632 799.426965,527.749423 C799.525612,527.740714 802.343661,529.811297 803.44091,530.620607 L805.258063,528.653554 L806.183443,527.127277 C806.187787,527.12682 806.210366,527.291573 806.246887,527.58316 L820.51847,512.134285 Z" id="Combined-Shape" fill="#8FA32B" transform="translate(716.658228, 529.424511) rotate(-1.000000) translate(-716.658228, -529.424511) "></path>
            <path d="M139.701642,172.94697 C137.683241,172.902906 135.776436,173.014444 133.96883,173.251291 L132.099225,176.130638 C132.099225,176.130638 131.927006,174.814208 131.750654,173.61207 C129.102621,174.139469 126.697072,174.956041 124.507829,175.984674 L124.870177,179.237193 L122.660268,176.932063 C115.017896,181.34954 109.449035,190.382785 109.449035,190.382785 L111.401305,193.756482 L108.31377,192.475854 C106.876779,195.295989 105.893066,197.949505 105.255168,200.074246 C105.162859,200.048082 105.07055,200.024673 104.976863,200.004018 C104.548383,191.942948 103.359386,177.251532 100.27874,173.24716 C95.9691417,167.642693 85.8702434,167.299815 83.5115375,168.095732 C83.8229087,168.422086 91.8193625,172.224035 92.4324607,173.302241 C91.5768787,173.495024 88.0250424,175.219052 87.8170023,175.001483 C87.6089623,174.783914 90.2473511,180.26858 90.2473511,180.26858 L95.2954226,181.480357 L91.9185604,183.870862 L94.8848534,188.936915 C94.8848534,188.936915 97.4763988,189.405102 98.0233651,189.413364 C97.5755967,189.684637 95.7735014,191.828655 95.7735014,191.828655 C95.7735014,191.828655 99.0153442,195.665031 101.49667,199.59642 C95.8754548,194.662561 85.5106509,186.072716 80.9089701,185.523285 C74.4294178,184.7494 67.6867154,191.186965 66.6906031,193.256624 C67.1066832,193.260755 74.7752327,190.441997 75.8829427,190.732548 C75.4572183,191.421058 74.3054204,194.875999 74.0271151,194.871868 C73.7501876,194.869113 79.0710533,196.668877 79.0710533,196.668877 L83.1285234,194.121392 L82.5264472,197.890293 L87.7853141,199.203969 C87.7853141,199.203969 89.7651391,197.796656 90.1233538,197.440008 C90.0145116,197.912326 90.2680174,200.48322 90.2680174,200.48322 C90.2680174,200.48322 95.4428417,200.859146 99.8116829,201.883649 C99.6780413,202.057153 99.5581772,202.241674 99.4465795,202.430325 C91.7738968,202.340819 80.3303157,202.624485 76.8074121,204.930992 C71.3487716,208.505733 70.331993,217.770317 70.8996255,219.994203 C71.2220187,219.731193 75.278111,212.640921 76.3128003,212.15208 C76.4312867,212.952128 77.7718362,216.338218 77.5569074,216.514476 C77.3419786,216.689357 82.5746684,214.645861 82.5746684,214.645861 L84.040593,210.086551 L86.0066405,213.358348 L90.8769823,210.98299 C90.8769823,210.98299 91.487325,208.632419 91.5327907,208.129807 C91.7532305,208.560814 93.6021693,210.364709 93.6021693,210.364709 C93.6021693,210.364709 95.9553642,208.662713 98.8183261,206.957964 C98.8389923,207.043339 98.8555253,207.128714 98.8803248,207.215466 C99.4452018,209.166702 100.857394,210.622212 102.538248,211.233608 C98.4339342,230.745968 100.590111,255.192187 105.60925,276.560769 L119.211763,272.626626 C119.211763,272.626626 106.3863,234.403331 106.66185,210.967843 C107.463699,210.543721 108.127774,209.917178 108.612742,209.15844 C109.105976,209.382894 109.625387,209.534366 110.158576,209.605971 C111.529436,212.599611 112.488349,215.288929 112.488349,215.288929 C112.488349,215.288929 115.034429,214.848283 115.460153,214.616944 C115.212158,215.05759 114.382754,217.33931 114.382754,217.33931 L117.048698,222.055601 L120.52338,220.473406 L119.147009,225.060256 C119.147009,225.060256 122.299298,229.707696 122.222144,229.441931 C122.14499,229.174789 125.169149,227.145063 125.720248,226.552945 C126.294769,227.541645 125.616917,235.679827 125.734026,236.08054 C127.4631,234.568573 131.877407,226.360162 129.407104,220.323311 C128.04451,216.993679 121.077235,211.60678 115.101939,207.442674 C115.697126,206.616463 116.078762,205.619501 116.187605,204.553689 C118.459512,205.316557 120.13761,205.99405 120.13761,205.99405 C120.13761,205.99405 121.500204,203.799082 121.610424,203.328142 C121.775753,203.805967 122.930307,205.941724 122.930307,205.941724 L128.229129,207.083273 L129.353372,203.436926 L131.869141,207.511525 C131.869141,207.511525 137.439379,208.245477 137.188629,208.125676 C136.937878,208.005875 137.429735,204.398085 137.351203,203.592529 C138.474068,203.819737 144.110438,209.734034 144.485186,209.913047 C144.504475,207.616179 141.298453,198.865223 135.142672,196.700549 C131.461327,195.406151 121.595268,197.424861 114.257379,199.257673 C113.981829,198.993286 113.686991,198.759192 113.372864,198.554016 C114.575639,197.678232 115.675082,196.872676 116.55133,196.244756 C116.066363,195.116977 115.359578,193.472816 115.359578,193.472816 L118.387869,194.911801 C120.386983,193.43426 119.97228,193.990575 121.6862,192.581885 L119.485935,188.212603 L123.690824,190.899168 C125.710604,189.166878 127.515455,187.508947 129.116399,185.94603 C128.348993,184.16279 127.410746,181.982969 127.410746,181.982969 L131.264309,183.788241 C131.264309,183.788241 138.536067,176.145785 139.701642,172.94697" id="Fill-26" fill="#656B2D"></path>
            <path d="M823.994731,6.52316847 L822.341781,9.06884848 C822.341781,9.06884848 822.189519,7.90496991 822.033604,6.84213938 C819.692432,7.30842127 817.565645,8.03036687 815.630098,8.93979918 L815.950456,11.8154071 L813.996637,9.77740217 C807.239885,13.6829696 802.316359,21.6694166 802.316359,21.6694166 L804.042395,24.6521598 L801.312652,23.5199349 C800.042183,26.0132647 799.172466,28.3592835 798.608489,30.237803 C798.526877,30.2146715 798.445265,30.1939749 798.362435,30.1757132 C797.983608,23.0487832 796.932396,10.0598497 794.208743,6.51951614 C790.398554,1.5645101 781.469944,1.261366 779.384572,1.9650499 C779.659861,2.25358465 786.729663,5.61495361 787.271713,6.56821398 C786.515279,6.73865645 783.375039,8.26289909 783.191107,8.07054259 C783.007176,7.87818609 785.33982,12.7272743 785.33982,12.7272743 L789.802907,13.798627 L786.817365,15.9121136 L789.439916,20.3910981 C789.439916,20.3910981 791.731146,20.8050298 792.214728,20.8123345 C791.818848,21.0521714 790.225585,22.9477352 790.225585,22.9477352 C790.225585,22.9477352 793.091754,26.3395403 795.285536,29.8153492 C790.315724,25.4532394 781.152022,17.85881 777.083597,17.373049 C771.354914,16.6888442 765.393575,22.3804052 764.512895,24.2102269 C764.880758,24.2138792 771.660655,21.7217668 772.64,21.978648 C772.26361,22.5873711 771.245286,25.6419436 770.999231,25.6382913 C770.754395,25.6358564 775.458664,27.2270585 775.458664,27.2270585 L779.045943,24.9747831 L778.513637,28.3069333 L783.163091,29.468377 C783.163091,29.468377 784.913488,28.224147 785.230192,27.9088284 C785.133963,28.3264125 785.358092,30.5993845 785.358092,30.5993845 C785.358092,30.5993845 789.933243,30.9317473 793.79581,31.8375273 C793.677656,31.9909255 793.571682,32.1540633 793.473016,32.3208534 C786.689466,32.2417194 776.571999,32.4925134 773.457339,34.5317357 C768.631262,37.6922261 767.73231,45.8832041 768.234164,47.8493797 C768.519197,47.6168475 772.105258,41.348217 773.020045,40.9160236 C773.124801,41.6233599 774.310003,44.6170601 774.119981,44.7728932 C773.929959,44.9275088 778.55627,43.1208187 778.55627,43.1208187 L779.852319,39.0898543 L781.590535,41.9825065 L785.896488,39.8824118 C785.896488,39.8824118 786.436103,37.8042311 786.4763,37.3598633 C786.671194,37.7409239 788.305873,39.3357785 788.305873,39.3357785 C788.305873,39.3357785 790.386373,37.8310149 792.917567,36.3238166 C793.471798,38.2766003 794.720342,39.5634409 796.206413,40.103987 C792.577719,57.3551997 794.484032,78.968522 798.921539,97.8608522 L810.947755,94.3826084 C810.947755,94.3826084 799.608542,60.5887368 799.852161,39.8690199 C800.56109,39.4940465 801.14821,38.9401084 801.576978,38.2692956 C802.013055,38.4677393 802.472275,38.6016584 802.943676,38.6649656 C804.155677,41.3116936 805.003469,43.6893661 805.003469,43.6893661 C805.003469,43.6893661 807.254502,43.2997833 807.630892,43.0952523 C807.411635,43.4848351 806.678344,45.5021435 806.678344,45.5021435 L809.035351,49.6718967 L812.107377,48.273051 L810.890504,52.3283643 C810.890504,52.3283643 813.677497,56.4372452 813.609284,56.2022781 C813.541071,55.9660935 816.214781,54.1715778 816.702018,53.648076 C817.209962,54.5222023 816.610661,61.7173094 816.714199,62.0715862 C818.242904,60.7348303 822.145668,53.4776335 819.96163,48.1403494 C818.756938,45.1965645 812.59705,40.4339149 807.314188,36.7523576 C807.840404,36.0218899 808.177815,35.1404588 808.274044,34.1981555 C810.282677,34.8726207 811.766312,35.4716042 811.766312,35.4716042 C811.766312,35.4716042 812.971004,33.530995 813.068452,33.1146284 C813.214622,33.5370822 814.235383,35.4253413 814.235383,35.4253413 L818.920162,36.4346042 L819.914125,33.2108066 L822.13836,36.8132299 C822.13836,36.8132299 827.063103,37.4621287 826.84141,37.3562109 C826.619718,37.2502931 827.054576,34.0605841 826.985145,33.348378 C827.977889,33.5492567 832.961101,38.7781881 833.292422,38.9364561 C833.309475,36.9057558 830.474977,29.1688852 825.032545,27.2550598 C821.777805,26.1106604 813.055053,27.8954365 806.567498,29.5158574 C806.32388,29.2821077 806.063208,29.0751419 805.785483,28.8937424 C806.848877,28.1194466 807.820914,27.4072406 808.59562,26.8520851 C808.166852,25.8549967 807.541971,24.4013659 807.541971,24.4013659 L810.219336,25.6735972 C811.986786,24.3672774 811.620141,24.8591257 813.135447,23.6136782 L811.190155,19.7507214 L814.907769,22.125959 C816.693491,20.5944117 818.289191,19.1286064 819.704613,17.746805 C819.026136,16.1702122 818.196616,14.2429948 818.196616,14.2429948 L821.603617,15.8390668 C821.603617,15.8390668 828.032704,9.08224039 829.063209,6.25411286 C827.278705,6.21515459 825.592867,6.31376773 823.994731,6.52316847 Z" id="Fill-26-Copy" fill="#8FA32B" transform="translate(798.902697, 49.771788) scale(-1, 1) translate(-798.902697, -49.771788) "></path>
            <polygon id="Path-13754" fill="#8FA32B" points="163.414429 501.516376 157.805803 504.288946 159.965409 499.158651 155.051841 501.380648 155.467781 496.458323 148.332216 498.68032 148.124246 494.516539 140.582592 495.772022 141.69359 490.289272 134.631362 484.535067 126.519432 483.984493 123.132802 478.998682 117.243963 477.679714 118.418447 463.273951 164.056948 481.554526"></polygon>
        </g>
    </g>
</svg>