<?xml version="1.0" encoding="UTF-8" standalone="no"?>
<svg width="274px" height="129px" viewBox="0 0 274 129" version="1.1" xmlns="http://www.w3.org/2000/svg" xmlns:xlink="http://www.w3.org/1999/xlink">
    <!-- Generator: Sketch 3.8.3 (29802) - http://www.bohemiancoding.com/sketch -->
    <title>logo</title>
    <desc>Created with Sketch.</desc>
    <defs>
        <polygon id="path-1" points="0.498394343 124.906986 271.288193 124.906986 271.288193 0.324381939 0.498394343 0.324381939 0.498394343 124.906986"></polygon>
        <polygon id="path-3" points="0 0.270130169 0 124.852434 270.789871 124.852434 270.789871 0.270130169"></polygon>
    </defs>
    <g id="Page-1" stroke="none" stroke-width="1" fill="none" fill-rule="evenodd">
        <g id="logo" transform="translate(0.652538, -0.285028)">
            <g id="Group-3" transform="translate(1.504903, 4.244580)">
                <mask id="mask-2" fill="white">
                    <use xlink:href="#path-1"></use>
                </mask>
                <g id="Clip-2"></g>
                <path d="M112.414482,83.7878322 L110.356526,65.3798532 C111.683851,65.9855769 113.123291,66.3535258 114.601859,66.4174842 L118.357346,66.5822711 L112.414482,83.7878322 Z M270.528668,18.4998534 C269.088475,14.9490337 265.785212,12.4599234 261.908581,12.0046901 L246.648107,10.2131025 C246.218458,10.1626882 245.780531,10.1363524 245.345614,10.1363524 C243.761703,10.1363524 242.203375,10.4719459 240.769955,11.0889563 C238.912151,9.11828525 236.366607,7.81127661 233.575011,7.55920528 L227.882714,7.0430234 C226.007604,5.55015917 223.673499,4.68559214 221.249852,4.6472171 L209.321235,4.46060907 C208.089471,4.46060907 206.900598,4.66377104 205.786969,5.038492 L204.084171,4.8842394 L204.125556,5.00387922 C202.510794,3.79017459 200.549905,3.00461499 198.399398,2.83907561 L172.116259,0.833791757 L172.198276,1.40565507 L149.076187,0.696093091 L148.738337,0.690825929 C147.374894,0.690825929 146.073905,0.95267913 144.86923,1.41092223 C143.435809,0.720171546 141.828572,0.324381939 140.116745,0.324381939 C139.637433,0.324381939 139.152102,0.356737363 138.675047,0.419943308 L128.461267,1.77661377 L127.182099,1.94591541 L125.705037,2.14230531 L125.707294,2.17390828 C122.810355,2.78038437 121.185812,5.17769557 120.434865,6.70141031 C120.023274,6.2401574 119.58008,5.80900257 119.10152,5.42073748 C117.122572,3.81350059 114.616156,2.86164916 111.991604,2.86164916 L111.801234,2.86240161 L99.4535009,3.25442896 C95.8469998,3.36880162 92.5106289,5.280029 90.4925533,8.17696815 C88.8394169,4.21154755 84.9304302,1.47864289 80.4533424,1.47864289 C79.6896039,1.47864289 78.9228556,1.55915522 78.1749186,1.71867499 L52.3500229,7.21683974 C50.6351854,6.12127003 48.6058231,5.48695323 46.4462867,5.48469587 L33.0353396,5.48018116 C30.2595452,5.48018116 27.6064004,6.53587093 25.6063837,8.40646592 C24.8132996,8.22512506 23.9863551,8.12956369 23.138342,8.12956369 C22.7154642,8.12956369 22.288824,8.15439459 21.8742231,8.20330396 L10.2097165,9.55696461 C4.29996063,10.2454579 -0.0334088566,15.622478 0.551246134,21.5465304 L4.95007892,66.0164274 C5.50614075,71.641004 10.185638,75.881822 15.835798,75.881822 C16.3015657,75.881822 16.7710955,75.8517239 17.231596,75.7930327 L25.9645507,74.6718796 L26.9389757,80.1768164 C27.5635106,83.6915184 29.7990447,86.565884 32.8058418,88.0963708 L34.5620641,102.732309 C32.4710008,105.29817 31.5093675,108.739884 32.0661818,112.03487 L32.7042608,115.814435 C33.5944112,121.08235 38.1151412,124.907062 43.4522813,124.907062 C44.3040566,124.907062 45.155832,124.806986 45.9835289,124.610596 C51.2236027,123.364536 57.6292242,121.940145 59.9761212,121.533068 L61.4847869,121.532316 C64.8851162,122.304331 68.925782,122.545116 73.4961738,122.545116 L74.2471206,122.542106 C81.7317579,122.496206 86.8484296,120.089866 90.2939061,117.21851 C91.4128018,117.599251 92.6046853,117.814452 93.8439733,117.814452 L114.527366,117.601508 C117.639507,117.570657 120.43637,116.229036 122.415318,114.113894 L128.482336,114.636848 L128.988736,114.676728 L129.417634,114.676728 C132.410887,114.676728 135.212264,113.461518 137.26119,111.453225 C139.337205,113.450232 142.146859,114.675976 145.082926,114.719618 C145.082926,114.719618 146.256751,114.735419 147.881294,114.75724 C149.34406,115.726398 151.055135,116.365982 152.924225,116.550333 L163.690305,117.609785 C164.048472,117.644398 164.400619,117.660952 164.749004,117.660952 C166.461584,117.660952 168.147829,117.248608 169.658752,116.485622 C170.73551,117.083821 171.98759,117.52852 173.419506,117.763285 C173.837116,117.831758 174.431553,117.914528 175.146382,118.001812 C176.293119,118.141768 177.819843,118.304298 179.348073,118.45855 C182.302951,118.756521 185.257829,119.023642 185.257829,119.023642 L185.791317,119.068036 L186.245045,119.068036 C188.621288,119.068036 190.815437,118.317089 192.611539,117.040931 C195.003583,117.28924 197.82904,117.490145 200.735008,117.490145 C208.581575,117.490145 214.477786,116.068011 218.761494,113.143984 C224.414664,109.283907 230.85866,101.429063 231.985081,90.9564398 C232.46063,86.5335286 232.076127,80.5778732 228.871435,73.9961779 C228.894009,73.9984353 228.91583,74.0044549 228.938404,74.0067123 L238.256766,75.0533726 C238.661585,75.0992722 239.073176,75.1225982 239.480252,75.1225982 C245.01002,75.1225982 249.694032,70.9841137 250.375001,65.5002455 L252.375018,49.4188472 L268.868007,29.1651041 C271.332286,26.1372384 271.96886,22.0514255 270.528668,18.4998534 L270.528668,18.4998534 Z" id="Fill-1" fill="#221F20" opacity="0.138992537" mask="url(#mask-2)"></path>
            </g>
            <g id="Group-6" transform="translate(0.000000, 0.482322)">
                <mask id="mask-4" fill="white">
                    <use xlink:href="#path-3"></use>
                </mask>
                <g id="Clip-5"></g>
                <path d="M111.915907,83.7332042 L109.857952,65.3252252 C111.185277,65.9309489 112.624717,66.2988978 114.103285,66.3628562 L117.858771,66.5276431 L111.915907,83.7332042 Z M270.030093,18.4452254 C268.589901,14.8944057 265.286638,12.4052954 261.410006,11.9500621 L246.149533,10.1584745 C245.719883,10.1080603 245.281956,10.0817244 244.847039,10.0817244 C243.263881,10.0817244 241.704801,10.4173179 240.27138,11.0343283 C238.413577,9.06365726 235.868033,7.75664861 233.076437,7.50457728 L227.384139,6.9883954 C225.50903,5.49553118 223.174924,4.63096414 220.751277,4.59258911 L208.82266,4.40598108 C207.590897,4.40598108 206.402023,4.60914304 205.288394,4.983864 L203.585596,4.8296114 L203.626981,4.94925122 C202.01222,3.73554659 200.05133,2.94998699 197.900823,2.78444761 L171.617685,0.779163762 L171.699702,1.35102707 L148.577613,0.641465096 L148.239762,0.636197934 C146.876319,0.636197934 145.57533,0.898051134 144.370655,1.35629424 C142.937235,0.665543551 141.329998,0.269753944 139.61817,0.269753944 C139.138858,0.269753944 138.653527,0.302109368 138.176473,0.365315313 L127.962693,1.72198577 L126.683525,1.89128741 L125.206462,2.08767731 L125.20872,2.11928028 C122.31178,2.72575638 120.687237,5.12306757 119.93629,6.64678232 C119.524699,6.18552941 119.081505,5.75437457 118.602946,5.36610948 C116.623998,3.75887259 114.117581,2.80702116 111.49303,2.80702116 L111.302659,2.80777361 L98.9549264,3.19980096 C95.3484253,3.31417362 92.0120543,5.22540101 89.9939788,8.12234015 C88.3408424,4.15691956 84.4318557,1.42401489 79.9547679,1.42401489 C79.1910294,1.42401489 78.4242811,1.50452723 77.6763441,1.66404699 L51.8514484,7.16221175 C50.1366109,6.06664204 48.1072486,5.43232523 45.9477122,5.43006788 L32.5367651,5.42555317 C29.7609706,5.42555317 27.1078259,6.48124294 25.1078092,8.35183793 C24.3147251,8.17049706 23.4877806,8.07493569 22.6397675,8.07493569 C22.2168896,8.07493569 21.7902495,8.0997666 21.3756486,8.14867596 L9.71114197,9.50233662 C3.80138612,10.1908299 -0.53198337,15.56785 0.0526716208,21.4919024 L4.45150441,65.9617994 C5.00756623,71.586376 9.68706351,75.827194 15.3372235,75.827194 C15.8029911,75.827194 16.272521,75.7970959 16.7330215,75.7384047 L25.4659762,74.6172516 L26.4404012,80.1221884 C27.0649361,83.6368904 29.3004702,86.511256 32.3072673,88.0417428 L34.0634896,102.677681 C31.9724263,105.243542 31.010793,108.685256 31.5676072,111.980242 L32.2056863,115.759807 C33.0958367,121.027722 37.6165667,124.852434 42.9537067,124.852434 C43.8054821,124.852434 44.6572575,124.752358 45.4849544,124.555968 C50.7250282,123.309908 57.1306497,121.885517 59.4775466,121.47844 L60.9862124,121.477688 C64.3865417,122.249703 68.4272075,122.490488 72.9975992,122.490488 L73.7485461,122.487478 C81.2331834,122.441578 86.3498551,120.035238 89.7953316,117.163882 C90.9142273,117.544623 92.1061108,117.759824 93.3453988,117.759824 L114.028792,117.54688 C117.140932,117.516029 119.937795,116.174408 121.916743,114.059266 L127.983762,114.58222 L128.490162,114.6221 L128.919059,114.6221 C131.912312,114.6221 134.71369,113.40689 136.762616,111.398597 C138.83863,113.395604 141.648285,114.621348 144.584352,114.66499 C144.584352,114.66499 145.758176,114.680791 147.382719,114.702612 C148.845486,115.67177 150.556561,116.311354 152.425651,116.495705 L163.19173,117.555157 C163.549897,117.58977 163.902045,117.606324 164.25043,117.606324 C165.96301,117.606324 167.649254,117.19398 169.160177,116.430994 C170.236936,117.029193 171.489015,117.473892 172.920931,117.708657 C173.338542,117.77713 173.932979,117.8599 174.647808,117.947184 C175.794544,118.08714 177.321269,118.24967 178.849498,118.403922 C181.804376,118.701893 184.759254,118.969014 184.759254,118.969014 L185.292742,119.013408 L185.746471,119.013408 C188.122713,119.013408 190.316862,118.262461 192.112965,116.986303 C194.505009,117.234612 197.330465,117.435517 200.236434,117.435517 C208.083,117.435517 213.979212,116.013383 218.26292,113.089356 C223.916089,109.229279 230.360086,101.374435 231.486506,90.9018118 C231.962056,86.4789006 231.577553,80.5232452 228.372861,73.9415499 C228.395434,73.9438073 228.417256,73.9498269 228.439829,73.9520843 L237.758191,74.9987446 C238.16301,75.0446442 238.574601,75.0679702 238.981678,75.0679702 C244.511446,75.0679702 249.195458,70.9294857 249.876426,65.4456175 L251.876443,49.3642192 L268.369432,29.1104761 C270.833712,26.0826104 271.470286,21.9967975 270.030093,18.4452254 L270.030093,18.4452254 Z" id="Fill-4" fill="#FEFEFE" mask="url(#mask-4)"></path>
            </g>
            <path d="M10.0750276,20.9822669 C10.0268707,20.4924208 10.3865426,20.0454645 10.8756363,19.9890306 L22.5371331,18.6346175 C23.0254743,18.5781836 23.4641536,18.9325884 23.5123105,19.4224344 L25.1195474,35.9417596 C25.1677043,36.4316057 25.6063837,36.7867629 26.0954773,36.730329 L33.3694281,35.8936027 C33.8585218,35.8371688 34.205402,35.3924699 34.1414436,34.9041287 L31.7591814,16.8663559 C31.6944706,16.3780147 32.0443607,15.9792153 32.5364641,15.9792153 L45.9444014,15.98373 C46.4365048,15.9844825 46.8684121,16.3855393 46.9052822,16.8768902 C46.9052822,16.8768902 50.2657316,62.4852467 50.5102784,62.987132 C50.7540728,63.4890173 37.6087412,63.8780348 37.6087412,63.8780348 C37.1166377,63.8923314 36.6824731,63.5033139 36.6433456,63.0127153 L35.4777979,48.4399828 C35.4386704,47.9493842 35.0067631,47.594227 34.5176695,47.6506609 L27.3400325,48.4761005 C26.8509388,48.5325343 26.4987914,48.9779858 26.5567302,49.4670794 L28.2414696,63.6869121 C28.2994084,64.1752533 27.947261,64.6267243 27.4589198,64.6891778 L15.4505428,66.2309514 C14.9622016,66.2934049 14.5235222,65.9442673 14.4753653,65.4544212 L10.0750276,20.9822669 Z" id="Fill-7" fill="#F0576E"></path>
            <path d="M50.072502,18.3206946 C49.5909329,18.423028 49.2643689,18.9038447 49.3456337,19.3891761 L56.5932487,62.4790766 C56.6752659,62.9644079 57.1380237,63.2887146 57.6218502,63.1991729 L89.6905903,57.2856548 C90.1744167,57.1968655 90.5273166,56.7235733 90.474645,56.2337273 L89.4114307,46.4179945 C89.3587591,45.9289009 88.9170699,45.5887927 88.4302336,45.662533 L69.4052442,48.5384035 C68.918408,48.6113913 68.4496305,48.2757978 68.363851,47.7912189 L67.6768626,43.9341513 C67.5910831,43.4495724 67.9229143,43.0409912 68.4142653,43.0266946 L77.1502298,42.7618316 C77.6423333,42.747535 77.9741645,42.3389537 77.888385,41.8543748 C77.888385,41.8543748 75.7958167,30.0717332 75.8575178,30.2094319 C75.9192188,30.3463781 66.4488614,31.9332988 66.4488614,31.9332988 C65.96353,32.0145636 65.4962575,31.6842373 65.4097256,31.2004108 L64.79422,27.7398853 C64.7076881,27.2553064 65.037262,26.8121123 65.5256031,26.754926 L81.3338614,24.9038948 C81.8222026,24.8467084 82.1735975,24.4005046 82.1149063,23.9121634 L80.7559785,12.6983753 C80.6972873,12.2100341 80.2548456,11.8940044 79.7732765,11.9970903 L50.072502,18.3206946 Z" id="Fill-9" fill="#F0576E"></path>
            <path d="M126.532583,12.5539798 C127.175929,12.55097 127.472395,59.0366852 129.098444,58.8952243 C130.725244,58.7545158 154.697604,57.1299725 154.697604,57.1299725 C155.188202,57.0968646 155.573457,56.6672147 155.553894,56.1751113 L155.136283,45.9402629 C155.115967,45.4481595 154.698356,45.0779532 154.207758,45.1163283 C154.207758,45.1163283 140.234729,46.2194225 140.702002,46.1870671 C141.168522,46.1547116 140.409298,11.608148 140.409298,11.608148 C140.398011,11.1160446 139.990182,10.766907 139.502594,10.8316178 L126.532583,12.5539798 Z" id="Fill-11" fill="#F0576E"></path>
            <path d="M148.267226,11.1903116 C147.775123,11.1752625 147.372561,11.565785 147.372561,12.0578884 L147.373314,21.4763267 C147.373314,21.9684301 147.773618,22.4101193 148.263464,22.4575237 L158.229687,23.4221668 C158.719533,23.4695713 159.112313,23.9112604 159.102531,24.4026114 L158.468215,55.9167946 C158.45768,56.408898 158.85046,56.8505872 159.340306,56.8987441 L170.849808,58.0183923 C171.339654,58.0665492 171.74974,57.703115 171.761779,57.2110116 L172.549596,24.8006584 C172.560883,24.308555 172.973226,23.9210423 173.46533,23.9391012 L182.560214,24.2754471 C183.052317,24.2935059 183.469928,23.9059933 183.488739,23.4138899 L183.880767,13.1775366 C183.90033,12.6861856 183.512818,12.2715847 183.021467,12.2565357 L148.267226,11.1903116 Z" id="Fill-13" fill="#F0576E"></path>
            <path d="M183.37226,12.2588683 C183.567897,13.6223108 181.614533,58.3480414 181.614533,58.3480414 C181.592711,58.8393923 181.977967,59.2532408 182.47007,59.2667849 L194.507793,59.6076455 C194.999896,59.6219421 195.419764,59.2306672 195.442338,58.7393163 L196.072892,44.6338562 C196.094714,44.1425052 196.514582,43.7685367 197.005933,43.8023971 L204.200876,44.3042824 C204.691475,44.3388951 205.066948,44.7685451 205.034592,45.259896 L204.163253,58.4812253 C204.130898,58.9718238 204.503362,59.4308194 204.990198,59.5000449 L217.011367,61.2148824 C217.498203,61.2848604 217.928605,60.9402376 217.966228,60.449639 L221.417724,16.051225 C221.455346,15.5606264 221.084388,15.1527976 220.592284,15.1452731 L208.837484,14.96017 C208.34538,14.951893 207.896166,15.3454252 207.83898,15.8345189 L205.974405,31.6871718 C205.917218,32.175513 205.468005,32.5479766 204.977406,32.5133638 L197.685396,32.0047064 C197.194798,31.9708461 196.819325,31.5404437 196.852432,31.0498452 L197.966813,14.2701717 C197.999921,13.7788208 197.6252,13.3469135 197.134602,13.3092909 L183.37226,12.2588683 Z" id="Fill-15" fill="#F0576E"></path>
            <path d="M218.210925,16.7515318 C218.55931,17.7560548 230.17265,43.66673 230.17265,43.66673 C230.374307,44.1159437 230.501472,44.8841969 230.45482,45.374043 L228.758793,63.4351417 C228.712894,63.9249878 229.074823,64.3704392 229.563917,64.4261207 L238.882279,65.472781 C239.37062,65.52771 239.820586,65.1733052 239.881535,64.6849641 L242.128356,46.6185981 C242.188552,46.130257 242.492542,45.4184376 242.803305,45.0369446 L260.558908,23.2339034 C260.869671,22.8516579 260.724448,22.4927384 260.235354,22.4355521 L244.974881,20.6432121 C244.485787,20.5852733 243.863509,20.8734623 243.590369,21.2835485 L236.650507,31.7155392 C236.377367,32.1256254 236.069614,32.0669342 235.965776,31.5861176 L233.246416,18.9727693 C233.142577,18.4919526 232.656493,18.0615502 232.166647,18.0171556 L218.210925,16.7515318 Z" id="Fill-17" fill="#F0576E"></path>
            <path d="M35.807146,70.6059314 C35.3218146,70.6856913 34.9944981,71.1476967 35.0802776,71.6322756 L36.3571882,78.842268 C36.4429677,79.3268469 36.9147549,79.6902811 37.4053535,79.6504012 L40.4572977,79.4013397 C40.9478962,79.3614597 41.3971099,79.7279037 41.4558011,80.2169973 L44.5882576,106.338359 C44.6469489,106.8267 44.380581,107.477571 43.9960781,107.785324 L42.0479806,109.343651 C41.6634778,109.651404 41.4159212,110.300017 41.4979384,110.784596 L42.1360175,114.564161 C42.2180347,115.049493 42.6770303,115.353483 43.1555895,115.23911 C43.1555895,115.23911 59.288907,111.403864 59.600422,111.865117 C59.9126895,112.32637 58.2113961,106.169057 58.2113961,106.169057 C58.0797171,105.695013 57.5740695,105.251066 57.0864808,105.183346 L55.4950454,104.962125 C55.0074567,104.894404 54.5635102,104.438418 54.5078287,103.950077 L51.5898209,78.2726621 C51.5341395,77.7835684 51.8825247,77.2989895 52.3640938,77.1959036 L54.9818733,76.6353271 C55.46269,76.5314888 55.7960261,76.0491672 55.7215334,75.5630834 C55.7215334,75.5630834 54.2971422,66.2319296 54.2971422,66.8940871 C54.2971422,67.5554921 35.807146,70.6059314 35.807146,70.6059314" id="Fill-19" fill="#284B70"></path>
            <path d="M83.9432135,70.0090867 L80.4473228,80.3312195 C80.2893079,80.7969871 79.7874226,81.0257324 79.3329418,80.838372 C79.3329418,80.838372 71.2102254,77.4952289 70.5322664,81.1784801 C69.8550599,84.8624838 85.1305823,86.6804072 86.9891381,92.2380156 C88.8476939,97.7948716 89.4571798,112.801769 73.686544,112.898835 C57.9166608,112.995901 59.9181824,109.754339 59.9181824,109.754339 C60.1770258,109.335976 60.5397075,108.619642 60.7240582,108.163656 L64.007005,100.058246 C64.1921082,99.6022606 64.7293587,99.3419123 65.2018984,99.479611 C65.2018984,99.479611 75.0025821,102.33366 75.7828746,99.837778 C76.5624145,97.3418957 54.0129412,91.414081 56.9422358,81.7428189 C59.8715304,72.0708045 66.3644363,65.4514866 83.9432135,70.0090867" id="Fill-21" fill="#284B70"></path>
            <path d="M87.5634093,67.4631663 C87.504718,66.9748251 87.856113,66.5278688 88.3452066,66.4706825 L98.7613958,65.2487009 C99.2504895,65.1915146 99.694436,65.5451669 99.749365,66.0342605 L103.080469,95.8305964 C103.135398,96.31969 103.582354,96.7199943 104.074457,96.7199943 L113.85031,96.7199943 C114.342414,96.7199943 114.747985,97.122556 114.750995,97.6146594 L114.816458,107.054919 C114.820221,107.547022 114.419916,107.953346 113.927813,107.958613 L93.3542777,108.170805 C92.8621743,108.176072 92.4114557,107.780282 92.3527645,107.291941 L87.5634093,67.4631663 Z" id="Fill-23" fill="#284B70"></path>
            <path d="M153.411212,106.954391 C152.921366,106.906234 152.521814,106.463793 152.524072,105.972442 C152.524072,105.972442 152.656503,66.5657924 153.556435,65.6553258 C154.456368,64.7448592 165.408303,64.4461359 165.408303,64.4461359 C165.900406,64.4333442 166.474527,64.7862441 166.684461,65.230943 L176.074306,85.1355485 C176.28424,85.5802475 176.494926,85.5433774 176.543083,85.0542837 L178.330156,66.7125205 C178.37756,66.2226744 178.815487,65.8810613 179.302324,65.9525442 L189.467946,67.4506756 C189.954783,67.522911 190.316712,67.982659 190.272317,68.4725051 L186.636471,108.609785 C186.592076,109.100384 186.154901,109.46457 185.665055,109.420176 C185.665055,109.420176 173.109646,108.285478 174.102882,108.100375 C175.095366,107.91452 165.007998,89.0054077 165.007998,89.0054077 C164.776243,88.5712431 164.596407,88.6186476 164.607694,89.110751 L165.033582,107.20571 C165.045621,107.697814 164.654346,108.060495 164.1645,108.012338 L153.411212,106.954391 Z" id="Fill-25" fill="#284B70"></path>
            <path d="M108.445224,38.4277849 L101.807095,37.9454633 C101.315744,37.9100981 101.075712,37.5120511 101.272854,37.0613325 L106.902698,24.1981703 C107.09984,23.7474517 107.316546,23.7775498 107.383514,24.2651385 L109.215734,37.6061076 C109.282703,38.0936963 108.935822,38.4631501 108.445224,38.4277849 M126.641011,56.4768444 L112.637885,14.1822854 C112.48288,13.7150128 111.953906,13.345559 111.462555,13.3613605 L99.2743422,13.7488732 C98.7822387,13.7646747 98.2622946,14.1627216 98.1193288,14.633004 L85.8363068,54.9561395 C85.6925885,55.4264218 85.9702432,55.8899321 86.4525648,55.9854934 L96.5196164,57.9779856 C97.001938,58.073547 97.5339213,57.7733187 97.7017181,57.3105609 L100.609944,49.2721191 C100.777741,48.8093613 101.317249,48.44066 101.8086,48.4534517 L108.838004,48.6317827 C109.330107,48.6438219 109.90799,49.0162855 110.122439,49.4594796 L113.260162,55.9388414 C113.474611,56.3820355 114.052494,56.7620236 114.543845,56.7838447 L126.028516,57.2872349 C126.519867,57.309056 126.795264,56.9441169 126.641011,56.4768444" id="Fill-27" fill="#F0576E"></path>
            <path d="M138.419364,87.9388074 L135.373439,87.1780787 C134.895633,87.0591914 134.585622,86.5670879 134.684194,86.0847664 L136.717318,76.1486413 C136.815889,75.6663198 136.96939,75.6678247 137.059684,76.1516511 L139.124411,87.2758975 C139.213953,87.7597239 138.896418,88.0576948 138.419364,87.9388074 M157.606883,104.415243 L143.087575,65.5330524 C142.916016,65.0717995 142.371993,64.6865442 141.880642,64.6767623 L130.302667,64.4404925 C129.810564,64.4307106 129.276323,64.8024218 129.116051,65.2674369 L116.064023,103.057067 C115.902999,103.522083 116.173129,103.936684 116.662975,103.979573 L128.839901,105.029243 C129.329747,105.071381 129.844424,104.719986 129.983628,104.247446 L132.070929,97.1555886 C132.210132,96.6838014 132.726314,96.2857544 133.218418,96.2714578 L139.03487,96.0998988 C139.526221,96.0856023 140.089054,96.4430168 140.284692,96.8944879 L143.468315,104.243684 C143.663953,104.695155 144.226786,105.069876 144.71889,105.076648 L157.025238,105.241435 C157.517341,105.247454 157.779194,104.875743 157.606883,104.415243" id="Fill-29" fill="#284B70"></path>
            <path d="M210.650892,91.701969 C207.370203,99.159518 198.984128,96.7215745 198.984128,96.7215745 C198.511588,96.5846282 198.169223,96.0714562 198.222647,95.5823625 L200.229436,77.38507 L200.229436,75.819218 C203.526679,76.0426961 213.931582,84.2444199 210.650892,91.701969 M213.659947,70.8726003 C204.799828,61.5060812 194.062341,64.1088118 194.062341,64.1088118 C193.583782,64.2246893 193.130054,64.7167928 193.053304,65.2028766 L186.676275,105.596743 C186.599525,106.082826 186.932109,106.556119 187.415183,106.64867 C187.415183,106.64867 205.462738,110.114463 212.584693,105.252872 C219.705896,100.391282 228.131851,86.1722013 213.659947,70.8726003" id="Fill-31" fill="#284B70"></path>
        </g>
    </g>
</svg>