<?xml version="1.0" encoding="UTF-8" standalone="no"?>
<svg width="118px" height="272px" viewBox="0 0 118 272" version="1.1" xmlns="http://www.w3.org/2000/svg" xmlns:xlink="http://www.w3.org/1999/xlink">
    <!-- Generator: Sketch 3.8.3 (29802) - http://www.bohemiancoding.com/sketch -->
    <title>monster-dojo</title>
    <desc>Created with Sketch.</desc>
    <defs></defs>
    <g id="Page-1" stroke="none" stroke-width="1" fill="none" fill-rule="evenodd">
        <g id="monster-dojo" transform="translate(0.802452, 0.544575)">
            <g id="Group-3" transform="translate(5.455457, 244.458119)" fill="#388149">
                <path d="M25.046912,1.84751713 C25.046912,1.84751713 28.9778718,6.86393018 15.0458471,9.04368108 C1.11382245,11.223432 -1.36719812,13.3660107 0.838624961,15.230103 C4.86960146,18.6359257 11.1476201,16.7986461 11.1476201,16.7986461 C11.1476201,16.7986461 5.29330862,19.9881391 9.21214517,22.1209677 C13.1303756,24.2537964 19.8363444,20.0125143 19.8363444,20.0125143 C19.8363444,20.0125143 13.7868489,24.0185759 18.6361439,26.5127667 C23.485439,29.0063481 41.2896257,15.2483844 42.6710686,11.2825418 C44.0519054,7.31608985 40.3876568,0.257036324 40.3876568,0.257036324 L24.1352445,1.84751713" id="Fill-1"></path>
            </g>
            <path d="M85.1185242,246.305637 C85.1185242,246.305637 80.029189,251.016141 93.9612137,253.195892 C107.893844,255.375643 110.374865,257.518222 108.168436,259.382314 C104.137459,262.788137 97.8594407,260.950857 97.8594407,260.950857 C97.8594407,260.950857 103.713752,264.14035 99.7955218,266.273179 C95.8766852,268.406007 89.1713225,264.164725 89.1713225,264.164725 C89.1713225,264.164725 95.2208181,268.170787 90.371523,270.664977 C85.522228,273.158559 68.8758104,259.706504 67.4943675,255.740661 C66.1135307,251.774209 69.7777793,244.715156 69.7777793,244.715156 L86.0301916,246.305637" id="Fill-4" fill="#388149"></path>
            <path d="M24.8198437,200.965599 C24.8198437,200.965599 19.6450398,217.66321 19.9002339,225.075704 C20.1032981,230.97267 25.4035776,248.020675 25.4035776,248.020675 L48.0746381,246.183395 C48.0746381,246.183395 44.3964478,230.563777 45.1377838,225.357846 C45.4329846,223.285346 48.5747217,217.727804 48.5747217,217.727804 L63.1844353,218.716827 C63.1844353,218.716827 66.3758776,230.387666 66.6983557,232.759981 C67.3651338,237.665487 64.6113404,247.313794 64.6113404,247.313794 L87.6636767,250.140097 C87.6636767,250.140097 94.0598968,230.372431 94.8103252,223.521176 C96.0317414,212.379279 92.8427238,183.867626 92.8427238,183.867626 L24.8198437,200.965599 Z" id="Fill-6" fill="#C8C8C0"></path>
            <path d="M33.9394886,105.880684 C33.9394886,105.880684 41.7953466,103.79234 42.7797535,97.009945 C43.7635542,96.0209219 73.9643576,97.009945 73.9643576,97.009945 C73.9643576,97.009945 71.1475233,103.598557 78.8785119,105.435228 C78.8785119,105.152476 57.1542763,142.645775 57.1542763,142.645775 L40.9158057,136.194883 L33.9394886,105.880684 Z" id="Fill-8" fill="#32673E"></path>
            <path d="M79.8781335,229.424115 C76.3060215,231.639819 71.5512877,233.081611 66.7898862,233.891477 C66.8056464,234.323527 66.804434,234.777515 66.7868553,235.248565 L90.5865892,240.654372 C91.7328414,236.778108 92.9730486,232.363153 93.8259183,228.718453 C93.8428909,225.898854 93.7471173,222.715455 93.5870906,219.457102 C89.5585387,222.768471 84.7971371,226.372951 79.8781335,229.424115" id="Fill-10" fill="#B4B4B0"></path>
            <path d="M22.4548425,237.738429 L45.8048043,234.639125 C45.7053938,234.002932 45.6114387,233.369177 45.5253637,232.743954 C39.7728875,229.285115 28.3443114,226.797018 19.9150243,225.335117 C20.0702017,228.1407 21.2352448,233.140051 22.4548425,237.738429" id="Fill-12" fill="#B4B4B0"></path>
            <path d="M25.2127579,177.983761 C24.6556951,180.785079 2.33499618,227.675622 2.33499618,227.675622 C2.33499618,227.675622 53.7793488,244.932643 115.203551,227.675622 L89.2980103,169.300101 L25.2127579,177.983761 Z" id="Fill-14" fill="#D8D8CF"></path>
            <path d="M14.3490034,143.041872 C12.8275371,137.999256 24.0087991,132.86767 25.5563304,133.353346 C25.9909485,135.415486 27.6960819,152.111269 28.9393199,157.972892 C20.3754648,152.658492 16.6021071,147.24781 14.3490034,143.041872 M33.9395492,105.880684 C33.9395492,105.880684 4.02303578,116.443061 0.649744919,139.19364 C-4.22137195,172.042248 19.9002339,197.202924 19.9002339,197.202924 L25.8315279,170.448111 C26.2667521,172.424329 26.554679,173.679042 26.6062028,173.782027 C34.9651751,178.264014 46.2197827,177.018442 46.2197827,177.018442 C46.2197827,177.018442 55.934133,137.550752 56.1117385,137.207062 C39.364698,128.923156 33.9395492,105.880684 33.9395492,105.880684" id="Fill-16" fill="#D8D8CF"></path>
            <path d="M48.7949403,173.554668 C48.7949403,173.554668 47.4116789,163.413981 54.4813449,136.33376 C54.5698445,136.378854 61.4303847,137.210658 61.4303847,137.210658 C59.0221035,145.957083 50.68859,173.730778 50.68859,173.730778 L48.7949403,173.554668 Z" id="Fill-18" fill="#B7B6B1"></path>
            <g id="Group-22" transform="translate(47.886789, 104.910186)" fill="#D8D8CF">
                <path d="M54.5317775,35.6843565 C53.5922266,42.0371391 43.2317078,47.5532434 40.6446089,49.9529804 C41.8878469,44.0907484 43.1547252,26.7898516 43.5893433,24.7271016 C45.1368745,24.241426 56.0532439,30.6417402 54.5317775,35.6843565 M68.231036,31.8361242 C65.2372025,11.6455492 38.0744825,2.8138104 31.9983158,1.08195352 L30.9914809,0.524980544 L24.3043031,6.68763665 C23.4684058,6.96795128 2.17515129,43.6014166 0.503356825,72.1727895 C1.72295453,70.2105871 27.1841781,71.082 42.5243168,61.5135212 C42.8158807,62.7237491 43.0013662,63.3075348 43.049253,63.0905956 L48.980547,89.8454079 C48.980547,89.8454079 73.1021529,64.6847327 68.231036,31.8361242" id="Fill-20"></path>
            </g>
            <path d="M23.2758888,179.03494 C23.2758888,179.03494 63.2371108,192.27615 91.6424626,177.177551 C91.7958216,175.855807 88.0012482,166.741925 88.0012482,166.741925 C88.0012482,166.741925 72.2919569,173.434132 56.1116779,173.796713 C39.9313988,174.159903 25.6083997,169.300101 25.6083997,169.300101 L23.2758888,179.03494 Z" id="Fill-23" fill="#323230"></path>
            <path d="M20.0809914,206.854583 C20.0809914,206.854583 31.7296042,161.303456 30.3960481,159.234612 C29.062492,157.165159 26.3644654,157.439989 25.5782735,158.449731 C21.6885327,163.447863 20.0809914,206.854583 20.0809914,206.854583" id="Fill-25" fill="#5D5D5D"></path>
            <g id="Group-30" transform="translate(28.489608, 98.816390)">
                <path d="M4.86153951,2.45336235 C4.73788249,2.78973991 4.46874661,9.79699617 4.23779894,10.3838287 C2.67390129,14.3569839 -0.989134956,23.6609919 0.648714444,27.3032539 C0.942702956,27.958337 1.40277982,28.4025748 2.01560948,28.6237796 C2.45083371,28.7809995 2.86302379,28.8596095 3.25702901,28.8596095 C3.72922912,28.8596095 4.17536426,28.7468742 4.60331455,28.520185 C7.01765732,27.242316 8.24695361,22.5324209 9.23439132,18.747564 C9.97572729,15.9066362 10.5612797,13.6629005 11.4565808,13.2009907 C11.5681146,13.1430997 11.6832853,13.1144588 11.8008807,13.1144588 C11.8948358,13.1144588 11.9906094,13.1327402 12.0869891,13.1699124 C12.970167,13.5099462 12.5719186,16.0291216 12.1257835,18.185716 C11.5450804,20.9973936 10.7285803,23.8041961 9.93875142,26.5195917 C9.76114599,27.1307995 9.58354056,27.7413979 9.40896594,28.3519962 C9.33198338,28.6207327 9.20165857,29.0259701 9.0373887,29.5396771 C8.01236896,32.7425764 5.61196792,40.2428208 7.09827685,42.7284803 C7.35710797,43.1611398 7.71353116,43.4128136 8.18694359,43.4981267 C8.32090536,43.5218925 8.45304865,43.5340801 8.58216113,43.5340801 C11.895442,43.5340801 13.7072598,35.8808815 14.4989072,32.5414811 C14.6013486,32.1082122 14.6892421,31.7364907 14.7644061,31.4470353 C14.861392,31.0710481 14.9947477,30.4927469 15.1493189,29.823648 C15.5736323,27.983931 16.2149515,25.2039411 16.9502259,22.9461896 C17.8170374,20.2844194 18.6044417,18.9864409 19.3536577,18.9864409 C19.3857843,18.9864409 19.4173047,18.9888784 19.4494313,18.9937534 C21.1169827,19.2411615 20.5023345,25.7011949 19.6815913,31.9875551 C19.6240059,32.4238709 19.5773315,32.7846236 19.5464172,33.0442193 C19.511866,33.3336746 19.4506436,33.746834 19.3724488,34.2696817 C18.901461,37.4354089 17.9200849,44.0215838 19.5464172,46.1434437 C19.8355564,46.5206496 20.2004659,46.73637 20.631447,46.7832923 C20.7247959,46.7942611 20.8175387,46.7991361 20.9078568,46.7991361 C24.5254309,46.7991361 25.7044158,38.6413711 26.2148041,35.1094069 C26.266934,34.746826 26.3136085,34.4275111 26.3554336,34.1618216 C26.4112005,33.8071626 26.476666,33.2538459 26.5584979,32.5530594 C27.0185747,28.6402328 27.8799308,21.3855684 30.1118188,21.3855684 C30.1287913,21.3855684 30.14637,21.3855684 30.1639487,21.3867872 C32.3133987,21.4970849 32.1551905,25.9211809 31.9721296,31.0430167 C31.7987673,35.9083035 31.6011585,41.4225797 33.591188,43.3116566 C34.0797545,43.7760038 34.6701561,44.0039118 35.3866395,44.0039118 C35.4987794,44.0039118 35.613344,43.9984274 35.7315456,43.9868492 C36.433481,43.9216456 37.0178211,43.6035494 37.4688055,43.0417014 C39.3291163,40.7224026 38.6083899,34.7395134 38.2622714,31.863851 C38.2095354,31.4263164 38.1640732,31.0485011 38.1361898,30.7572176 C38.0961831,30.3446676 38.017382,29.7036002 37.9252454,28.9613759 C37.2693783,23.6536794 36.6826136,17.9645112 38.0307176,17.6531182 C38.0852722,17.6403213 38.1386144,17.6342275 38.1907443,17.6342275 C38.3247061,17.6342275 38.4526063,17.6750559 38.5726263,17.7567128 C39.3836709,18.3106389 39.7588851,20.7767982 40.1941093,23.6323511 C40.7760248,27.4525519 41.499782,32.2069317 43.5298182,33.5433012 C43.9086693,33.7925375 44.3147978,33.9168509 44.7585083,33.9168509 C44.9906683,33.9168509 45.2331331,33.8827257 45.487721,33.8150845 C47.8772112,33.1782828 47.1110226,27.5969749 46.7430823,24.9144858 C46.6848908,24.4903576 46.6345793,24.1235111 46.6048774,23.8438058 C46.5800248,23.6067571 46.5448674,23.3087705 46.5042545,22.9650804 C45.9659828,18.3758425 45.6532032,14.090685 46.9982765,13.8085422 C47.0346462,13.8006203 47.071622,13.796964 47.1079918,13.796964 C48.4615512,13.796964 49.8605728,18.9858315 51.171701,24.6219836 C51.3189983,25.255129 51.4353814,25.7554297 51.5196379,26.0814478 C51.5729802,26.2880275 51.636021,26.5470138 51.7099727,26.8480473 C52.3816001,29.5957401 53.9551964,36.0301795 56.5041071,37.4043305 C56.822342,37.5761756 57.1484571,37.6620981 57.4794215,37.6620981 C57.7127938,37.6620981 57.9479847,37.6194415 58.1843878,37.5341284 C60.9151471,36.5475428 58.8075222,28.9309069 58.0134501,26.0637758 C57.9291936,25.7584766 57.8576665,25.5000996 57.8055366,25.3008325 C56.4598572,20.1351214 54.7765457,14.9694104 53.1477887,9.97371626 C52.6646777,8.49109564 51.2226186,1.55513679 50.7395076,0.045094092" id="Fill-27" fill="#388149"></path>
                <path d="M4.86153951,2.45336235 C4.73788249,2.78973991 4.46874661,9.79699617 4.23779894,10.3838287 C2.67390129,14.3569839 -0.989134956,23.6609919 0.648714444,27.3032539 C0.942702956,27.958337 1.40277982,28.4025748 2.01560948,28.6237796 C2.45083371,28.7809995 2.86302379,28.8596095 3.25702901,28.8596095 C3.72922912,28.8596095 4.17536426,28.7468742 4.60331455,28.520185 C7.01765732,27.242316 8.24695361,22.5324209 9.23439132,18.747564 C9.97572729,15.9066362 10.5612797,13.6629005 11.4565808,13.2009907 C11.5681146,13.1430997 11.6832853,13.1144588 11.8008807,13.1144588 C11.8948358,13.1144588 11.9906094,13.1327402 12.0869891,13.1699124 C12.970167,13.5099462 12.5719186,16.0291216 12.1257835,18.185716 C11.5450804,20.9973936 10.7285803,23.8041961 9.93875142,26.5195917 C9.76114599,27.1307995 9.58354056,27.7413979 9.40896594,28.3519962 C9.33198338,28.6207327 9.20165857,29.0259701 9.0373887,29.5396771 C8.01236896,32.7425764 5.61196792,40.2428208 7.09827685,42.7284803 C7.35710797,43.1611398 7.71353116,43.4128136 8.18694359,43.4981267 C8.32090536,43.5218925 8.45304865,43.5340801 8.58216113,43.5340801 C11.895442,43.5340801 13.7072598,35.8808815 14.4989072,32.5414811 C14.6013486,32.1082122 14.6892421,31.7364907 14.7644061,31.4470353 C14.861392,31.0710481 14.9947477,30.4927469 15.1493189,29.823648 C15.5736323,27.983931 16.2149515,25.2039411 16.9502259,22.9461896 C17.8170374,20.2844194 18.6044417,18.9864409 19.3536577,18.9864409 C19.3857843,18.9864409 19.4173047,18.9888784 19.4494313,18.9937534 C21.1169827,19.2411615 20.5023345,25.7011949 19.6815913,31.9875551 C19.6240059,32.4238709 19.5773315,32.7846236 19.5464172,33.0442193 C19.511866,33.3336746 19.4506436,33.746834 19.3724488,34.2696817 C18.901461,37.4354089 17.9200849,44.0215838 19.5464172,46.1434437 C19.8355564,46.5206496 20.2004659,46.73637 20.631447,46.7832923 C20.7247959,46.7942611 20.8175387,46.7991361 20.9078568,46.7991361 C24.5254309,46.7991361 25.7044158,38.6413711 26.2148041,35.1094069 C26.266934,34.746826 26.3136085,34.4275111 26.3554336,34.1618216 C26.4112005,33.8071626 26.476666,33.2538459 26.5584979,32.5530594 C27.0185747,28.6402328 27.8799308,21.3855684 30.1118188,21.3855684 C30.1287913,21.3855684 30.14637,21.3855684 30.1639487,21.3867872 C32.3133987,21.4970849 32.1551905,25.9211809 31.9721296,31.0430167 C31.7987673,35.9083035 31.6011585,41.4225797 33.591188,43.3116566 C34.0797545,43.7760038 34.6701561,44.0039118 35.3866395,44.0039118 C35.4987794,44.0039118 35.613344,43.9984274 35.7315456,43.9868492 C36.433481,43.9216456 37.0178211,43.6035494 37.4688055,43.0417014 C39.3291163,40.7224026 38.6083899,34.7395134 38.2622714,31.863851 C38.2095354,31.4263164 38.1640732,31.0485011 38.1361898,30.7572176 C38.0961831,30.3446676 38.017382,29.7036002 37.9252454,28.9613759 C37.2693783,23.6536794 36.6826136,17.9645112 38.0307176,17.6531182 C38.0852722,17.6403213 38.1386144,17.6342275 38.1907443,17.6342275 C38.3247061,17.6342275 38.4526063,17.6750559 38.5726263,17.7567128 C39.3836709,18.3106389 39.7588851,20.7767982 40.1941093,23.6323511 C40.7760248,27.4525519 41.499782,32.2069317 43.5298182,33.5433012 C43.9086693,33.7925375 44.3147978,33.9168509 44.7585083,33.9168509 C44.9906683,33.9168509 45.2331331,33.8827257 45.487721,33.8150845 C47.8772112,33.1782828 47.1110226,27.5969749 46.7430823,24.9144858 C46.6848908,24.4903576 46.6345793,24.1235111 46.6048774,23.8438058 C46.5800248,23.6067571 46.5448674,23.3087705 46.5042545,22.9650804 C45.9659828,18.3758425 45.6532032,14.090685 46.9982765,13.8085422 C47.0346462,13.8006203 47.071622,13.796964 47.1079918,13.796964 C48.4615512,13.796964 49.8605728,18.9858315 51.171701,24.6219836 C51.3189983,25.255129 51.4353814,25.7554297 51.5196379,26.0814478 C51.5729802,26.2880275 51.636021,26.5470138 51.7099727,26.8480473 C52.3816001,29.5957401 53.9551964,36.0301795 56.5041071,37.4043305 C56.822342,37.5761756 57.1484571,37.6620981 57.4794215,37.6620981 C57.7127938,37.6620981 57.9479847,37.6194415 58.1843878,37.5341284 C60.9151471,36.5475428 58.8075222,28.9309069 58.0134501,26.0637758 C57.9291936,25.7584766 57.8576665,25.5000996 57.8055366,25.3008325 C56.4598572,20.1351214 54.7765457,14.9694104 53.1477887,9.97371626 C52.6646777,8.49109564 51.2226186,1.55513679 50.7395076,0.045094092" id="Stroke-29" stroke="#388149"></path>
            </g>
            <path d="M26.186072,66.1769206 C26.186072,66.1769206 56.4256697,71.3816319 89.1559866,65.1001468 C88.344942,62.5310023 62.3502959,45.9479547 53.6973351,46.0740963 C46.1081883,46.184394 26.186072,66.1769206 26.186072,66.1769206" id="Fill-31" fill="#B42C32"></path>
            <path d="M89.4051191,78.3208814 C88.8898815,60.7098104 71.4433303,49.5715697 56.8117948,51.3028172 C42.1808655,53.0340647 22.7970209,66.598855 25.3713904,87.0356194 C26.2854825,94.2915025 29.709691,99.1799458 33.7455168,102.469986 C33.7436983,102.468768 33.7406675,102.468158 33.7394552,102.467549 C33.7637017,102.48583 33.7867358,102.504721 33.8103761,102.523612 C33.8564444,102.560784 33.9079682,102.592472 33.9491872,102.635128 C47.8848488,117.271208 68.1676315,110.347437 77.4491822,102.156156 C77.4473637,102.157375 77.4431206,102.159203 77.4376651,102.161031 C85.5499296,96.5766761 89.6906214,88.0861898 89.4051191,78.3208814" id="Fill-33" fill="#388149"></path>
            <path d="M89.4051191,78.3208814 C88.8898815,60.7098104 71.4433303,49.5715697 56.8117948,51.3028172 C42.1808655,53.0340647 22.7970209,66.598855 25.3713904,87.0356194 C26.2854825,94.2915025 29.709691,99.1799458 33.7455168,102.469986 C33.7436983,102.468768 33.7406675,102.468158 33.7394552,102.467549 C33.7637017,102.48583 33.7867358,102.504721 33.8103761,102.523612 C33.8564444,102.560784 33.9079682,102.592472 33.9491872,102.635128 C47.8848488,117.271208 68.1676315,110.347437 77.4491822,102.156156 C77.4473637,102.157375 77.4431206,102.159203 77.4376651,102.161031 C85.5499296,96.5766761 89.6906214,88.0861898 89.4051191,78.3208814 L89.4051191,78.3208814 Z" id="Stroke-35" stroke="#388149"></path>
            <path d="M84.9752881,94.5677952 C83.4932223,96.2186046 81.7783903,97.7268192 79.8332169,99.0656262 C79.8386723,99.0637981 79.8429155,99.06197 79.8453401,99.0607512 C78.7257591,99.9205858 77.935324,101.050376 77.3770489,102.213681 C77.4012954,102.194791 77.4249357,102.174681 77.4491822,102.15579 C77.4473637,102.157618 77.4431206,102.158837 77.4376651,102.161275 C80.5400016,100.02479 83.0598166,97.4629578 84.9752881,94.5677952" id="Fill-37" fill="#32673E"></path>
            <path d="M73.5989026,84.9863976 C72.9575833,89.2380392 68.4313725,92.5768301 64.7792472,94.1660922 C57.5471298,97.3135379 48.1595008,95.7833857 43.5047837,88.968084 C37.8717213,80.7201309 43.7727072,71.1321519 51.3048748,66.6983058 C51.4788432,66.59593 51.6073495,66.4746635 51.6958492,66.3430375 C53.2488359,65.4685777 55.0358011,65.3485299 56.7827597,64.9743708 C59.2443831,64.4478668 60.8998112,64.3978977 63.2777842,65.3521862 C67.2578431,66.9493702 70.0722527,69.0072452 71.627058,73.1632142 C72.8660528,76.4758018 74.1335373,81.4391988 73.5989026,84.9863976" id="Fill-39" fill="#32673E"></path>
            <path d="M73.2693323,74.6896492 C71.7787803,67.7914719 66.5821545,63.2461093 59.4361121,63.3350787 C55.1511537,63.3880947 51.0777459,65.1875928 47.9948066,68.0669115 C47.1001116,68.740276 46.2811869,69.504438 45.5556112,70.3496475 C45.0185518,70.8237449 44.5918138,71.4325151 44.24812,72.1089265 C44.1935654,72.1936303 44.143254,72.2813809 44.0911241,72.3679128 C43.8710873,72.4830856 43.6777217,72.6762589 43.5473969,72.9687611 C43.3891886,73.3234201 43.2485591,73.6823447 43.1158096,74.0430974 C41.86651,77.1996839 40.7784494,80.575647 41.510693,83.9778134 C42.2787001,87.5469498 44.8682236,90.7212083 47.4468362,93.1812738 C50.1503182,95.7607777 53.2653841,96.602331 56.930845,96.4786269 C60.6417681,96.3530947 64.7624565,96.098374 68.078162,94.2574382 C74.8641442,90.4902534 74.7004805,81.3111682 73.2693323,74.6896492" id="Fill-41" fill="#FEFEFE"></path>
            <path d="M66.8715362,81.9934905 C66.069584,81.1988595 64.7990687,81.3658295 63.7552579,81.2360316 C62.6587111,81.0989212 61.5942908,80.85456 60.5474493,80.5413389 C61.8664575,79.520628 63.1927397,78.498089 64.4159744,77.3859712 C64.9663694,76.8856705 65.4864563,76.3963387 65.6446645,75.7784278 C65.6864897,75.6687394 65.706493,75.5535667 65.7070992,75.4347377 C65.7095238,75.4286439 65.7131608,75.4243782 65.7155855,75.4182844 C66.4981404,73.4804572 64.3686938,71.4298948 62.8320734,70.7358114 C60.6171579,69.7352101 57.3275174,69.7437414 55.0950232,70.6760922 C53.9202814,71.1672522 53.0019462,71.9893053 52.2272713,72.9521251 C50.6682229,74.3073854 49.8050484,76.8070606 49.4322589,78.6802935 C48.9127781,81.2902664 49.3904337,84.0403967 51.065259,86.1433657 C52.0205701,87.3420155 53.304421,88.227444 54.7185966,88.7588231 C58.1779625,90.8039011 63.6006867,89.7783152 66.1320187,86.7777299 C67.1618877,85.5565332 68.2529791,83.3621571 66.8715362,81.9934905" id="Fill-43" fill="#323230"></path>
            <path d="M73.2116257,35.8520578 C73.2116257,35.8520578 79.8109101,31.834418 80.6649922,25.2890715 C74.7385475,27.3573059 70.640287,25.7119809 70.640287,25.7119809 C70.640287,25.7119809 74.5579113,23.097133 74.358484,17.8771871 C69.2261114,20.0179377 65.4594214,18.2592682 65.4594214,18.2592682 C65.4594214,18.2592682 67.3767115,11.4549353 61.5399787,7.86447057 C61.421171,5.64267248 61.5854409,2.14483345 58.3746014,0.0400362411 C58.3739952,0.0394268615 58.3733891,0.0382081022 58.3733891,0.0375987226 C58.3727829,0.0375987226 58.3727829,0.0382081022 58.3721767,0.0382081022 C58.3527796,0.0260205098 58.3352009,0.0126141582 58.3158037,0.000426565735 C58.3085297,0.00773912119 58.3036804,0.0406456207 58.2994373,0.0967085459 C55.2795388,2.44282009 55.7087014,5.90775261 55.7602252,8.12772257 C50.2156625,12.1587688 52.6475839,18.7949128 52.6475839,18.7949128 C52.6475839,18.7949128 49.026979,20.8399908 43.7454906,19.1020402 C43.9467363,24.321986 48.0522707,26.6266597 48.0522707,26.6266597 C48.0522707,26.6266597 44.0922152,28.5833777 38.0251409,26.9794905 C39.3774881,33.4395239 46.2646993,36.9349254 46.2646993,36.9349254 C46.2646993,36.9349254 40.4619117,40.3352637 34.1287323,35.7539477 C36.9128339,45.1511908 48.1965373,49.3479883 48.1965373,49.3479883 L60.054276,49.2590189 C60.054276,49.2590189 59.8130235,40.5290464 59.5093364,30.421876 C59.979718,40.50589 60.4058498,49.2060028 60.4058498,49.2060028 L72.2350989,48.3778559 C72.2350989,48.3778559 83.1648038,43.3206144 85.2215111,33.7362918 C79.2574843,38.7935332 73.2116257,35.8520578 73.2116257,35.8520578" id="Fill-45" fill="#E18C26"></path>
            <path d="M26.186072,66.1769206 C27.9221196,62.3817043 86.3803713,59.0136631 89.1559866,65.1001468 C88.5201228,65.1269595 59.3455515,7.38945916 59.3455515,7.38945916 L26.186072,66.1769206 Z" id="Fill-47" fill="#EF4144"></path>
            <g id="Group-55" transform="translate(26.064961, 7.342656)" fill="#B42C32">
                <path d="M35.1415076,4.60319599 L33.2805906,0.0468645617 L0.121111144,58.834326 C0.578157201,57.8355528 4.9637384,56.8666392 11.2278153,56.0915083 L35.1415076,4.60319599 Z" id="Fill-49"></path>
                <path id="Fill-51"></path>
                <path d="M45.2204037,54.4698882 C54.1994796,54.6898742 61.3637069,55.5783497 62.8900225,57.4436607 C62.6566501,56.9957667 62.2371861,56.0798692 61.6661816,54.7843281 C56.938119,54.4254035 51.1692763,54.3437466 45.2204037,54.4698882" id="Fill-53"></path>
            </g>
            <path d="M96.6865781,204.407253 C96.6865781,204.407253 85.0379652,158.856127 86.3715214,156.787283 C87.7050775,154.717829 90.403104,154.99266 91.189296,156.002402 C95.0790368,161.000533 96.6865781,204.407253 96.6865781,204.407253" id="Fill-56" fill="#5D5D5D"></path>
            <path d="M76.8377467,161.234535 C78.1003819,159.406396 80.0200966,163.417942 80.0200966,163.417942 C80.0200966,163.417942 75.4950981,150.796472 77.9724818,150.708721 C80.4492592,150.62097 81.4342722,158.586781 81.4342722,158.586781 C81.4342722,158.586781 79.8430973,148.564923 81.8131234,148.945176 C83.7831495,149.326039 83.7176841,158.847595 83.7176841,158.847595 C83.7176841,158.847595 83.2527579,150.415609 84.8439328,150.708721 C86.4351078,151.001833 85.6452788,164.715921 87.2528201,164.790875 C88.8597553,164.865219 93.1544122,161.555069 93.1544122,161.555069 L95.7997026,171.378268 C95.7997026,171.378268 87.6153049,174.857826 85.0712435,174.045523 C80.5626115,172.605559 75.9672983,162.494123 76.8377467,161.234535" id="Fill-58" fill="#388149"></path>
            <path d="M93.5104111,172.277103 C93.5716334,169.990711 93.5231405,165.584896 92.4811482,162.05476 C92.8927321,161.756774 93.1521694,161.556897 93.1533817,161.555678 C93.158231,161.570913 93.1624742,161.587366 93.1667173,161.6026 L93.4152437,162.523373 C94.0038268,164.856688 94.5239137,168.066899 94.9791413,171.713427 C94.59241,171.866991 94.0892957,172.062602 93.5104111,172.277103" id="Fill-60" fill="#2E6839"></path>
            <path d="M50.7199892,184.40583 C50.3453811,184.311376 54.1551085,235.340825 54.1551085,235.340825 C54.134499,235.337169 60.4500997,235.33656 60.4500997,235.33656 C60.4500997,235.33656 52.6875906,192.507532 50.7199892,184.40583" id="Fill-62" fill="#B7B6B1"></path>
            <path d="M57.8372389,184.294496 C56.7170517,184.398091 41.129599,185.627819 41.3950979,171.497524 C41.6599906,157.367229 49.8777272,156.290455 49.614653,148.430677 C50.1462569,148.835915 52.0059616,155.767608 49.8825765,160.299564 C47.7597976,164.83213 63.4066542,147.236293 55.980565,135.772034 C56.5109567,135.238827 65.0778425,141.904831 66.0986191,153.36848 C66.0986191,153.36848 70.2114275,149.891969 70.7866751,148.430677 C71.3625289,146.969385 83.8270357,181.894759 57.8372389,184.294496" id="Fill-64" fill="#E18C26"></path>
            <path d="M57.8355416,182.624125 C57.181493,182.684454 48.07876,183.402303 48.2339374,175.151303 C48.3885087,166.899694 53.1874923,166.270814 53.0335272,161.680967 C53.3444883,161.917406 54.4301242,165.965515 53.1905231,168.61205 C51.9503159,171.258586 61.0876001,160.983227 56.7517242,154.288582 C57.0614729,153.97719 62.0635207,157.869907 62.659984,164.564551 C62.659984,164.564551 65.0615974,162.534098 65.3974111,161.680967 C65.7338309,160.827835 73.0126228,181.223162 57.8355416,182.624125" id="Fill-66" fill="#B42C32"></path>
            <path d="M37.63156,88.792278 C37.63156,89.3193914 36.8471865,89.7465665 35.8803583,89.7465665 C34.912924,89.7465665 34.1285505,89.3193914 34.1285505,88.792278 C34.1285505,88.2651646 34.912924,87.8379895 35.8803583,87.8379895 C36.8471865,87.8379895 37.63156,88.2651646 37.63156,88.792278" id="Fill-68" fill="#32673E"></path>
            <path d="M84.3655499,85.0472746 C84.3655499,85.574388 83.5811764,86.0015631 82.6143482,86.0015631 C81.6469138,86.0015631 80.8625404,85.574388 80.8625404,85.0472746 C80.8625404,84.5201612 81.6469138,84.0929861 82.6143482,84.0929861 C83.5811764,84.0929861 84.3655499,84.5201612 84.3655499,85.0472746" id="Fill-70" fill="#32673E"></path>
            <path d="M40.8681614,92.7608628 C40.8681614,93.5110091 39.7516112,94.1197793 38.3744114,94.1197793 C36.9966054,94.1197793 35.8800552,93.5110091 35.8800552,92.7608628 C35.8800552,92.0107165 36.9966054,91.4019462 38.3744114,91.4019462 C39.7516112,91.4019462 40.8681614,92.0107165 40.8681614,92.7608628" id="Fill-72" fill="#32673E"></path>
            <path d="M82.6141663,88.792278 C82.6141663,89.5424243 81.4976162,90.1511946 80.1204164,90.1511946 C78.7426104,90.1511946 77.6260602,89.5424243 77.6260602,88.792278 C77.6260602,88.0421317 78.7426104,87.4333615 80.1204164,87.4333615 C81.4976162,87.4333615 82.6141663,88.0421317 82.6141663,88.792278" id="Fill-74" fill="#32673E"></path>
            <path d="M40.8193047,160.620951 C39.5566695,158.792812 37.6369548,162.804358 37.6369548,162.804358 C37.6369548,162.804358 42.1619533,150.182887 39.6845697,150.095137 C37.2077922,150.007386 36.2227792,157.973196 36.2227792,157.973196 C36.2227792,157.973196 37.8139541,147.951339 35.843928,148.331592 C33.8739019,148.712454 33.9393674,158.234011 33.9393674,158.234011 C33.9393674,158.234011 34.4042935,149.802025 32.8131186,150.095137 C31.2219437,150.388248 32.0117726,164.102337 30.4042313,164.17729 C28.7972961,164.251635 24.5026392,160.941485 24.5026392,160.941485 L21.8573488,170.764684 C21.8573488,170.764684 30.0417465,174.244242 32.5858079,173.431939 C37.09444,171.991975 41.6897532,161.880539 40.8193047,160.620951" id="Fill-76" fill="#388149"></path>
            <path d="M29.5822758,158.355034 C29.5865189,158.33858 29.590762,158.323346 29.590762,158.323346 L20.9802325,151.884031 C8.63817049,153.199073 16.7267946,202.917137 16.7267946,202.917137 L20.0806883,206.854339 C20.0806883,206.854339 21.6882296,163.448229 25.5785766,158.449487 C26.2259574,157.617075 28.1711309,157.28801 29.5822758,158.355034" id="Fill-78" fill="#B7B6B1"></path>
            <path d="M24.1466403,171.663519 C24.085418,169.377127 24.1339109,164.971312 25.1759032,161.441176 C24.7643193,161.143189 24.504882,160.943313 24.5036697,160.942094 C24.4988204,160.957328 24.4945773,160.973782 24.4903341,160.989016 L24.2418078,161.909789 C23.6532246,164.243103 23.1331377,167.453315 22.6779101,171.099843 C23.0646414,171.253406 23.5677558,171.449017 24.1466403,171.663519" id="Fill-80" fill="#2E6839"></path>
            <path d="M95.7875794,149.436519 L87.1764437,155.875834 C87.1764437,155.875834 87.1806869,155.891068 87.18493,155.907521 C88.5960749,154.840498 90.5412483,155.170172 91.1892354,156.001975 C95.0795823,161.000716 96.6865175,204.407436 96.6865175,204.407436 L100.041017,200.469625 C100.041017,200.469625 108.129641,150.75156 95.7875794,149.436519" id="Fill-82" fill="#B7B6B1"></path>
        </g>
    </g>
</svg>