<?xml version="1.0" encoding="UTF-8" standalone="no"?>
<svg width="156px" height="221px" viewBox="0 0 156 221" version="1.1" xmlns="http://www.w3.org/2000/svg" xmlns:xlink="http://www.w3.org/1999/xlink">
    <!-- Generator: Sketch 3.8.3 (29802) - http://www.bohemiancoding.com/sketch -->
    <title>monster-clyde</title>
    <desc>Created with Sketch.</desc>
    <defs></defs>
    <g id="Page-1" stroke="none" stroke-width="1" fill="none" fill-rule="evenodd">
        <g id="monster-clyde" transform="translate(0.791924, 0.544575)">
            <g id="Group-3" transform="translate(38.599901, 167.647950)" fill="#284B70">
                <path d="M10.530053,0.120457402 C10.530053,0.120457402 12.427494,21.2025964 14.0965909,28.2309066 C14.0965909,28.2309066 -0.844361212,31.4631104 0.10017372,35.2652652 C0.67777706,37.5920612 9.68550581,35.0577565 9.68550581,35.0577565 C9.68550581,35.0577565 2.85890401,40.0616938 3.91365794,42.0730393 C5.48881294,45.0767974 17.4282739,40.9340678 17.4282739,40.9340678 C17.4282739,40.9340678 14.0705476,46.3162664 15.4592139,47.1849183 C19.6191671,49.7866865 30.9494008,32.8989217 31.1744894,32.280583 C32.0181065,29.9616966 28.6213152,1.94569644 28.6213152,1.94569644 L10.530053,0.120457402 Z" id="Fill-1"></path>
            </g>
            <path d="M104.893046,196.588434 C106.504475,192.838389 107.641545,167.257126 107.641545,167.257126 L87.6384249,169.906351 C87.6384249,169.906351 85.9437497,189.463813 85.8907329,196.999264 C85.8809667,198.384361 89.7316556,211.728659 93.0875218,212.295353 C94.4840941,212.531243 97.3279302,208.535537 97.3279302,208.535537 C97.3279302,208.535537 102.466368,213.045362 104.098725,212.057602 C105.305553,211.327134 104.117792,206.413458 104.117792,206.413458 C104.117792,206.413458 111.773594,208.441088 112.72278,206.509303 C114.116097,203.673041 104.893046,196.588434 104.893046,196.588434" id="Fill-4" fill="#284B70"></path>
            <path d="M24.43923,75.374137 C24.4416254,75.4704471 24.7446369,75.1610451 25.2374796,74.5924899 C24.7410438,74.9865703 24.4362359,75.2713132 24.43923,75.374137" id="Fill-6" fill="#284B70"></path>
            <path d="M16.0426508,160.997156 C15.692523,161.481033 15.4928023,161.819282 15.5328697,161.917918 C15.569855,162.010041 15.7590966,161.648064 16.0426508,160.997156" id="Fill-8" fill="#284B70"></path>
            <path d="M136.314621,144.785004 L136.306715,145.335414 C136.282532,145.027873 136.256954,144.703118 136.230445,144.369522 L136.314621,144.785004 Z M141.621875,149.355779 L135.87514,139.944376 C134.65529,125.067491 132.043519,96.4280343 127.79753,70.2810082 L130.757165,74.4856183 L126.274461,61.4218758 L126.274926,61.4283895 C126.206097,61.0491976 126.137269,60.6695405 126.067045,60.2926749 C123.968233,48.962514 121.821056,40.2322603 119.784562,36.6273784 C114.467077,27.215975 102.918266,20.2551284 86.9323257,19.0124026 C89.3376111,16.4269187 91.8479999,12.7629479 89.084619,10.8181355 C86.5635339,9.04407571 81.7431968,16.7121268 81.7431968,16.7121268 C81.7431968,16.7121268 85.5948159,3.96057795 80.610313,3.63768325 C75.6258101,3.31432329 77.389779,15.707152 77.389779,15.707152 C77.389779,15.707152 71.2175153,6.8503459 68.0606945,9.18412082 C65.7800449,10.86978 69.8093165,16.6251221 72.5080542,19.385546 C66.6487752,20.0927505 60.3886153,21.4759868 53.7838467,23.6455227 C49.8750254,24.929192 46.430333,28.3200516 43.3990781,33.3025866 C43.3967528,33.3063087 43.3944275,33.3100308 43.3921022,33.313753 C43.1167872,33.7664569 42.8451928,34.231723 42.5768537,34.7100166 C42.5731332,34.7165303 42.5698778,34.7235093 42.5661573,34.7300231 C42.303399,35.1990113 42.043896,35.6800965 41.7876485,36.1732786 C41.7802075,36.1872366 41.7727666,36.2011946 41.7653256,36.2151526 C41.5123335,36.7027515 41.2625968,37.2024473 41.0156504,37.7133095 C40.9942577,37.7579751 40.972865,37.8035711 40.9514723,37.8482367 C40.7170825,38.3353703 40.4859482,38.831344 40.2576042,39.3380188 C40.2455127,39.3650043 40.2334211,39.3910592 40.2213296,39.4175793 C39.9888001,39.9354206 39.759526,40.4644281 39.5325771,41.0022758 C39.4981628,41.0832321 39.4642135,41.1655842 39.4302641,41.247471 C39.2181972,41.7541459 39.0089206,42.2682649 38.8019694,42.7921546 C38.7880176,42.8275148 38.7736008,42.8619445 38.759649,42.8973047 C38.5457218,43.4416661 38.334585,43.9967286 38.1257735,44.5587701 C38.0829881,44.6746214 38.0397376,44.7914032 37.9974172,44.908185 C37.8016273,45.4409147 37.6076977,45.9792276 37.4165585,46.5268458 C37.4040019,46.5631366 37.3909802,46.5980316 37.3784236,46.6343223 C37.1803085,47.2052039 36.9849837,47.7863213 36.7915191,48.3730219 C36.7440831,48.5158586 36.6975772,48.6591605 36.6506062,48.8029278 C36.460397,49.3868368 36.2715831,49.9749332 36.0864896,50.5732654 C36.0841643,50.5811749 36.0813739,50.5890844 36.0790486,50.5974592 C35.4061082,52.7702521 34.7578159,54.944906 34.1309163,57.1172335 L27.0210935,64.3130395 L32.3469497,62.7869666 C32.3469497,62.7869666 26.9192456,71.8280181 25.0590094,74.5926295 C26.3681506,73.2531283 29.4105669,70.6369368 30.805279,69.4495776 C29.3277864,75.3221668 28.0125994,81.1324102 26.8527421,86.8105181 C26.7034582,87.542847 26.5560344,88.2728496 26.4118661,89.0005258 C25.9788962,91.1830892 25.568249,93.3447157 25.1803898,95.4812177 C25.0511034,96.1935402 24.9241422,96.903071 24.7999715,97.609345 C24.3028233,100.435372 23.8447402,103.214406 23.4252569,105.937144 C23.3201536,106.617828 23.2178406,107.29479 23.1178529,107.96803 C21.1790217,121.004787 20.1312437,132.659239 19.8312806,141.864064 L15.0193146,150.570589 L19.732223,147.657092 C19.732223,147.657092 16.9572156,157.831532 15.9164135,160.997203 C16.794445,159.387847 18.9392973,156.15006 19.9875404,154.587231 C20.0875281,155.887185 20.2172796,157.054538 20.3749346,158.076727 C20.4139996,158.328902 20.4544597,158.571771 20.4972451,158.806265 C20.5465414,159.080306 20.5990931,159.338529 20.653505,159.588377 C20.7381457,159.97827 20.8279021,160.342108 20.9237043,160.670586 C21.0274124,161.027445 21.1385616,161.408033 21.2594769,161.809558 C22.5848952,166.212836 25.0631949,173.124365 31.829339,178.982065 C32.1920851,179.29612 32.5678528,179.606918 32.955712,179.914459 C33.5314551,180.370419 34.1360319,180.818471 34.7699074,181.257217 C34.8898926,181.340499 35.0117381,181.422851 35.1340486,181.505203 C36.9138296,182.70559 38.9186992,183.831069 41.1900476,184.841627 C42.2517774,185.313407 43.4367479,185.735868 44.7268217,186.112269 C45.1323532,186.230912 45.5518364,186.343041 45.9773655,186.452843 C47.0897867,186.738517 48.2701066,186.994413 49.5076287,187.222394 C50.313111,187.371279 51.1423113,187.508532 51.9942995,187.634154 C52.2807758,187.676493 52.5695775,187.717437 52.8607045,187.75745 C53.3866863,187.829101 53.920574,187.897495 54.4619028,187.961236 C55.1162409,188.038936 55.7808102,188.111052 56.4551459,188.177585 C57.1243658,188.243188 57.8024219,188.304137 58.4888491,188.359504 C58.6665017,188.373927 58.8441542,188.387885 59.0227369,188.401378 C60.6564893,188.526535 62.3344224,188.623775 64.0444445,188.695892 C64.6192575,188.720085 65.1968608,188.741488 65.7777196,188.760098 C66.6301728,188.787549 67.4886718,188.809416 68.3522865,188.825235 C68.4285562,188.827097 68.5043608,188.828492 68.5806305,188.829423 C69.4716836,188.845242 70.3678524,188.855478 71.2672766,188.86013 C71.3184331,188.860596 71.3695896,188.860596 71.4202811,188.861061 C90.1849487,188.94667 110.307589,186.742239 115.685067,186.057367 C116.071531,186.008049 116.449159,185.944773 116.822136,185.874983 C116.909567,185.858699 116.996533,185.842414 117.082569,185.825199 C117.449036,185.751687 117.810386,185.671196 118.163831,185.578608 C118.197781,185.569768 118.2308,185.559533 118.264749,185.550227 C118.593546,185.462292 118.916297,185.365051 119.234397,185.261297 C119.309272,185.236638 119.384146,185.212909 119.458556,185.187785 C119.797119,185.072399 120.130566,184.949569 120.457037,184.816503 C120.503543,184.797892 120.549119,184.776955 120.59516,184.757879 C120.892333,184.634118 121.18346,184.503378 121.470401,184.36566 C121.528068,184.338209 121.586666,184.311223 121.643868,184.282842 C121.959643,184.127443 122.269373,183.964135 122.573056,183.792452 C122.619562,183.766397 122.665138,183.738481 122.711644,183.711961 C122.993004,183.549583 123.26925,183.380691 123.540379,183.204821 C123.575723,183.182023 123.611998,183.160155 123.647343,183.136892 C123.94312,182.942411 124.232387,182.739554 124.516073,182.529719 C124.556998,182.499012 124.597458,182.467839 124.638848,182.437132 C124.916489,182.228227 125.189478,182.013274 125.455957,181.790412 C125.462933,181.784828 125.469909,181.779245 125.476885,181.773197 C125.75592,181.539633 126.02705,181.297229 126.293529,181.048777 C126.325153,181.019 126.356312,180.989223 126.387936,180.959446 C126.919963,180.457424 127.427343,179.927486 127.910539,179.372889 C127.931001,179.34916 127.951464,179.325432 127.971927,179.302168 C128.463029,178.734078 128.929018,178.140864 129.371289,177.525782 C129.381056,177.512289 129.390822,177.498797 129.400588,177.485304 C134.508797,170.353705 136.416004,160.351879 136.667136,153.359859 C137.703752,154.766824 140.179262,158.159545 141.175418,159.811239 C139.998819,156.693956 136.787121,146.648861 136.787121,146.648861 L141.621875,149.355779 Z" id="Fill-10" fill="#284B70"></path>
            <ellipse id="Oval-4-Copy-4" fill="#6F8017" opacity="0.163887593" style="mix-blend-mode: multiply;" cx="77.642468" cy="208.9764" rx="55.689558" ry="10.5004241"></ellipse>
            <path d="M141.79331,160.714414 C141.830556,160.614847 141.590825,160.283578 141.175697,159.811333 C141.527845,160.452469 141.758095,160.807467 141.79331,160.714414" id="Fill-12" fill="#284B70"></path>
            <path d="M30.0930924,75.9573016 C30.0954878,76.0536117 30.3984993,75.7442097 30.891342,75.1756545 C30.3949062,75.5697349 30.0900983,75.8544777 30.0930924,75.9573016" id="Fill-14" fill="#284B70"></path>
            <path d="M21.6964667,161.580321 C21.3463389,162.064198 21.1466182,162.402446 21.1866856,162.501083 C21.2236709,162.593205 21.4129125,162.231228 21.6964667,161.580321" id="Fill-16" fill="#284B70"></path>
            <path d="M54.5085017,85.4468231 C54.5085017,85.4468231 92.8475048,93.326105 107.634987,87.9462327 C108.448376,88.5129269 102.110086,114.893517 79.0310654,113.981595 C55.9515799,113.069673 54.5085017,85.4468231 54.5085017,85.4468231" id="Fill-18" fill="#1A3C55"></path>
            <path d="M58.5143808,188.340428 C58.2232539,188.300415 57.9344522,188.259472 57.6479758,188.217133 C56.7959876,188.091511 55.9672524,187.954257 55.1613051,187.805837 C53.924248,187.577392 52.7434631,187.321495 51.6315069,187.035822 C51.2055128,186.926484 50.7860295,186.81389 50.380498,186.695712 C49.0904242,186.318847 47.9054538,185.89685 46.843724,185.424605 C44.5723756,184.414513 42.5679711,183.288569 40.787725,182.088182 C40.6658795,182.00583 40.543569,181.923478 40.4235838,181.840195 C39.7901733,181.401449 39.1851315,180.953863 38.6093884,180.497437 C38.2219942,180.189896 37.8457615,179.879564 37.4830154,179.565509 C30.7168713,173.707343 28.2390366,166.795815 26.9136183,162.393001 C26.792703,161.991477 26.6810888,161.610889 26.5773807,161.253565 C26.4815785,160.925087 26.3918221,160.561249 26.3071813,160.171355 C26.2532345,159.921508 26.2002178,159.663285 26.1509215,159.389243 C26.1086011,159.154749 26.0676759,158.91188 26.029076,158.660171 C25.870956,157.637981 25.7412045,156.470163 25.6412168,155.17021 C24.5934387,156.733504 24.7110987,156.299411 23.8330672,157.908766 C24.8738694,154.743561 25.3863644,148.240071 25.3863644,148.240071 L23.5410101,149.380903 L25.485422,142.447507 C25.7853851,133.242682 26.8331631,121.587766 28.7715293,108.551474 C28.871517,107.877769 28.9738299,107.200806 29.0789333,106.520122 C29.4984166,103.797385 29.9564997,101.01835 30.4536478,98.1923235 C30.5782837,97.4860495 30.7047797,96.7765186 30.8340661,96.0641962 C31.2219254,93.9276941 31.6325725,91.7660677 32.0655425,89.5835042 C32.2101759,88.855828 32.3571345,88.1258255 32.5064185,87.3939618 C33.6662758,81.7153887 34.9814628,75.9051452 36.4589554,70.0325561 C35.0642433,71.2199153 32.021827,73.836572 30.7126857,75.1756079 C32.5729219,72.4109966 38.0010912,63.3699451 38.0010912,63.3699451 L32.6747699,64.896018 L39.7850577,57.7006773 C40.4114922,55.5278844 41.0597846,53.3536958 41.732725,51.1804377 C41.7350503,51.1720629 41.7378406,51.1646187 41.740631,51.1562439 C41.9257245,50.5579116 42.1140734,49.9698152 42.3042826,49.3863715 C42.3512535,49.2426043 42.3982245,49.098837 42.4451955,48.9560003 C42.63866,48.3692997 42.8339848,47.7881823 43.032565,47.2173008 C43.0451216,47.18101 43.0581433,47.1461151 43.0702348,47.1098243 C43.2613741,46.5622061 43.4553037,46.0238932 43.6510936,45.4916287 C43.693879,45.3748469 43.7366644,45.2575998 43.7799149,45.1417486 C43.9887265,44.5797071 44.1993982,44.0246446 44.4137904,43.4802832 C44.4277422,43.444923 44.441694,43.4104933 44.4556457,43.3751331 C44.662597,42.8512434 44.8723386,42.3375896 45.0839405,41.8304495 C45.1178898,41.7490279 45.1518391,41.6666758 45.1862535,41.5852543 C45.4132023,41.0474066 45.6424764,40.518399 45.875006,40.0010231 C45.8870975,39.9740376 45.899189,39.9479827 45.9112806,39.9214626 C46.1396246,39.4143225 46.371224,38.9183488 46.6051487,38.4316804 C46.6265414,38.3865496 46.6479341,38.3409535 46.6693268,38.296288 C46.9162732,37.785891 47.1660099,37.2861952 47.4194671,36.798131 C47.426443,36.784173 47.4338839,36.7706803 47.4413248,36.7562571 C47.6975724,36.263075 47.9570753,35.7819898 48.2198337,35.3130015 C48.2235542,35.3064878 48.2272746,35.2999741 48.2305301,35.2934604 C48.4988691,34.8147015 48.7709287,34.3494354 49.0462436,33.8971967 C49.0481039,33.8934746 49.0504292,33.8897524 49.0527545,33.885565 C52.0844744,28.90303 55.5287017,25.5126357 59.4375231,24.2285012 C66.0427568,22.0589652 72.3024516,20.6761943 78.1617306,19.9685245 C75.8750352,17.6291664 72.6335736,13.1398135 73.0860761,10.798129 C71.3411745,9.25204967 69.4209457,8.17821544 68.060648,9.18412082 C65.7799984,10.86978 69.80927,16.6251221 72.5080077,19.385546 C66.6487287,20.0927505 60.3885688,21.4759868 53.7838002,23.6455227 C49.8749789,24.929192 46.4302865,28.3195863 43.3990316,33.3025866 C43.3967063,33.3063087 43.394381,33.3100308 43.3920557,33.313753 C43.1167407,33.7664569 42.8451462,34.231723 42.5768072,34.7100166 C42.5730867,34.7165303 42.5698313,34.7235093 42.5661108,34.7300231 C42.3033525,35.1990113 42.0438495,35.6800965 41.787602,36.1732786 C41.780161,36.1872366 41.7727201,36.2011946 41.7652791,36.2151526 C41.512287,36.7027515 41.2625503,37.2024473 41.0156039,37.7133095 C40.9942112,37.7579751 40.9728185,37.8035711 40.9514258,37.8482367 C40.717036,38.3353703 40.4859017,38.831344 40.2575577,39.3380188 C40.2454662,39.3650043 40.2333746,39.3910592 40.2212831,39.4175793 C39.9887536,39.9354206 39.7594794,40.4644281 39.5325306,41.0018105 C39.4981163,41.0832321 39.4641669,41.1655842 39.4302176,41.247471 C39.2181507,41.7541459 39.0088741,42.2682649 38.8019229,42.7921546 C38.7879711,42.8275148 38.7735543,42.8619445 38.7596025,42.8973047 C38.5456753,43.4416661 38.3345385,43.9967286 38.125727,44.5587701 C38.0829416,44.6746214 38.0396911,44.7914032 37.9969056,44.908185 C37.8015808,45.4409147 37.6076512,45.9792276 37.4165119,46.5268458 C37.4039554,46.5626713 37.3909337,46.5980316 37.3783771,46.6343223 C37.180262,47.2052039 36.9849371,47.7863213 36.7914726,48.3730219 C36.7440366,48.5158586 36.6975307,48.6591605 36.6505597,48.8029278 C36.4603505,49.3863715 36.2715366,49.9749332 36.0864431,50.5732654 C36.0841178,50.5811749 36.0813274,50.5890844 36.0790021,50.5974592 C35.4060617,52.7702521 34.7577694,54.944906 34.1308698,57.1172335 L27.021047,64.3130395 L32.3469032,62.7869666 C32.3469032,62.7869666 26.9191991,71.8280181 25.0589629,74.5921642 C26.3681041,73.2531283 29.4105204,70.6369368 30.8052325,69.4495776 C29.3277399,75.3221668 28.0125529,81.1324102 26.8526956,86.8105181 C26.7029466,87.542847 26.5559879,88.2728496 26.4118196,89.0000605 C25.9788497,91.1830892 25.5682025,93.3447157 25.1803433,95.4812177 C25.0510568,96.1935402 24.9240957,96.903071 24.799925,97.609345 C24.3027768,100.435372 23.8446937,103.214406 23.4252104,105.937144 C23.3201071,106.617363 23.2177941,107.29479 23.1173413,107.96803 C21.1789752,121.004322 20.1311972,132.659239 19.8312341,141.864064 L15.018803,150.570589 L19.7321765,147.657092 C19.7321765,147.657092 16.9571691,157.831532 15.916367,160.997203 C16.7943985,159.387847 18.9392508,156.15006 19.9874939,154.587231 C20.0874816,155.887185 20.2172331,157.054538 20.3748881,158.076727 C20.4139531,158.328902 20.4544132,158.571771 20.4971986,158.805799 C20.5464949,159.080306 20.5990466,159.338529 20.6534585,159.588377 C20.7380992,159.97827 20.8278556,160.341643 20.9231927,160.670586 C21.0273659,161.027445 21.1385151,161.408033 21.2594304,161.809558 C22.5848487,166.212836 25.0631484,173.124365 31.8292925,178.982065 C32.1920386,179.29612 32.5678063,179.606918 32.9556655,179.914459 C33.5314086,180.370419 34.1359854,180.818471 34.7698609,181.257217 C34.8898461,181.340499 35.0116916,181.422851 35.1340021,181.505203 C36.9137831,182.70559 38.9186527,183.831069 41.1900011,184.841162 C42.2517309,185.313407 43.4367014,185.735868 44.7267752,186.112269 C45.1323067,186.230912 45.5517899,186.343041 45.977319,186.452843 C47.0897402,186.738517 48.2700601,186.994413 49.5075822,187.222394 C50.3130645,187.371279 51.1422648,187.508532 51.994253,187.634154 C52.2807293,187.676493 52.569531,187.717437 52.860658,187.75745 C53.3866397,187.829101 53.9205275,187.897495 54.4613912,187.961236 C55.1161944,188.038936 55.7807637,188.111052 56.4550994,188.177585 C57.1243193,188.243188 57.8023754,188.304137 58.4888026,188.359504 C58.641342,188.371601 58.7943464,188.383698 58.9473508,188.395795 C58.8041126,188.376719 58.6566889,188.359969 58.5143808,188.340428" id="Fill-20" fill="#234560"></path>
            <path d="M61.5486121,86.7326325 C61.5486121,86.7326325 63.3883857,96.2743104 64.9881889,98.0623281 C64.6998522,96.766562 68.4993847,87.8525281 68.4993847,87.8525281 L61.5486121,86.7326325 Z" id="Fill-22" fill="#FEFEFE"></path>
            <path d="M94.0220579,89.835632 C94.0220579,89.835632 93.4825894,95.5453779 90.8577961,99.2088835 C90.8708178,99.809542 100.938416,93.0050249 101.467188,89.6746499 C100.554742,89.6216095 94.0220579,89.835632 94.0220579,89.835632" id="Fill-24" fill="#FEFEFE"></path>
            <path d="M101.449051,27.861811 C101.498347,26.4706652 112.104949,21.7054095 106.812112,13.3543477 C102.432651,6.44468036 111.036243,0.000279159681 111.036243,0.000279159681 C111.036243,0.000279159681 108.512368,7.7134611 112.989956,12.0920807 C118.248844,17.2337367 118.493465,31.8221563 112.375613,35.8569442 C112.098438,36.0970215 101.054681,38.9812062 101.449051,27.861811" id="Fill-26" fill="#E6E7E7"></path>
            <path d="M104.977268,30.7338523 C105.026564,29.3427065 115.633166,24.5774508 110.340329,16.226389 C108.268491,12.9578944 109.103272,9.79454998 110.557046,7.3667913 C109.83946,3.65862023 111.036522,0.000232633066 111.036522,0.000232633066 C111.036522,0.000232633066 102.43293,6.44463383 106.811926,13.3543012 C112.104763,21.705363 101.498626,26.4706187 101.448865,27.8617644 C101.268422,32.9601507 103.493265,35.1106108 105.98133,35.925757 C105.297694,34.6811701 104.896813,33.0029552 104.977268,30.7338523" id="Fill-28" fill="#D1D2D4"></path>
            <path d="M57.7250361,30.3509382 C57.6157472,28.9630494 46.8133556,24.6611987 51.7401912,16.0886702 C55.8168988,8.99661856 46.9431071,2.93001347 46.9431071,2.93001347 C46.9431071,2.93001347 49.7981046,10.5268789 45.5135156,15.0948618 C40.4820417,20.4593803 40.8675756,35.044543 47.1542439,38.8113376 C47.4411853,39.0388527 58.5993471,41.4433481 57.7250361,30.3509382" id="Fill-30" fill="#E6E7E7"></path>
            <path d="M32.5848274,113.081491 C29.3554574,117.82581 19.8998768,129.019182 15.7222513,133.090261 C12.6914615,139.603987 8.80542807,143.528972 8.17155258,143.059053 C6.06437002,141.498085 8.73845956,136.579757 8.73845956,136.579757 C8.73845956,136.579757 3.47678146,141.38456 1.7625738,139.603987 C0.839896646,138.645539 5.01798716,132.857628 5.01798716,132.857628 C5.01798716,132.857628 0.38227854,135.193729 0.018602362,133.784903 C-0.330191926,132.433771 4.32039858,129.527718 8.38966527,126.251779 C8.38966527,126.251779 22.6134963,110.337351 26.8757625,106.570092 C29.4252163,104.316808 36.6299111,107.138647 32.5848274,113.081491" id="Fill-32" fill="#284B70"></path>
            <g id="Group-36" transform="translate(120.450294, 105.767554)" fill="#284B70">
                <path d="M1.43996234,7.31393707 C4.66933239,12.0582558 14.124913,23.2516284 18.3025385,27.3227071 C21.3333283,33.8364329 25.2193617,37.761418 25.8532372,37.2914992 C27.9604198,35.7305314 25.2863302,30.8122031 25.2863302,30.8122031 C25.2863302,30.8122031 30.5480083,35.6170064 32.262216,33.8364329 C33.1848931,32.8779847 29.0068026,27.090074 29.0068026,27.090074 C29.0068026,27.090074 33.6425112,29.4261753 34.0061874,28.0173494 C34.3549817,26.6662166 29.7043912,23.7601643 25.6351245,20.4842255 C25.6351245,20.4842255 11.4112934,4.56979742 7.14902725,0.802537551 C4.59957353,-1.45074633 -2.60512128,1.37109276 1.43996234,7.31393707" id="Fill-34"></path>
            </g>
            <path d="M110.904678,65.2486432 C110.158258,68.2044789 106.719147,70.2479278 104.020409,71.1175102 C98.6759503,72.8389949 92.1241984,71.1109965 89.2915238,65.9800416 C85.8635735,59.7705998 90.7062334,53.4122728 96.3520503,50.8035256 C96.4822668,50.7435063 96.5813244,50.6667374 96.6534085,50.5797326 C97.814661,50.0702662 99.0898529,50.108418 100.354348,49.9655813 C102.136455,49.7641211 103.313519,49.842751 104.93425,50.6802301 C107.646939,52.0825422 109.50113,53.729119 110.318239,56.769168 C110.969321,59.192274 111.527392,62.7822674 110.904678,65.2486432" id="Fill-37" fill="#1A3C55"></path>
            <path d="M111.377969,57.9597375 C110.79432,52.9888341 107.421711,49.4225692 102.348382,48.9917328 C99.3064309,48.7330448 96.2942434,49.7222006 93.9103507,51.5409259 C93.2295043,51.9540822 92.5965589,52.4365632 92.0240712,52.9832509 C91.6106337,53.2810212 91.266025,53.6806848 90.9758281,54.1343193 C90.9316475,54.1906165 90.8902573,54.2492401 90.8470068,54.3060025 C90.683306,54.3720703 90.5330919,54.4953658 90.4205476,54.6926387 C90.2838203,54.9322507 90.1591844,55.1755849 90.0405944,55.4207802 C88.9379394,57.5624002 87.934807,59.8691897 88.2198882,62.3211422 C88.5193862,64.8926681 90.1377917,67.3115867 91.7975875,69.2252263 C93.5373734,71.2323844 95.6882715,72.0414822 98.2958576,72.207117 C100.935998,72.375078 103.875636,72.4797629 106.353006,71.4096508 C111.42401,69.2201084 111.9379,62.7310416 111.377969,57.9597375" id="Fill-39" fill="#FEFEFE"></path>
            <path d="M106.339751,62.6719994 C105.825396,62.055987 104.913415,62.085764 104.181877,61.9219904 C103.4136,61.7498419 102.676016,61.5037161 101.955175,61.2101332 C102.960167,60.5810934 103.971206,59.9515883 104.914811,59.2513628 C105.339409,58.9363776 105.742151,58.6269756 105.89655,58.2017224 C105.933755,58.1272798 105.955613,58.0467888 105.964449,57.9635061 C105.966309,57.9593187 105.969564,57.9560619 105.97189,57.9518745 C106.659712,56.6388934 105.290113,55.0448917 104.248381,54.4488858 C102.746705,53.5895392 100.413039,53.3685378 98.7662648,53.872421 C97.8993947,54.1376227 97.1915749,54.6545334 96.5763017,55.2803163 C95.3773795,56.129427 94.5942201,57.8332316 94.2007801,59.129463 C93.6534056,60.9356262 93.8036197,62.9092851 94.8467471,64.5088701 C95.4415577,65.4207917 96.2912205,66.1345099 97.2576132,66.6067551 C99.5698869,68.2886921 103.485684,67.9397425 105.486833,65.9972564 C106.301152,65.2067693 107.225224,63.7332714 106.339751,62.6719994" id="Fill-41" fill="#323230"></path>
            <path d="M74.4924612,64.7833771 C73.7460414,67.7392128 70.3069297,69.7826617 67.608192,70.6522441 C62.2637334,72.3737288 55.7119815,70.6457303 52.8793068,65.5147754 C49.4513566,59.3053336 54.2940165,52.9470067 59.9398333,50.3382595 C60.0700499,50.2782401 60.1691075,50.2014712 60.2411916,50.1144665 C61.4024441,49.605 62.677636,49.6431519 63.9421315,49.5003152 C65.7242378,49.2988549 66.9013023,49.3774849 68.5220331,50.2149639 C71.2347225,51.6172761 73.0889129,53.2638529 73.9060217,56.3039018 C74.5571044,58.7270078 75.1151752,62.3170013 74.4924612,64.7833771" id="Fill-43" fill="#1A3C55"></path>
            <path d="M74.9657517,57.4944713 C74.3821026,52.523568 71.0094944,48.9573031 65.9361652,48.5264666 C62.894214,48.2677787 59.8820265,49.2569345 57.4981338,51.0756598 C56.8172874,51.4888161 56.184342,51.9712971 55.6118543,52.5179848 C55.1984168,52.8157551 54.853808,53.2154187 54.5636112,53.6690532 C54.5194306,53.7253504 54.4780403,53.7839739 54.4347898,53.8407364 C54.2710891,53.9068042 54.120875,54.0300997 54.0083307,54.2273725 C53.8716033,54.4669846 53.7469675,54.7103188 53.6283774,54.955514 C52.5257224,57.097134 51.5225901,59.4039235 51.8076713,61.855876 C52.1071693,64.427402 53.7255748,66.8463206 55.3853705,68.7599602 C57.1251564,70.7671183 59.2760546,71.5762161 61.8836407,71.7418508 C64.5242459,71.9098119 67.4634191,72.0144968 69.9407887,70.9443847 C75.0117926,68.7548423 75.5256828,62.2657755 74.9657517,57.4944713" id="Fill-45" fill="#FEFEFE"></path>
            <path d="M69.9275345,62.2067332 C69.4131792,61.5907209 68.5011984,61.6204979 67.7696605,61.4567242 C67.001383,61.2845758 66.2637993,61.03845 65.5429578,60.7448671 C66.5479504,60.1158272 67.5589888,59.4863222 68.5025936,58.7860966 C68.9271925,58.4711115 69.3299336,58.1617095 69.4843332,57.7364562 C69.521538,57.6620137 69.5433957,57.5815226 69.5522319,57.49824 C69.5540921,57.4940526 69.5573475,57.4907957 69.5596728,57.4866083 C70.2474952,56.1736273 68.8778962,54.5796255 67.836164,53.9836196 C66.3344883,53.1242731 64.000822,52.9032717 62.3540479,53.4071549 C61.4871778,53.6723566 60.7793579,54.1892672 60.1640848,54.8150502 C58.9651626,55.6641609 58.1820031,57.3679655 57.7885632,58.6641969 C57.2411887,60.47036 57.3914028,62.444019 58.4345302,64.0436039 C59.0293407,64.9555255 59.8790036,65.6692438 60.8453963,66.1414889 C63.1576699,67.823426 67.0734671,67.4744764 69.0746162,65.5319903 C69.8889346,64.7415031 70.813472,63.2680053 69.9275345,62.2067332" id="Fill-47" fill="#323230"></path>
            <path d="M49.698675,37.2126366 C43.4120067,33.4463073 43.0264728,18.8606793 48.0579466,13.4961608 C50.0474693,11.3750125 50.4967163,8.60156109 50.40789,6.23800914 C48.7871592,4.19362976 46.942735,2.92996694 46.942735,2.92996694 C46.942735,2.92996694 49.7977325,10.5268323 45.5136086,15.0948152 C40.4816696,20.4593337 40.8676687,35.0444964 47.1543369,38.8108258 C47.3561725,38.9708773 52.9178137,40.1987147 55.9090735,37.0739873 C53.0587266,38.0654694 49.8507493,37.3336058 49.698675,37.2126366" id="Fill-49" fill="#D1D2D4"></path>
            <path d="M57.6356518,98.2843066 C58.4574111,100.228654 59.4921675,102.208361 60.7943328,104.078266 L64.8338358,108.613215 C68.2906197,111.609529 72.8960995,113.739052 79.0306934,113.981455 C87.5552258,114.318308 93.793993,110.93024 98.2339117,106.496254 L98.2339117,106.496254 C85.7349847,94.78504 63.8972068,97.2756096 57.6356518,98.2843066" id="Fill-51" fill="#EF4144"></path>
            <path d="M110.352606,147.411525 L113.554073,147.411525 L108.385872,143.898766 C104.332417,130.923889 94.9038099,121.020234 76.4167825,123.639682 C57.3609879,126.339622 51.0743196,140.862439 49.7326243,155.404797 L48.139332,159.811333 L49.5284634,158.29503 C49.5247429,158.37366 49.5210224,158.451825 49.5173019,158.530455 L46.5906853,165.556904 L49.4340564,163.693513 L46.5906853,170.985164 L49.7447158,169.460487 C50.588798,179.792187 52.8606115,187.757078 52.8606115,187.757078 C53.3865932,187.829194 53.920481,187.897123 54.4618098,187.961329 C55.1166129,188.039029 55.7807172,188.111145 56.4550529,188.177678 C57.1242728,188.243281 57.8023289,188.30423 58.4887561,188.359597 C58.6664086,188.37402 58.8440612,188.387978 59.0226439,188.401471 C60.6568614,188.526628 62.3347944,188.623868 64.0448166,188.695519 C64.6191645,188.719713 65.1967678,188.741581 65.7776266,188.760191 C66.6300798,188.787642 67.4890439,188.809044 68.3521935,188.825329 C68.4284632,188.826724 68.5042678,188.82812 68.5805375,188.829516 C69.4715906,188.845335 70.3677594,188.855571 71.2671836,188.860224 C71.3183401,188.860224 71.3694966,188.860689 71.4206531,188.861154 C84.1000231,188.918847 97.393271,187.931552 106.344728,187.073136 C109.443881,180.789252 111.722205,168.263357 110.668847,155.957533 L110.930675,156.096648 L110.352606,152.280535 L113.554073,153.459985 L110.352606,147.411525 Z" id="Fill-53" fill="#388149"></path>
            <path d="M42.8048256,121.249331 C42.8048256,122.338519 41.1761888,123.222059 39.1666687,123.222059 C37.1576136,123.222059 35.5285117,122.338519 35.5285117,121.249331 C35.5285117,120.160143 37.1576136,119.276603 39.1666687,119.276603 C41.1761888,119.276603 42.8048256,120.160143 42.8048256,121.249331" id="Fill-55" fill="#234560"></path>
            <path d="M49.5279983,129.45309 C49.5279983,131.004287 47.2087488,132.261901 44.3472405,132.261901 C41.4861972,132.261901 39.1669477,131.004287 39.1669477,129.45309 C39.1669477,127.901892 41.4861972,126.644278 44.3472405,126.644278 C47.2087488,126.644278 49.5279983,127.901892 49.5279983,129.45309" id="Fill-57" fill="#234560"></path>
            <path d="M118.833423,112.269648 C118.833423,113.358836 117.204787,114.242377 115.195266,114.242377 C113.186211,114.242377 111.557109,113.358836 111.557109,112.269648 C111.557109,111.18046 113.186211,110.29692 115.195266,110.29692 C117.204787,110.29692 118.833423,111.18046 118.833423,112.269648" id="Fill-59" fill="#234560"></path>
            <path d="M127.530818,113.406107 C127.530818,114.033751 126.592329,114.542752 125.434797,114.542752 C124.277265,114.542752 123.338776,114.033751 123.338776,113.406107 C123.338776,112.778463 124.277265,112.269462 125.434797,112.269462 C126.592329,112.269462 127.530818,112.778463 127.530818,113.406107" id="Fill-61" fill="#234560"></path>
            <path d="M125.556596,120.473407 C125.556596,122.024604 123.237347,123.282218 120.375838,123.282218 C117.514795,123.282218 115.195545,122.024604 115.195545,120.473407 C115.195545,118.922209 117.514795,117.664595 120.375838,117.664595 C123.237347,117.664595 125.556596,118.922209 125.556596,120.473407" id="Fill-63" fill="#234560"></path>
            <polygon id="Fill-65" fill="#1A3C55" points="68.580398 188.829656 52.2619409 193.771712 51.3067097 187.584603"></polygon>
            <polygon id="Fill-67" fill="#1A3C55" points="86.2566879 188.395609 105.634768 193.252522 106.344449 187.073322"></polygon>
        </g>
    </g>
</svg>