<?xml version="1.0" encoding="UTF-8" standalone="no"?>
<svg width="192px" height="267px" viewBox="0 0 192 267" version="1.1" xmlns="http://www.w3.org/2000/svg" xmlns:xlink="http://www.w3.org/1999/xlink">
    <!-- Generator: Sketch 3.8.3 (29802) - http://www.bohemiancoding.com/sketch -->
    <title>monster-orange</title>
    <desc>Created with Sketch.</desc>
    <defs>
        <polygon id="path-1" points="0.399935486 36.3359252 21.4794939 36.3359252 21.4794939 0.348098164 0.399935486 0.348098164"></polygon>
        <polygon id="path-3" points="0.358416249 36.3359252 21.4379747 36.3359252 21.4379747 0.348098164 0.358416249 0.348098164"></polygon>
    </defs>
    <g id="Page-1" stroke="none" stroke-width="1" fill="none" fill-rule="evenodd">
        <g id="monster-orange" transform="translate(0.062922, 0.110079)">
            <g id="Page-1">
                <path d="M81.2289205,79.0862313 C81.2289205,79.0862313 74.3201374,70.888241 69.4048912,77.7508861 C64.489645,84.6129256 77.6947025,93.2354406 77.6947025,93.2354406 C77.6947025,93.2354406 64.489645,84.5977856 60.2403275,93.2354406 C55.9910101,101.87249 73.7956502,109.918475 73.7956502,109.918475 C73.7956502,109.918475 57.2051008,102.545916 54.4733967,110.536186 C51.7416926,118.526456 67.8514621,126.06616 67.8514621,126.06616 C67.8514621,126.06616 52.5108191,120.873757 50.6083389,128.632688 C48.7064658,136.391619 63.5790769,143.200971 63.5790769,143.200971 C63.5790769,143.200971 49.0099885,136.880943 47.7958978,144.963264 C46.5818071,153.045585 62.0553931,157.416797 62.0553931,157.416797 C62.0553931,157.416797 50.6951464,152.48904 47.7279087,158.369403 C44.7606711,164.249162 58.5709528,168.895315 58.5709528,168.895315 L80.9460374,113.378866 L81.2289205,79.0862313 Z" id="Fill-1" fill="#EF4144"></path>
                <g id="Group-5" transform="translate(66.774989, 229.707847)">
                    <mask id="mask-2" fill="white">
                        <use xlink:href="#path-1"></use>
                    </mask>
                    <g id="Clip-4"></g>
                    <path d="M12.3371648,0.348098164 L16.0292146,18.7213588 C16.0292146,18.7213588 -0.433855312,22.3955264 0.433005449,26.7170791 C1.29925916,31.0392374 10.1809397,26.7170791 10.1809397,26.7170791 C10.1809397,26.7170791 -1.08339384,31.0392374 3.46580402,35.3613957 C8.01439484,39.683554 16.0292146,28.2298648 16.0292146,28.2298648 C16.0292146,28.2298648 11.6967319,33.4162125 17.3288987,35.145197 C22.9610655,36.8741814 21.227951,18.9375575 21.227951,18.9375575 L20.3616973,3.15747078 L12.3371648,0.348098164 Z" id="Fill-3" fill="#E18C26" mask="url(#mask-2)"></path>
                </g>
                <g id="Group-8" transform="translate(115.338617, 229.707847)">
                    <mask id="mask-4" fill="white">
                        <use xlink:href="#path-3"></use>
                    </mask>
                    <g id="Clip-7"></g>
                    <path d="M9.50074538,0.348098164 L5.80869555,18.7213588 C5.80869555,18.7213588 22.2717655,22.3955264 21.4049047,26.7170791 C20.538651,31.0392374 11.6569705,26.7170791 11.6569705,26.7170791 C11.6569705,26.7170791 22.921304,31.0392374 18.3721061,35.3613957 C13.8235153,39.683554 5.80869555,28.2298648 5.80869555,28.2298648 C5.80869555,28.2298648 10.1411782,33.4162125 4.50901146,35.145197 C-1.12315531,36.8741814 0.609959169,18.9375575 0.609959169,18.9375575 L1.47621288,3.15747078 L9.50074538,0.348098164 Z" id="Fill-6" fill="#E18C26" mask="url(#mask-4)"></path>
                </g>
                <polygon id="Fill-9" fill="#A76227" points="81.7569286 243.217362 87.2063747 235.403927 79.540606 234.018317"></polygon>
                <polygon id="Fill-11" fill="#A76227" points="116.710539 234.765747 122.596451 241.666545 124.328958 232.595886"></polygon>
                <path d="M134.308784,88.0298349 C134.308784,88.0298349 141.648569,84.440451 146.446656,79.0475941 C144.707471,48.3703837 137.60504,10.6191741 105.402498,9.99298504 C100.463577,9.89669484 96.1128834,10.3042628 92.2593595,11.1339331 C89.8493894,7.24538349 85.5952156,5.59754928 81.3525757,5.79255208 C81.3525757,5.79255208 70.541098,7.07218225 71.2950483,19.5771909 C71.4037094,21.3818752 71.6878066,22.9376584 72.1005975,24.290566 C68.9646012,29.0227147 66.9777417,34.7050478 65.7557595,40.9917685 C62.1244142,39.5825402 56.8722578,39.2282649 51.7311907,44.8821348 C46.9847031,50.1017905 51.3092942,68.5059366 63.7749705,78.8671257 C68.5724499,82.7496193 73.4288127,84.5440084 73.4288127,84.5440084 C73.8470669,95.2079969 55.3928883,153.929274 51.7840037,174.071489 L48.8276928,179.194249 L45.4148838,185.109738 L50.4454687,182.799984 C50.328916,183.74169 50.2232901,184.677946 50.128591,185.609962 L45.4148838,195.346779 L49.6775563,191.677456 C48.4907826,218.421303 59.0236265,239.442241 104.953285,237.923399 C193.170329,235.00623 134.67726,100.734086 134.308784,88.0298349" id="Fill-13" fill="#E18C26"></path>
                <path d="M191.702312,100.236526 C192.614094,104.615005 174.85134,102.549913 172.213728,105.903719 C163.244025,117.308354 136.818127,134.543695 136.818127,134.543695 L133.350684,118.280946 C133.897632,117.916981 154.633087,113.580289 166.499003,97.6560693 C168.870122,93.2890967 166.073464,83.8889928 171.423355,83.2827885 C174.888369,83.221623 174.706256,91.2881984 174.706256,91.2881984 C174.706256,91.2881984 180.845912,79.7043054 184.372239,82.0092143 C189.227388,85.1825518 179.812721,92.9257374 179.812721,92.9257374 C179.812721,92.9257374 188.566922,86.1939017 190.755321,90.1963038" id="Fill-15" fill="#E18C26"></path>
                <path d="M190.755139,90.1963644 C192.943537,94.1987666 182.183658,97.8378095 182.183658,97.8378095 C182.183658,97.8378095 190.790347,95.8581072 191.702129,100.236586" id="Fill-17" fill="#E18C26"></path>
                <path d="M71.3995815,159.255031 C69.2330366,156.701827 67.4458951,153.977843 65.9695608,151.211468 C60.6658056,133.626092 72.6531301,126.221436 72.6531301,126.221436 C72.6531301,126.221436 68.0110543,113.579562 68.1731355,113.254961 C43.9064976,127.198267 55.384511,152.300941 56.8608453,155.002517 C56.8608453,155.003122 56.8614524,155.004333 56.8614524,155.004939 C58.9138727,158.793565 60.0308362,160.423837 62.049869,162.933438 C64.7251179,166.258175 58.6746968,183.045978 63.1559056,183.154986 C67.6377215,183.263388 67.6595751,174.451926 67.6595751,174.451926 C67.6595751,174.451926 68.7680399,185.732414 73.1721539,184.515161 C77.576875,183.297907 72.9936826,173.264347 72.9936826,173.264347 C72.9936826,173.264347 78.4139905,184.169364 82.6147444,180.173018 C85.6651472,177.270988 75.7520967,168.674514 75.7520967,168.674514 C75.7520967,168.674514 83.5841958,170.683891 84.3120432,167.303438 C84.9354787,161.968719 75.1238047,162.550094 71.3995815,159.255031" id="Fill-19" fill="#E18C26"></path>
                <path d="M72.9935612,173.264044 C72.9935612,173.264044 76.6522235,181.279749 74.2804973,183.849305 C74.9336781,184.47186 75.7100891,184.769815 76.632191,184.514858 C78.3100644,184.051575 78.6821832,182.308056 78.5012836,180.327142 C75.5437587,178.394071 72.9935612,173.264044 72.9935612,173.264044" id="Fill-21" fill="#A76227"></path>
                <path d="M67.6596358,174.451744 C67.6596358,174.451744 67.6432456,180.08563 65.3443648,182.286376 C65.6126789,182.82233 66.0187922,183.14027 66.6161248,183.154804 C67.8399283,183.184479 68.7292497,182.546783 69.3781812,181.606894 C68.0699984,178.611602 67.6596358,174.451744 67.6596358,174.451744" id="Fill-23" fill="#A76227"></path>
                <path d="M74.8594365,159.255031 C71.4624107,156.784794 69.4397356,153.798586 68.2450703,150.630094 C61.6653058,133.187033 72.6528266,126.221436 72.6528266,126.221436 C72.6528266,126.221436 59.7349016,135.335697 65.9698644,151.211468 C67.4455916,153.977843 69.2333402,156.701827 71.399278,159.255031 C75.1235012,162.550094 84.9351752,161.968719 84.3123467,167.303438 C84.0749919,168.406234 83.0794376,168.93371 81.8483496,169.14567 C84.1951869,169.422429 87.3251128,169.381248 87.7718981,167.303438 C88.3953337,161.968719 78.5836597,162.550094 74.8594365,159.255031" id="Fill-25" fill="#A76227"></path>
                <path d="M79.8608831,169.259401 C77.7750753,169.192785 75.7517931,168.674999 75.7517931,168.674999 C75.7517931,168.674999 85.6648437,177.270867 82.6144408,180.172896 C82.4887824,180.292805 82.36191,180.397574 82.2338234,180.491441 C83.5074045,181.230877 84.8429043,181.34473 86.0745993,180.172896 C88.6448293,177.728094 82.0134659,171.242132 79.8608831,169.259401" id="Fill-27" fill="#A76227"></path>
                <path d="M135.457981,45.0012561 C135.457981,45.0012561 153.615315,32.5216826 157.445771,39.0530652 C159.761649,43.0021746 161.958546,71.1497991 139.53854,84.9259596" id="Fill-29" fill="#E18C26"></path>
                <path d="M56.9688387,48.4802393 C56.9688387,48.4802393 80.4190006,57.7489282 104.621899,57.2438589 C131.931655,56.674596 152.274959,45.0483111 152.274959,45.0483111 C152.274959,45.0483111 152.277387,83.4971704 106.341658,83.5389567 C61.8252015,83.5795319 56.9688387,48.4802393 56.9688387,48.4802393" id="Fill-31" fill="#402912"></path>
                <path d="M80.768598,55.1840964 C76.9848844,54.4410267 72.0332154,53.3376258 68.5718428,52.443762 C68.641046,56.3789427 68.6683631,63.3639187 72.4101906,64.1766323 C77.7752574,65.3424099 79.3195808,60.4982254 80.768598,55.1840964" id="Fill-33" fill="#FEFEFE"></path>
                <path d="M93.6063324,56.9866611 C89.853578,56.609373 84.4933676,55.8850769 80.7685373,55.1837936 C80.7837135,59.1995189 79.8391509,65.6994103 84.7337576,66.6096253 C90.6730893,67.7142374 92.1967731,62.6562766 93.6063324,56.9866611" id="Fill-35" fill="#FEFEFE"></path>
                <path d="M106.468288,57.1764557 C106.457968,61.2236722 108.269998,68.0735997 112.315349,67.8265154 C118.438008,67.4534666 119.748619,61.7638663 119.275731,55.598871 C115.38457,56.1336147 110.518494,56.9741857 106.468288,57.1764557" id="Fill-37" fill="#FEFEFE"></path>
                <path d="M119.275731,55.598871 C119.585931,58.9908296 121.728194,64.8239568 124.862976,64.5786893 C130.327598,64.1511366 131.033592,58.9345089 130.723392,53.1716312 C126.973673,53.9746551 123.257948,54.8782084 119.275731,55.598871" id="Fill-39" fill="#FEFEFE"></path>
                <path d="M131.045429,53.091026 C131.396909,56.3564144 133.242934,60.8299724 136.248415,61.0988583 C141.153342,61.5379174 145.348025,56.0154623 143.922683,49.3920288 C140.591825,50.3373684 135.303853,52.1493199 131.045429,53.091026" id="Fill-41" fill="#FEFEFE"></path>
                <path d="M107.839361,38.8423774 C107.839361,38.8423774 109.301733,33.0074334 112.063182,34.4663208 C114.825238,35.9252082 111.738413,41.4355512 109.951271,42.5698377 C109.951271,42.5698377 112.428623,38.2192162 111.467671,36.3031018 C110.506718,34.3869873 107.839361,38.8423774 107.839361,38.8423774" id="Fill-43" fill="#402912"></path>
                <path d="M99.7162439,40.4631413 C99.7162439,40.4631413 98.3085057,33.2777121 94.0300501,35.5468906 C89.7515944,37.8160691 96.358676,43.0024169 96.358676,43.0024169 C96.358676,43.0024169 93.0011082,38.0322679 94.7342227,36.7895793 C96.4667301,35.5468906 99.7162439,40.4631413 99.7162439,40.4631413" id="Fill-45" fill="#402912"></path>
                <path d="M124.283248,149.341561 C124.283248,150.759268 122.157375,151.9093 119.534332,151.9093 C116.911896,151.9093 114.785416,150.759268 114.785416,149.341561 C114.785416,147.923854 116.911896,146.773822 119.534332,146.773822 C122.157375,146.773822 124.283248,147.923854 124.283248,149.341561" id="Fill-47" fill="#CF7A28"></path>
                <path d="M55.065448,194.835956 C55.065448,194.835956 45.6865973,188.81146 42.9215058,196.213088 C40.1570212,203.61411 49.8648905,208.948224 49.8648905,208.948224 C49.8648905,208.948224 41.1550038,205.948088 39.0637326,211.489922 C36.9730684,217.031756 46.5291763,220.656265 46.5291763,220.656265 C46.5291763,220.656265 39.3824314,217.307304 36.1596276,222.055803 C32.9374309,226.804303 40.7792427,230.915713 40.7792427,230.915713 C40.7792427,230.915713 36.2476492,227.644874 32.3218869,231.472864 C28.3967317,235.301459 33.916595,240.737919 33.916595,240.737919 C33.916595,240.737919 27.1771775,236.887523 24.9086491,239.182136 C22.6407276,241.47675 25.3347949,246.974981 25.3347949,246.974981 L54.5306411,239.616351 L60.9003679,204.873756 L55.065448,194.835956 Z" id="Fill-49" fill="#EF4144"></path>
                <path d="M114.683858,159.090066 C114.683858,160.507773 112.557985,161.657805 109.934942,161.657805 C107.312506,161.657805 105.186026,160.507773 105.186026,159.090066 C105.186026,157.672359 107.312506,156.522327 109.934942,156.522327 C112.557985,156.522327 114.683858,157.672359 114.683858,159.090066" id="Fill-51" fill="#CF7A28"></path>
                <path d="M134.652918,161.073281 C134.652918,162.733833 132.162818,164.080079 129.091775,164.080079 C126.020733,164.080079 123.530633,162.733833 123.530633,161.073281 C123.530633,159.412729 126.020733,158.066483 129.091775,158.066483 C132.162818,158.066483 134.652918,159.412729 134.652918,161.073281" id="Fill-53" fill="#CF7A28"></path>
                <path d="M123.459669,169.768225 C123.459669,171.787292 120.432334,173.424225 116.697184,173.424225 C112.962641,173.424225 109.935306,171.787292 109.935306,169.768225 C109.935306,167.749159 112.962641,166.112226 116.697184,166.112226 C120.432334,166.112226 123.459669,167.749159 123.459669,169.768225" id="Fill-55" fill="#CF7A28"></path>
                <polygon id="Fill-57" fill="#E18C26" points="143.89573 138.714211 157.149958 148.695084 152.659643 148.695084 157.149958 158.048557 145.625202 153.705203"></polygon>
                <path d="M81.8258282,9.30914292 C81.8258282,9.30914292 72.706793,10.3883199 73.3423694,20.9360334 C73.9815882,31.5461236 81.6382512,32.2704197 85.1645776,31.8567957 C88.6909041,31.4431718 93.2631697,25.3453979 92.6415552,18.8673081 C91.9756265,11.9289631 86.882516,9.0771986 81.8258282,9.30914292" id="Fill-59" fill="#FEFEFE"></path>
                <path d="M77.5292219,20.743453 C77.0593688,12.9427354 81.921195,10.3229152 84.4877828,9.48658336 C83.6154586,9.32912768 82.7206738,9.26796221 81.8258889,9.30914292 C81.8258889,9.30914292 72.7068537,10.3883199 73.3424301,20.9360334 C73.9816489,31.5461236 81.6383119,32.2704197 85.1646383,31.8567957 C85.4626976,31.821671 85.7692555,31.7320424 86.0782416,31.619401 C82.4129018,31.0846573 78.0075737,28.6804303 77.5292219,20.743453" id="Fill-61" fill="#E5E5E4"></path>
                <path d="M82.7027052,14.8632708 C82.7027052,14.8632708 77.3206411,16.5304841 78.3465478,21.9935905 C79.3724544,27.4573025 82.6851009,27.9211911 84.5293047,27.7049924 C86.1428312,27.5154399 88.4222865,24.6055379 88.4599233,21.4921547 C88.4653867,21.0470397 83.6490889,20.9434823 83.6490889,20.9434823 C83.6490889,20.9434823 88.00039,18.8947417 87.7672846,18.3551532 C86.7371286,15.9727277 84.8589303,14.7639526 82.7027052,14.8632708" id="Fill-63" fill="#323230"></path>
                <path d="M126.243337,5.79249152 C126.243337,5.79249152 115.432466,7.07212169 116.185809,19.5771304 C116.943402,32.1554165 126.021158,33.0141555 130.201879,32.5236205 C134.382601,32.0330855 139.802909,24.8040532 139.065955,17.1238498 C138.276189,8.89860753 132.238516,5.51694409 126.243337,5.79249152" id="Fill-65" fill="#E18C26"></path>
                <path d="M126.716711,9.30914292 C126.716711,9.30914292 117.597675,10.3883199 118.233252,20.9360334 C118.87247,31.5461236 126.529133,32.2704197 130.05546,31.8567957 C133.581786,31.4431718 138.154052,25.3453979 137.532438,18.8673081 C136.866509,11.9289631 131.773398,9.0771986 126.716711,9.30914292" id="Fill-67" fill="#FEFEFE"></path>
                <path d="M122.420165,20.743453 C121.950312,12.9427354 126.812138,10.3229152 129.378726,9.48658336 C128.506402,9.32912768 127.611617,9.26796221 126.716832,9.30914292 C126.716832,9.30914292 117.597797,10.3883199 118.233373,20.9360334 C118.872592,31.5461236 126.529255,32.2704197 130.055581,31.8567957 C130.353641,31.821671 130.660199,31.7320424 130.969185,31.619401 C127.303845,31.0846573 122.898517,28.6804303 122.420165,20.743453" id="Fill-69" fill="#E5E5E4"></path>
                <path d="M127.593648,14.8632708 C127.593648,14.8632708 122.211584,16.5304841 123.237491,21.9935905 C124.263397,27.4573025 127.576044,27.9211911 129.420248,27.7049924 C131.033774,27.5154399 133.31323,24.6055379 133.350866,21.4921547 C133.35633,21.0470397 128.540032,20.9434823 128.540032,20.9434823 C128.540032,20.9434823 132.891333,18.8947417 132.658228,18.3551532 C131.628072,15.9727277 129.749873,14.7639526 127.593648,14.8632708" id="Fill-71" fill="#323230"></path>
                <path d="M83.0046496,224.819998 C83.0046496,224.819998 61.9711352,256.785923 41.6593978,258.768653 C19.4743184,260.93488 0.000303522676,258.70446 0.000303522676,258.70446 C0.000303522676,258.70446 44.3996005,251.086633 49.6414371,203.417533 C49.8951821,201.109596 49.6171553,194.176701 49.6778598,191.677395 C49.6256539,192.083752 55.1795118,189.890274 60.9003072,195.549594 C70.7010544,205.243413 83.0046496,224.819998 83.0046496,224.819998" id="Fill-73" fill="#E18C26"></path>
                <path d="M82.8211398,79.3904842 C82.8211398,79.3904842 91.0362845,84.059045 106.341719,83.5388356 C115.637404,83.2227131 124.787399,82.0084876 130.785007,78.6056282 C107.407691,59.8992883 82.8211398,79.3904842 82.8211398,79.3904842" id="Fill-75" fill="#EF4144"></path>
                <path d="M106.468288,57.1764557 C105.105471,57.2327764 102.697322,57.313321 101.332684,57.3199826 C98.8189094,57.3327002 96.2286469,57.2109748 93.606211,56.9869033 C93.5096908,61.1158756 94.1118798,68.0590653 98.4085468,68.4605773 C105.285764,69.102512 105.932874,63.2106417 106.468288,57.1764557" id="Fill-77" fill="#FEFEFE"></path>
                <path d="M81.3523935,5.79249152 C85.5950335,5.59748872 89.8492073,7.24532293 92.2597844,11.1338725 C96.1127013,10.3042022 100.463395,10.0716523 100.463395,10.0716523 C100.463395,10.0716523 94.8081608,-2.995352 85.0954352,0.638240527 C81.6632008,1.92210988 79.7941081,4.06169028 78.8653287,6.47197332 C80.2955276,5.91785046 81.3523935,5.79249152 81.3523935,5.79249152" id="Fill-79" fill="#EF4144"></path>
                <path d="M111.504336,83.3636359 C114.815161,83.1510707 118.235862,82.8791569 121.220704,81.950774 C120.511068,79.120811 119.434777,75.36731 116.380124,75.5883535 C112.111989,75.8966033 111.555328,79.3709233 111.504336,83.3636359" id="Fill-81" fill="#FEFEFE"></path>
                <path d="M101.128292,83.5184875 C102.805558,83.6050881 104.53928,83.582681 106.341598,83.5390779 C108.083818,83.496686 109.887349,83.5378667 111.504518,83.3634542 C111.336974,80.0992769 110.36388,75.8933936 107.420924,75.6535765 C102.384876,75.2423749 101.5253,79.1612045 101.128292,83.5184875" id="Fill-83" fill="#FEFEFE"></path>
                <path d="M101.128292,83.5184875 C101.493126,80.3076029 101.144075,76.0393429 98.3893034,75.5784822 C94.1296662,74.8656925 92.0098638,78.1274474 91.0361631,82.2116054 C94.1739805,82.9419575 97.3117979,83.4149301 101.128292,83.5184875" id="Fill-85" fill="#FEFEFE"></path>
                <path d="M134.308784,88.0298349 C134.308784,88.0298349 123.528873,91.6797786 113.828895,92.1842423 C113.658315,92.1842423 127.129866,92.5718255 134.763461,90.7647188 C134.487862,89.5795621 134.326995,88.6554184 134.308784,88.0298349" id="Fill-87" fill="#C57829"></path>
                <path d="M97.8720401,91.1653224 C85.4840656,90.218166 70.7771779,83.3415921 70.4991511,83.2107828 C72.2565474,84.1094913 73.428752,84.5443112 73.428752,84.5443112 C73.468817,85.5611115 73.335874,87.0175765 73.0620966,88.8337672 C81.1042334,90.7020394 92.6793742,91.0326963 97.8720401,91.1653224" id="Fill-89" fill="#C57829"></path>
            </g>
        </g>
    </g>
</svg>