<?xml version="1.0" encoding="UTF-8" standalone="no"?>
<svg width="167px" height="171px" viewBox="0 0 167 171" version="1.1" xmlns="http://www.w3.org/2000/svg" xmlns:xlink="http://www.w3.org/1999/xlink">
    <!-- Generator: Sketch 3.8.3 (29802) - http://www.bohemiancoding.com/sketch -->
    <title>monster-red</title>
    <desc>Created with Sketch.</desc>
    <defs>
        <polygon id="path-1" points="13.4508643 28.5923111 13.4508643 0.517632236 0.358928841 0.517632236 0.358928841 28.5923111 13.4508643 28.5923111"></polygon>
        <polygon id="path-3" points="33.3992657 0.369039382 0.428036392 0.369039382 0.428036392 22.0518405 33.3992657 22.0518405 33.3992657 0.369039382"></polygon>
        <polygon id="path-5" points="0 170.371584 165.893993 170.371584 165.893993 0.599089906 0 0.599089906"></polygon>
    </defs>
    <g id="Page-1" stroke="none" stroke-width="1" fill="none" fill-rule="evenodd">
        <g id="monster-red" transform="translate(0.506444, 0.110079)">
            <g id="Group-3" transform="translate(152.443128, 32.580905)">
                <mask id="mask-2" fill="white">
                    <use xlink:href="#path-1"></use>
                </mask>
                <g id="Clip-2"></g>
                <path d="M3.11067676,17.7145494 L3.11067676,5.63210412 C3.11067676,4.41894706 2.98214628,3.23394722 2.74003073,2.09028459 C5.26161942,0.76509772 10.414795,-1.21249806 12.3816102,3.44123233 C15.029936,9.70651457 13.3739851,35.1348857 0.358928841,27.0046365 C2.09797614,24.3237092 3.11067676,21.1323573 3.11067676,17.7145494" id="Fill-1" fill="#DB2E36" mask="url(#mask-2)"></path>
            </g>
            <path d="M161.299895,38.8218048 C160.142523,36.0827657 157.509142,36.4146615 155.520208,37.1635239 C155.468198,36.3152126 155.354613,35.4830767 155.18304,34.6713099 C157.704628,33.3455239 162.857804,31.3685272 164.824619,36.0216585 C167.472945,42.2875399 165.816994,67.7153119 152.801938,59.5850627 C153.271223,58.8619612 153.68551,58.1005179 154.043602,57.307922 C162.185261,60.1949363 163.156114,43.2137329 161.299895,38.8218048" id="Fill-4" fill="#DB2E36"></path>
            <path d="M13.6470675,50.2954548 L15.0447618,38.9570793 C15.0447618,37.7439222 16.1561021,36.2479947 16.3988155,35.1043321 C13.876629,33.7791452 6.47626235,30.8286274 4.37613407,36.0221378 C1.82585021,42.3281582 3.3837592,67.7157911 16.3988155,59.585542 C14.6597682,56.9046147 13.6470675,53.7132627 13.6470675,50.2954548" id="Fill-6" fill="#DB2E36"></path>
            <path d="M7.90097789,38.8218048 C9.05835004,36.0827657 12.9035038,35.3560696 14.8924382,36.104932 C14.8924382,36.104932 15.2068896,35.4165777 15.6917185,34.7545834 C13.169532,33.4287974 6.3430689,31.3685272 4.37625364,36.0216585 C1.72792792,42.2875399 3.38387876,67.7153119 16.398935,59.5850627 C15.9296493,58.8619612 15.5153627,58.1005179 15.1572708,57.307922 C7.01561212,60.1949363 6.04475862,43.2137329 7.90097789,38.8218048" id="Fill-8" fill="#DB2E36"></path>
            <g id="Group-12" transform="translate(28.695177, 0.230051)">
                <mask id="mask-4" fill="white">
                    <use xlink:href="#path-3"></use>
                </mask>
                <g id="Clip-11"></g>
                <path d="M1.44850863,22.0176923 L33.3384155,22.0176923 C33.4065665,21.8391635 33.4191207,21.6456575 33.3677085,21.4353769 C32.1439787,16.4197962 26.7666221,13.9161995 22.9083164,12.7413842 C19.5204921,11.7097514 15.9054976,0.368979473 15.9054976,0.368979473 C15.9054976,0.368979473 17.7963902,12.5185228 10.0104321,13.7442607 C2.22507186,14.9705978 0.428036392,22.0518405 0.428036392,22.0518405 C0.765204723,22.0302732 1.10536214,22.0176923 1.44850863,22.0176923" id="Fill-10" fill="#2490B1" mask="url(#mask-4)"></path>
            </g>
            <path d="M42.0464452,13.9745509 C45.4127482,13.4443563 46.9676681,10.8718643 47.6515698,8.12323977 C45.8904033,4.64492377 44.6009138,0.599269633 44.6009138,0.599269633 C44.6009138,0.599269633 46.4912086,12.7482138 38.7058484,13.9745509 C30.9204881,15.2008879 29.1228548,22.2815315 29.1228548,22.2815315 C29.460621,22.2599643 29.8007784,22.2479825 30.1439249,22.2479825 L32.4730168,22.2479825 C32.6123079,21.7411524 34.5611887,15.1535598 42.0464452,13.9745509" id="Fill-13" fill="#20889F"></path>
            <path d="M66.8719581,22.2477429 L98.761865,22.2477429 C98.830016,22.0692141 98.8425702,21.875708 98.791158,21.6654275 C97.5674282,16.6498468 92.1225184,15.3845689 89.1113182,14.0366166 C85.8227314,12.5640536 85.8406659,4.38887275 85.8406659,4.38887275 C85.8406659,4.38887275 83.2198397,12.7485733 75.4338816,13.9743112 C67.6485214,15.2006483 65.8514859,22.281891 65.8514859,22.281891 C66.1886542,22.2603237 66.5288117,22.2477429 66.8719581,22.2477429" id="Fill-15" fill="#2490B1"></path>
            <path d="M78.5023526,13.9745509 C82.1693571,13.3970282 84.6897501,11.2373091 86.3313534,9.11353538 C85.8357638,6.71777485 85.8405463,4.38911238 85.8405463,4.38911238 C85.8405463,4.38911238 83.2197201,12.7482138 75.4337621,13.9745509 C67.6484018,15.2008879 65.8513663,22.2815315 65.8513663,22.2815315 C66.1891325,22.2599643 66.5286921,22.2479825 66.8718386,22.2479825 L68.9289241,22.2479825 C69.0682153,21.7411524 71.017096,15.1535598 78.5023526,13.9745509" id="Fill-17" fill="#20889F"></path>
            <path d="M103.600171,22.2477429 L135.490078,22.2477429 C135.558229,22.0692141 135.570783,21.875708 135.519371,21.6654275 C134.295641,16.6498468 129.829954,14.8495816 125.977029,13.3356814 C122.62328,12.0170845 120.263101,1.60550104 120.263101,1.60550104 C120.263101,1.60550104 119.948052,12.7485733 112.162094,13.9743112 C104.376734,15.2006483 102.579699,22.281891 102.579699,22.281891 C102.916867,22.2603237 103.257024,22.2477429 103.600171,22.2477429" id="Fill-19" fill="#2490B1"></path>
            <path d="M114.62438,13.9745509 C118.769039,13.322142 120.796234,9.85880323 121.786218,6.76270659 C120.824331,4.07638745 120.262982,1.60514159 120.262982,1.60514159 C120.262982,1.60514159 119.947933,12.7482138 112.162572,13.9745509 C104.376614,15.2008879 102.579579,22.2815315 102.579579,22.2815315 C102.917345,22.2599643 103.257503,22.2479825 103.600051,22.2479825 L105.050951,22.2479825 C105.190242,21.7411524 107.139123,15.1535598 114.62438,13.9745509" id="Fill-21" fill="#20889F"></path>
            <path d="M135.62901,67.4246933 L33.6128729,67.4246933 C20.8961269,67.4246933 10.4917339,56.9981326 10.4917339,44.2542921 L10.4917339,44.2542921 C10.4917339,31.5104516 20.8961269,21.0838909 33.6128729,21.0838909 L135.62901,21.0838909 C148.345756,21.0838909 158.750149,31.5104516 158.750149,44.2542921 L158.750149,44.2542921 C158.750149,56.9981326 148.345756,67.4246933 135.62901,67.4246933" id="Fill-23" fill="#EF4144"></path>
            <path d="M142.810875,33.2420611 C142.810875,33.7698593 142.023551,34.1976095 141.0521,34.1976095 C140.080648,34.1976095 139.292727,33.7698593 139.292727,33.2420611 C139.292727,32.7142629 140.080648,32.2865127 141.0521,32.2865127 C142.023551,32.2865127 142.810875,32.7142629 142.810875,33.2420611" id="Fill-25" fill="#DB2E36"></path>
            <path d="M146.061441,37.2152254 C146.061441,37.9664841 144.939937,38.5757585 143.556591,38.5757585 C142.173244,38.5757585 141.051741,37.9664841 141.051741,37.2152254 C141.051741,36.4639666 142.173244,35.8546922 143.556591,35.8546922 C144.939937,35.8546922 146.061441,36.4639666 146.061441,37.2152254" id="Fill-27" fill="#DB2E36"></path>
            <path d="M149.730298,34.0246522 C149.730298,34.775911 148.608795,35.3851854 147.225449,35.3851854 C145.842102,35.3851854 144.720599,34.775911 144.720599,34.0246522 C144.720599,33.2733935 145.842102,32.6641191 147.225449,32.6641191 C148.608795,32.6641191 149.730298,33.2733935 149.730298,34.0246522" id="Fill-29" fill="#DB2E36"></path>
            <path d="M21.509307,47.0336499 C21.509307,47.5614481 20.721983,47.9891983 19.7505317,47.9891983 C18.7790804,47.9891983 17.9911587,47.5614481 17.9911587,47.0336499 C17.9911587,46.5058517 18.7790804,46.0781015 19.7505317,46.0781015 C20.721983,46.0781015 21.509307,46.5058517 21.509307,47.0336499" id="Fill-31" fill="#DB2E36"></path>
            <path d="M24.7598727,51.0067543 C24.7598727,51.758013 23.6383695,52.3672875 22.2550229,52.3672875 C20.8716762,52.3672875 19.750173,51.758013 19.750173,51.0067543 C19.750173,50.2554955 20.8716762,49.6462211 22.2550229,49.6462211 C23.6383695,49.6462211 24.7598727,50.2554955 24.7598727,51.0067543" id="Fill-33" fill="#DB2E36"></path>
            <path d="M28.4287304,47.8161812 C28.4287304,48.5674399 27.3072273,49.1767143 25.9238806,49.1767143 C24.5405339,49.1767143 23.4190308,48.5674399 23.4190308,47.8161812 C23.4190308,47.0649224 24.5405339,46.455648 25.9238806,46.455648 C27.3072273,46.455648 28.4287304,47.0649224 28.4287304,47.8161812" id="Fill-35" fill="#DB2E36"></path>
            <path d="M57.5055534,28.2469094 C57.5055534,28.2469094 50.5959939,29.6451852 51.0007155,36.3969285 C51.4078283,43.1882116 57.3859902,42.944382 59.6331812,42.6795843 C61.8803723,42.4147866 65.8217744,41.1800623 65.4254223,37.033761 C65.0009728,32.5927075 60.7277827,28.0983351 57.5055534,28.2469094" id="Fill-37" fill="#FEFEFE"></path>
            <path d="M54.5066683,35.5661106 C54.2071624,30.5726962 57.3056437,28.8958436 58.940671,28.3602572 C58.3847019,28.2596101 57.8149831,28.2206692 57.2446664,28.2470292 C57.2446664,28.2470292 51.0148239,30.1503378 51.4201433,36.9020811 C51.8272561,43.6933642 57.1251032,42.9445019 59.3722943,42.6797041 C59.561802,42.6575378 59.7572879,42.6000252 59.9545672,42.5281344 C57.6183016,42.1854549 54.8115545,40.6469921 54.5066683,35.5661106" id="Fill-39" fill="#E5E5E4"></path>
            <path d="M58.0164471,32.6824512 C58.0164471,32.6824512 55.2156783,33.4367054 55.6347474,36.2787879 C56.0532188,39.1214695 57.7474299,39.4270054 58.7003489,39.3521191 C59.5337046,39.2862193 60.7634125,37.8286335 60.8447155,36.2206762 C60.8566719,35.9912248 58.3823106,35.8420514 58.3823106,35.8420514 C58.3823106,35.8420514 60.6605881,34.8703276 60.5511878,34.586958 C60.0687501,33.3354592 59.1271896,32.674064 58.0164471,32.6824512" id="Fill-41" fill="#323230"></path>
            <path d="M83.4959112,28.2469094 C83.4959112,28.2469094 76.5863517,29.6451852 76.9910732,36.3969285 C77.3981861,43.1882116 83.376348,42.944382 85.623539,42.6795843 C87.8707301,42.4147866 91.8121322,41.1800623 91.4157801,37.033761 C90.9913306,32.5927075 86.7181405,28.0983351 83.4959112,28.2469094" id="Fill-43" fill="#FEFEFE"></path>
            <path d="M80.7580326,35.5661106 C80.4585267,30.5726962 83.557008,28.8958436 85.1920353,28.3602572 C84.6360662,28.2596101 84.0663474,28.2206692 83.4960308,28.2470292 C83.4960308,28.2470292 77.2661882,30.1503378 77.6715076,36.9020811 C78.0786204,43.6933642 83.3764675,42.9445019 85.6236586,42.6797041 C85.8131663,42.6575378 86.0086522,42.6000252 86.2059315,42.5281344 C83.8696659,42.1854549 81.0629189,40.6469921 80.7580326,35.5661106" id="Fill-45" fill="#E5E5E4"></path>
            <path d="M81.7270927,32.6824512 C81.7270927,32.6824512 78.9263238,33.4367054 79.345393,36.2787879 C79.7638643,39.1214695 81.4580754,39.4270054 82.4109944,39.3521191 C83.2443501,39.2862193 84.474058,37.8286335 84.555361,36.2206762 C84.5673174,35.9912248 82.0929562,35.8420514 82.0929562,35.8420514 C82.0929562,35.8420514 84.3712337,34.8703276 84.2618333,34.586958 C83.7793956,33.3354592 82.8378351,32.674064 81.7270927,32.6824512" id="Fill-47" fill="#323230"></path>
            <mask id="mask-6" fill="white">
                <use xlink:href="#path-5"></use>
            </mask>
            <g id="Clip-50"></g>
            <polygon id="Fill-49" fill="#EDA041" mask="url(#mask-6)" points="29.6283682 141.805779 134.352015 141.805779 134.352015 67.4245735 29.6283682 67.4245735"></polygon>
            <path d="M108.07345,28.2469094 C108.07345,28.2469094 101.16389,29.6451852 101.568612,36.3969285 C101.975725,43.1882116 107.953887,42.944382 110.201078,42.6795843 C112.448269,42.4147866 116.389671,41.1800623 115.993319,37.033761 C115.568869,32.5927075 111.295679,28.0983351 108.07345,28.2469094" id="Fill-51" fill="#FEFEFE" mask="url(#mask-6)"></path>
            <path d="M105.335571,35.5661106 C105.036065,30.5726962 108.134547,28.8958436 109.769574,28.3602572 C109.213605,28.2596101 108.643886,28.2206692 108.07357,28.2470292 C108.07357,28.2470292 101.843727,30.1503378 102.249046,36.9020811 C102.656159,43.6933642 107.954006,42.9445019 110.201197,42.6797041 C110.390705,42.6575378 110.586191,42.6000252 110.78347,42.5281344 C108.447205,42.1854549 105.640458,40.6469921 105.335571,35.5661106" id="Fill-52" fill="#E5E5E4" mask="url(#mask-6)"></path>
            <path d="M110.581289,32.6824512 C110.581289,32.6824512 107.78052,33.4367054 108.199589,36.2787879 C108.618061,39.1214695 110.312272,39.4270054 111.265191,39.3521191 C112.098546,39.2862193 113.328254,37.8286335 113.409557,36.2206762 C113.421514,35.9912248 110.947152,35.8420514 110.947152,35.8420514 C110.947152,35.8420514 113.22543,34.8703276 113.11603,34.586958 C112.633592,33.3354592 111.692031,32.674064 110.581289,32.6824512" id="Fill-53" fill="#323230" mask="url(#mask-6)"></path>
            <polygon id="Fill-54" fill="#CB812E" mask="url(#mask-6)" points="83.6744789 79.7463552 83.6744789 129.554091 111.233207 128.41582 105.701614 67.4248731 105.655582 67.4248731"></polygon>
            <polygon id="Fill-55" fill="#DB2E36" mask="url(#mask-6)" points="59.2860294 154.736536 72.1534251 154.736536 72.1534251 137.365924 59.2860294 137.365924"></polygon>
            <polygon id="Fill-56" fill="#6B4D9F" mask="url(#mask-6)" points="72.1534848 149.911166 59.2860892 149.911166 59.2860892 161.621576 72.1534848 164.762605"></polygon>
            <polygon id="Fill-57" fill="#FEFEFE" mask="url(#mask-6)" points="112.689308 67.4246933 54.6598886 67.4246933 83.6742995 79.7461755"></polygon>
            <path d="M59.2863881,159.153685 C59.2863881,159.153685 43.8047422,160.239236 43.8047422,170.371644 L72.1537837,170.371644 L72.1537837,161.621337 C64.8574371,164.762365 59.2863881,159.153685 59.2863881,159.153685" id="Fill-58" fill="#398941" mask="url(#mask-6)"></path>
            <path d="M54.0937566,170.371584 C52.4688922,165.935323 49.971814,163.93616 47.6875584,163.056696 C45.4600952,164.713779 43.8047422,167.059216 43.8047422,170.371584 L54.0937566,170.371584 Z" id="Fill-59" fill="#E5E5E4" mask="url(#mask-6)"></path>
            <polygon id="Fill-60" fill="#DB2E36" mask="url(#mask-6)" points="29.628966 141.805779 138.456023 141.805779 138.456023 128.41612 29.628966 128.41612"></polygon>
            <path d="M129.28086,37.871109 L127.875394,37.6518421 C127.875394,37.6518421 126.682751,46.8946012 119.935199,50.1392721 C113.187648,53.383943 66.2255993,52.930432 57.6851972,52.6063243 C49.1453929,52.2822167 44.6133484,47.8854959 43.6490709,44.7103194 C42.9059853,42.2618389 42.5203939,39.8283357 42.3822984,38.8416346 L33.6990182,46.6262089 L44.0256951,47.5008801 L41.4461182,58.388141 L50.7762355,52.7063723 L50.4259152,61.9880723 L58.8246348,54.3394914 L60.9295457,62.386467 L66.2913591,54.3814277 L70.0940678,62.1306557 C70.0940678,62.1306557 74.7385018,53.9776411 74.7205673,54.4593094 C74.7026329,54.9415768 78.7821305,61.7358554 78.7821305,61.7358554 L83.0864071,55.1392764 L87.2998156,62.6626475 L91.7170794,54.1387963 L96.4643378,62.4068361 L100.276014,53.9806366 L105.508699,62.146232 C105.508699,62.146232 108.142677,53.4336675 108.180937,53.7973151 C108.219198,54.1609626 113.066889,61.346447 113.066889,61.346447 L115.740921,52.7566959 L122.065218,60.7221953 L122.456788,50.3555435 L130.403559,56.8137327 L126.842965,45.8509865 L137.111654,48.2557334 L129.28086,37.871109 Z" id="Fill-61" fill="#DB2E36" mask="url(#mask-6)"></path>
            <polygon id="Fill-62" fill="#DB2E36" mask="url(#mask-6)" points="97.0590454 154.736536 109.926441 154.736536 109.926441 137.365924 97.0590454 137.365924"></polygon>
            <polygon id="Fill-63" fill="#6B4D9F" mask="url(#mask-6)" points="97.058866 149.911166 109.926262 149.911166 109.926262 161.621576 97.058866 164.762605"></polygon>
            <path d="M109.925963,159.153685 C109.925963,159.153685 125.407609,160.239236 125.407609,170.371644 L97.0585671,170.371644 L97.0585671,161.621337 C104.354914,164.762365 109.925963,159.153685 109.925963,159.153685" id="Fill-64" fill="#398941" mask="url(#mask-6)"></path>
            <path d="M115.118594,170.371584 C116.743459,165.935323 119.240537,163.93616 121.524792,163.056696 C123.752256,164.713779 125.407609,167.059216 125.407609,170.371584 L115.118594,170.371584 Z" id="Fill-65" fill="#E5E5E4" mask="url(#mask-6)"></path>
            <polygon id="Fill-66" fill="#BE202D" mask="url(#mask-6)" points="62.0945698 131.032944 104.647724 131.032944 104.647724 128.41612 62.0945698 128.41612"></polygon>
            <polygon id="Fill-67" fill="#59B3C8" mask="url(#mask-6)" points="105.699641 67.4013887 88.4789483 89.8151394 108.873448 141.805959 138.455784 141.805959 137.978129 67.4013887"></polygon>
            <path d="M142.208037,91.8254455 L147.022849,96.8919488 C147.022849,96.8919488 144.615443,105.576955 147.745011,107.024356 C150.874578,108.472357 151.917768,100.751885 151.917768,100.751885 C151.917768,100.751885 152.559822,111.367159 155.689988,110.161191 C158.819556,108.954624 155.689988,99.0630507 155.689988,99.0630507 C155.689988,99.0630507 158.097394,107.26579 161.226961,105.73811 C164.356529,104.209832 159.644542,96.77273 159.644542,96.77273 C159.644542,96.77273 162.758566,101.739185 164.343975,100.278604 C166.3628,98.4196281 166.278508,95.7560744 161.226961,92.0668787 C159.343242,90.6907692 156.251337,89.8951778 154.133274,89.2517553 C154.133274,89.2517553 147.150183,81.7170015 147.275127,82.0554873 C147.462244,82.5635156 142.208037,91.8254455 142.208037,91.8254455" id="Fill-68" fill="#EF4144" mask="url(#mask-6)"></path>
            <path d="M137.403986,74.8570027 C137.403986,74.8570027 143.412039,75.9024146 148.467173,80.7173002 C148.467173,81.682434 142.574498,92.9513152 142.574498,92.9513152 C142.574498,92.9513152 138.596629,88.8499457 135.948902,88.3676783 L137.403986,74.8570027 Z" id="Fill-69" fill="#59B3C8" mask="url(#mask-6)"></path>
            <path d="M23.3692327,91.8254455 L18.5544211,96.8919488 C18.5544211,96.8919488 20.9618269,105.576955 17.8322591,107.024356 C14.7026914,108.472357 13.6595021,100.751885 13.6595021,100.751885 C13.6595021,100.751885 13.0174475,111.367159 9.88728197,110.161191 C6.75771421,108.954624 9.88728197,99.0630507 9.88728197,99.0630507 C9.88728197,99.0630507 7.47987617,107.26579 4.35030841,105.73811 C1.22074066,104.209832 5.93272787,96.77273 5.93272787,96.77273 C5.93272787,96.77273 2.81870334,101.739185 1.2332948,100.278604 C-0.785530474,98.4196281 -0.701238391,95.7560744 4.35030841,92.0668787 C6.23402723,90.6907692 9.32593256,89.8951778 11.4439953,89.2517553 C11.4439953,89.2517553 18.4270862,81.7170015 18.3021427,82.0554873 C18.1150262,82.5635156 23.3692327,91.8254455 23.3692327,91.8254455" id="Fill-70" fill="#EF4144" mask="url(#mask-6)"></path>
            <path d="M61.1453573,67.4013288 L28.8668699,67.4013288 L28.9111083,74.3268082 C25.5513813,75.4884435 20.3342395,77.6463653 17.1096189,80.7173002 C17.1096189,81.682434 23.0028909,92.9513152 23.0028909,92.9513152 C23.0028909,92.9513152 26.3972913,89.4556256 29.0025742,88.5426125 L29.3439273,141.805899 L58.9268614,141.805899 L79.3207629,89.8150795 L61.1453573,67.4013288 Z" id="Fill-71" fill="#6ECCE5" mask="url(#mask-6)"></path>
            <path d="M19.7896289,82.4701773 C23.0136516,79.3998416 28.2313913,77.2419197 31.5905205,76.0796853 L31.5462821,67.3623281 L28.8668699,67.4012689 L28.9111083,74.3267482 C25.5513813,75.4889827 20.3342395,77.6469045 17.1096189,80.7172403 C17.1096189,81.6823741 23.0028909,92.9512553 23.0028909,92.9512553 C23.0028909,92.9512553 22.2825224,93.602466 23.0028909,92.9512553 C22.2825224,93.602466 19.7896289,83.1183926 19.7896289,82.4701773" id="Fill-72" fill="#64C1D7" mask="url(#mask-6)"></path>
            <path d="M31.6820462,87.0293114 C30.8307559,87.3276582 29.896967,87.9027845 29.0229597,88.5402162 L29.343987,141.805899 L32.0126385,141.805899 L31.6820462,87.0293114 Z" id="Fill-73" fill="#64C1D7" mask="url(#mask-6)"></path>
            <path d="M39.1104503,96.4656964 L39.1104503,110.256746 C39.1104503,118.811151 56.062724,119.715777 56.062724,109.261059 L56.062724,96.4656964 L39.1104503,96.4656964 Z" id="Fill-74" fill="#EF4144" mask="url(#mask-6)"></path>
            <polygon id="Fill-75" fill="#DB2E36" mask="url(#mask-6)" points="38.3881688 99.3303047 56.7847664 99.3303047 56.7847664 94.0834753 38.3881688 94.0834753"></polygon>
            <path d="M87.7138631,93.8570792 C87.7138631,96.0006229 85.9801962,97.7379836 83.8412098,97.7379836 C81.7022235,97.7379836 79.9685565,96.0006229 79.9685565,93.8570792 C79.9685565,91.7135355 81.7022235,89.9761748 83.8412098,89.9761748 C85.9801962,89.9761748 87.7138631,91.7135355 87.7138631,93.8570792" id="Fill-76" fill="#B16B28" mask="url(#mask-6)"></path>
            <path d="M87.7138631,106.356551 C87.7138631,108.500095 85.9801962,110.237455 83.8412098,110.237455 C81.7022235,110.237455 79.9685565,108.500095 79.9685565,106.356551 C79.9685565,104.213007 81.7022235,102.475647 83.8412098,102.475647 C85.9801962,102.475647 87.7138631,104.213007 87.7138631,106.356551" id="Fill-77" fill="#B16B28" mask="url(#mask-6)"></path>
            <path d="M87.7138631,118.227997 C87.7138631,120.37154 85.9801962,122.108901 83.8412098,122.108901 C81.7022235,122.108901 79.9685565,120.37154 79.9685565,118.227997 C79.9685565,116.084453 81.7022235,114.347092 83.8412098,114.347092 C85.9801962,114.347092 87.7138631,116.084453 87.7138631,118.227997" id="Fill-78" fill="#B16B28" mask="url(#mask-6)"></path>
            <path d="M128.166231,93.5468704 L111.026243,96.396142 C108.627207,96.7945368 106.35969,95.1692059 105.962143,92.7650581 L105.962143,92.7650581 C105.563997,90.3609103 107.18647,88.0885623 109.585506,87.6895684 L126.725494,84.8408959 C129.123933,84.441902 131.39145,86.0678321 131.789595,88.4719798 L131.789595,88.4719798 C132.187741,90.8761276 130.565268,93.1478766 128.166231,93.5468704" id="Fill-79" fill="#FEFEFE" mask="url(#mask-6)"></path>
            <path d="M111.222985,89.9162658 C111.269614,89.9084776 111.306679,89.9396303 111.313853,89.9815666 L111.883572,93.4221399 C111.88955,93.4586844 111.864442,93.5006207 111.817214,93.5084089 L110.846361,93.6695641 C110.804513,93.6767531 110.767449,93.6450014 110.761471,93.609056 L110.568376,92.4426279 L109.840834,92.5636441 L110.033928,93.729473 C110.039907,93.7660175 110.014798,93.8079538 109.968169,93.815742 L108.996717,93.9768972 C108.96025,93.9828881 108.917806,93.9529336 108.911827,93.9163891 L108.342706,90.4752167 C108.335533,90.4338795 108.366021,90.3913441 108.402488,90.3853532 L109.373939,90.2235989 C109.420569,90.2158107 109.457634,90.2469634 109.464807,90.2888997 L109.689586,91.6476356 L110.416531,91.5266195 L110.191752,90.1678836 C110.185176,90.1265464 110.210284,90.0846101 110.251533,90.0780201 L111.222985,89.9162658 Z" id="Fill-80" fill="#221F20" mask="url(#mask-6)"></path>
            <path d="M114.602739,92.0823952 C114.643988,92.0752061 114.685835,92.100967 114.691813,92.1369124 L114.823931,92.9337019 C114.829909,92.9702464 114.79942,93.0127818 114.757573,93.0193718 L112.342396,93.420762 C112.305929,93.4267529 112.262886,93.3914066 112.246147,93.3566594 L111.677026,89.915487 C111.669255,89.868758 111.690776,89.8388035 111.737406,89.8310153 L114.101171,89.4380123 C114.1478,89.4302242 114.190245,89.4607777 114.196224,89.4967231 L114.32595,90.2827291 C114.333721,90.3300572 114.302635,90.3672008 114.256005,90.3749889 L112.900158,90.6002467 L112.968309,91.0112224 L114.069487,90.8285 C114.116116,90.8207118 114.148398,90.8530627 114.148398,90.8848144 L114.196224,91.6258887 C114.196224,91.6576404 114.165735,91.7001758 114.119105,91.707964 L113.111187,91.8757092 L113.184719,92.3178375 L114.602739,92.0823952 Z" id="Fill-81" fill="#221F20" mask="url(#mask-6)"></path>
            <path d="M117.513924,88.8705544 C117.560554,88.8627662 117.597618,88.8939189 117.604792,88.9358552 L118.174511,92.3764285 C118.180489,92.412973 118.155381,92.4549093 118.108751,92.4626974 L117.209636,92.6118708 C117.173169,92.6178617 117.122355,92.599889 117.089475,92.5621464 L115.917755,91.093777 L116.184979,92.7071261 C116.190957,92.7436706 116.165849,92.7856069 116.119219,92.7933951 L115.199778,92.946163 C115.157931,92.952753 115.120866,92.9216003 115.114888,92.8850558 L114.545169,89.4444825 C114.537995,89.4025462 114.563103,89.361209 114.604951,89.3540199 L115.503468,89.2048465 C115.550098,89.1970584 115.60689,89.214432 115.63439,89.2527737 L116.800729,90.7223413 L116.534701,89.1137849 C116.527527,89.0718486 116.558016,89.0293132 116.594483,89.0233223 L117.513924,88.8705544 Z" id="Fill-82" fill="#221F20" mask="url(#mask-6)"></path>
            <path d="M119.594265,90.0545357 C119.77062,90.0251803 119.872249,89.8957769 119.84475,89.7292299 C119.81725,89.5626829 119.679752,89.4734185 119.502799,89.5027739 L119.196717,89.5536966 L119.287585,90.1054584 L119.594265,90.0545357 Z M121.512657,91.8110674 C121.546732,91.8536027 121.516244,91.8961381 121.469614,91.9039263 L120.357676,92.088446 C120.306264,92.0974323 120.253058,92.068676 120.224961,92.0249424 L119.496821,90.9801296 L119.43405,90.9903142 L119.623558,92.1357741 C119.630134,92.1723186 119.599645,92.2148539 119.553015,92.2226421 L118.638357,92.3742119 C118.597107,92.3814009 118.554662,92.3508474 118.548684,92.3143029 L117.978965,88.8737295 C117.972389,88.8317932 118.00228,88.7892579 118.044127,88.7826679 L119.415518,88.5544146 C120.215396,88.4214167 120.822777,88.8018387 120.939949,89.509963 C121.0081,89.9209387 120.827559,90.3792425 120.465283,90.6104912 L121.512657,91.8110674 Z" id="Fill-83" fill="#221F20" mask="url(#mask-6)"></path>
            <path d="M124.038729,87.785962 C124.085359,87.7781738 124.127804,87.8087274 124.109869,87.8596501 L123.304611,90.1224126 L123.530585,91.4865403 C123.536564,91.5224857 123.506075,91.5650211 123.464228,91.5722102 L122.550167,91.724379 C122.508918,91.730969 122.466473,91.7004154 122.460494,91.6644701 L122.23452,90.3003423 L120.743566,88.4192 C120.710089,88.3766646 120.739979,88.3341293 120.787207,88.3263411 L121.867461,88.1466141 C121.919471,88.1382269 121.972079,88.1669832 122.000774,88.2101176 L122.581851,89.0764017 L122.852662,88.0687324 C122.865814,88.0184089 122.906465,87.9740762 122.958475,87.965689 L124.038729,87.785962 Z" id="Fill-84" fill="#221F20" mask="url(#mask-6)"></path>
            <path d="M128.251659,87.0856259 C128.298289,87.0778377 128.335354,87.1089904 128.342527,87.1509267 L128.912246,90.5915 C128.918224,90.6280445 128.893116,90.6699808 128.846486,90.677769 L127.875035,90.8389242 C127.833188,90.8461132 127.796123,90.8143615 127.790145,90.7784161 L127.597051,89.611988 L126.869508,89.7330042 L127.062603,90.8988331 C127.068581,90.9353776 127.043473,90.9773139 126.996843,90.9851021 L126.025392,91.1462573 C125.988925,91.1522482 125.947078,91.1222937 125.940502,91.0857492 L125.371381,87.6445768 C125.364207,87.6032396 125.394696,87.5607042 125.431163,87.5547133 L126.402614,87.392959 C126.449244,87.3851708 126.486308,87.4163235 126.493482,87.4582598 L126.718261,88.8169957 L127.445205,88.6959796 L127.220426,87.3372437 C127.21385,87.2959065 127.238959,87.2539702 127.280208,87.2473802 L128.251659,87.0856259 Z" id="Fill-85" fill="#221F20" mask="url(#mask-6)"></path>
            <path d="M129.703096,90.6673192 C129.425902,90.7158162 129.21485,90.5652201 129.172159,90.2933815 C129.128866,90.0164379 129.282195,89.7956487 129.559388,89.7471517 C129.835981,89.6980165 130.048236,89.8543556 130.091529,90.1319374 C130.13422,90.4031379 129.98029,90.6188221 129.703096,90.6673192" id="Fill-86" fill="#221F20" mask="url(#mask-6)"></path>
            <polyline id="Fill-87" fill="#BE202D" mask="url(#mask-6)" points="107.061467 141.805839 108.873448 141.805839 89.4611603 92.3180172 88.2613432 93.8792455"></polyline>
            <polygon id="Fill-88" fill="#B16B28" mask="url(#mask-6)" points="103.620855 128.41606 89.4609809 92.3178974 88.2611638 93.8791257 101.808874 128.41606"></polygon>
            <path id="Fill-89" fill="#FEFEFE" mask="url(#mask-6)"></path>
            <path id="Fill-90" fill="#FEFEFE" mask="url(#mask-6)"></path>
            <path id="Fill-91" fill="#FEFEFE" mask="url(#mask-6)"></path>
            <path d="M140.090034,39.5565885 L129.28092,37.8713486 L137.111116,48.2559731 L126.843025,45.8512262 L130.403618,56.8133733 L122.456848,50.3557832 L122.065278,60.7224349 L115.740383,52.7563364 L113.066949,61.3466866 C113.066949,61.3466866 108.219257,54.1612023 108.180997,53.7975547 C108.142737,53.4339071 105.508161,62.1464716 105.508161,62.1464716 L100.276074,53.9802771 L96.4643976,62.4064767 L91.7171392,54.1384369 L87.2998754,62.662288 L83.0864669,55.138917 L78.7821903,61.736095 C78.7821903,61.736095 74.7020948,54.9418164 74.7206271,54.459549 C74.7385616,53.9772817 70.0941276,62.1302962 70.0941276,62.1302962 L66.2914188,54.3810683 L60.9296054,62.3867067 L58.8246946,54.339132 L50.4253772,61.9877128 L50.7762953,52.7060129 L41.446178,58.3877816 L44.0257548,47.5005207 L33.699078,46.6264485 L42.3823581,38.8418743 C42.382956,38.8472661 42.3841516,38.8550542 42.3853472,38.8604461 C42.3429023,38.5585047 42.3219787,38.3823723 42.3219787,38.3823723 C42.3219787,38.3823723 30.0117477,38.3793769 30.0213128,38.7609971 C30.4571208,55.9189321 43.8129323,62.7030262 54.6585136,63.235018 C65.5034971,63.7670098 108.424308,64.6710365 124.350729,60.8087039 C140.276553,56.9463712 140.090034,39.5565885 140.090034,39.5565885" id="Fill-92" fill="#FEFEFE" mask="url(#mask-6)"></path>
            <path id="Fill-93" fill="#FEFEFE" mask="url(#mask-6)"></path>
            <path id="Fill-94" fill="#FEFEFE" mask="url(#mask-6)"></path>
            <path id="Fill-95" fill="#FEFEFE" mask="url(#mask-6)"></path>
            <path id="Fill-96" fill="#FEFEFE" mask="url(#mask-6)"></path>
            <polygon id="Fill-97" fill="#2490B1" mask="url(#mask-6)" points="105.699641 67.4013887 115.203125 70.8503493 103.344843 78.6385181 105.713989 82.9861136 88.4789483 89.8151394"></polygon>
            <polygon id="Fill-98" fill="#2490B1" mask="url(#mask-6)" points="61.0642934 67.4013887 51.5608094 70.8503493 63.4190914 78.6385181 61.0499458 82.9861136 79.321002 89.8151394"></polygon>
            <path d="M100.743566,67.4246933 C100.743566,67.4246933 87.714162,72.2030344 87.714162,71.8411841 L87.714162,71.9310476 C86.8270028,71.2642606 85.7294123,70.8646676 84.5355733,70.8646676 C83.3985269,70.8646676 82.3475661,71.2265179 81.4837217,71.8363914 C80.6718873,71.8657468 68.4985562,67.4013288 68.4985562,67.4013288 L68.4985562,84.9666449 L81.1507381,80.2811627 C82.0695815,81.0444033 83.2490729,81.5033061 84.5355733,81.5033061 C85.837617,81.5033061 87.027869,81.0318224 87.951495,80.2524064 L100.743566,84.9900094 L100.743566,67.4246933 Z" id="Fill-99" fill="#398941" mask="url(#mask-6)"></path>
            <path d="M69.9228533,67.9237352 C68.0164175,67.2377773 68.4982573,67.4013288 68.4982573,67.4013288 L68.4982573,84.9666449 L71.8292891,83.7331188 L69.9228533,67.9237352 Z" id="Fill-100" fill="#32673E" mask="url(#mask-6)"></path>
        </g>
    </g>
</svg>