<?xml version="1.0" encoding="UTF-8" standalone="no"?>
<svg width="161px" height="163px" viewBox="0 0 161 163" version="1.1" xmlns="http://www.w3.org/2000/svg" xmlns:xlink="http://www.w3.org/1999/xlink">
    <!-- Generator: Sketch 3.8.3 (29802) - http://www.bohemiancoding.com/sketch -->
    <title>monster-ball</title>
    <desc>Created with Sketch.</desc>
    <defs>
        <polygon id="path-1" points="-1.59872116e-14 0.0166253435 -1.59872116e-14 8.86318134 9.66205863 8.86318134 9.66205863 0.0166253435 -1.59872116e-14 0.0166253435"></polygon>
        <polygon id="path-3" points="9.27387908 7.38062219 9.27387908 0.207840209 0.148739076 0.207840209 0.148739076 7.38062219 9.27387908 7.38062219"></polygon>
        <polygon id="path-5" points="0.0474768777 10.3030298 23.5853351 10.3030298 23.5853351 0.422705211 0.0474768777 0.422705211 0.0474768777 10.3030298"></polygon>
        <polygon id="path-7" points="11.5945451 0.435537167 0.381871107 0.435537167 0.381871107 11.673239 11.5945451 11.673239 11.5945451 0.435537167"></polygon>
    </defs>
    <g id="Page-1" stroke="none" stroke-width="1" fill="none" fill-rule="evenodd">
        <g id="monster-ball" transform="translate(85.170303, 81.726207) rotate(-7.000000) translate(-85.170303, -81.726207) translate(4.170303, -0.773793)">
            <path d="M80.3742418,163.003074 C100.362482,163.003074 116.566152,159.417402 116.566152,154.994252 C116.566152,150.571102 100.362482,146.985431 80.3742418,146.985431 C60.3860018,146.985431 44.1823317,150.571102 44.1823317,154.994252 C44.1823317,159.417402 60.3860018,163.003074 80.3742418,163.003074 Z" id="Oval-4-Copy" fill="#545D28" opacity="0.256996269" transform="translate(80.374242, 154.994252) rotate(2.000000) translate(-80.374242, -154.994252) "></path>
            <g id="Page-1">
                <path d="M122.489971,48.8484905 C125.995129,43.5162043 132.451704,31.4560396 124.533439,24.6148279 C116.555361,17.722101 106.674937,27.5727341 102.531458,32.4975823 C94.8557175,28.670475 87.2365197,26.86042 81.8294828,26.7578581 C76.6261853,26.6590426 68.9672677,27.892128 60.9611521,31.0467284 C57.8396408,26.6342217 51.7877408,20.5427895 43.6582601,23.8978307 C34.1633518,27.8157919 37.9928106,39.5959015 40.1325412,44.5820995 C31.8993216,52.983752 25.8343374,64.8430075 25.4665785,81.1625383 C24.6189106,118.815429 67.9924964,141.191268 82.6640665,139.03934 C97.336104,136.887411 130.258702,120.748652 132.047963,81.6566155 C132.676471,67.9329798 128.660563,57.1204184 122.489971,48.8484905" id="Fill-1" fill="#599D7C"></path>
                <path d="M108.063075,34.8161855 C110.388787,32.0516953 117.498169,25.0105111 122.08838,22.9742577 C116.063583,20.203211 106.921947,26.3363237 102.489682,32.4240093 C104.430813,33.1494362 106.077083,33.826158 108.063075,34.8161855" id="Fill-3" fill="#528C70"></path>
                <path d="M129.304585,77.0961198 C129.304585,77.0961198 142.187361,73.5097288 142.42568,62.0330903 L149.344407,62.0330903 C149.344407,62.0330903 147.913091,82.1563124 129.304585,83.6905272 C110.696079,85.2252103 129.304585,77.0961198 129.304585,77.0961198" id="Fill-5" fill="#599D7C"></path>
                <path d="M21.8414198,52.2303663 C22.3657216,52.2303663 29.3442618,45.0575844 29.3442618,45.0575844 L20.2189816,46.8507799 L21.8414198,52.2303663 Z" id="Fill-7" fill="#F7B71C"></path>
                <path d="M19.1451911,46.1872647 C18.6568709,43.9440142 17.0577973,34.8899926 17.0577973,34.8899926 L13.0021691,44.7841794 L19.1451911,46.1872647 Z" id="Fill-9" fill="#F7B71C"></path>
                <g id="Group-13" transform="translate(0.000000, 42.649860)">
                    <mask id="mask-2" fill="white">
                        <use xlink:href="#path-1"></use>
                    </mask>
                    <g id="Clip-12"></g>
                    <polygon id="Fill-11" fill="#F7B71C" mask="url(#mask-2)" points="9.66205863 3.48359485 -0.000140187629 0.0166253435 6.44148146 8.86318134"></polygon>
                </g>
                <path d="M24.0954967,51.5130881 C24.0954967,56.3990658 20.1436074,60.3596441 15.2683489,60.3596441 C10.3935577,60.3596441 6.44120108,56.3990658 6.44120108,51.5130881 C6.44120108,46.6271104 10.3935577,42.6665321 15.2683489,42.6665321 C20.1436074,42.6665321 24.0954967,46.6271104 24.0954967,51.5130881" id="Fill-14" fill="#528C70"></path>
                <g id="Group-18" transform="translate(151.402641, 48.738014)">
                    <mask id="mask-4" fill="white">
                        <use xlink:href="#path-3"></use>
                    </mask>
                    <g id="Clip-17"></g>
                    <path d="M1.77117726,7.38062219 C2.295479,7.38062219 9.27401927,0.207840209 9.27401927,0.207840209 L0.148739076,2.00103571 L1.77117726,7.38062219 Z" id="Fill-16" fill="#F7B71C" mask="url(#mask-4)"></path>
                </g>
                <path d="M150.477637,50.0755345 C149.989316,47.8322839 148.390243,38.7782624 148.390243,38.7782624 L144.334615,48.6724492 L150.477637,50.0755345 Z" id="Fill-19" fill="#F7B71C"></path>
                <polygon id="Fill-21" fill="#F7B71C" points="140.994504 50.0217246 131.332305 46.5547551 137.773927 55.4013111"></polygon>
                <path d="M155.427942,55.4013579 C155.427942,60.2873356 151.476053,64.2479139 146.600795,64.2479139 C141.726003,64.2479139 137.773647,60.2873356 137.773647,55.4013579 C137.773647,50.5153802 141.726003,46.5548019 146.600795,46.5548019 C151.476053,46.5548019 155.427942,50.5153802 155.427942,55.4013579" id="Fill-23" fill="#599D7C"></path>
                <path d="M53.9166769,83.8835217 L58.6881966,83.8835217 L107.58424,83.8835217 C107.58424,83.8835217 103.777679,109.134843 80.1593341,109.134843 C56.5409893,109.134843 53.9166769,83.8835217 53.9166769,83.8835217" id="Fill-25" fill="#284938"></path>
                <path d="M83.7534179,108.85652 C61.5948936,108.85652 57.9154356,86.6310119 57.5453403,83.8833812 L53.9168171,83.8833812 C53.9168171,83.8833812 56.5411295,109.134702 80.1594743,109.134702 C81.6492015,109.134702 83.0683676,109.033545 84.420711,108.845281 C84.1987472,108.849964 83.9786527,108.85652 83.7534179,108.85652" id="Fill-27" fill="#233D2D"></path>
                <path d="M33.9744256,80.755756 C34.3417172,64.4362252 40.4071687,52.5769696 48.6403883,44.1753172 C46.5076671,39.2059786 42.7006384,27.4909655 52.0735834,23.5331971 C49.5983371,22.6457316 46.7637432,22.5249051 43.6165309,23.8240235 C34.1216226,27.7419847 37.9506141,39.5220943 40.090812,44.5082924 C31.8575924,52.9099448 25.7921409,64.7692004 25.4248493,81.0887312 C24.5771814,118.741622 67.9502999,141.116992 82.6223373,138.965532 C83.4639304,138.841896 84.3686079,138.670023 85.3209492,138.452723 C67.4110448,135.625009 33.2206835,114.22749 33.9744256,80.755756" id="Fill-29" fill="#528C70"></path>
                <polygon id="Fill-31" fill="#FEFEFE" points="65.1801923 83.8835217 67.9923562 92.3385625 71.5386359 83.9935768 74.314351 92.3385625 77.9078273 83.8835217"></polygon>
                <polygon id="Fill-33" fill="#FEFEFE" points="58.7388043 83.8835217 61.5509682 92.3385625 65.1439771 83.8835217"></polygon>
                <polygon id="Fill-35" fill="#FEFEFE" points="90.6710232 83.8835217 77.9433882 83.8835217 80.7555521 92.3385625 84.3022992 83.9935768 87.0780143 92.3385625"></polygon>
                <polygon id="Fill-37" fill="#FEFEFE" points="90.7070982 83.8835217 93.5192621 92.3385625 96.9318963 84.3082875 99.602938 92.3385625 103.195947 83.8835217"></polygon>
                <path d="M49.8808619,126.291963 C54.9341587,129.804359 58.7986644,132.529979 63.4851369,135.139456 C63.0865367,138.469676 61.1926019,149.030281 61.4524163,149.337499 C61.7556888,149.696232 74.7814562,151.608849 74.7814562,151.608849 L76.710438,139.47188 C78.9842814,139.839042 81.002516,139.9121 82.6543936,139.671384 C82.6576646,139.670915 82.661403,139.670915 82.6642067,139.669979 C82.6749544,139.668574 82.6861694,139.666701 82.6969172,139.665296 C82.8324319,139.645158 82.9712176,139.621742 83.1095361,139.599731 L85.0945929,152.087003 C85.0945929,152.087003 98.1203603,150.174386 98.4236329,149.815653 C98.6932604,149.497196 96.6437173,138.139042 96.352127,135.273395 C97.8680226,134.561549 109.433035,126.919043 110.206871,125.894828 C94.2142656,125.858299 63.0902751,126.240916 49.8808619,126.291963" id="Fill-39" fill="#19344B"></path>
                <path d="M86.5602079,138.989745 C86.4218894,139.012224 83.109723,139.599497 83.109723,139.599497 L85.0943126,152.087237 C85.0943126,152.087237 86.5634789,151.871342 88.523302,151.571617 L86.5602079,138.989745 Z" id="Fill-41" fill="#152C3C"></path>
                <path d="M64.9631818,149.337546 C64.7033674,149.030328 66.5973023,138.469723 66.9963698,135.139502 C62.2603643,132.927629 57.2944511,129.960825 52.570128,126.29482 C55.7748172,126.282643 60.0977365,126.276555 65.0323411,126.275619 C58.641187,126.274682 53.5491049,126.066748 49.6037577,126.081734 C54.5967738,129.588043 58.4388495,132.687381 63.4851369,135.139502 C63.0865367,138.469723 61.1926019,149.030328 61.451949,149.337546 C61.7556888,149.696278 74.7814562,151.608895 74.7814562,151.608895 L74.8632323,151.093744 C70.9814368,150.499915 65.1645847,149.57592 64.9631818,149.337546" id="Fill-43" fill="#152C3C"></path>
                <path d="M77.5946949,107.102383 C77.5946949,107.102383 73.6582262,97.7177275 73.6582262,97.5388295 C73.6582262,97.3875623 69.5128779,104.104201 68.0974502,106.370868 C71.3381209,108.066184 75.304029,109.134889 80.1591939,109.134889 C86.7293209,109.134889 91.9316839,107.179187 96.0209571,104.358499 L91.0737356,96.7614191 L87.3162398,106.026653 L82.2465878,96.5089948 L77.5946949,107.102383 Z" id="Fill-45" fill="#FEFEFE"></path>
                <path d="M57.9604358,48.0848955 C57.9604358,48.0848955 45.4720544,49.2983114 45.7374763,61.6933245 C46.0047674,74.1604588 56.7052892,74.9954726 60.8394225,74.6699905 C64.9730884,74.3440401 73.6950955,69.5779522 73.2619158,61.9555835 C72.7978947,53.791369 63.8721482,48.0408735 57.9604358,48.0848955" id="Fill-47" fill="#FEFEFE"></path>
                <path d="M52.4300805,61.2963769 C52.2338178,52.1299586 58.0263708,49.2778927 61.0586292,48.4129065 C60.0478764,48.1885814 59.0062823,48.0771214 57.9604826,48.0850828 C57.9604826,48.0850828 46.334255,48.6180305 46.6001442,61.0125752 C46.866968,73.4801779 56.705336,74.9956599 60.8390019,74.6697095 C61.1885364,74.6420786 61.5502205,74.5512247 61.9161102,74.4327398 C57.6623502,73.6403432 52.6300815,70.6234287 52.4300805,61.2963769" id="Fill-49" fill="#E5E5E4"></path>
                <path d="M59.4379667,53.1500054 C59.4379667,53.1500054 52.4276506,54.5235866 52.9720459,61.5802253 C53.5169085,68.6373324 57.6281444,69.6779384 59.9814275,69.6563957 C62.0407838,69.6376629 65.3113612,66.2657623 65.7851954,62.3295366 C65.8529527,61.7670848 59.7982489,60.9770298 59.7982489,60.9770298 C59.7982489,60.9770298 65.562297,58.9787103 65.3422025,58.2640547 C64.3702349,55.1066444 62.1688218,53.3200054 59.4379667,53.1500054" id="Fill-51" fill="#323230"></path>
                <path d="M40.7154881,118.106487 C45.5776624,123.264558 51.1403076,127.559517 56.6950088,130.893952 C56.6950088,130.893952 103.587771,130.676183 103.759268,130.567065 C103.91581,130.467781 104.071886,130.369902 104.228429,130.268277 C104.415813,130.146982 104.602263,130.021941 104.789179,129.897836 C104.9289,129.805577 105.06862,129.714723 105.20834,129.620591 C105.413014,129.482905 105.617221,129.341004 105.821895,129.199572 C105.941989,129.116679 106.06255,129.035191 106.182644,128.951362 C106.405075,128.795412 106.627039,128.636183 106.848536,128.476486 C106.949471,128.403897 107.050406,128.33318 107.150874,128.260123 C107.388725,128.086844 107.62611,127.90982 107.863494,127.732326 C107.946672,127.67004 108.030317,127.609158 108.113495,127.545935 C108.364899,127.356266 108.615367,127.162382 108.865836,126.967092 C108.933593,126.914641 109.00135,126.862657 109.06864,126.809737 C109.332193,126.60274 109.594811,126.392464 109.856495,126.179847 C109.909766,126.136762 109.963505,126.094145 110.016776,126.050591 C110.290142,125.827203 110.563041,125.600068 110.835005,125.370591 C110.875192,125.336404 110.915846,125.303153 110.956033,125.268497 C111.237343,125.030591 111.516784,124.78847 111.795757,124.54307 C111.826598,124.515908 111.857907,124.488745 111.889216,124.461115 C112.175666,124.20869 112.460714,123.952051 112.74436,123.692134 C112.767257,123.671528 112.789687,123.65139 112.812117,123.630784 C113.102306,123.363842 113.39156,123.093621 113.678477,122.819655 C113.694365,122.804668 113.710253,122.789682 113.726141,122.774696 C114.019133,122.494172 114.311191,122.209903 114.600912,121.921886 C114.60979,121.912988 114.619136,121.90409 114.628015,121.895192 C114.922876,121.601555 115.215868,121.304173 115.506991,121.002575 C115.511197,120.99836 115.515402,120.993677 115.519608,120.989462 C115.814469,120.683649 116.106994,120.37409 116.397183,120.060316 C116.398117,120.058911 116.399052,120.057974 116.399986,120.057038 C116.985036,119.424338 117.56074,118.77431 118.126163,118.106955 C118.126631,118.106955 118.126631,118.106955 118.127098,118.106487 L40.7154881,118.106487 Z" id="Fill-53" fill="#284B70"></path>
                <polygon id="Fill-55" fill="#2490B1" points="59.7856321 130.894092 59.8323613 130.894092 65.9641682 118.106627 54.1790614 118.106627"></polygon>
                <polygon id="Fill-57" fill="#2490B1" points="71.5450846 130.836021 77.648854 118.106627 65.964215 118.106627"></polygon>
                <path d="M108.456628,127.282037 L112.856183,118.106721 L101.071076,118.106721 L105.908484,129.139861 C106.76176,128.54931 107.611764,127.929723 108.456628,127.282037" id="Fill-59" fill="#2490B1"></path>
                <polygon id="Fill-61" fill="#2490B1" points="77.6487606 118.106487 83.2553312 130.893952 89.3866709 118.106487"></polygon>
                <polygon id="Fill-63" fill="#2490B1" points="101.07131 118.106487 89.3866709 118.106487 94.9675405 130.83588"></polygon>
                <path d="M101.846641,50.3662204 C101.846641,50.3662204 91.4783638,52.464292 92.0863108,62.5959168 C92.6975289,72.7870181 101.667668,72.4217289 105.039181,72.0241256 C108.41116,71.6269907 114.325209,69.7743186 113.730814,63.5517569 C113.093895,56.8871016 106.681712,50.1433003 101.846641,50.3662204" id="Fill-65" fill="#FEFEFE"></path>
                <path d="M97.7384425,61.3495311 C97.2889075,53.8568869 101.937997,51.3401377 104.391747,50.5365014 C103.557631,50.3852342 102.702019,50.3266943 101.846875,50.3660331 C101.846875,50.3660331 92.4991634,53.2227823 93.1066431,63.3544071 C93.7178612,73.5455085 101.667434,72.4215416 105.039414,72.0244066 C105.323995,71.9906876 105.617455,71.9049851 105.912783,71.796335 C102.408092,71.2825885 98.1959214,68.9733048 97.7384425,61.3495311" id="Fill-67" fill="#E5E5E4"></path>
                <path d="M103.005011,57.0222587 C103.005011,57.0222587 98.8026535,58.1537186 99.4311614,62.419173 C100.059669,66.6846273 102.601738,67.1431121 104.031185,67.0302471 C105.281659,66.9319 107.127462,64.7443794 107.248958,62.3320655 C107.266715,61.9873824 103.55408,61.7635256 103.55408,61.7635256 C103.55408,61.7635256 106.972321,60.3051786 106.808769,59.8804128 C106.084934,58.0024514 104.671842,57.009614 103.005011,57.0222587" id="Fill-69" fill="#323230"></path>
                <path d="M102.973609,52.7046804 C97.8408729,52.7046804 93.665618,56.8895837 93.665618,62.0331372 C93.665618,67.1771589 97.8408729,71.3625306 102.973609,71.3625306 C108.106346,71.3625306 112.282068,67.1771589 112.282068,62.0331372 C112.282068,56.8895837 108.106346,52.7046804 102.973609,52.7046804 M59.0275908,50.1181516 C52.4724172,50.1181516 47.1392124,55.4630824 47.1392124,62.0331372 C47.1392124,68.6031919 52.4724172,73.9481228 59.0275908,73.9481228 C65.5832317,73.9481228 70.9164365,68.6031919 70.9164365,62.0331372 C70.9164365,55.4630824 65.5832317,50.1181516 59.0275908,50.1181516 M59.0280581,77.8670206 C50.3163314,77.8670206 43.2289121,70.7640182 43.2289121,62.0331372 C43.2289121,53.3027244 50.3163314,46.199722 59.0280581,46.199722 C67.1337069,46.199722 73.9047695,52.3698319 74.7379513,60.3720078 C77.517872,59.6002172 80.0921842,59.2246249 82.5870568,59.2246249 C85.0847331,59.2246249 87.661849,59.6016221 90.4455081,60.3757543 C91.262802,54.1494461 96.638063,49.3660304 102.973609,49.3660304 C109.943271,49.3660304 115.613393,55.0486196 115.613393,62.0331372 C115.613393,69.018123 109.943271,74.7007122 102.973609,74.7007122 C96.8366622,74.7007122 91.5366351,70.1940734 90.5146673,64.1658643 C88.1768049,63.1983162 85.6160442,62.7084539 82.897806,62.7084539 C80.1585397,62.7084539 77.3230112,63.2250104 74.6753342,64.2056715 C73.6071044,72.0177096 66.9397807,77.8670206 59.0280581,77.8670206" id="Fill-71" fill="#F7B71C"></path>
                <path d="M102.973703,71.9221725 C97.5330209,71.9221725 93.1068301,67.4862498 93.1068301,62.0331372 C93.1068301,56.5809612 97.5330209,52.1445702 102.973703,52.1445702 C108.414385,52.1445702 112.840576,56.5809612 112.840576,62.0331372 C112.840576,67.4862498 108.414385,71.9221725 102.973703,71.9221725 M59.0276843,74.5077646 C52.1640979,74.5077646 46.5808918,68.9118145 46.5808918,62.0331372 C46.5808918,55.1544599 52.1640979,49.5585097 59.0276843,49.5585097 C65.8912707,49.5585097 71.4754113,55.1544599 71.4754113,62.0331372 C71.4754113,68.9118145 65.8912707,74.5077646 59.0276843,74.5077646 M102.973703,49.9256723 C96.6161938,49.9256723 91.4091579,54.8486472 90.9320526,61.0979031 C85.045574,59.3520078 80.164708,59.3407682 74.2371076,61.0979031 C73.7543949,53.0985371 67.1309966,46.7593639 59.0276843,46.7593639 C50.6108189,46.7593639 43.7878869,53.5977657 43.7878869,62.0331372 C43.7878869,70.4689769 50.6108189,77.3069105 59.0276843,77.3069105 C66.8478176,77.3069105 73.288972,71.4032744 74.1632755,63.8010434 C79.4927419,61.7427791 85.7044559,61.4674072 91.0185017,63.771071 C91.8596274,69.6344315 96.8904942,74.1410704 102.973703,74.1410704 C109.645699,74.1410704 115.054606,68.7202718 115.054606,62.0336055 C115.054606,55.3464709 109.645699,49.9256723 102.973703,49.9256723" id="Fill-73" fill="#F7B71C"></path>
                <path id="Fill-75" fill="#A75FA6"></path>
                <path d="M90.8212109,125.549723 C90.8212109,130.694213 85.8618398,134.864131 79.7440516,134.864131 C73.6262634,134.864131 68.6668923,130.694213 68.6668923,125.549723 C68.6668923,120.405233 73.6262634,116.235316 79.7440516,116.235316 C85.8618398,116.235316 90.8212109,120.405233 90.8212109,125.549723" id="Fill-77" fill="#F7B71C"></path>
                <path d="M79.7440984,132.458607 C74.9599618,132.458607 71.0674186,129.359269 71.0674186,125.549957 C71.0674186,121.740178 74.9599618,118.640839 79.7440984,118.640839 C84.5282349,118.640839 88.4203108,121.740178 88.4203108,125.549957 C88.4203108,129.359269 84.5282349,132.458607 79.7440984,132.458607" id="Fill-79" fill="#E4A823"></path>
                <path d="M62.1958313,148.108863 C62.1958313,148.108863 49.6322158,153.369028 51.6602635,155.640377 C53.6878439,157.911727 64.540703,153.129716 64.540703,153.129716 C64.540703,153.129716 60.3481583,157.07484 63.3402296,157.792306 C66.332301,158.509303 70.2687696,152.95035 70.2687696,152.95035 C70.2687696,152.95035 68.1215624,157.800267 70.9841939,157.855997 C73.8472926,157.911727 74.8631856,151.093463 74.8631856,151.093463 L62.1958313,148.108863 Z" id="Fill-81" fill="#599D7C"></path>
                <g id="Group-85" transform="translate(85.047163, 147.553436)">
                    <mask id="mask-6" fill="white">
                        <use xlink:href="#path-5"></use>
                    </mask>
                    <g id="Clip-84"></g>
                    <path d="M13.400816,0.422705211 C13.400816,0.422705211 25.3821855,5.81540465 23.3541378,8.08675439 C21.3265574,10.3581041 10.4736983,5.57656168 10.4736983,5.57656168 C10.4736983,5.57656168 14.666243,9.52168544 11.6741717,10.2386826 C8.68210036,10.9561482 4.74563168,5.3971953 4.74563168,5.3971953 C4.74563168,5.3971953 6.8928389,10.2471124 4.03020747,10.3028424 C1.16710876,10.3581041 0.0474768777,4.53361408 0.0474768777,4.53361408 L13.400816,0.422705211 Z" id="Fill-83" fill="#599D7C" mask="url(#mask-6)"></path>
                </g>
                <path d="M43.872607,121.249473 C45.8955145,123.139142 48.0039364,124.890189 50.1553493,126.498398 L54.1792016,118.10658 L42.4945626,118.10658 L43.872607,121.249473 Z" id="Fill-86" fill="#2490B1"></path>
                <path d="M114.259508,117.829663 C114.449229,116.738479 114.707174,115.605145 114.786614,114.499911 C114.829137,113.909829 114.820259,113.469608 114.274461,113.118369 C113.518383,112.631316 112.059497,112.857046 111.211829,112.812088 C109.755279,112.734815 108.298263,112.660352 106.841713,112.580269 C103.721137,112.409333 100.6057,112.189223 97.5234414,111.650187 C97.4215717,111.632391 97.3360572,111.664236 97.2711036,111.718093 C95.7949279,112.048258 95.60474,114.71768 95.4243653,115.882859 C95.2351119,117.106109 94.5995947,119.67812 95.9239005,120.49206 C96.8533445,121.063409 98.3463428,121.076054 99.4136379,121.240903 C100.691215,121.438065 101.974866,121.588864 103.260854,121.715779 C106.093579,121.995365 109.022098,122.368148 111.871178,122.234677 C112.583799,122.201426 113.084268,122.197679 113.494084,121.56498 C114.073059,120.670958 114.078199,118.872142 114.259508,117.829663" id="Fill-88" fill="#221F20"></path>
                <path d="M112.978427,120.105087 C112.165806,121.771836 108.81392,121.008007 107.264846,120.887649 C105.414837,120.748558 103.566697,120.600101 101.726033,120.374371 C100.613878,120.238558 99.5021898,120.07371 98.4012496,119.865308 C98.0876966,119.806299 97.6554514,119.788503 97.3647957,119.653627 C96.6993718,119.346878 96.5171278,118.843903 96.4288096,118.127842 C96.3129212,117.216024 96.6713342,113.143517 97.9942382,113.037677 C97.9970419,113.039082 98.0073224,113.038145 98.0087242,113.035804 C101.459209,113.623077 105.04334,113.793077 108.534479,113.976658 C109.875607,114.048311 113.653664,113.652581 113.993852,115.137154 C114.174695,115.921589 113.644785,116.51495 113.514411,117.271286 C113.368148,118.113793 113.353195,119.339385 112.978427,120.105087" id="Fill-90" fill="#FEFEFE"></path>
                <path d="M99.9369584,117.750611 C100.092567,117.403586 99.5846201,117.087939 99.42761,117.43871 C99.2145248,117.914523 98.6976997,119.007112 98.007042,118.054082 C97.7621809,117.715955 97.813583,117.158187 97.8523683,116.766671 C97.8939573,116.348462 97.9930232,115.932594 98.1561082,115.543889 C98.271062,115.23714 98.440689,114.964578 98.6654565,114.726672 C99.3930304,114.135184 99.7892941,114.776313 99.7673313,115.276479 C99.8248083,115.657222 100.404718,115.514385 100.347708,115.135983 C100.226212,114.334688 99.6808823,113.678572 98.803775,113.961906 C97.882275,114.259289 97.4724598,115.450694 97.3168515,116.304908 C97.1547012,117.196589 97.1327385,118.55893 98.1710615,118.937332 C99.0575146,119.260473 99.6224708,118.452622 99.9369584,117.750611" id="Fill-92" fill="#221F20"></path>
                <path d="M102.58571,119.220151 C102.815618,117.818002 103.081507,116.423346 103.377303,115.034311 C103.399733,114.996845 103.416556,114.95376 103.421228,114.901776 C103.426836,114.840895 103.432443,114.780481 103.438051,114.7196 C103.468892,114.385688 102.925432,114.291556 102.853936,114.624063 C102.704402,115.315302 102.565149,116.008415 102.432438,116.702933 C102.010006,116.603649 101.588042,116.504366 101.165609,116.405082 C101.273554,115.784559 101.374489,115.162162 101.464209,114.537892 C101.518882,114.157148 100.921683,114.142162 100.867477,114.519159 C100.664672,115.933952 100.412335,117.339379 100.113268,118.736845 C100.053922,119.015963 100.379157,119.259958 100.606261,119.038443 C100.636635,119.008939 100.959534,117.532327 101.058132,116.993291 C101.480097,117.092575 101.902529,117.191859 102.324961,117.291142 C102.217017,117.875605 102.110474,118.461005 102.013745,119.048277 C101.952529,119.423401 102.52356,119.599021 102.58571,119.220151" id="Fill-94" fill="#221F20"></path>
                <path d="M105.137639,118.62014 C104.68717,118.986834 104.349785,118.825264 104.148382,118.258129 C104.150718,118.16868 104.152587,118.079231 104.154924,117.989313 C104.123148,117.757495 104.201186,117.424988 104.241373,117.195512 C104.336233,116.649919 104.663805,115.360167 105.426426,115.567633 C105.429229,115.570911 105.430631,115.574658 105.433435,115.578404 C105.783437,116.043446 105.796521,116.618542 105.693717,117.168817 C105.640445,117.451682 105.422687,118.49463 105.137639,118.62014 M106.025961,118.153693 C106.410075,117.163666 106.530637,116.049065 105.863344,115.163473 C105.847923,115.142867 105.831101,115.126008 105.813811,115.11149 C105.783904,115.076834 105.747455,115.046393 105.69839,115.025787 C104.695113,114.598211 104.030624,115.700636 103.780156,116.518322 C103.52922,117.339286 103.208657,118.960608 104.145111,119.491214 C105.085302,120.024162 105.749792,118.864134 106.025961,118.153693" id="Fill-96" fill="#221F20"></path>
                <path d="M109.979299,119.580804 C110.126964,118.759371 110.193319,117.935129 110.133973,117.100583 C110.097524,116.5859 110.134908,115.627718 109.671821,115.286782 C109.017612,114.804413 108.630694,115.331272 108.395179,116.052952 C108.244244,115.455845 107.969009,115.021245 107.468072,115.222154 C106.996107,115.412291 106.812461,116.118517 106.740498,116.564826 C106.589095,117.502401 106.598908,118.471355 106.475543,119.415487 C106.425543,119.797635 107.022742,119.812622 107.072275,119.434219 C107.199379,118.461052 107.120874,117.373614 107.372277,116.427608 C107.392838,116.352209 107.525081,115.836589 107.692372,115.888572 C107.745176,115.905432 107.825083,116.437443 107.841905,116.522677 C107.945644,117.054688 107.983495,117.586231 107.982093,118.127608 C107.981626,118.434357 108.356861,118.504605 108.511068,118.326644 C108.549853,118.292456 108.582096,118.247498 108.594246,118.178187 C108.683966,117.67287 108.771817,117.167085 108.862471,116.661768 C108.882565,116.548903 108.912471,116.133035 108.994715,116.030005 C109.411072,115.509233 109.426025,116.18455 109.45453,116.362043 C109.615746,117.372209 109.588176,118.403448 109.407334,119.40893 C109.340044,119.784054 109.911075,119.959206 109.979299,119.580804" id="Fill-98" fill="#221F20"></path>
                <path d="M111.740944,115.682137 C112.011039,115.535085 112.335807,115.728032 112.411041,116.103625 C112.400293,116.353707 112.140011,116.716655 111.901692,116.830925 C111.759168,116.960181 111.579728,117.029492 111.39468,117.074451 C111.408699,116.896021 111.421783,116.717123 111.44141,116.539162 C111.487671,116.130787 111.539541,115.825911 111.740944,115.682137 M111.275988,119.733569 C111.283932,119.051696 111.312437,118.370759 111.355428,117.690291 C112.030665,117.566655 112.753099,117.125498 112.933473,116.415994 C113.079268,115.843239 112.622724,115.079878 112.037674,114.949685 C111.327858,114.791393 111.000753,115.519162 110.894678,116.086297 C110.675518,117.258032 110.692808,118.526242 110.679256,119.714837 C110.675051,120.099795 111.271783,120.118996 111.275988,119.733569" id="Fill-100" fill="#221F20"></path>
                <path d="M26.6673323,70.1861588 C24.0729265,69.5159935 17.3233594,66.9809799 16.9383107,58.6861043 C16.6999917,58.9249473 11.2125806,58.6861043 11.2125806,58.6861043 C11.2125806,58.6861043 13.065861,75.8607866 25.6705982,77.281668 C25.8715338,74.8080043 26.2084514,72.4439272 26.6673323,70.1861588" id="Fill-102" fill="#528C70"></path>
                <path d="M118.492847,97.0993584 C118.492847,97.9568515 117.390505,98.6518377 116.030218,98.6518377 C114.670398,98.6518377 113.568056,97.9568515 113.568056,97.0993584 C113.568056,96.2418654 114.670398,95.5468792 116.030218,95.5468792 C117.390505,95.5468792 118.492847,96.2418654 118.492847,97.0993584" id="Fill-104" fill="#528C70"></path>
                <path d="M123.687173,102.197391 C123.687173,103.342901 121.973146,104.27111 119.858649,104.27111 C117.744619,104.27111 116.030592,103.342901 116.030592,102.197391 C116.030592,101.051882 117.744619,100.123672 119.858649,100.123672 C121.973146,100.123672 123.687173,101.051882 123.687173,102.197391" id="Fill-106" fill="#528C70"></path>
                <path d="M123.664089,97.0993584 C123.664089,97.6721132 122.807075,98.1362179 121.75006,98.1362179 C120.692578,98.1362179 119.835565,97.6721132 119.835565,97.0993584 C119.835565,96.5266036 120.692578,96.062499 121.75006,96.062499 C122.807075,96.062499 123.664089,96.5266036 123.664089,97.0993584" id="Fill-108" fill="#528C70"></path>
                <path d="M49.016465,105.323939 C49.016465,106.181432 47.9141229,106.876419 46.5538356,106.876419 C45.1940156,106.876419 44.0916735,106.181432 44.0916735,105.323939 C44.0916735,104.466446 45.1940156,103.77146 46.5538356,103.77146 C47.9141229,103.77146 49.016465,104.466446 49.016465,105.323939" id="Fill-110" fill="#528C70"></path>
                <path d="M49.016465,100.748176 C49.016465,101.893686 47.3024375,102.821895 45.1879408,102.821895 C43.0739113,102.821895 41.3598839,101.893686 41.3598839,100.748176 C41.3598839,99.6026668 43.0739113,98.6744575 45.1879408,98.6744575 C47.3024375,98.6744575 49.016465,99.6026668 49.016465,100.748176" id="Fill-112" fill="#528C70"></path>
                <path d="M54.1876596,105.323939 C54.1876596,105.896694 53.3306459,106.360799 52.2736311,106.360799 C51.2161491,106.360799 50.3591354,105.896694 50.3591354,105.323939 C50.3591354,104.751184 51.2161491,104.28708 52.2736311,104.28708 C53.3306459,104.28708 54.1876596,104.751184 54.1876596,105.323939" id="Fill-114" fill="#528C70"></path>
                <path d="M56.9375801,81.6407863 C56.9375801,81.6407863 60.0058201,91.1373698 49.6038979,87.102797 L56.9375801,81.6407863 Z" id="Fill-116" fill="#233D2D"></path>
                <path d="M56.7987009,80.7134667 C56.7987009,80.7134667 58.7388977,90.6966343 48.3369755,86.6615931 L56.7987009,80.7134667 Z" id="Fill-118" fill="#599D7C"></path>
                <path d="M111.760477,86.8833893 C111.760477,86.8833893 102.397345,90.2866673 106.058578,79.7279351 L111.760477,86.8833893 Z" id="Fill-120" fill="#233D2D"></path>
                <path d="M112.680388,86.7119843 C112.680388,86.7119843 102.792954,89.0025352 106.454188,78.443803 L112.680388,86.7119843 Z" id="Fill-122" fill="#599D7C"></path>
                <polygon id="Fill-124" fill="#F7B71C" points="79.7907808 17.9222607 80.7449913 10.6300573 81.8188286 10.6300573 81.8188286 17.4441065"></polygon>
                <g id="Group-128" transform="translate(75.234029, 0.032782)">
                    <mask id="mask-8" fill="white">
                        <use xlink:href="#path-7"></use>
                    </mask>
                    <g id="Clip-127"></g>
                    <path d="M11.5945451,6.05434127 C11.5945451,2.95125604 9.08425194,0.435443503 5.98797447,0.435443503 C2.89169699,0.435443503 0.381871107,2.95125604 0.381871107,6.05434127 C0.381871107,9.15742651 2.89169699,11.673239 5.98797447,11.673239 C9.08425194,11.673239 11.5945451,9.15742651 11.5945451,6.05434127" id="Fill-126" fill="#F7B71C" mask="url(#mask-8)"></path>
                </g>
                <path d="M81.8292959,26.7578581 C84.3886548,26.8065633 87.4466143,27.2425688 90.7685938,28.0892905 L88.975594,15.890035 L74.1843971,15.890035 L70.8778382,28.0096762 C75.0685138,27.0833401 78.8517106,26.7011914 81.8292959,26.7578581" id="Fill-129" fill="#F7B71C"></path>
            </g>
        </g>
    </g>
</svg>