<?xml version="1.0" encoding="UTF-8" standalone="no"?>
<svg width="163px" height="239px" viewBox="0 0 163 239" version="1.1" xmlns="http://www.w3.org/2000/svg" xmlns:xlink="http://www.w3.org/1999/xlink">
    <!-- Generator: Sketch 3.8.3 (29802) - http://www.bohemiancoding.com/sketch -->
    <title>monster-hands</title>
    <desc>Created with Sketch.</desc>
    <defs>
        <polygon id="path-1" points="5.34328137e-12 227.173428 161.048179 227.173428 161.048179 0.388278521 5.34328137e-12 0.388278521"></polygon>
    </defs>
    <g id="Page-1" stroke="none" stroke-width="1" fill="none" fill-rule="evenodd">
        <g id="monster-hands" transform="translate(81.391923, 119.925243) rotate(3.000000) translate(-81.391923, -119.925243) translate(0.391923, 0.925243)">
            <ellipse id="Oval-4-Copy-3" fill="#6F8017" opacity="0.310459422" style="mix-blend-mode: multiply;" cx="74.6482567" cy="226.479381" rx="56.8380721" ry="10.7169797"></ellipse>
            <g id="Page-1" transform="translate(-0.000000, -0.000000)">
                <polygon id="Fill-1" fill="#22211F" points="68.5125694 104.552835 71.4248599 183.647812 86.0447324 183.647812 93.2852309 104.552835 89.3126678 107.699212 72.4605345 107.699212"></polygon>
                <g id="Group-96" transform="translate(-0.000000, 0.119939)">
                    <path d="M72.5974629,113.621019 C72.5974629,113.621019 60.8176245,120.245132 46.4345068,119.390309 C32.0513892,118.535486 18.9084164,100.318414 18.9084164,100.318414 L10.2899223,109.125831 C10.2899223,109.125831 29.3604799,128.791833 46.4345068,127.510107 C63.5080213,126.227873 71.0493317,121.313406 71.0493317,121.313406 L72.5974629,113.621019 L72.5974629,113.621019 Z" id="Fill-2" fill="#22211F"></path>
                    <path d="M70.6148711,125.872121 C70.6148711,125.872121 60.923293,135.251791 46.7943538,138.056138 C32.6659271,140.860485 15.2798141,126.561264 15.2798141,126.561264 L9.20617921,137.25417 C9.20617921,137.25417 32.696162,151.458354 48.8785145,145.908614 C65.0608671,140.358366 71.0919681,133.701727 71.0919681,133.701727 L70.6148711,125.872121 Z" id="Fill-4" fill="#22211F"></path>
                    <path d="M89.3126165,107.57912 L79.7235298,107.57912 L79.149066,179.658149 C79.149066,179.658149 81.3833765,182.17332 83.6786694,183.52772 L86.0446812,183.52772 L93.2851796,104.432743 L89.3126165,107.57912 Z" id="Fill-6" fill="#323230"></path>
                    <path d="M72.1334335,141.469127 C72.1334335,141.469127 64.2580014,152.394288 50.8480388,157.621818 C37.4380761,162.849348 17.7848554,151.809329 17.7848554,151.809329 L13.704164,163.395682 C13.704164,163.395682 39.349539,173.276456 54.2937965,164.987421 C69.2380541,156.698894 73.9931383,149.093413 73.9931383,149.093413 L72.1334335,141.469127 Z" id="Fill-8" fill="#22211F"></path>
                    <path d="M91.5278124,114.11587 C91.5278124,114.11587 102.351919,120.244979 116.735037,119.390156 C131.118155,118.535334 144.261128,100.318261 144.261128,100.318261 L152.879622,109.125678 C152.879622,109.125678 133.809064,128.792189 116.735037,127.509955 C99.6610101,126.227721 91.0061317,122.173158 91.0061317,122.173158 L91.5278124,114.11587 Z" id="Fill-10" fill="#323230"></path>
                    <path d="M89.7898673,127.570077 C89.7898673,127.570077 99.4814453,136.949748 113.610385,139.754094 C127.738811,142.558441 145.124924,128.259221 145.124924,128.259221 L151.198559,138.952126 C151.198559,138.952126 127.708576,153.15631 111.526224,147.60657 C95.3438713,142.056322 89.3127703,135.399683 89.3127703,135.399683 L89.7898673,127.570077 Z" id="Fill-12" fill="#323230"></path>
                    <path d="M88.9196136,141.469127 C88.9196136,141.469127 96.7950457,152.394288 110.205008,157.621818 C123.614971,162.849348 143.268192,151.809329 143.268192,151.809329 L147.348371,163.395682 C147.348371,163.395682 121.703508,173.276456 106.759251,164.987421 C91.8149931,156.698894 87.0599088,149.093413 87.0599088,149.093413 L88.9196136,141.469127 Z" id="Fill-14" fill="#323230"></path>
                    <polygon id="Fill-16" fill="#D1D2D4" points="72.2819434 107.500855 75.1271021 162.932696 79.2933738 167.160053 84.5209429 162.932696 89.3124115 106.36702"></polygon>
                    <path d="M77.8583417,111.10971 C77.943922,111.750573 75.9929999,120.718587 75.9929999,120.718587 L79.3572771,143.980232 L83.8110369,120.053838 L81.7888834,111.10971 L77.8583417,111.10971 Z" id="Fill-18" fill="#DB2E36"></path>
                    <polygon id="Fill-20" fill="#C52536" points="75.9930512 106.070831 79.7068237 106.561261 83.8110881 106.070831 81.7889346 111.109812 79.7068237 112.02867 77.858393 111.109812"></polygon>
                    <path d="M86.0447837,182.619941 L89.0103697,219.15878 C89.0103697,219.15878 81.2384538,219.372231 81.4869952,219.15878 C81.7355367,218.94482 78.9913319,192.951504 78.9913319,192.951504 L75.6911118,219.253817 L66.9081192,219.253817 L71.4249111,182.619941 L86.0447837,182.619941 Z" id="Fill-22" fill="#22211F"></path>
                    <path d="M81.0174313,151.846836 C81.0174313,152.522257 80.4655156,153.069608 79.7844609,153.069608 C79.1034061,153.069608 78.550978,152.522257 78.550978,151.846836 C78.550978,151.171414 79.1034061,150.624063 79.7844609,150.624063 C80.4655156,150.624063 81.0174313,151.171414 81.0174313,151.846836" id="Fill-24" fill="#323230"></path>
                    <path d="M81.0174313,157.24406 C81.0174313,157.919481 80.4655156,158.466832 79.7844609,158.466832 C79.1034061,158.466832 78.550978,157.919481 78.550978,157.24406 C78.550978,156.568638 79.1034061,156.021287 79.7844609,156.021287 C80.4655156,156.021287 81.0174313,156.568638 81.0174313,157.24406" id="Fill-26" fill="#323230"></path>
                    <path d="M81.0174313,162.020292 C81.0174313,162.695714 80.4655156,163.243064 79.7844609,163.243064 C79.1034061,163.243064 78.550978,162.695714 78.550978,162.020292 C78.550978,161.34487 79.1034061,160.79752 79.7844609,160.79752 C80.4655156,160.79752 81.0174313,161.34487 81.0174313,162.020292" id="Fill-28" fill="#323230"></path>
                    <path d="M17.2679405,101.994567 C17.2679405,101.994567 17.5897632,93.1957897 16.1533475,93.6226928 C14.7169318,94.0501041 13.7043177,97.8012608 13.7043177,97.8012608 C13.7043177,97.8012608 12.6143227,89.2067869 10.2898198,90.9164321 C7.96582941,92.6255691 11.2696367,98.8939295 11.2696367,98.8939295 C11.2696367,98.8939295 6.95987722,91.3438435 5.23648589,93.4803918 C3.51258209,95.6174483 9.20597423,100.318464 9.20597423,100.318464 C9.20597423,100.318464 4.51802182,96.1871606 3.51258209,98.1814079 C2.50714237,100.176163 13.7043177,105.636457 13.7043177,105.636457 L17.2679405,101.994567 Z" id="Fill-30" fill="#E4A823"></path>
                    <path d="M14.2381437,129.529765 C14.2381437,129.529765 13.019522,120.808237 11.6794482,121.476035 C10.3388619,122.143326 9.99654093,126.011373 9.99654093,126.011373 C9.99654093,126.011373 7.42247174,117.734027 5.43157809,119.816704 C3.4411969,121.899381 7.78887817,127.505533 7.78887817,127.505533 C7.78887817,127.505533 2.2266749,120.809253 0.901974752,123.209567 C-0.422725398,125.610389 6.00552941,129.262951 6.00552941,129.262951 C6.00552941,129.262951 0.667269658,125.998667 0.025161616,128.135724 C-0.617458883,130.27278 11.3642874,133.728154 11.3642874,133.728154 L14.2381437,129.529765 Z" id="Fill-32" fill="#E4A823"></path>
                    <path d="M17.4809687,156.679938 C17.4809687,156.679938 14.5922512,148.354311 13.4069392,149.265038 C12.2211148,150.175764 12.6356921,154.037204 12.6356921,154.037204 C12.6356921,154.037204 8.50375504,146.405295 6.95408646,148.829495 C5.40493035,151.253186 10.7595887,155.924726 10.7595887,155.924726 C10.7595887,155.924726 4.00182435,150.415135 3.16754511,153.02331 C2.33377832,155.631992 9.35033324,157.989107 9.35033324,157.989107 C9.35033324,157.989107 3.47860622,155.805295 3.26286202,158.024682 C3.04763028,160.244579 15.4752138,161.348428 15.4752138,161.348428 L17.4809687,156.679938 Z" id="Fill-34" fill="#E4A823"></path>
                    <path d="M143.572078,155.811038 C143.572078,155.811038 146.460796,147.485411 147.646108,148.396137 C148.831932,149.306864 148.417355,153.168304 148.417355,153.168304 C148.417355,153.168304 152.549292,145.536395 154.098961,147.960595 C155.648117,150.384286 150.293458,155.055826 150.293458,155.055826 C150.293458,155.055826 157.051223,149.546235 157.885502,152.154409 C158.719269,154.763092 151.702714,157.120715 151.702714,157.120715 C151.702714,157.120715 157.574441,154.936394 157.790185,157.155782 C158.005417,159.375678 145.577833,160.479528 145.577833,160.479528 L143.572078,155.811038 Z" id="Fill-36" fill="#F7B71C"></path>
                    <path d="M146.445012,131.830062 C146.445012,131.830062 149.33373,123.504435 150.519042,124.415162 C151.704866,125.325888 151.290289,129.187328 151.290289,129.187328 C151.290289,129.187328 155.422226,121.555419 156.971895,123.979619 C158.521051,126.40331 153.166392,131.07485 153.166392,131.07485 C153.166392,131.07485 159.924157,125.565259 160.758436,128.173433 C161.592203,130.782116 154.575648,133.139231 154.575648,133.139231 C154.575648,133.139231 160.447375,130.955418 160.663119,133.174806 C160.878351,135.394702 148.450767,136.498552 148.450767,136.498552 L146.445012,131.830062 Z" id="Fill-38" fill="#F7B71C"></path>
                    <g id="Group-42" transform="translate(146.562570, 94.020323)" fill="#F7B71C">
                        <path d="M0.249515088,10.5165542 C0.249515088,10.5165542 1.45481287,1.79350118 2.79591163,2.45875849 C4.13701038,3.1240158 4.48599329,6.99206269 4.48599329,6.99206269 C4.48599329,6.99206269 7.04673861,-1.28985718 9.040707,0.790278927 C11.0346754,2.86990682 6.69570588,8.48266596 6.69570588,8.48266596 C6.69570588,8.48266596 12.2471476,1.77774642 13.5759474,4.17602697 C14.9042347,6.57481574 8.48212937,10.2370344 8.48212937,10.2370344 C8.48212937,10.2370344 13.8152646,6.96512714 14.4604473,9.10116722 C15.1061426,11.2372073 3.13003329,14.7108771 3.13003329,14.7108771 L0.249515088,10.5165542 Z" id="Fill-40"></path>
                    </g>
                    <path d="M81.4576315,219.16376 L82.0725793,225.289311 C82.0725793,225.289311 92.558465,227.853779 98.5916158,226.998957 C104.624767,226.144134 107.35411,216.884403 104.050303,216.172389 C100.746496,215.459868 99.0225918,220.018583 96.867712,220.588295 C94.7133447,221.158008 89.0107284,218.451239 89.0107284,218.451239 L81.4576315,219.16376 Z" id="Fill-43" fill="#DB2E36"></path>
                    <path d="M75.0651974,219.16376 L74.4502495,225.289311 C74.4502495,225.289311 63.9643638,227.853779 57.931213,226.998957 C51.8980622,226.144134 49.1687187,216.884403 52.472526,216.172389 C55.7763333,215.459868 57.5002371,220.018583 59.6551168,220.588295 C61.8094841,221.158008 67.5121005,218.451239 67.5121005,218.451239 L75.0651974,219.16376 Z" id="Fill-45" fill="#DB2E36"></path>
                    <polygon id="Fill-47" fill="#151514" points="93.2851284 104.432895 92.6983656 112.057689 90.571671 113.620968 91.3331814 117.403126 84.5210967 162.932848 86.8235639 107.579273"></polygon>
                    <polygon id="Fill-49" fill="#151514" points="68.2154471 103.452543 68.8022098 111.077337 70.9289044 112.640615 70.167394 116.422773 75.1274608 162.932848 73.7545898 106.149656"></polygon>
                    <polygon id="Fill-51" fill="#FEFEFE" points="68.2154471 103.452543 74.7928267 111.109863 79.7067725 106.561312 72.832168 104.701743 73.1734641 103.452543"></polygon>
                    <polygon id="Fill-53" fill="#FEFEFE" points="79.7068237 106.561465 85.8296544 111.276711 93.2853846 104.433048 88.3268551 104.264828 88.5953824 105.167931"></polygon>
                    <polygon id="Fill-55" fill="#F7B71C" points="87.512203 101.524923 73.993087 100.4536 73.173669 103.452594 73.0763023 103.808855 72.832373 104.701793 79.6664934 106.55069 79.7315754 106.557297 88.5955361 105.167829"></polygon>
                    <path d="M67.5961946,42.8058265 C65.975807,48.6416934 61.4026449,38.5347628 57.0590632,44.6887741 C56.1284422,45.919678 50.4786088,41.46159 47.4535779,45.157351 C44.428547,48.853112 44.6612022,49.9300259 44.1958917,51.1609298 C43.7305812,52.3918337 37.8352811,51.2168338 37.6800068,56.9200557 C37.5252449,62.6227694 44.8938575,67.9305978 51.8750529,65.7767701 C58.8562483,63.6229424 63.0061214,65.46879 63.0061214,65.46879 L67.5961946,42.8058265 Z" id="Fill-57" fill="#323230"></path>
                    <path d="M95.1906468,43.3330519 C95.6303345,50.503499 102.632028,38.429765 107.049916,44.6889774 C107.996423,45.9407182 114.883327,41.1898967 116.491415,43.930208 C118.946594,48.1148746 119.331449,48.7847059 119.804959,50.0364467 C120.277957,51.2881876 126.273698,50.0933672 126.431535,55.8936587 C126.589371,61.6939503 119.094694,67.0922415 111.994609,64.9018221 C104.894524,62.7108944 100.673419,64.5887598 100.673419,64.5887598 L95.1906468,43.3330519 Z" id="Fill-59" fill="#323230"></path>
                    <path d="M80.0990067,34.1522469 C80.0990067,34.1522469 59.7324465,34.2772685 50.8987207,53.8538243 C43.3451113,70.5935075 52.280816,97.6927055 71.081309,101.65274 C74.2672513,102.324096 77.7360696,102.330703 81.4565041,101.509931 C107.171573,107.352912 116.907222,78.0892141 114.752343,60.7818515 C112.597975,43.4739807 95.4317063,33.1642712 80.0990067,34.1522469" id="Fill-61" fill="#F7B71C"></path>
                    <path d="M75.9471863,101.652943 C57.1466933,97.6924006 48.2109887,70.5932025 55.764598,53.8535194 C63.7850553,36.0801209 81.3095315,34.3404908 84.4703635,34.170746 C83.0062751,34.0665613 81.5442366,34.0589381 80.0991092,34.1524502 C80.0991092,34.1524502 59.732549,34.2769636 50.8988232,53.8535194 C43.3452138,70.5932025 52.2809185,97.6924006 71.0814115,101.652943 C73.3428822,102.129143 75.7478407,102.268903 78.2834757,102.017335 C77.489168,101.935004 76.7097216,101.81354 75.9471863,101.652943" id="Fill-63" fill="#E4A823"></path>
                    <path d="M86.3223301,101.515073 C85.457816,101.748593 81.5508473,101.388037 80.7140058,101.515073 C83.0303093,101.944128 88.264028,102.54879 90.3061673,102.302193 C89.0229761,102.156476 87.6957137,101.897424 86.3223301,101.515073" id="Fill-65" fill="#E4A823"></path>
                    <path d="M65.1905699,58.3278195 C63.0264659,60.2453258 62.5965149,63.2483857 64.3168315,66.1802952 C65.3489189,67.9387293 66.9677691,69.2799165 68.7465058,70.008701 C69.203617,70.251121 69.6755895,70.4447521 70.1552488,70.584512 C70.4555483,70.7166487 70.7783959,70.7776348 71.1063681,70.7918649 C71.1499269,70.7984718 71.1939982,70.8025375 71.237557,70.8076197 C71.331849,70.8767373 71.4476642,70.9199358 71.5850025,70.9184112 C71.7520634,70.9168865 71.9165619,70.9072304 72.0790106,70.8940167 C73.5256754,70.8137183 75.0143617,70.6251694 76.0823211,69.6803922 C77.2030636,68.6898754 77.7488298,67.0213959 78.0368303,65.4931845 C78.3391797,63.890265 77.9102536,62.4459096 76.9991059,60.956831 C76.0761716,59.4489483 75.0097496,57.7962235 73.5548855,56.7757218 C70.577513,54.6864378 67.2675562,56.487054 65.1905699,58.3278195" id="Fill-67" fill="#FEFEFE"></path>
                    <path d="M69.3664757,59.5891148 C69.2660342,60.069889 69.6273161,60.5628604 69.8261492,61.0182237 C70.0357439,61.4964568 70.1976802,61.9818049 70.3309189,62.4732517 C69.6467894,62.1215649 68.9606101,61.767337 68.2662315,61.4725706 C67.953633,61.3399257 67.6517961,61.2174451 67.3894184,61.2687752 C67.3397101,61.2723327 67.2925641,61.2860546 67.2490053,61.3079079 C67.246443,61.3079079 67.2438807,61.3073997 67.240806,61.3073997 C66.3491316,61.3505982 66.1046898,62.6165692 66.2143555,63.3814372 C66.3727046,64.4847784 67.1531759,65.8407039 68.0207648,66.5857514 C68.4773636,66.9780957 68.9939198,67.2017116 69.528412,67.3399469 C70.3913888,67.727209 71.5070066,67.6113353 72.2782537,67.4116056 C73.3533876,67.1331022 74.2435246,66.4165149 74.6145431,65.3284202 C74.8261876,64.7078861 74.8461734,64.0111193 74.7057604,63.3270579 C74.6345289,61.5137362 72.9787818,59.4691754 71.2866503,58.9909423 C70.5973963,58.7962948 69.5391735,58.7607195 69.3664757,59.5891148" id="Fill-69" fill="#323230"></path>
                    <path d="M100.694686,58.3278195 C102.85879,60.2453258 103.288741,63.2483857 101.568425,66.1802952 C100.536337,67.9387293 98.9174869,69.2799165 97.1387503,70.008701 C96.6816391,70.251121 96.2096666,70.4447521 95.7300073,70.584512 C95.4297077,70.7166487 95.1068601,70.7776348 94.7788879,70.7918649 C94.7353291,70.7984718 94.6912579,70.8025375 94.6476991,70.8076197 C94.5534071,70.8767373 94.4375919,70.9199358 94.3002535,70.9184112 C94.1331927,70.9168865 93.9686941,70.9072304 93.8062454,70.8940167 C92.3595806,70.8137183 90.8708944,70.6251694 89.8029349,69.6803922 C88.6821925,68.6898754 88.1364263,67.0213959 87.8484257,65.4931845 C87.5460764,63.890265 87.9750025,62.4459096 88.8861502,60.956831 C89.8090844,59.4489483 90.8755065,57.7962235 92.3303706,56.7757218 C95.3077431,54.6864378 98.6176999,56.487054 100.694686,58.3278195" id="Fill-71" fill="#FEFEFE"></path>
                    <path d="M96.5187804,59.5891148 C96.6192218,60.069889 96.25794,60.5628604 96.0591069,61.0182237 C95.8495121,61.4964568 95.6875759,61.9818049 95.5543372,62.4732517 C96.2384666,62.1215649 96.9246459,61.767337 97.6190246,61.4725706 C97.931623,61.3399257 98.2334599,61.2174451 98.4958377,61.2687752 C98.545546,61.2723327 98.592692,61.2860546 98.6362508,61.3079079 C98.6388131,61.3079079 98.6413753,61.3073997 98.6444501,61.3073997 C99.5361245,61.3505982 99.7805662,62.6165692 99.6709005,63.3814372 C99.5125515,64.4847784 98.7320802,65.8407039 97.8644912,66.5857514 C97.4078925,66.9780957 96.8913363,67.2017116 96.3568441,67.3399469 C95.4938673,67.727209 94.3782494,67.6113353 93.6070023,67.4116056 C92.5318685,67.1331022 91.6417315,66.4165149 91.270713,65.3284202 C91.0590684,64.7078861 91.0390826,64.0111193 91.1794957,63.3270579 C91.2507272,61.5137362 92.9064742,59.4691754 94.5986057,58.9909423 C95.2878598,58.7962948 96.3460825,58.7607195 96.5187804,59.5891148" id="Fill-73" fill="#323230"></path>
                    <mask id="mask-2" fill="white">
                        <use xlink:href="#path-1"></use>
                    </mask>
                    <g id="Clip-76"></g>
                    <polygon id="Fill-75" fill="#323230" mask="url(#mask-2)" points="38.7893727 46.5715692 124.123635 46.5715692 124.123635 42.8056741 38.7893727 42.8056741"></polygon>
                    <polygon id="Fill-77" fill="#323230" mask="url(#mask-2)" points="38.7893727 46.5715692 62.6995699 46.5715692 62.6995699 42.8056741 38.7893727 42.8056741"></polygon>
                    <polygon id="Fill-78" fill="#323230" mask="url(#mask-2)" points="104.729513 42.8058265 56.5847335 42.8058265 53.7718595 0.388430986 107.473718 7.95935393"></polygon>
                    <path d="M83.9581631,79.177817 C83.9581631,75.556764 80.9982142,72.6212971 77.3469614,72.6212971 C74.4044359,72.6212971 71.9118473,74.5281309 71.0545075,77.163241 C70.9407422,77.4092185 70.8326138,77.6658686 70.7352471,77.9392898 C69.0333789,82.7119647 64.9603744,88.4390729 54.5334212,90.0297951 C54.5334212,90.0297951 74.5960947,93.0948576 81.7294897,84.0851696 C83.0956988,82.8837424 83.9581631,81.1314068 83.9581631,79.177817" id="Fill-79" fill="#323230" mask="url(#mask-2)"></path>
                    <path d="M78.9547937,79.177817 C78.9547937,75.556764 81.9147427,72.6212971 85.5659955,72.6212971 C88.508521,72.6212971 91.0011096,74.5281309 91.8584494,77.163241 C91.9722147,77.4092185 92.080343,77.6658686 92.1777098,77.9392898 C93.879578,82.7119647 97.9525825,88.4390729 108.379536,90.0297951 C108.379536,90.0297951 88.3168622,93.0948576 81.1834672,84.0851696 C79.8172581,82.8837424 78.9547937,81.1314068 78.9547937,79.177817" id="Fill-80" fill="#323230" mask="url(#mask-2)"></path>
                    <path d="M75.7012072,69.4659243 C75.7012072,69.4659243 74.9402092,78.8826948 82.3467436,77.9836573 C89.7527655,77.0846197 89.7527655,69.4659243 89.7527655,69.4659243" id="Fill-81" fill="#F7B71C" mask="url(#mask-2)"></path>
                    <path d="M89.9544683,57.518025 C91.9110274,55.8637755 94.1448255,54.5861156 96.5661826,53.7292601 C98.878899,52.9100127 97.882171,49.2259407 95.5443443,50.0533196 C92.4675552,51.1429389 89.7223255,52.7214639 87.2369113,54.8229451 C85.3515837,56.4162084 88.0814397,59.1016321 89.9544683,57.518025" id="Fill-82" fill="#323230" mask="url(#mask-2)"></path>
                    <path d="M68.1070625,54.714898 C70.772349,54.2768141 73.5273153,55.0223699 75.6089138,56.7259165 C77.5024407,58.2759812 80.2363963,55.5941151 78.3264708,54.0308366 C75.087233,51.3794635 71.2274104,50.3584536 67.0852242,51.0394657 C64.6510556,51.4394332 65.6836555,55.1133409 68.1070625,54.714898" id="Fill-83" fill="#323230" mask="url(#mask-2)"></path>
                    <polygon id="Fill-84" fill="#D1D2D4" mask="url(#mask-2)" points="88.5955873 105.168033 93.2850771 104.433149 88.3270601 104.264929"></polygon>
                    <polygon id="Fill-85" fill="#D1D2D4" mask="url(#mask-2)" points="68.2154471 103.452543 72.832168 104.701743 73.1734641 103.452543"></polygon>
                    <polygon id="Fill-86" fill="#DB2E36" mask="url(#mask-2)" points="56.584631 42.8058265 55.8318323 31.4507127 105.366394 34.7175377 104.72941 42.8058265"></polygon>
                    <polygon id="Fill-87" fill="#DB2E36" mask="url(#mask-2)" points="71.0920706 183.633379 86.4960017 183.633379 86.4960017 179.658098 71.0920706 179.658098"></polygon>
                    <polygon id="Fill-88" fill="#F7B71C" mask="url(#mask-2)" points="75.1271534 185.204789 82.9800374 185.204789 82.9800374 178.271679 75.1271534 178.271679"></polygon>
                    <polygon id="Fill-89" fill="#DB2E36" mask="url(#mask-2)" points="77.1631432 183.185639 80.9440475 183.185639 80.9440475 180.290829 77.1631432 180.290829"></polygon>
                    <path d="M103.914041,75.1968949 C103.914041,75.6446349 103.239135,76.0075026 102.406394,76.0075026 C101.573652,76.0075026 100.898234,75.6446349 100.898234,75.1968949 C100.898234,74.7491549 101.573652,74.3862873 102.406394,74.3862873 C103.239135,74.3862873 103.914041,74.7491549 103.914041,75.1968949" id="Fill-90" fill="#E4A823" mask="url(#mask-2)"></path>
                    <path d="M106.700523,78.5673456 C106.700523,79.2046509 105.739155,79.7215086 104.55333,79.7215086 C103.367506,79.7215086 102.406137,79.2046509 102.406137,78.5673456 C102.406137,77.9300403 103.367506,77.4131826 104.55333,77.4131826 C105.739155,77.4131826 106.700523,77.9300403 106.700523,78.5673456" id="Fill-91" fill="#E4A823" mask="url(#mask-2)"></path>
                    <path d="M109.845469,75.8607292 C109.845469,76.4980345 108.8841,77.0148922 107.698276,77.0148922 C106.512452,77.0148922 105.551083,76.4980345 105.551083,75.8607292 C105.551083,75.2234239 106.512452,74.7065662 107.698276,74.7065662 C108.8841,74.7065662 109.845469,75.2234239 109.845469,75.8607292" id="Fill-92" fill="#E4A823" mask="url(#mask-2)"></path>
                    <path d="M58.6897512,75.0698404 C58.6897512,75.5175804 58.0148459,75.8804481 57.1821041,75.8804481 C56.3493622,75.8804481 55.6739445,75.5175804 55.6739445,75.0698404 C55.6739445,74.6221004 56.3493622,74.2592328 57.1821041,74.2592328 C58.0148459,74.2592328 58.6897512,74.6221004 58.6897512,75.0698404" id="Fill-93" fill="#E4A823" mask="url(#mask-2)"></path>
                    <path d="M61.4762336,78.4402911 C61.4762336,79.0775964 60.5148652,79.5944541 59.3290407,79.5944541 C58.1432163,79.5944541 57.1818478,79.0775964 57.1818478,78.4402911 C57.1818478,77.8029858 58.1432163,77.2861281 59.3290407,77.2861281 C60.5148652,77.2861281 61.4762336,77.8029858 61.4762336,78.4402911" id="Fill-94" fill="#E4A823" mask="url(#mask-2)"></path>
                    <path d="M64.6211794,75.7336747 C64.6211794,76.37098 63.6598109,76.8878377 62.4739865,76.8878377 C61.2881621,76.8878377 60.3267936,76.37098 60.3267936,75.7336747 C60.3267936,75.0963694 61.2881621,74.5795117 62.4739865,74.5795117 C63.6598109,74.5795117 64.6211794,75.0963694 64.6211794,75.7336747" id="Fill-95" fill="#E4A823" mask="url(#mask-2)"></path>
                </g>
            </g>
        </g>
    </g>
</svg>