<?xml version="1.0" encoding="UTF-8" standalone="no"?>
<svg width="136px" height="46px" viewBox="0 0 136 46" version="1.1" xmlns="http://www.w3.org/2000/svg" xmlns:xlink="http://www.w3.org/1999/xlink">
    <!-- Generator: Sketch 3.8.3 (29802) - http://www.bohemiancoding.com/sketch -->
    <title>play_store_btn</title>
    <desc>Created with Sketch.</desc>
    <defs>
        <linearGradient x1="58.917%" y1="16.6438258%" x2="90.81%" y2="58.9568881%" id="linearGradient-1">
            <stop stop-color="#FF177B" offset="0%"></stop>
            <stop stop-color="#FFEC73" offset="100%"></stop>
        </linearGradient>
        <linearGradient x1="48.5091068%" y1="-44.035%" x2="44.22%" y2="101.06%" id="linearGradient-2">
            <stop stop-color="#064AA2" offset="0%"></stop>
            <stop stop-color="#63FFD4" offset="100%"></stop>
        </linearGradient>
        <linearGradient x1="37.103%" y1="22.5209591%" x2="0%" y2="64.9208256%" id="linearGradient-3">
            <stop stop-color="#064AA2" offset="0%"></stop>
            <stop stop-color="#63FFD4" offset="100%"></stop>
        </linearGradient>
        <path d="M11.3624473,10.4276644 L0.409639059,0 C0.152439453,0.0604385497 0,0.25182729 0,0.574837762 L0,20.5276176 C0,20.8009342 0.110132468,20.9641183 0.245111896,21.0191845 L11.3624473,10.4276644 L11.3624473,10.4276644 Z" id="path-4"></path>
        <path d="M0.452617583,11.1636717 L6.78389143,7.6703235 L9.58085321,6.11369507 L14.1855992,3.62228375 L11.1206931,0.631247075 L0.00134307888,11.2241102 C0.124906336,11.2644026 0.343828194,11.2422418 0.513727672,11.1582994" id="path-6"></path>
        <linearGradient x1="78.645%" y1="50%" x2="2.495%" y2="91.0863987%" id="linearGradient-8">
            <stop stop-color="#FF4521" offset="0%"></stop>
            <stop stop-color="#8A33DB" offset="100%"></stop>
        </linearGradient>
        <linearGradient x1="44.22%" y1="-24.186%" x2="51.6442944%" y2="100%" id="linearGradient-9">
            <stop stop-color="#00A3B5" offset="0%"></stop>
            <stop stop-color="#D6FFA1" offset="100%"></stop>
        </linearGradient>
        <linearGradient x1="22.0631378%" y1="-24.186%" x2="57.9474786%" y2="100%" id="linearGradient-10">
            <stop stop-color="#00A3B5" offset="0%"></stop>
            <stop stop-color="#D6FFA1" offset="100%"></stop>
        </linearGradient>
        <path d="M1.18661019,0.698401019 C0.975746808,0.584239314 0.765554963,0.550662342 0.595655484,0.597670103 L11.5605515,11.0401084 L14.5932236,8.15786113 L10.0220546,5.61406973 L3.10922761,1.76816335 L1.18728173,0.698401019 L1.18661019,0.698401019 Z" id="path-11"></path>
    </defs>
    <g id="Page-1" stroke="none" stroke-width="1" fill="none" fill-rule="evenodd">
        <g id="app-store-buttons-copy" transform="translate(-147.135846, -0.153264)">
            <g id="play_store_btn" transform="translate(147.892815, 0.464994)">
                <g id="Play-Store">
                    <g id="Group">
                        <rect id="Rectangle-path" fill="#000000" x="0" y="0" width="134.307888" height="45.664682" rx="6"></rect>
                        <path d="M21.7041547,17.0168094 C21.7041547,17.0168094 13.3723649,12.3811727 12.8828126,12.1078561 C12.3932604,11.8372257 11.9063943,12.0024244 11.9063943,12.5712183 L11.9063943,32.5642906 C11.9063943,32.9907181 12.2542517,33.1753915 12.6800077,32.9390096 C13.1050922,32.7039708 21.7034832,27.9179092 21.7034832,27.9179092 L23.4548581,26.944177 L26.2753237,25.3747893 C26.2753237,25.3747893 30.1541355,23.21579 30.6705494,22.9303858 C31.1856201,22.6416238 31.1359262,22.2487732 30.7014402,22.0224644 C30.2649395,21.7968272 26.2746522,19.5606008 26.2746522,19.5606008 L21.7014686,17.0168094 L21.7041547,17.0168094 Z" id="Shape" fill="url(#linearGradient-1)"></path>
                        <g transform="translate(11.879533, 12.005782)">
                            <g id="d" fill="#FFFFFF">
                                <path d="M11.3624473,10.4276644 L0.409639059,0 C0.152439453,0.0604385497 0,0.25182729 0,0.574837762 L0,20.5276176 C0,20.8009342 0.110132468,20.9641183 0.245111896,21.0191845 L11.3624473,10.4276644 L11.3624473,10.4276644 Z" id="b"></path>
                            </g>
                            <g id="b-link" fill="url(#linearGradient-3)">
                                <path d="M11.3624473,10.4276644 L0.409639059,0 C0.152439453,0.0604385497 0,0.25182729 0,0.574837762 L0,20.5276176 C0,20.8009342 0.110132468,20.9641183 0.245111896,21.0191845 L11.3624473,10.4276644 L11.3624473,10.4276644 Z" id="b"></path>
                            </g>
                            <g id="Clipped">
                                <mask id="mask-5" fill="white">
                                    <use xlink:href="#path-4"></use>
                                </mask>
                                <g id="b"></g>
                                <path d="M14.3884041,7.55481871 L9.80984815,5.00834115 C9.79440275,5.04527582 1.46664214,0.401580586 0.980447584,0.164527163 C0.488209174,-0.14438098 0,0.0201461832 0,0.574166222 L0,20.6095454 C0,21.0494038 0.349200509,21.2340771 0.736007227,21.0191845 C1.19936944,20.7606418 9.79507429,15.9665218 9.80984815,15.9289155 L14.3884041,13.3837811 C14.3642286,13.4187011 18.2430405,11.255001 18.7211765,11.0025022 C19.273182,10.6815063 19.223488,10.2873127 18.8017613,10.0992817 C18.3538445,9.83335204 14.3642286,7.59309646 14.3884041,7.55414717" id="Shape" mask="url(#mask-5)"></path>
                            </g>
                        </g>
                        <g transform="translate(12.123302, 21.803543)">
                            <g id="g" fill="#FFFFFF">
                                <path d="M0.452617583,11.1636717 L6.78389143,7.6703235 L9.58085321,6.11369507 L14.1855992,3.62228375 L11.1206931,0.631247075 L0.00134307888,11.2241102 C0.124906336,11.2644026 0.343828194,11.2422418 0.513727672,11.1582994" id="e"></path>
                            </g>
                            <g id="Clipped">
                                <mask id="mask-7" fill="white">
                                    <use xlink:href="#path-6"></use>
                                </mask>
                                <g id="e"></g>
                                <path d="M9.56607934,-4.78807621 C9.54996239,-4.75181308 1.22287332,-9.39617986 0.737350306,-9.63323328 C0.243768817,-9.94214142 -0.243097278,-9.77627118 -0.243097278,-9.22359422 L-0.243097278,10.8124565 C-0.243097278,11.2523149 0.104088613,11.4369882 0.491566871,11.2220956 C0.954929085,10.9642245 9.55063393,6.16943284 9.56607934,6.13182664 L14.1439637,3.58669215 C14.1204598,3.62228375 17.9986001,1.45925521 18.4774077,1.2054133 C19.0294131,0.884417444 18.9797192,0.490223792 18.5579925,0.302192748 C18.1094041,0.0369346693 14.1204598,-2.20264937 14.1439637,-2.24294173 L9.56607934,-4.78807621 L9.56607934,-4.78807621 Z" id="Shape" fill="url(#linearGradient-8)" mask="url(#mask-7)"></path>
                            </g>
                        </g>
                        <g transform="translate(11.682772, 11.402740)">
                            <g id="j" fill="#FFFFFF">
                                <path d="M1.18661019,0.698401019 C0.975746808,0.584239314 0.765554963,0.550662342 0.595655484,0.597670103 L11.5605515,11.0401084 L14.5932236,8.15786113 L10.0220546,5.61406973 L3.10922761,1.76816335 L1.18728173,0.698401019 L1.18661019,0.698401019 Z" id="h"></path>
                            </g>
                            <g id="h-link" fill="url(#linearGradient-10)">
                                <path d="M1.18661019,0.698401019 C0.975746808,0.584239314 0.765554963,0.550662342 0.595655484,0.597670103 L11.5605515,11.0401084 L14.5932236,8.15786113 L10.0220546,5.61406973 L3.10922761,1.76816335 L1.18728173,0.698401019 L1.18661019,0.698401019 Z" id="h"></path>
                            </g>
                            <g id="Clipped">
                                <mask id="mask-12" fill="white">
                                    <use xlink:href="#path-11"></use>
                                </mask>
                                <g id="h"></g>
                                <path d="M14.5858367,8.15786113 L10.0059377,5.61272665 C9.99049226,5.64898978 1.6634032,1.00596608 1.17788018,0.768241121 C0.68497023,0.459332978 0.197432596,0.62453168 0.197432596,1.17788018 L0.197432596,21.2119163 C0.197432596,21.6524462 0.545290026,21.836448 0.932096744,21.6215554 C1.39545896,21.3636842 9.9911638,16.5695642 10.0066092,16.5312864 L14.5865082,13.9861519 C14.5616612,14.0217435 18.4398015,11.858715 18.9179376,11.6055446 C19.4706146,11.2845488 19.4215922,10.8903551 18.9998654,10.7023241 C18.5512771,10.437066 14.5609897,8.19748196 14.5858367,8.15718959" id="Shape" mask="url(#mask-12)"></path>
                            </g>
                        </g>
                        <g transform="translate(38.277748, 18.803104)" id="Shape" fill="#FFFFFF">
                            <path d="M54.7553114,12.5228675 L53.8487332,13.3857957 C53.6405559,13.501972 53.4323787,13.6369514 53.2242015,13.73231 C52.5963121,14.021072 51.9570066,14.0929267 51.3882126,14.0929267 C50.7838272,14.0929267 49.8356135,14.0526343 48.8699397,13.3461749 C47.5255178,12.3905742 46.9385923,10.7473172 46.9385923,9.31559513 C46.9385923,6.35074849 49.3272581,4.8968656 51.2767371,4.8968656 C51.9570066,4.8968656 52.6560791,5.0687797 53.2242015,5.43208254 C54.1710721,6.06332961 54.4148409,6.88529389 54.5504919,7.32448068 L50.1015431,9.14099487 L48.6443025,9.25515658 C49.1157232,11.6861294 50.7435348,13.0997199 52.5419174,13.0997199 C53.4417803,13.0997199 54.1086189,12.8042425 54.7203914,12.4980205 C54.7203914,12.4980205 54.8432831,12.4335528 54.7559829,12.522196 L54.7553114,12.5228675 Z M52.0355767,7.64614808 C52.3935072,7.51184019 52.5795236,7.39767848 52.5795236,7.12906271 C52.5795236,6.36015005 51.7333839,5.47237491 50.7240601,5.47237491 C49.9766367,5.47237491 48.5731193,6.07004501 48.5731193,8.1504742 C48.5731193,8.47482775 48.6120686,8.82067056 48.6308717,9.16651337 L52.0369197,7.64614808 L52.0355767,7.64614808 Z"></path>
                            <path d="M45.4699356,12.4187789 C45.4699356,13.1594869 45.5995427,13.2749917 46.2200451,13.3334156 C46.542384,13.3716934 46.864723,13.3884818 47.1837042,13.4274311 L46.4853032,13.8471433 L43.161183,13.8471433 C43.5976836,13.2749917 43.6715529,13.2179108 43.6715529,12.837148 L43.6715529,12.4113919 L43.6648375,1.06909079 L42.1968523,1.06909079 L43.6097713,0.381434403 L46.3080168,0.381434403 C45.7237775,0.723919517 45.5491772,0.932096744 45.4732933,1.60027849 L45.469264,12.4187789"></path>
                            <path d="M40.310498,5.83299158 C40.7429694,6.19293673 41.6455184,6.95714861 41.6455184,8.40633072 C41.6455184,9.81857817 40.8598173,10.4847453 40.0660577,11.1146493 C39.8229604,11.3631189 39.5382277,11.6317347 39.5382277,12.0480891 C39.5382277,12.471159 39.8229604,12.6994824 40.0284515,12.8700534 L40.7080494,13.4019126 C41.5340429,14.1090437 42.2888532,14.7584223 42.2888532,16.0746396 C42.2888532,17.8676499 40.5737415,19.6774487 37.3342352,19.6774487 C34.6044274,19.6774487 33.2848524,18.3612314 33.2848524,16.9509986 C33.2848524,16.2640137 33.6226367,15.2909531 34.7367207,14.6247859 C35.9051993,13.9022095 37.4866747,13.8055078 38.3334859,13.748427 C38.0688994,13.4032557 37.7673782,13.0412959 37.7673782,12.4503412 C37.7673782,12.1266592 37.8640798,11.9332559 37.9567523,11.7069471 C37.7505897,11.7270933 37.543084,11.7472394 37.3543814,11.7472394 C35.3565516,11.7472394 34.2276938,10.2376188 34.2276938,8.75083046 C34.2276938,7.87379995 34.6218874,6.9007393 35.4337786,6.19495134 C36.5082417,5.29978927 37.7875243,5.14600674 38.8049066,5.14600674 L42.6864046,5.14600674 L41.4796482,5.8350062 L40.3091549,5.8350062 L40.310498,5.83299158 Z M38.9855507,14.2782716 C38.8297536,14.2581254 38.7370811,14.2581254 38.5490501,14.2581254 C38.3764644,14.2581254 37.3503522,14.2957316 36.555921,14.5683766 C36.1355373,14.7255169 34.9207225,15.1895506 34.9207225,16.5695642 C34.9207225,17.9448769 36.2329105,18.9374122 38.2623027,18.9374122 C40.0848608,18.9374122 41.0532206,18.0442648 41.0532206,16.8408661 C41.0532206,15.851017 40.4266744,15.3285593 38.9862223,14.2782716 L38.9855507,14.2782716 Z M39.5180815,10.6049509 C39.951896,10.1664356 39.9895022,9.56003548 39.9895022,9.21486421 C39.9895022,7.84828145 39.1849979,5.71815834 37.6256833,5.71815834 C37.1394888,5.71815834 36.6116588,5.96662793 36.3134953,6.34806234 C35.9965287,6.74427061 35.9011701,7.25799828 35.9011701,7.75157977 C35.9011701,9.02549009 36.633148,11.1374816 38.2448427,11.1374816 C38.7149203,11.1374816 39.2205895,10.9058005 39.5174099,10.6049509 L39.5180815,10.6049509 Z M28.5719886,14.0935982 C25.5715504,14.0935982 23.9665711,11.7163486 23.9665711,9.56406472 C23.9665711,7.04914951 25.9838756,4.8968656 28.8540352,4.8968656 C31.6288361,4.8968656 33.3667802,7.10757344 33.3667802,9.42841375 C33.3667802,11.6955309 31.6489823,14.0935982 28.5719886,14.0935982 L28.5719886,14.0935982 Z M30.9183474,12.5389844 C31.3770088,11.9225112 31.4878129,11.152927 31.4878129,10.403489 C31.4878129,8.70718039 30.6933817,5.47237491 28.3450083,5.47237491 C27.7204766,5.47237491 27.0905726,5.71950142 26.6372835,6.12511124 C25.897247,6.7986653 25.7656253,7.64614808 25.7656253,8.47684236 C25.7656253,10.3793136 26.6903351,13.5180889 28.9863284,13.5180889 C29.7270364,13.5180889 30.4838614,13.1541146 30.9190189,12.5389844 L30.9183474,12.5389844 Z M18.516357,14.0935982 C15.5145757,14.0935982 13.9109395,11.7163486 13.9109395,9.56406472 C13.9109395,7.04914951 15.9302586,4.8968656 18.8010897,4.8968656 C21.5745476,4.8968656 23.3124917,7.10757344 23.3124917,9.42841375 C23.3124917,11.6955309 21.5960369,14.0935982 18.516357,14.0935982 L18.516357,14.0935982 Z M20.8640589,12.5389844 C21.3180196,11.9225112 21.4315097,11.152927 21.4315097,10.403489 C21.4315097,8.70718039 20.6337209,5.47237491 18.286019,5.47237491 C17.6594727,5.47237491 17.0369556,5.71950142 16.5823234,6.12511124 C15.8409439,6.7986653 15.7093221,7.64614808 15.7093221,8.47684236 C15.7093221,10.3793136 16.6387327,13.5180889 18.9313684,13.5180889 C19.6720764,13.5180889 20.4268867,13.1541146 20.865402,12.5389844 L20.8640589,12.5389844 Z M12.6665769,13.5248043 L10.1248002,14.1137444 C9.09533019,14.2776001 8.17062038,14.4226526 7.19151587,14.4226526 C2.28927795,14.4226526 0.42105523,10.7748503 0.42105523,7.92013617 C0.42105523,4.43484647 3.06692063,1.20272714 7.59981185,1.20272714 C8.55877018,1.20272714 9.48012229,1.34576504 10.3215612,1.57744615 C11.6538955,1.95552285 12.2770841,2.42157122 12.6665769,2.69488778 L11.1891902,4.111836 L10.5673446,4.25285928 L11.0105607,3.53834131 C10.4102044,2.94470045 9.3048505,1.84941962 7.20830436,1.84941962 C4.40462719,1.84941962 2.28994949,4.00371815 2.28994949,7.14786581 C2.28994949,10.5257092 4.70480532,13.7041054 8.57824482,13.7041054 C9.71583263,13.7041054 10.3020866,13.4730958 10.8346173,13.2575316 L10.8346173,10.3618536 L8.1504742,10.5082492 L9.57279473,9.73597882 L13.3387879,9.73597882 L12.8781119,10.1838956 C12.7538771,10.2913419 12.7370886,10.3269335 12.7021685,10.4699714 C12.684037,10.6331555 12.6665769,11.152927 12.6665769,11.3362573 L12.6665769,13.5254759 L12.6665769,13.5248043 Z M60.2391025,12.6101676 L60.2391025,17.4600255 L59.2828303,17.4600255 L59.2828303,5.12048824 L60.2384309,5.12048824 L60.2384309,6.52534875 C60.8629626,5.61742742 62.0005504,4.89753714 63.3234831,4.89753714 C65.696032,4.89753714 67.2936243,6.70867902 67.2936243,9.57682397 C67.2936243,12.4261658 65.6953604,14.2755854 63.3228116,14.2755854 C62.0737482,14.2755854 60.9556351,13.6275499 60.2377594,12.6101676 L60.2391025,12.6101676 Z M66.3131767,9.65069331 C66.3131767,7.46684705 65.1896912,5.80142923 63.1972337,5.80142923 C61.9616011,5.80142923 60.7776771,6.78657759 60.2639494,7.64547654 L60.2639494,11.637107 C60.7776771,12.4980205 61.9609296,13.519432 63.1985768,13.519432 C65.1896912,13.519432 66.3131767,11.8405834 66.3131767,9.65136485 L66.3131767,9.65069331 Z M68.6024547,1.69496555 L69.5829023,1.69496555 L69.5829023,14.0935982 L68.6024547,14.0935982 L68.6024547,1.69496555 L68.6024547,1.69496555 Z M80.2489632,16.6058273 C80.4531112,16.6978282 80.8023117,16.753566 81.0239197,16.753566 C81.608159,16.753566 82.016455,16.5131549 82.382444,15.6623144 L83.080845,14.0707659 L79.3114941,5.06139277 L80.3792419,5.06139277 L83.6120327,12.8687103 L86.8132612,5.06139277 L87.8957828,5.06139277 L83.2990953,15.9604779 C82.8223023,17.0839634 82.0715212,17.6238811 81.0407082,17.6238811 C80.730457,17.6238811 80.322161,17.5688149 80.0837645,17.4949455 L80.2482917,16.6058273 L80.2489632,16.6058273 Z M77.5493747,14.080839 C77.4849069,13.7699162 77.436556,13.4952566 77.401636,13.2655901 C77.3714167,13.0372667 77.3546282,12.803571 77.3546282,12.565846 C77.0255739,13.0533837 76.5575109,13.4589935 75.9605123,13.7779747 C75.3628422,14.1003136 74.7953914,14.2574539 74.0170772,14.2574539 C73.0796081,14.2574539 72.3516594,14.0264443 71.8325594,13.5550236 C71.315474,13.084946 71.0549167,12.4469835 71.0549167,11.6411362 C71.0549167,10.836632 71.4309788,10.1838956 72.183103,9.6829272 C72.9352272,9.18128724 73.9069447,8.93080303 75.1096719,8.93080303 L77.3539567,8.93080303 L77.3539567,7.81604755 C77.3539567,7.17271277 77.1363779,6.66771511 76.7025634,6.30038304 C76.2660628,5.93439404 75.6529473,5.74837762 74.8598592,5.74837762 C74.1345966,5.74837762 73.5456565,5.91827709 73.0977397,6.2486745 C72.6531806,6.58444422 72.429558,7.00281329 72.429558,7.50646787 L71.4450811,7.50646787 L71.424935,7.45811703 C71.3900149,6.7798622 71.6982515,6.18420671 72.353674,5.67047904 C73.0064103,5.15675137 73.86128,4.89820868 74.9135823,4.89820868 C75.962527,4.89820868 76.8120243,5.15339367 77.4520014,5.66040595 C78.0899639,6.16204591 78.4123028,6.88798005 78.4123028,7.83619374 L78.4123028,12.268354 C78.4123028,12.5859922 78.4257336,12.8928857 78.466026,13.1930639 C78.5063184,13.493242 78.5714577,13.7927486 78.6574147,14.0821821 L77.5493747,14.0821821 L77.5493747,14.080839 Z M74.132582,13.4361611 C74.9491739,13.4361611 75.5360994,13.2514878 76.1357841,12.8854988 C76.7321112,12.5228675 77.1363779,12.0487607 77.3499274,11.475266 L77.3499274,9.74135113 L75.0969126,9.74135113 C74.2373421,9.74135113 73.5241672,9.93475449 72.9634318,10.3235758 C72.4026964,10.7110541 72.1186352,11.1804602 72.1186352,11.7270933 C72.1186352,12.2414925 72.2986078,12.6538177 72.6558667,12.9647404 C73.0158119,13.280364 73.5073788,13.4368327 74.1332535,13.4368327 L74.132582,13.4361611 Z"></path>
                        </g>
                        <path d="M44.4324071,11.6982171 L42.0350113,11.6982171 L42.0350113,12.6753069 L43.2337092,12.6753069 L43.2337092,14.3675863 C43.0725397,14.4481711 42.7401277,14.5086096 42.2969117,14.5086096 C40.8866789,14.5086096 39.9398083,13.5919583 39.9398083,12.0507753 C39.9398083,10.4692999 40.9571905,9.6130871 42.4077157,9.6130871 C43.1229052,9.6130871 43.5761943,9.74403729 43.9488987,9.90520676 L44.2208722,8.90797069 C43.9086064,8.75687431 43.2538554,8.58563175 42.4177888,8.58563175 C40.1714894,8.58563175 38.6403794,9.96564531 38.6403794,12.1112138 C38.6303063,13.1386692 38.9828646,14.0351743 39.58725,14.6093405 C40.2319279,15.2237991 41.0982138,15.5159188 42.2465462,15.5159188 C43.1531245,15.5159188 43.9992642,15.2943108 44.4324071,15.1331413 L44.4324071,11.6982171 L44.4324071,11.6982171 Z M50.1404924,13.340131 C50.1606385,13.229327 50.1807847,13.0480113 50.1807847,12.8163302 C50.1807847,11.7385094 49.656984,10.4290075 48.0654355,10.4290075 C46.4940332,10.4290075 45.6680397,11.7082902 45.6680397,13.0681575 C45.6680397,14.5690482 46.6048372,15.5461381 48.1963857,15.5461381 C48.9015021,15.5461381 49.4857414,15.4151879 49.9088113,15.2439453 L49.7274956,14.3877325 C49.3547912,14.5287558 48.9417945,14.6093405 48.3676282,14.6093405 C47.5819271,14.6093405 46.8868838,14.2265631 46.8566645,13.340131 L50.1404924,13.340131 L50.1404924,13.340131 Z M46.8566645,12.4738451 C46.90703,11.9701905 47.2293689,11.2751472 47.9949239,11.2751472 C48.8209174,11.2751472 49.0223792,12.020556 49.0123061,12.4738451 L46.8566645,12.4738451 L46.8566645,12.4738451 Z M51.6581715,9.43177145 L51.6581715,10.5398115 L50.9530551,10.5398115 L50.9530551,11.466536 L51.6581715,11.466536 L51.6581715,13.7732739 C51.6581715,14.4179518 51.7790486,14.8611678 52.040949,15.1432144 C52.2726301,15.3950417 52.6554076,15.5461381 53.1086967,15.5461381 C53.5015473,15.5461381 53.8238862,15.4957726 54.0052018,15.425261 L53.9850557,14.4783903 C53.8742517,14.5086096 53.7130822,14.5388289 53.5015473,14.5388289 C53.028112,14.5388289 52.8669425,14.2265631 52.8669425,13.6322507 L52.8669425,11.466536 L54.0454942,11.466536 L54.0454942,10.5398115 L52.8669425,10.5398115 L52.8669425,9.13965179 L51.6581715,9.43177145 L51.6581715,9.43177145 Z M58.8537166,15.4454071 L58.8537166,10.5398115 L57.6046533,10.5398115 L57.6046533,15.4454071 L58.8537166,15.4454071 L58.8537166,15.4454071 Z M58.2291849,8.49497393 C57.8161882,8.49497393 57.5341416,8.78709359 57.5341416,9.16987107 C57.5341416,9.54257546 57.8061151,9.83469511 58.2191118,9.83469511 C58.6522548,9.83469511 58.9242283,9.54257546 58.9242283,9.16987107 C58.9141552,8.78709359 58.6522548,8.49497393 58.2291849,8.49497393 L58.2291849,8.49497393 Z M60.6635154,9.43177145 L60.6635154,10.5398115 L59.958399,10.5398115 L59.958399,11.466536 L60.6635154,11.466536 L60.6635154,13.7732739 C60.6635154,14.4179518 60.7843925,14.8611678 61.0462929,15.1432144 C61.277974,15.3950417 61.6607515,15.5461381 62.1140406,15.5461381 C62.5068912,15.5461381 62.8292301,15.4957726 63.0105458,15.425261 L62.9903996,14.4783903 C62.8795956,14.5086096 62.7184261,14.5388289 62.5068912,14.5388289 C62.0334559,14.5388289 61.8722864,14.2265631 61.8722864,13.6322507 L61.8722864,11.466536 L63.0508381,11.466536 L63.0508381,10.5398115 L61.8722864,10.5398115 L61.8722864,9.13965179 L60.6635154,9.43177145 L60.6635154,9.43177145 Z M68.8361504,10.4290075 C67.3554059,10.4290075 66.2977313,11.4161705 66.2977313,13.0278652 C66.2977313,14.5992674 67.365479,15.5562112 68.7555657,15.5562112 C70.004629,15.5562112 71.2738386,14.7503638 71.2738386,12.9472804 C71.2738386,11.4564629 70.2967487,10.4290075 68.8361504,10.4290075 L68.8361504,10.4290075 Z M68.8059311,11.3355858 C69.6520708,11.3355858 69.9945559,12.2119447 69.9945559,12.9774997 C69.9945559,13.9646627 69.5009745,14.659706 68.795858,14.659706 C68.0403762,14.659706 67.577014,13.9445165 67.577014,12.9976459 C67.577014,12.1817255 67.9295722,11.3355858 68.8059311,11.3355858 L68.8059311,11.3355858 Z M72.5598366,15.4454071 L73.8089,15.4454071 L73.8089,12.5645029 C73.8089,12.4234797 73.8189731,12.2723833 73.8592654,12.1615793 C73.9902156,11.7888749 74.3327007,11.4363167 74.8262822,11.4363167 C75.5011794,11.4363167 75.7630797,11.9701905 75.7630797,12.6753069 L75.7630797,15.4454071 L77.00207,15.4454071 L77.00207,12.5342837 C77.00207,10.9830276 76.1156379,10.4290075 75.2594252,10.4290075 C74.4435047,10.4290075 73.9096309,10.8923697 73.698096,11.2751472 L73.6678767,11.2751472 L73.6074381,10.5398115 L72.5195442,10.5398115 C72.5497635,10.9628814 72.5598366,11.4363167 72.5598366,12.0004098 L72.5598366,15.4454071 L72.5598366,15.4454071 Z" id="Shape" fill="#FFFFFF"></path>
                    </g>
                </g>
            </g>
        </g>
    </g>
</svg>