<?xml version="1.0" encoding="UTF-8" standalone="no"?>
<svg width="512px" height="290px" viewBox="0 0 512 290" version="1.1" xmlns="http://www.w3.org/2000/svg" xmlns:xlink="http://www.w3.org/1999/xlink">
    <!-- Generator: Sketch 3.8.3 (29802) - http://www.bohemiancoding.com/sketch -->
    <title>play-button</title>
    <desc>Created with Sketch.</desc>
    <defs>
        <polygon id="path-1" points="0.309546831 77.5782518 168.493887 77.5782518 168.493887 0.201469785 0.309546831 0.201469785 0.309546831 77.5782518"></polygon>
        <polygon id="path-3" points="0 0.167774653 0 77.5443697 168.184386 77.5443697 168.184386 0.167774653"></polygon>
    </defs>
    <g id="Page-1" stroke="none" stroke-width="1" fill="none" fill-rule="evenodd">
        <g id="play-button">
            <rect id="Rectangle-220" fill="#284C70" transform="translate(256.000000, 145.000000) rotate(-270.000000) translate(-256.000000, -145.000000) " x="111" y="-111" width="290" height="512"></rect>
            <g id="Page-1-Copy" transform="translate(171.000000, 64.000000)">
                <g id="Group-3" transform="translate(0.934678, 2.636259)">
                    <mask id="mask-2" fill="white">
                        <use xlink:href="#path-1"></use>
                    </mask>
                    <g id="Clip-2"></g>
                    <path d="M69.819305,52.0396315 L68.5411332,40.6066535 C69.3655189,40.9828613 70.2595382,41.21139 71.1778591,41.2511138 L73.5103473,41.353461 L69.819305,52.0396315 Z M168.022156,11.4900401 C167.127669,9.28466799 165.076051,7.73871102 162.668322,7.455971 L153.190222,6.34323716 C152.923371,6.31192546 152.65138,6.2955686 152.381258,6.2955686 C151.39751,6.2955686 150.429651,6.50400173 149.539371,6.8872196 C148.385511,5.66325911 146.804504,4.8514915 145.070677,4.69493298 L141.535258,4.37433852 C140.37065,3.44713821 138.920964,2.91016585 137.415666,2.88633157 L130.006943,2.77043153 C129.241909,2.77043153 128.503514,2.89661303 127.811852,3.12934778 L126.754264,3.03354331 L126.779968,3.10785019 C125.777059,2.3540326 124.559174,1.86613083 123.223519,1.76331628 L106.899373,0.517858197 L106.950313,0.873035736 L92.5894565,0.432335185 L92.3796214,0.429063813 C91.5328034,0.429063813 90.7247745,0.591697738 89.9765649,0.876307108 C89.0862844,0.447290029 88.0880486,0.201469785 87.0248527,0.201469785 C86.7271578,0.201469785 86.4257242,0.221565356 86.1294314,0.260821821 L79.7857736,1.1034338 L78.9912976,1.20858504 L78.0739114,1.33056049 L78.0753134,1.35018872 C76.2760587,1.72686384 75.2670741,3.21580547 74.8006699,4.16216667 C74.5450356,3.87568795 74.269773,3.60790278 73.9725455,3.36675592 C72.7434443,2.36852011 71.1867385,1.77733644 69.5566605,1.77733644 L69.4384238,1.77780378 L61.769393,2.02128733 C59.5294378,2.09232284 57.4572573,3.27936356 56.2038544,5.07861819 C55.177111,2.61574237 52.7492856,0.918367606 49.9686193,0.918367606 C49.4942703,0.918367606 49.018052,0.968372864 48.5535172,1.0674487 L32.51398,4.4822938 C31.4489147,3.80184841 30.1885018,3.40788175 28.8472392,3.40647973 L20.5178586,3.4036757 C18.7938456,3.4036757 17.1460087,4.05935212 15.903822,5.22115655 C15.4112468,5.10852788 14.8976414,5.04917584 14.3709505,5.04917584 C14.1083061,5.04917584 13.843325,5.06459803 13.5858212,5.09497505 L6.34113414,5.93571767 C2.67065468,6.36333273 -0.0207498457,9.70293627 0.342372453,13.3822952 L3.07443546,41.0020221 C3.41979889,44.4953802 6.32617929,47.129302 9.83542684,47.129302 C10.1247096,47.129302 10.416329,47.1106085 10.7023404,47.074156 L16.1262753,46.3778211 L16.7314791,49.7968723 C17.1193704,51.9798121 18.5078342,53.7650466 20.3753203,54.7156138 L21.4660892,63.8058221 C20.1673545,65.3994476 19.5700954,67.5370556 19.9159262,69.5835325 L20.3122295,71.9309756 C20.8650914,75.202815 23.6728633,77.5782985 26.9876979,77.5782985 C27.5167255,77.5782985 28.0457531,77.5161424 28.5598258,77.394167 C31.8143737,76.6202538 35.7928295,75.7355813 37.2504594,75.482751 L38.1874738,75.4822837 C40.2993782,75.9617734 42.8089879,76.1113218 45.6476041,76.1113218 L46.1140083,76.1094524 C50.762628,76.0809448 53.9405323,74.5863951 56.080477,72.80303 C56.7754099,73.0395034 57.5156746,73.1731623 58.2853818,73.1731623 L71.1315925,73.0409054 C73.0645061,73.0217446 74.8016046,72.1884794 76.0307058,70.8747898 L79.7988591,71.1995903 L80.1133782,71.2243593 L80.3797613,71.2243593 C82.2388353,71.2243593 83.9787379,70.469607 85.2513017,69.2222796 C86.5406896,70.4625969 88.2857329,71.2238919 90.1092892,71.2509976 C90.1092892,71.2509976 90.8383378,71.2608117 91.8473224,71.2743645 C92.7558292,71.876297 93.8185578,72.273535 94.9794275,72.388033 L101.666112,73.0460462 C101.888565,73.0675438 102.10728,73.0778252 102.323658,73.0778252 C103.387321,73.0778252 104.434627,72.8217235 105.373044,72.3478419 C106.041806,72.7193763 106.819458,72.9955736 107.708804,73.1413833 C107.968177,73.1839111 108.337374,73.2353184 108.781346,73.2895297 C109.493571,73.3764548 110.441801,73.4773999 111.390966,73.5732044 C113.226206,73.7582706 115.061446,73.9241759 115.061446,73.9241759 L115.392789,73.9517489 L115.674595,73.9517489 C117.150451,73.9517489 118.513211,73.4853447 119.628749,72.692738 C121.114419,72.8469598 122.869276,72.9717393 124.674139,72.9717393 C129.547549,72.9717393 133.209616,72.0884688 135.870176,70.27239 C139.381293,67.8749416 143.383583,62.9963912 144.083189,56.4919689 C144.378548,53.744951 144.139737,50.0459639 142.149341,45.9581508 C142.163361,45.9595528 142.176914,45.9632915 142.190934,45.9646936 L147.978459,46.6147619 C148.229887,46.6432696 148.485522,46.6577571 148.738352,46.6577571 C152.172825,46.6577571 155.08201,44.0873933 155.504951,40.6814277 L156.747138,30.6934614 L166.990739,18.1141012 C168.521273,16.2335296 168.916642,13.6958795 168.022156,11.4900401 L168.022156,11.4900401 Z" id="Fill-1" fill="#221F20" opacity="0.138992537" mask="url(#mask-2)"></path>
                </g>
                <g id="Group-6" transform="translate(0.000000, 0.299564)">
                    <mask id="mask-4" fill="white">
                        <use xlink:href="#path-3"></use>
                    </mask>
                    <g id="Clip-5"></g>
                    <path d="M69.5096462,52.0057027 L68.2314744,40.5727247 C69.0558602,40.9489325 69.9498795,41.1774612 70.8682003,41.217185 L73.2006886,41.3195322 L69.5096462,52.0057027 Z M167.712497,11.4561113 C166.81801,9.25073918 164.766393,7.70478221 162.358663,7.4220422 L152.880563,6.30930836 C152.613713,6.27799666 152.341722,6.2616398 152.0716,6.2616398 C151.088319,6.2616398 150.119993,6.47007293 149.229712,6.8532908 C148.075852,5.62933031 146.494845,4.8175627 144.761018,4.66100418 L141.225599,4.34040972 C140.060991,3.41320941 138.611306,2.87623705 137.106007,2.85240277 L129.697284,2.73650273 C128.93225,2.73650273 128.193855,2.86268422 127.502193,3.09541898 L126.444606,2.99961451 L126.470309,3.07392139 C125.4674,2.3201038 124.249515,1.83220202 122.91386,1.72938747 L106.589714,0.483929396 L106.640654,0.839106934 L92.2797978,0.398406383 L92.0699627,0.395135011 C91.2231446,0.395135011 90.4151157,0.557768937 89.6669062,0.842378306 C88.7766257,0.413361227 87.7783899,0.167540983 86.7151939,0.167540983 C86.4174991,0.167540983 86.1160655,0.187636555 85.8197727,0.226893019 L79.4761149,1.06950499 L78.6816388,1.17465624 L77.7642526,1.29663168 L77.7656546,1.31625992 C75.9664,1.69293504 74.9574154,3.18187667 74.4910112,4.12823787 C74.2353769,3.84175915 73.9601143,3.57397398 73.6628867,3.33282712 C72.4337855,2.33459131 70.8770798,1.74340764 69.2470018,1.74340764 L69.1287651,1.74387498 L61.4597343,1.98735853 C59.2197791,2.05839404 57.1475986,3.24543476 55.8941957,5.04468939 C54.8674522,2.58181357 52.4396268,0.884438804 49.6589606,0.884438804 C49.1846116,0.884438804 48.7083933,0.934444063 48.2438585,1.0335199 L32.2043213,4.448365 C31.139256,3.76791961 29.8788431,3.37395294 28.5375805,3.37255093 L20.2081999,3.36974689 C18.4841868,3.36974689 16.83635,4.02542332 15.5941633,5.18722774 C15.1015881,5.07459908 14.5879827,5.01524704 14.0612918,5.01524704 C13.7986474,5.01524704 13.5336662,5.03066922 13.2761625,5.06104625 L6.03147541,5.90178887 C2.36099595,6.32940393 -0.330408578,9.66900747 0.0327137206,13.3483664 L2.76477673,40.9680933 C3.11014015,44.4614514 6.01652056,47.0953732 9.52576811,47.0953732 C9.81505086,47.0953732 10.1066703,47.0766797 10.3926817,47.0402272 L15.8166166,46.3438923 L16.4218204,49.7629435 C16.8097117,51.9458833 18.1981754,53.7311178 20.0656616,54.681685 L21.1564305,63.7718933 C19.8576958,65.3655188 19.2604367,67.5031268 19.6062674,69.5496037 L20.0025708,71.8970468 C20.5554327,75.1688862 23.3632046,77.5443697 26.6780392,77.5443697 C27.2070668,77.5443697 27.7360944,77.4822136 28.2501671,77.3602382 C31.504715,76.586325 35.4831707,75.7016525 36.9408007,75.4488222 L37.8778151,75.4483549 C39.9897194,75.9278446 42.4993291,76.077393 45.3379454,76.077393 L45.8043496,76.0755236 C50.4529693,76.047016 53.6308736,74.5524663 55.7708183,72.7691012 C56.4657511,73.0055746 57.2060159,73.1392335 57.975723,73.1392335 L70.8219338,73.0069766 C72.7548473,72.9878158 74.4919459,72.1545506 75.7210471,70.840861 L79.4892004,71.1656615 L79.8037194,71.1904305 L80.0701026,71.1904305 C81.9291766,71.1904305 83.6690792,70.4356782 84.9416429,69.1883508 C86.2310309,70.4286681 87.9760742,71.1899631 89.7996304,71.2170688 C89.7996304,71.2170688 90.5286791,71.2268829 91.5376637,71.2404357 C92.4461704,71.8423682 93.508899,72.2396062 94.6697688,72.3541042 L101.356453,73.0121174 C101.578907,73.033615 101.797621,73.0438964 102.013999,73.0438964 C103.077662,73.0438964 104.124969,72.7877947 105.063385,72.3139131 C105.732147,72.6854475 106.509799,72.9616448 107.399145,73.1074545 C107.658518,73.1499823 108.027716,73.2013896 108.471688,73.2556009 C109.183912,73.3425259 110.132142,73.4434711 111.081308,73.5392756 C112.916547,73.7243418 114.751787,73.8902471 114.751787,73.8902471 L115.08313,73.9178201 L115.364936,73.9178201 C116.840792,73.9178201 118.203552,73.4514159 119.31909,72.6588092 C120.80476,72.813031 122.559618,72.9378105 124.36448,72.9378105 C129.23789,72.9378105 132.899957,72.05454 135.560518,70.2384612 C139.071634,67.8410128 143.073924,62.9624624 143.773531,56.4580401 C144.068889,53.7110222 143.830079,50.0120351 141.839683,45.924222 C141.853703,45.925624 141.867256,45.9293627 141.881276,45.9307648 L147.6688,46.5808331 C147.920229,46.6093408 148.175863,46.6238283 148.428693,46.6238283 C151.863167,46.6238283 154.772351,44.0534645 155.195293,40.6474989 L156.437479,30.6595326 L166.68108,18.0801724 C168.211615,16.1996008 168.606983,13.6619507 167.712497,11.4561113 L167.712497,11.4561113 Z" id="Fill-4" fill="#FEFEFE" mask="url(#mask-4)"></path>
                </g>
                <path d="M6.25748048,13.0318377 C6.22757079,12.7276001 6.45095877,12.4500009 6.75472903,12.4149504 L13.9975468,11.5737405 C14.3008497,11.5386901 14.5733083,11.7588067 14.603218,12.0630443 L15.6014538,22.3230017 C15.6313635,22.6272393 15.903822,22.8478233 16.2075923,22.8127729 L20.7253571,22.2930921 C21.0291274,22.2580416 21.2445706,21.9818444 21.2048468,21.6785414 L19.7252519,10.4754941 C19.6850608,10.1721912 19.9023734,9.92450163 20.208013,9.92450163 L28.5355242,9.92730566 C28.8411638,9.927773 29.1094164,10.1768646 29.132316,10.4820369 C29.132316,10.4820369 31.2194513,38.8088476 31.3713365,39.1205626 C31.5227543,39.4322776 23.3583443,39.6738918 23.3583443,39.6738918 C23.0527046,39.6827713 22.7830501,39.4411571 22.7587485,39.1364521 L22.0348406,30.0855003 C22.010539,29.7807954 21.7422865,29.5602114 21.4385162,29.5952618 L16.9805708,30.1079326 C16.6768005,30.142983 16.4580859,30.4196476 16.494071,30.7234179 L17.5404427,39.5551878 C17.5764278,39.8584907 17.3577132,40.138894 17.0544103,40.1776831 L9.59614934,41.1352605 C9.29284642,41.1740496 9.02038786,40.9572043 8.99047817,40.6529667 L6.25748048,13.0318377 Z" id="Fill-7" fill="#F0576E"></path>
                <path d="M31.0994387,11.3787667 C30.8003418,11.4423248 30.5975168,11.7409543 30.6479894,12.0423879 L35.1493973,38.8050154 C35.2003373,39.106449 35.4877507,39.307872 35.7882496,39.2522587 L55.7057647,35.5794425 C56.0062636,35.5242966 56.2254455,35.2303404 56.1927318,34.9261028 L55.532382,28.8296673 C55.4996682,28.525897 55.2253403,28.3146599 54.9229721,28.3604591 L43.1067762,30.1466282 C42.804408,30.1919601 42.5132558,29.983527 42.4599792,29.6825607 L42.0332988,27.2869817 C41.9800222,26.9860155 42.1861186,26.7322505 42.4912909,26.723371 L47.9170951,26.5588678 C48.2227348,26.5499883 48.4288312,26.2962233 48.3755546,25.9952571 C48.3755546,25.9952571 47.0758852,18.6771978 47.114207,18.7627208 C47.1525288,18.8477765 41.2706018,19.8333941 41.2706018,19.8333941 C40.9691682,19.8838667 40.6789508,19.678705 40.6252068,19.3782061 L40.2429236,17.2289146 C40.1891797,16.9279484 40.3938741,16.6526858 40.697177,16.6171681 L50.5154992,15.4675144 C50.8188022,15.4319967 51.0370494,15.1548647 51.000597,14.8515618 L50.156583,7.8868107 C50.1201306,7.58350778 49.8453353,7.38722546 49.5462384,7.45125088 L31.0994387,11.3787667 Z" id="Fill-9" fill="#F0576E"></path>
                <path d="M78.5878906,7.79712837 C78.9874654,7.79525902 79.1715969,36.6669868 80.1815162,36.5791271 C81.1919028,36.4917347 96.0808517,35.4827501 96.0808517,35.4827501 C96.3855567,35.4621872 96.6248342,35.1953367 96.6126834,34.8896971 L96.3533103,28.5329539 C96.3406922,28.2273142 96.0813191,27.9973835 95.7766141,28.0212178 C95.7766141,28.0212178 87.0981314,28.7063366 87.3883488,28.686241 C87.6780989,28.6661454 87.206554,7.20968342 87.206554,7.20968342 C87.1995439,6.9040438 86.9462463,6.68719857 86.6434107,6.72738971 L78.5878906,7.79712837 Z" id="Fill-11" fill="#F0576E"></path>
                <path d="M92.0870205,6.95017015 C91.7813809,6.94082337 91.5313546,7.18337224 91.5313546,7.48901186 L91.531822,13.3386924 C91.531822,13.6443321 91.7804462,13.91866 92.0846838,13.9481023 L98.2745871,14.5472308 C98.5788247,14.5766731 98.8227756,14.851001 98.8167002,15.1561733 L98.4227335,34.7292597 C98.4161908,35.0348993 98.6601417,35.3092272 98.9643793,35.3391369 L106.112795,36.0345371 C106.417032,36.0644468 106.671732,35.8387222 106.679209,35.5330825 L107.168513,15.4033956 C107.175523,15.0977559 107.431625,14.8570764 107.737264,14.8682926 L113.385989,15.077193 C113.691629,15.0884092 113.951002,14.8477296 113.962686,14.54209 L114.206169,8.18441209 C114.21832,7.87923981 113.97764,7.6217361 113.672468,7.61238932 L92.0870205,6.95017015 Z" id="Fill-13" fill="#F0576E"></path>
                <path d="M113.890341,7.61383807 C114.01185,8.4606561 112.798638,36.2392783 112.798638,36.2392783 C112.785085,36.5444506 113.024363,36.8014869 113.330002,36.809899 L120.806489,37.0216036 C121.112129,37.030483 121.372904,36.7874668 121.386924,36.4822945 L121.778554,27.7215601 C121.792107,27.4163878 122.052882,27.1841204 122.358054,27.2051507 L126.826749,27.5168657 C127.131454,27.5383633 127.364656,27.8052138 127.34456,28.1103861 L126.803382,36.3219973 C126.783286,36.6267022 127.014619,36.9117789 127.316987,36.9547741 L134.783193,38.0198394 C135.085561,38.0633019 135.352879,37.8492607 135.376246,37.5445557 L137.519929,9.96922596 C137.543296,9.66452102 137.312898,9.41122335 137.007258,9.40654996 L129.706491,9.2915846 C129.400851,9.28644387 129.12185,9.5308621 129.086332,9.83463236 L127.928266,19.6805276 C127.892749,19.9838305 127.613747,20.2151633 127.309042,20.1936657 L122.780061,19.8777446 C122.475356,19.8567143 122.242154,19.5893965 122.262717,19.2846916 L122.954846,8.86303486 C122.975409,8.55786258 122.742674,8.28961007 122.437969,8.26624313 L113.890341,7.61383807 Z" id="Fill-15" fill="#F0576E"></path>
                <path d="M135.528224,10.4041782 C135.744602,11.0280756 142.95751,27.1208895 142.95751,27.1208895 C143.082757,27.3998908 143.161737,27.8770438 143.132762,28.1812814 L142.079381,39.3988162 C142.050873,39.7030538 142.275663,39.9797184 142.579433,40.0143015 L148.366958,40.6643698 C148.670261,40.6984856 148.949729,40.4783689 148.987584,40.175066 L150.383058,28.9542598 C150.420445,28.6509569 150.60925,28.2088544 150.802261,27.9719136 L161.830056,14.4303026 C162.023067,14.1928944 161.93287,13.9699738 161.6291,13.934456 L152.151001,12.8212549 C151.84723,12.7852698 151.460741,12.9642605 151.291097,13.2189602 L146.980831,19.6981463 C146.811187,19.9528459 146.620045,19.9163935 146.555552,19.617764 L144.86659,11.7837626 C144.802097,11.485133 144.500196,11.2178152 144.195958,11.1902422 L135.528224,10.4041782 Z" id="Fill-17" fill="#F0576E"></path>
                <path d="M22.2393948,43.8525088 C21.9379613,43.9020467 21.7346688,44.1889928 21.7879455,44.489959 L22.5810195,48.9680001 C22.6342962,49.2689663 22.9273176,49.494691 23.2320226,49.469922 L25.127549,49.3152328 C25.432254,49.2904639 25.7112553,49.5180579 25.7477077,49.8218282 L27.6932394,66.0454969 C27.7296918,66.3487998 27.5642539,66.7530479 27.3254437,66.9441895 L26.1155034,67.9120483 C25.8766932,68.1031899 25.7229387,68.506036 25.7738787,68.8070023 L26.170182,71.1544454 C26.221122,71.4558789 26.5061987,71.6446838 26.8034262,71.5736483 C26.8034262,71.5736483 36.8236388,69.1916221 37.0171171,69.4781009 C37.2110627,69.7645796 36.1544096,65.9403457 36.1544096,65.9403457 C36.0726253,65.6459222 35.7585735,65.3701922 35.455738,65.3281317 L34.4673162,65.1907341 C34.1644807,65.1486736 33.8887507,64.8654663 33.8541677,64.5621633 L32.0418275,48.6142245 C32.0072445,48.3104543 32.2236224,48.009488 32.5227192,47.9454626 L34.1485911,47.5972952 C34.4472207,47.5328024 34.6542518,47.2332382 34.6079852,46.9313373 C34.6079852,46.9313373 33.7233128,41.135868 33.7233128,41.5471262 C33.7233128,41.9579171 22.2393948,43.8525088 22.2393948,43.8525088" id="Fill-19" fill="#284B70"></path>
                <path d="M52.136137,43.4818156 L49.9648806,49.8927702 C49.8667394,50.182053 49.5550244,50.324124 49.2727517,50.2077566 C49.2727517,50.2077566 44.2278287,48.13137 43.8067563,50.4189938 C43.3861514,52.7070849 52.8735977,53.8361756 54.0279247,57.2879404 C55.1822517,60.7392379 55.5607962,70.0598443 45.7658409,70.120131 C35.9713529,70.1804177 37.2144743,68.1671219 37.2144743,68.1671219 C37.3752389,67.9072815 37.6004962,67.4623749 37.7149942,67.1791675 L39.7539937,62.1449933 C39.8689591,61.8617859 40.202639,61.7000867 40.4961278,61.7856097 C40.4961278,61.7856097 46.5832166,63.558226 47.067847,62.008063 C47.55201,60.4578999 33.5467989,56.7762044 35.3661491,50.7694979 C37.1854993,44.7623241 41.2181664,40.6511441 52.136137,43.4818156" id="Fill-21" fill="#284B70"></path>
                <path d="M54.3845977,41.9005746 C54.3481453,41.5972717 54.5663925,41.3196724 54.8701628,41.2841546 L61.3395347,40.5251963 C61.643305,40.4896785 61.9190349,40.7093278 61.9531506,41.0130981 L64.0220598,59.5192498 C64.0561755,59.8230201 64.3337748,60.0716444 64.6394144,60.0716444 L70.711081,60.0716444 C71.0167206,60.0716444 71.2686163,60.3216707 71.2704856,60.6273103 L71.3111441,66.4905437 C71.3134808,66.7961833 71.0648565,67.0485463 70.7592169,67.0518177 L57.9812376,67.1836072 C57.675598,67.1868786 57.395662,66.9410584 57.3592096,66.6377554 L54.3845977,41.9005746 Z" id="Fill-23" fill="#284B70"></path>
                <path d="M95.2818892,66.4281072 C94.9776516,66.3981975 94.7294947,66.1234023 94.7308967,65.81823 C94.7308967,65.81823 94.8131483,41.3432263 95.3720856,40.7777462 C95.9310229,40.2122662 102.73314,40.0267327 102.73314,40.0267327 C103.03878,40.0187879 103.395359,40.2379698 103.525747,40.5141671 L109.357669,52.8766821 C109.488056,53.1528794 109.618911,53.1299798 109.648821,52.8262095 L110.75875,41.4343573 C110.788193,41.1301197 111.060184,40.9179479 111.362552,40.9623451 L117.6763,41.8928168 C117.978669,41.9376813 118.203459,42.2232253 118.175886,42.5274629 L115.917704,67.4562527 C115.890131,67.7609577 115.618607,67.9871497 115.31437,67.9595767 C115.31437,67.9595767 107.516353,67.2548297 108.133241,67.1398643 C108.749661,67.0244316 102.484516,55.2802059 102.484516,55.2802059 C102.340575,55.0105514 102.228881,55.0399937 102.235892,55.3456334 L102.500405,66.5841984 C102.507883,66.889838 102.264867,67.1150954 101.960629,67.0851857 L95.2818892,66.4281072 Z" id="Fill-25" fill="#284B70"></path>
                <path d="M67.3540457,23.8670426 L63.2311822,23.5674784 C62.92601,23.5455135 62.7769289,23.2982912 62.8993716,23.0183552 L66.396001,15.0291973 C66.5184438,14.7492613 66.6530374,14.7679549 66.6946306,15.0707905 L67.8326007,23.3567086 C67.8741939,23.6595442 67.6587507,23.8890075 67.3540457,23.8670426 M78.6552342,35.0771 L69.9580579,8.80844968 C69.8617861,8.51823225 69.5332469,8.28876886 69.2280746,8.29858298 L61.6581196,8.53926249 C61.35248,8.54907661 61.0295488,8.79629887 60.9407545,9.08838566 L53.3119148,34.1326082 C53.2226531,34.4246949 53.3951011,34.7125757 53.6946653,34.7719277 L59.947192,36.009441 C60.2467562,36.0687931 60.5771648,35.8823249 60.6813814,35.5949115 L62.4876461,30.6023304 C62.5918627,30.314917 62.9269446,30.0859209 63.2321169,30.0938657 L67.5979966,30.204625 C67.9036362,30.2121024 68.2625525,30.4434351 68.3957441,30.7186977 L70.3445471,34.7429527 C70.4777387,35.0182153 70.8366549,35.2542214 71.1418272,35.2677743 L78.2748203,35.580424 C78.5799926,35.5939768 78.7510386,35.3673174 78.6552342,35.0771" id="Fill-27" fill="#F0576E"></path>
                <path d="M85.9706297,54.6177531 L84.0788419,54.1452735 C83.7820817,54.0714339 83.5895381,53.7657943 83.6507595,53.4662301 L84.9135091,47.2950204 C84.9747305,46.9954562 85.0700677,46.9963908 85.1261483,47.2968897 L86.4085262,54.2060275 C86.4641395,54.5065264 86.2669225,54.6915926 85.9706297,54.6177531 M97.8877707,64.8510722 L88.87,40.7018037 C88.7634467,40.4153249 88.4255607,40.1760474 88.1203884,40.169972 L80.9294453,40.0232276 C80.6238057,40.0171522 80.2919951,40.2480176 80.1924519,40.536833 L72.0859919,64.0075256 C71.9859814,64.296341 72.1537561,64.5538447 72.4579937,64.580483 L80.0209385,65.2324207 C80.3251761,65.2585917 80.6448359,65.0403445 80.7312936,64.7468557 L82.0276916,60.3421868 C82.1141493,60.0491654 82.4347438,59.8019431 82.7403834,59.7930637 L86.3529128,59.6865104 C86.6580851,59.677631 87.0076546,59.8996169 87.1291627,60.1800203 L89.1064734,64.744519 C89.2279815,65.0249223 89.577551,65.257657 89.8831906,65.2618631 L97.5265178,65.3642103 C97.8321574,65.367949 97.9947913,65.1370836 97.8877707,64.8510722" id="Fill-29" fill="#284B70"></path>
                <path d="M130.832777,56.9550082 C128.79518,61.5868037 123.586688,60.0726258 123.586688,60.0726258 C123.293199,59.9875701 123.08056,59.668845 123.113741,59.3650747 L124.360134,48.0629516 L124.360134,47.0904194 C126.408013,47.2292191 132.870375,52.3232127 130.832777,56.9550082 M132.701665,44.0181337 C127.19875,38.2006995 120.529825,39.8172247 120.529825,39.8172247 C120.232597,39.8891948 119.950792,40.1948345 119.903123,40.4967354 L115.942426,65.5848877 C115.894758,65.8867886 116.101322,66.1807448 116.401353,66.2382274 C116.401353,66.2382274 127.610476,68.3907903 132.033838,65.3713138 C136.456733,62.3518374 141.689994,53.5205349 132.701665,44.0181337" id="Fill-31" fill="#284B70"></path>
            </g>
            <g id="Group-28" transform="translate(184.000000, 168.000000)">
                <rect id="Rectangle-430" fill="#FEFEFE" x="0.0326131282" y="0.810646562" width="143.615559" height="54.3787069" rx="27.1893534"></rect>
                <path d="M35.6293927,17.5525 C35.3983927,17.5525 35.1673927,17.7835 35.1673927,18.0475 L35.1673927,39.8605 C35.1673927,40.0915 35.3983927,40.3225 35.6293927,40.3225 L41.5363927,40.3225 C41.8333927,40.3225 42.0643927,40.0915 42.0643927,39.8605 L42.0643927,33.2605 L43.4173927,33.2605 C49.1923927,33.2605 52.6573927,30.1255 52.6573927,25.4065 C52.6573927,20.6875 49.1923927,17.5525 43.4173927,17.5525 L35.6293927,17.5525 Z M41.9983927,27.3535 L41.9983927,23.4595 L43.7143927,23.4595 C44.8693927,23.4595 45.6613927,24.2515 45.6613927,25.4065 C45.6613927,26.5615 44.8693927,27.3535 43.7143927,27.3535 L41.9983927,27.3535 Z M61.3243927,34.3825 L61.3243927,18.0475 C61.3243927,17.7835 61.0933927,17.5525 60.8293927,17.5525 L54.9883927,17.5525 C54.7243927,17.5525 54.4933927,17.7835 54.4933927,18.0475 L54.4933927,39.8605 C54.4933927,40.0915 54.7243927,40.3225 54.9883927,40.3225 L66.9013927,40.3225 C67.1653927,40.3225 67.3963927,40.0915 67.4293927,39.8605 L67.8913927,34.8445 C67.8913927,34.5805 67.6933927,34.3825 67.4623927,34.3825 L61.3243927,34.3825 Z M84.9853927,17.9815 C84.8863927,17.7835 84.5233927,17.5525 84.1933927,17.5525 L77.4613927,17.5525 C77.1313927,17.5525 76.7683927,17.7835 76.6693927,17.9815 L69.2113927,39.8935 C69.1123927,40.0915 69.2443927,40.3225 69.5083927,40.3225 L76.0423927,40.3225 C76.3393927,40.3225 76.6033927,40.1575 76.7353927,39.8935 L77.7253927,36.4285 L83.9293927,36.4285 L84.9193927,39.8935 C85.0513927,40.1575 85.3153927,40.3225 85.6123927,40.3225 L92.1463927,40.3225 C92.4103927,40.3225 92.5423927,40.0915 92.4433927,39.8935 L84.9853927,17.9815 Z M82.6093927,31.7095 L79.0453927,31.7095 L80.8273927,25.4395 L82.6093927,31.7095 Z M104.488393,17.5525 C104.158393,17.5525 103.861393,17.7835 103.729393,18.0805 L101.023393,24.0205 L98.3173927,18.0805 C98.1853927,17.7835 97.8883927,17.5525 97.5583927,17.5525 L90.6943927,17.5525 C90.3973927,17.5525 90.1663927,17.7835 90.3313927,18.0805 L97.6243927,31.2145 L97.6243927,39.8605 C97.6243927,40.0915 97.8553927,40.3225 98.1193927,40.3225 L103.927393,40.3225 C104.191393,40.3225 104.422393,40.0915 104.422393,39.8605 L104.422393,31.2145 L111.715393,18.0805 C111.880393,17.7835 111.649393,17.5525 111.352393,17.5525 L104.488393,17.5525 Z" id="PLAY" fill="#284C70"></path>
            </g>
        </g>
    </g>
</svg>