<?xml version="1.0" encoding="UTF-8" standalone="no"?>
<svg width="135px" height="46px" viewBox="0 0 135 46" version="1.1" xmlns="http://www.w3.org/2000/svg" xmlns:xlink="http://www.w3.org/1999/xlink">
    <!-- Generator: Sketch 3.8.3 (29802) - http://www.bohemiancoding.com/sketch -->
    <title>play_online_btn</title>
    <desc>Created with Sketch.</desc>
    <defs></defs>
    <g id="Page-1" stroke="none" stroke-width="1" fill="none" fill-rule="evenodd">
        <g id="app-store-buttons-copy" transform="translate(-443.135846, -0.153264)">
            <g id="play_online_btn" transform="translate(443.173772, 0.464994)">
                <g id="Browser">
                    <g id="Group">
                        <rect id="Rectangle-path" fill="#000000" x="0" y="0" width="134.307888" height="45.664682" rx="6"></rect>
                        <path d="M41.007556,15.4454071 L42.2364731,15.4454071 L42.2364731,12.8868419 C42.3976426,12.9170611 42.6091775,12.9271342 42.8408586,12.9271342 C43.7172176,12.9271342 44.4928457,12.6954531 44.9864272,12.2018716 C45.3692046,11.8392403 45.5706665,11.3053665 45.5706665,10.6606886 C45.5706665,10.0260839 45.3087661,9.49221 44.9058424,9.15979798 C44.4726995,8.79716668 43.8078754,8.60577794 42.9012972,8.60577794 C42.0652306,8.60577794 41.450772,8.66621649 41.007556,8.74680122 L41.007556,15.4454071 L41.007556,15.4454071 Z M42.2364731,9.6130871 C42.3674233,9.58286782 42.6091775,9.55264855 42.9516626,9.55264855 C43.8078754,9.55264855 44.3316762,9.95557221 44.3316762,10.7110541 C44.3316762,11.5068283 43.7675831,11.9601174 42.8408586,11.9601174 C42.5890314,11.9601174 42.3875695,11.9500444 42.2364731,11.909752 L42.2364731,9.6130871 L42.2364731,9.6130871 Z M46.8264452,15.4454071 L48.0755086,15.4454071 L48.0755086,8.2935121 L46.8264452,8.2935121 L46.8264452,15.4454071 L46.8264452,15.4454071 Z M53.5619858,15.4454071 C53.5116204,15.1432144 53.4914742,14.7100715 53.4914742,14.2668554 L53.4914742,12.4939913 C53.4914742,11.4262436 53.0381851,10.4290075 51.4667828,10.4290075 C50.6911547,10.4290075 50.0565499,10.6405424 49.6939186,10.8621505 L49.9356728,11.6679978 C50.2680849,11.4564629 50.7717394,11.3053665 51.2552478,11.3053665 C52.1215337,11.3053665 52.2524839,11.8392403 52.2524839,12.1615793 L52.2524839,12.242164 C50.4393274,12.2320909 49.3413604,12.8566226 49.3413604,14.0956129 C49.3413604,14.8410216 49.8953805,15.5562112 50.8825434,15.5562112 C51.5171482,15.5562112 52.0308759,15.2842377 52.3330686,14.9014602 L52.3632879,14.9014602 L52.4438726,15.4454071 L53.5619858,15.4454071 L53.5619858,15.4454071 Z M52.2827032,13.7229085 C52.2827032,13.8034932 52.2726301,13.9042241 52.2424108,13.994882 C52.1316068,14.3474402 51.7689755,14.6697791 51.275394,14.6697791 C50.8825434,14.6697791 50.5702776,14.4481711 50.5702776,13.9646627 C50.5702776,13.2192539 51.4063442,13.0278652 52.2827032,13.0480113 L52.2827032,13.7229085 L52.2827032,13.7229085 Z M54.3846216,10.5398115 L56.1776319,15.0424835 C56.2380705,15.1633606 56.2481436,15.2338722 56.2481436,15.2842377 C56.2481436,15.3446762 56.2179243,15.4151879 56.1675588,15.5058457 C55.9963163,15.8382577 55.7243428,16.1303774 55.4926617,16.2814737 C55.2408344,16.4627894 54.978934,16.5735934 54.7673991,16.6239589 L55.0494457,17.6715604 C55.3617115,17.631268 55.8653661,17.4700986 56.3488745,17.0369556 C56.9331138,16.533301 57.3864029,15.7173806 58.0613001,13.8840779 L59.2902173,10.5398115 L57.9605692,10.5398115 L57.1950142,13.1588153 C57.1043564,13.4811543 57.0136985,13.8437856 56.9331138,14.1258321 L56.9028945,14.1258321 C56.8323829,13.8437856 56.731652,13.4710812 56.6309211,13.1688884 L55.744489,10.5398115 L54.3846216,10.5398115 L54.3846216,10.5398115 Z M63.8768316,15.4454071 L63.8768316,10.5398115 L62.6277683,10.5398115 L62.6277683,15.4454071 L63.8768316,15.4454071 L63.8768316,15.4454071 Z M63.2523,8.49497393 C62.8393032,8.49497393 62.5572566,8.78709359 62.5572566,9.16987107 C62.5572566,9.54257546 62.8292301,9.83469511 63.2422269,9.83469511 C63.6753698,9.83469511 63.9473433,9.54257546 63.9473433,9.16987107 C63.9372702,8.78709359 63.6753698,8.49497393 63.2523,8.49497393 L63.2523,8.49497393 Z M65.4750955,15.4454071 L66.7241589,15.4454071 L66.7241589,12.5645029 C66.7241589,12.4234797 66.734232,12.2723833 66.7745243,12.1615793 C66.9054745,11.7888749 67.2479596,11.4363167 67.7415411,11.4363167 C68.4164383,11.4363167 68.6783386,11.9701905 68.6783386,12.6753069 L68.6783386,15.4454071 L69.9173289,15.4454071 L69.9173289,12.5342837 C69.9173289,10.9830276 69.0308968,10.4290075 68.1746841,10.4290075 C67.3587636,10.4290075 66.8248898,10.8923697 66.6133549,11.2751472 L66.5831356,11.2751472 L66.522697,10.5398115 L65.4348031,10.5398115 C65.4650224,10.9628814 65.4750955,11.4363167 65.4750955,12.0004098 L65.4750955,15.4454071 L65.4750955,15.4454071 Z M73.2750261,10.5398115 L75.0680364,15.0424835 C75.128475,15.1633606 75.1385481,15.2338722 75.1385481,15.2842377 C75.1385481,15.3446762 75.1083288,15.4151879 75.0579633,15.5058457 C74.8867208,15.8382577 74.6147473,16.1303774 74.3830662,16.2814737 C74.1312389,16.4627894 73.8693385,16.5735934 73.6578036,16.6239589 L73.9398502,17.6715604 C74.252116,17.631268 74.7557706,17.4700986 75.239279,17.0369556 C75.8235183,16.533301 76.2768074,15.7173806 76.9517045,13.8840779 L78.1806217,10.5398115 L76.8509736,10.5398115 L76.0854187,13.1588153 C75.9947608,13.4811543 75.904103,13.8437856 75.8235183,14.1258321 L75.793299,14.1258321 C75.7227874,13.8437856 75.6220565,13.4710812 75.5213255,13.1688884 L74.6348935,10.5398115 L73.2750261,10.5398115 L73.2750261,10.5398115 Z M81.2596301,10.4290075 C79.7788856,10.4290075 78.721211,11.4161705 78.721211,13.0278652 C78.721211,14.5992674 79.7889587,15.5562112 81.1790453,15.5562112 C82.4281087,15.5562112 83.6973182,14.7503638 83.6973182,12.9472804 C83.6973182,11.4564629 82.7202283,10.4290075 81.2596301,10.4290075 L81.2596301,10.4290075 Z M81.2294108,11.3355858 C82.0755505,11.3355858 82.4180356,12.2119447 82.4180356,12.9774997 C82.4180356,13.9646627 81.9244541,14.659706 81.2193377,14.659706 C80.4638558,14.659706 80.0004936,13.9445165 80.0004936,12.9976459 C80.0004936,12.1817255 80.3530518,11.3355858 81.2294108,11.3355858 L81.2294108,11.3355858 Z M89.3751842,10.5398115 L88.1361939,10.5398115 L88.1361939,13.5013005 C88.1361939,13.6423237 88.1059747,13.7732739 88.0656823,13.8840779 C87.9347321,14.1963438 87.6123932,14.548902 87.1188117,14.548902 C86.4640607,14.548902 86.2021604,14.0251012 86.2021604,13.2091808 L86.2021604,10.5398115 L84.9631701,10.5398115 L84.9631701,13.4207157 C84.9631701,15.0223373 85.7790905,15.5562112 86.6755957,15.5562112 C87.5519546,15.5562112 88.035463,15.0525566 88.2469979,14.6999984 L88.2671441,14.6999984 L88.3275827,15.4454071 L89.4154766,15.4454071 C89.3953304,15.0424835 89.3751842,14.5589751 89.3751842,13.9747358 L89.3751842,10.5398115 L89.3751842,10.5398115 Z M90.9835212,15.4454071 L92.2225114,15.4454071 L92.2225114,12.9069881 C92.2225114,12.7659648 92.2426576,12.6350146 92.2628038,12.5242106 C92.3736078,11.9701905 92.7765315,11.5874131 93.3708439,11.5874131 C93.5219403,11.5874131 93.6327443,11.6075592 93.7334752,11.6277054 L93.7334752,10.4592268 C93.6327443,10.4390806 93.5622326,10.4290075 93.4413555,10.4290075 C92.9175548,10.4290075 92.3433885,10.7815657 92.1016343,11.476609 L92.061342,11.476609 L92.0210496,10.5398115 L90.9432288,10.5398115 C90.9734481,10.9830276 90.9835212,11.4564629 90.9835212,12.1212869 L90.9835212,15.4454071 L90.9835212,15.4454071 Z" id="Shape" fill="#FFFFFF"></path>
                        <polygon id="Shape" fill="#E44D26" points="12.0595053 32.5072097 10.1106978 10.7808942 31.5247475 10.7808942 29.574597 32.503852 20.8042919 34.9200509"></polygon>
                        <polygon id="Shape" fill="#F16529" points="20.8177227 33.0733175 27.9038069 31.1204808 29.5712393 12.5577875 20.8177227 12.5577875"></polygon>
                        <path d="M20.8177227,20.6162608 L17.2699798,20.6162608 L17.0255394,17.886453 L20.8177227,17.886453 L20.8177227,15.2217845 L14.0956129,15.2217845 L14.1594091,15.936974 L14.8175178,23.2795863 L20.8177227,23.2795863 L20.8177227,20.6162608 L20.8177227,20.6162608 Z M20.8177227,27.5358032 L20.8063065,27.5384894 L17.8199706,26.7373428 L17.6292534,24.6119205 L14.9383949,24.6119205 L15.314457,28.7956112 L20.805635,30.3112758 L20.8177227,30.3079181 L20.8177227,27.5358032 L20.8177227,27.5358032 Z" id="Shape" fill="#EBEBEB"></path>
                        <path d="M20.8083211,20.6162608 L20.8083211,23.2795863 L24.109609,23.2795863 L23.7986863,26.7359998 L20.8076496,27.5378179 L20.8076496,30.3099327 L26.3035284,28.7962828 L26.3438207,28.3463513 L26.9737247,21.3314503 L27.0395356,20.6162608 L20.8083211,20.6162608 L20.8083211,20.6162608 Z M20.8083211,15.2217845 L20.8083211,17.8871246 L27.283976,17.8871246 L27.3376991,17.2881114 L27.4585762,15.936974 L27.5237155,15.2217845 L20.8083211,15.2217845 L20.8083211,15.2217845 Z M41.0041983,33.5380228 C41.6072407,33.6159213 42.6199222,33.712623 43.9441979,33.712623 C46.3395791,33.712623 47.878076,33.304327 48.8128589,32.486392 C49.5716985,31.8632034 50.0787107,30.9485667 50.0787107,29.7800881 C50.0787107,27.9682746 48.8128589,26.8776946 47.4301592,26.527151 L47.4301592,26.4882017 C48.8511366,25.9623863 49.6106477,24.8523316 49.6106477,23.6449037 C49.6106477,22.534849 49.0653577,21.6772932 48.2474227,21.1910986 C47.3515891,20.56791 46.261009,20.3536889 44.4888164,20.3536889 C43.1457375,20.3536889 41.7623663,20.4698652 41.0035267,20.6256624 L41.0035267,33.5373512 L41.0041983,33.5380228 Z M43.3794333,22.2225832 C43.6326036,22.1648308 44.0415712,22.1258815 44.7426583,22.1258815 C46.2616806,22.1258815 47.1964635,22.6899746 47.1964635,23.9175487 C47.1964635,25.0276034 46.2630236,25.8065892 44.6070074,25.8065892 L43.3801048,25.8065892 L43.3801048,22.2225832 L43.3794333,22.2225832 Z M43.3794333,27.5593071 L44.5680581,27.5593071 C46.2227313,27.5593071 47.547007,28.1818242 47.547007,29.7015179 C47.547007,31.3172418 46.183782,31.9014811 44.6459567,31.9014811 C44.0999951,31.9014811 43.6910276,31.881335 43.3794333,31.8430572 L43.3794333,27.5586356 L43.3794333,27.5593071 Z M51.854261,33.5769721 L54.2503137,33.5769721 L54.2503137,28.6693618 C54.2503137,28.3967168 54.289263,28.1435464 54.3282123,27.9293254 C54.5431049,26.8582199 55.3220907,26.1181835 56.4704231,26.1181835 C56.7632143,26.1181835 56.9774354,26.1571328 57.1721819,26.1960821 L57.1721819,23.9363518 C56.9774354,23.8974025 56.8411129,23.8779279 56.6080887,23.8779279 C55.5940642,23.8779279 54.484681,24.5595404 54.0172896,25.9032909 L53.939391,25.9032909 L53.8621639,24.092149 L51.7783771,24.092149 C51.836801,24.9490333 51.8562756,25.8650131 51.8562756,27.1496681 L51.8562756,33.5769721 L51.854261,33.5769721 Z M62.6479145,23.8785994 C59.7851418,23.8785994 57.7403042,25.7871145 57.7403042,28.9030575 C57.7403042,31.941102 59.8046165,33.7918647 62.4921173,33.7918647 C64.9069731,33.7918647 67.3607783,32.2338932 67.3607783,28.7472604 C67.3607783,25.8650131 65.4717378,23.8785994 62.6479145,23.8785994 L62.6479145,23.8785994 Z M62.5894905,25.6313174 C64.2253606,25.6313174 64.8874985,27.3256114 64.8874985,28.8056843 C64.8874985,30.7141994 63.9339125,32.0579498 62.5706874,32.0579498 C61.1094176,32.0579498 60.213584,30.6745786 60.213584,28.8446336 C60.213584,27.2665159 60.8951965,25.6313174 62.5894905,25.6313174 L62.5894905,25.6313174 Z M67.8906229,24.0934921 L70.6949716,33.5769721 L72.9345556,33.5769721 L74.1419835,29.7209926 C74.4146285,28.7862097 74.6677989,27.8514268 74.8625453,26.6829482 L74.9008231,26.6829482 C75.1157157,27.8312806 75.3292653,28.7277857 75.6213849,29.7209926 L76.7515858,33.5769721 L78.9716952,33.5769721 L81.9513157,24.0928205 L79.5942123,24.0928205 L78.543253,28.2993436 C78.2900827,29.4100698 78.0758616,30.4415544 77.9200644,31.4743821 L77.8811151,31.4743821 C77.6662225,30.4422259 77.4137237,29.4100698 77.1222756,28.3000151 L75.9336508,24.0941636 L73.9861864,24.0941636 L72.7592838,28.4175345 C72.4866388,29.3912667 72.1750445,30.4428975 71.9802981,31.4750536 L71.9413488,31.4750536 C71.7654054,30.4428975 71.5518559,29.4107414 71.3369633,28.3980599 L70.3430849,24.0934921 L67.8899513,24.0934921 L67.8906229,24.0934921 Z M82.4025902,33.1095806 C83.1043489,33.4990735 84.136505,33.7717185 85.285509,33.7717185 C87.7970665,33.7717185 89.1414885,32.5253413 89.1414885,30.8115726 C89.1213423,29.4093983 88.3235534,28.5330393 86.6097848,27.9105222 C85.4023569,27.480737 84.9544401,27.1892889 84.9544401,26.5855749 C84.9544401,26.0013356 85.4218315,25.5916966 86.2787158,25.5916966 C87.115454,25.5916966 87.8749651,25.9032909 88.2839326,26.1369866 L88.7513241,24.4426926 C88.206034,24.1499014 87.2907258,23.8772564 86.2397666,23.8772564 C84.0384603,23.8772564 82.6557606,25.1820575 82.6557606,26.8568769 C82.6356144,27.9669316 83.4146001,28.9789415 85.2653628,29.6222763 C86.4338415,30.0319153 86.8233343,30.3623127 86.8233343,31.0056475 C86.8233343,31.6281646 86.3566144,32.0566068 85.3056552,32.0566068 C84.4480993,32.0566068 83.4159432,31.7060632 82.8706532,31.3749942 L82.4032617,33.107566 L82.4025902,33.1095806 Z M98.8821681,29.5067715 C98.9224604,29.2918789 98.9607382,28.9413353 98.9607382,28.4927469 C98.9607382,26.4096316 97.9480567,23.8779279 94.871063,23.8779279 C91.8330186,23.8779279 90.2360978,26.3512077 90.2360978,28.9802846 C90.2360978,31.881335 92.0472396,33.771047 95.1249049,33.771047 C96.48813,33.771047 97.6163162,33.5178766 98.4355943,33.1868076 L98.0843792,31.5314629 C97.3631459,31.8041079 96.5646855,31.9599051 95.4546308,31.9599051 C93.9356086,31.9599051 92.5918581,31.2198686 92.5334342,29.5061 L98.8821681,29.5061 L98.8821681,29.5067715 Z M92.5341057,27.8312806 C92.631479,26.8575484 93.2546676,25.5144695 94.7347405,25.5144695 C96.3330044,25.5144695 96.7224972,26.9549216 96.7023511,27.8312806 L92.5347773,27.8312806 L92.5341057,27.8312806 Z M100.619441,33.5769721 L103.015493,33.5769721 L103.015493,28.6693618 C103.015493,28.3967168 103.054443,28.1435464 103.093392,27.9293254 C103.308285,26.8582199 104.08727,26.1181835 105.235603,26.1181835 C105.527722,26.1181835 105.741943,26.1571328 105.93669,26.1960821 L105.93669,23.9363518 C105.741943,23.8974025 105.605621,23.8779279 105.372597,23.8779279 C104.358572,23.8779279 103.249189,24.5595404 102.781798,25.9032909 L102.703899,25.9032909 L102.626,24.092149 L100.542214,24.092149 C100.599966,24.9490333 100.619441,25.8650131 100.619441,27.1496681 L100.619441,33.5769721 L100.619441,33.5769721 Z" id="Shape" fill="#FFFFFF"></path>
                    </g>
                </g>
            </g>
        </g>
    </g>
</svg>