<?xml version="1.0" encoding="UTF-8" standalone="no"?>
<svg width="2050px" height="704px" viewBox="0 0 2050 704" version="1.1" xmlns="http://www.w3.org/2000/svg" xmlns:xlink="http://www.w3.org/1999/xlink">
    <!-- Generator: Sketch 3.8.3 (29802) - http://www.bohemiancoding.com/sketch -->
    <title>play-phone</title>
    <desc>Created with Sketch.</desc>
    <defs>
        <rect id="path-1" x="123" y="568" width="64" height="24" rx="8"></rect>
        <mask id="mask-2" maskContentUnits="userSpaceOnUse" maskUnits="objectBoundingBox" x="0" y="0" width="64" height="24" fill="white">
            <use xlink:href="#path-1"></use>
        </mask>
    </defs>
    <g id="Page-1" stroke="none" stroke-width="1" fill="none" fill-rule="evenodd">
        <g id="play-phone">
            <g id="Group" transform="translate(227.500000, 10.000000)">
                <path d="M1099.20718,375.739728 C1096.67415,374.293833 1094.36516,372.917115 1092.29573,371.614954 C1020.48577,326.429532 960.289673,259.662613 960.289673,259.662613 C960.289673,259.662613 919.39479,121.414101 970.591014,102.193019 C1001.51732,90.5820629 1056.16241,90.8215961 1116.02723,119.125475 L1116.02723,107.968267 L1124.9442,119.864982 L1133.88096,115.008373 L1132.78056,123.945128 L1148.43101,124.414963 L1139.38274,131.495508 C1171.45451,150.349831 1204.31294,177.566039 1235.2565,215.511941 C1267.59222,255.165037 1309.69871,277.464893 1351.8747,289.528186 L1367.18863,280.486714 L1360.61836,290.199934 L1383.30891,284.099498 L1376.1056,292.264735 L1410.99703,291.7949 L1399.00774,299.178153 C1465.67604,307.934741 1522.80624,296.564292 1528.2402,295.99316 C1538.25734,294.940316 1524.37394,551.759866 1524.37394,551.759866 C1524.37394,551.759866 1218.24036,437.079676 1114.11993,383.752823 L1115.0752,396.236736 L1105.66613,383.096194 L1099.8476,386.545772 L1099.20718,375.739728 Z" id="Combined-Shape" fill="#7F6085"></path>
                <path d="M946.408817,189.711847 C950.354786,226.076911 960.289673,259.662613 960.289673,259.662613 C960.289673,259.662613 1020.48577,326.429532 1092.29573,371.614954 C1094.36516,372.917115 1096.67415,374.293833 1099.20718,375.739728 L1099.8476,386.545772 L1105.66613,383.096194 L1115.0752,396.236736 L1114.11993,383.752823 C1218.24036,437.079676 1524.37394,551.759866 1524.37394,551.759866 C1524.37394,551.759866 1526.21515,517.700664 1528.07275,474.439732 C1507.05967,473.376103 1478.34469,472.06092 1464.83122,472.06092 C1442.14372,472.06092 1352.59685,448.080451 1352.59685,448.080451 L1200.13591,382.357795 L1145.46794,335.135139 L1121.96794,310.15467 L1091.34685,282.724982 L1010.28435,232.728889 C1010.28435,232.728889 976.701554,209.653788 946.408817,189.711847 Z" id="Combined-Shape" fill="#705375"></path>
                <path d="M48.7045456,352.026481 C48.7045456,352.026481 225.464887,267.915991 274.74671,245.099893 C324.028532,222.283795 346.82945,121.669679 428.21259,111.576545 C509.595729,101.48341 549.072779,111.576545 549.072779,111.576545 L601.226121,266.369123 C601.226121,266.369123 504.294407,378.829202 356.951653,418.519967 C209.608899,458.210733 92.9065937,585.29554 25.1510496,592.329203 C-42.6044944,599.362866 48.7045456,352.026481 48.7045456,352.026481 Z" id="Path-15562" fill="#7F6085"></path>
                <path d="M586.120332,282.275021 C553.513577,314.723948 470.25968,388.056168 357.358033,418.519967 C210.260402,458.210733 93.7522456,585.29554 26.1094212,592.329203 C17.7623118,593.197156 11.8333296,590.191687 7.8527875,584.255539 C46.0375984,555.317268 134.329861,488.405182 134.329863,488.405181 C134.329865,488.405181 220.615766,442.501389 299.314544,420.722218 C378.013322,398.943047 416.467667,348.72473 416.467667,348.72473 L489.575915,277.778334 L586.120317,282.275036 Z" id="Combined-Shape" fill="#705375"></path>
                <g id="Phone" transform="translate(787.518723, 155.000000) rotate(-270.000000) translate(-787.518723, -155.000000) translate(632.518723, -150.000000)">
                    <rect id="Rectangle-3" fill="#EEEEEE" x="1.76296181e-12" y="0" width="310" height="610" rx="15"></rect>
                    <use id="Rectangle-223" stroke="#000000" mask="url(#mask-2)" stroke-width="4" fill="#EDEDED" opacity="0.149999991" xlink:href="#path-1"></use>
                    <rect id="Rectangle-220" fill-opacity="0.600000024" fill="#000000" x="10" y="40" width="290" height="512"></rect>
                    <rect id="Rectangle-629" fill-opacity="0.100000001" fill="#000000" x="123" y="15" width="64" height="10" rx="5"></rect>
                </g>
                <path d="M450.768387,223.606187 C450.768387,223.606187 506.971642,200.821743 523.825665,218.813441 C540.679687,236.80514 531.922548,260.109679 520.674947,273.907344 C509.427345,287.70501 416.912889,347.035632 416.912889,347.035632 L436.624906,233.161442 L450.768387,223.606187 Z" id="Path-15562" fill="#7F6085"></path>
                <path d="M148.604661,311.471076 C148.604661,311.471076 151.792161,291.678107 158.983567,280.299201 C166.174973,268.920295 166.206223,298.057014 166.206223,298.057014 L182.776536,267.920295 L182.518723,287.971076 L199.342942,267.178107 L222.842942,280.783576 L148.604661,311.471076 Z" id="Path-15564" fill="#7F6085"></path>
                <polygon id="Path-15565" fill="#705375" points="519.812731 337.617945 532.237049 336.895038 519.601679 340.647736 524.386247 347.568931 515.678726 346.846568 510.894158 351.114929 502.253543 345.88106"></polygon>
                <path d="M387.55168,127.556846 C387.55168,124.467979 387.788718,113.102559 387.788718,113.102559 L391.908177,119.198161 L397.353798,110.273082 C397.353798,110.273082 388.272773,125.755363 398.773527,118.014222 C409.274281,110.273082 422.854025,102.150186 419.692696,104.992139 C416.531367,107.834092 415.347428,112.806887 411.085745,117.860772 C406.824063,122.914657 394.903581,130.492368 394.90358,130.492367 C394.90358,130.492366 387.55168,130.645714 387.55168,127.556846 Z" id="Path-15566" fill="#7F6085"></path>
                <path d="M1124.86889,205.963613 C1124.86889,205.963613 1097.75522,186.176596 1076.59463,186.176596 C1055.43404,186.176596 1058.82277,210.084479 1058.82277,226.20089 C1058.82277,242.317302 1130.33569,315.739221 1130.33569,315.739221 L1124.86889,205.963613 Z" id="Path-15569" fill="#7F6085"></path>
                <polygon id="Path-15570" fill="#7F6085" points="505.35075 283.641484 505.319116 292.454273 509.096557 287.033738 515.575893 285.26783 514.623159 280.429728 524.051875 278.541008 510.508911 273.950393"></polygon>
                <polygon id="Path-15571" fill="#7F6085" points="1088.43543 188.998966 1084.35581 183.798162 1082.88744 186.745256 1078.80782 180.598626 1077.42002 187.485974"></polygon>
                <polygon id="Path-15574" fill="#705375" points="482.915413 214.673783 466.190487 221.340553 452.506664 114.845105 452.224617 108.801568 482.424105 107.22529"></polygon>
                <path d="M1092.87798,188.714745 C1095.05814,188.714745 1099.79383,192.069174 1099.79383,192.069174 L1108.69904,169.254914 L1111.26707,129.698452 L1109.88609,114.923075 L1095.01748,110.334198 C1095.01748,110.334198 1090.69782,188.714745 1092.87798,188.714745 Z" id="Path-15580" fill="#705375" transform="translate(1101.765171, 151.201686) rotate(-1.000000) translate(-1101.765171, -151.201686) "></path>
                <polygon id="Path-15581" fill="#705375" points="175.076663 506.758327 173.757423 515.361369 180.737401 506.348962 191.571158 507.669801 187.109729 502.707861 197.442975 499.976634 198.762214 495.318519 219.914825 495.607952 197.957878 479.522821"></polygon>
                <path d="M1161.56794,346.224498 L1162.21326,361.565574 L1166.51769,355.707153 L1172.25926,366.745542 L1178.3322,363.320136 L1180.98148,373.034755 L1188.26309,355.04614 C1188.26309,355.04614 1174.72074,340.358464 1170.38958,338.927197 C1166.05843,337.495929 1161.56794,346.224498 1161.56794,346.224498 Z" id="Path-15582" fill="#7F6085"></path>
                <polygon id="Path-15583" fill="#7F6085" points="1310.50335 428.413319 1318.8785 446.302521 1319.8709 436.788473 1328.04722 447.51118 1330.80987 440.660368 1339.97859 450.605208 1338.65482 430.72948"></polygon>
                <polyline id="Path-15584" fill="#7F6085" points="443.563573 326.754948 442.035739 344.602742 437.851932 336.62098 431.382432 346.374544 432.368689 329.725831"></polyline>
                <polygon id="Path-15586" fill="#705375" points="391.542994 158.861839 394.408861 143.30982 396.882261 152.064839 406.029747 145.108265 404.393033 154.25575 420.229698 142.91951 419.81998 152.61688 388.841014 166.409269"></polygon>
                <polygon id="Path-15587" fill="#705375" points="1280.08122 358.205451 1280.82341 341.017951 1291.46013 353.877326 1297.39372 337.31092 1301.10075 353.396857 1322.85857 348.947639 1297.39372 365.256232"></polygon>
                <polygon id="Path-15587" fill="#705375" points="133.905 401.903035 138.114095 372.069227 141.65852 381.324054 146.107998 372.079112 151.183545 381.459153 158.343789 374.58009 153.340734 384.939873 169.183557 372.850165 167.651337 378.759371 181.419347 373.475135 193.51894 374.308794 184.129015 377.789514 167.380041 386.971849 164.806571 384.188591 161.607032 390.442683 159.376252 385.648318 153.330849 391.974903"></polygon>
                <path d="M437.413903,241.652713 L440.132896,227.904968 L443.756629,233.951684 L446.79073,222.784476 L450.142324,230.50699 L455.735477,219.000803 L457.253721,225.818577 L477.346579,215.534623 C477.346579,215.534623 466.233916,188.384665 465.540901,196.791398 C464.756269,206.309518 441.637,219.000803 434.90885,227.904967 C428.180699,236.809132 428.552707,246.40558 428.552707,246.40558 L437.413903,241.652713 Z" id="Path-15588" fill="#705375" transform="translate(452.947799, 220.790980) rotate(6.000000) translate(-452.947799, -220.790980) "></path>
            </g>
            <path d="M277.595063,362.217486 L151.357755,394.664232 L55.707632,415.853678 L-49.5629312,467.536905 C-49.5629312,467.536905 -105.776477,709.879789 -100.832129,716.766253 C-95.8877797,723.652716 54.8045078,690.592913 146.463199,655.807207 C238.121891,621.021502 306.131931,581.414705 306.131931,581.414705 L327.051586,438.307452 L277.595063,362.217486 Z" id="Path-15618" fill="#7F6085"></path>
            <path d="M1751.13702,307.12145 L1951.69051,312.040881 L2177.05698,307.12145 L2171.66736,534.418121 C2171.66736,534.418121 2067.23644,651.792099 2061.1755,651.792096 C2055.11456,651.792094 2054.77689,663.435364 2054.77689,663.435374 C2054.77689,663.435384 2054.77689,628.526693 2054.77689,628.526693 L1743.63795,558.618492 L1726.32404,433.819304 L1751.13702,307.12145 Z" id="Path-15619" fill="#7F6085"></path>
            <path d="M312.242051,575.881482 C312.242051,575.881482 263.033445,606.036567 212.493215,627.857218 C161.952985,649.677869 1.35093755,704.656839 -23.6382135,704.656833 C-48.6273645,704.656827 -25.9095252,635.653342 -25.9095252,635.653342 L-14.529356,657.162334 L122.627655,624.315671 L140.288356,613.217399 L139.802137,618.993055 L145.154994,611.390463 L147.62503,613.438812 L149.387434,608.508754 L153.547553,611.465009 L230.630476,578.027176 L233.165045,571.196747 L238.379936,574.153002 L243.732793,569.148398 L248.799705,559.784514 L256.264331,562.740768 L317.265318,532.367115 L312.242051,575.881482 Z" id="Path-15621" fill="#705375"></path>
            <polygon id="Path-15622" fill="#7F6085" points="0.592877449 452.688289 31.2327861 414.026113 31.9631315 442.002183 57.7520096 405.015958 51.9169347 424.493115 74.7844315 408.187194 71.1365488 421.098931 104.951538 402.133016 100.57331 415.040909 140.949875 400.453222 135.622198 427.952645"></polygon>
            <path d="M1743.44359,557.317023 L1843.26571,585.182896 L2050.70758,628.07243 C2050.70758,628.07243 2085.2856,543.777375 2078.57346,543.777376 C2071.86131,543.777376 1969.00824,523.525587 1969.00824,523.525587 L1865.16407,525.518254 C1865.16407,525.518254 1810.77476,511.585317 1803.45957,511.585317 C1796.14438,511.585318 1730.45979,486.7032 1730.45979,486.7032 L1715.39418,513.714325 L1743.44359,557.317023 Z" id="Path-15623" fill="#705375"></path>
        </g>
    </g>
</svg>