<?xml version="1.0" encoding="UTF-8" standalone="no"?>
<svg width="828px" height="120px" viewBox="0 0 828 120" version="1.1" xmlns="http://www.w3.org/2000/svg" xmlns:xlink="http://www.w3.org/1999/xlink">
    <!-- Generator: Sketch 3.8.3 (29802) - http://www.bohemiancoding.com/sketch -->
    <title>sea-1</title>
    <desc>Created with Sketch.</desc>
    <defs>
        <polygon id="path-1" points="0 0.107939505 0 22.4673695 383.316844 22.4673695 383.316844 0.107939505 0 0.107939505"></polygon>
        <filter x="-50%" y="-50%" width="200%" height="200%" filterUnits="objectBoundingBox" id="filter-3">
            <feGaussianBlur stdDeviation="17.2753906" in="SourceGraphic"></feGaussianBlur>
        </filter>
        <polygon id="path-4" points="0 0.107939505 0 22.4673695 383.316844 22.4673695 383.316844 0.107939505 0 0.107939505"></polygon>
        <filter x="-50%" y="-50%" width="200%" height="200%" filterUnits="objectBoundingBox" id="filter-6">
            <feGaussianBlur stdDeviation="10" in="SourceGraphic"></feGaussianBlur>
        </filter>
        <filter x="-50%" y="-50%" width="200%" height="200%" filterUnits="objectBoundingBox" id="filter-7">
            <feGaussianBlur stdDeviation="10" in="SourceGraphic"></feGaussianBlur>
        </filter>
        <filter x="-50%" y="-50%" width="200%" height="200%" filterUnits="objectBoundingBox" id="filter-8">
            <feGaussianBlur stdDeviation="10" in="SourceGraphic"></feGaussianBlur>
        </filter>
        <filter x="-50%" y="-50%" width="200%" height="200%" filterUnits="objectBoundingBox" id="filter-9">
            <feGaussianBlur stdDeviation="10" in="SourceGraphic"></feGaussianBlur>
        </filter>
    </defs>
    <g id="Page-1" stroke="none" stroke-width="1" fill="none" fill-rule="evenodd" opacity="0.738456157">
        <g id="sea-1">
            <g id="Group" transform="translate(12.000000, 26.000000)">
                <g id="Group-9-Copy" transform="translate(24.000000, 0.000000)">
                    <g transform="translate(0.344571, 0.000000)">
                        <g id="waves-copy" transform="translate(0.000000, 3.951928)">
                            <path d="M0,15.569205 C0.162921451,15.9217022 19.1419128,4.2850681 41.6637668,8.34169206 C64.184942,12.398316 84.086476,25.4343691 117.581769,23.3204431 C151.076382,21.2065171 174.657226,10.6157479 205.407292,9.92132325 C236.157358,9.22742705 257.21835,22.3712903 290.359967,23.5503325 C323.501584,24.7293748 358.91324,6.68913042 385.332311,4.78712552 L385.332311,70.3151316 L0.162921451,70.3151316 L0,15.569205 Z" id="Fill-2-Copy" fill="#6ECCE5"></path>
                            <path d="M74.1960205,46.4932178 C74.1960205,46.4932178 82.0655203,39.4025816 87.2929672,46.4932178 C87.7988491,46.3172335 94.8811966,39.0062205 100.95178,46.4932178 C100.95178,46.3172335 87.573563,50.6772058 87.573563,50.6772058 L74.1960205,46.4932178 Z" id="Fill-9" fill="#8AD4E7"></path>
                            <path d="M79.5920948,48.6071438 C79.5920948,48.6071438 87.4615945,41.5165076 92.6890414,48.6071438 C93.1949234,48.4311595 100.277271,41.1201465 106.347854,48.6071438 C106.347854,48.4311595 92.9696373,52.7911318 92.9696373,52.7911318 L79.5920948,48.6071438 Z" id="Fill-11" fill="#6ECCE5"></path>
                            <path d="M47.8901587,46.4932178 C47.8901587,46.4932178 55.7596585,39.4025816 60.9871054,46.4932178 C61.4929873,46.3172335 68.5753347,39.0062205 74.6459182,46.4932178 C74.6459182,46.3172335 61.2677012,50.6772058 61.2677012,50.6772058 L47.8901587,46.4932178 Z" id="Fill-13" fill="#8AD4E7"></path>
                            <path d="M52.6117237,48.6071438 C52.6117237,48.6071438 60.4812234,41.5165076 65.7086703,48.6071438 C66.2145523,48.4311595 73.2968997,41.1201465 79.3674832,48.6071438 C79.3674832,48.4311595 65.9892662,52.7911318 65.9892662,52.7911318 L52.6117237,48.6071438 Z" id="Fill-15" fill="#6ECCE5"></path>
                            <g id="Group-6-Copy-3" transform="translate(0.000000, 4.677190)">
                                <mask id="mask-2" fill="white">
                                    <use xlink:href="#path-1"></use>
                                </mask>
                                <g id="Clip-5"></g>
                                <path d="M41.3978046,7.20342575 C63.7753244,11.2600497 83.5499129,24.2955743 116.83155,22.1816483 C150.112512,20.0677223 173.542941,9.47748163 204.096862,8.78305694 C234.651458,8.08916074 255.577434,21.233024 288.507651,22.4120662 C321.437868,23.5911085 357.014186,5.54716474 383.264063,3.64568832 C383.39222,3.49137172 383.050244,9.84900412 383.05564,18.6545628 C383.061036,8.07013541 383.427969,-0.0631948165 383.28295,0.110675596 C357.033072,2.0126805 321.437868,20.0560957 288.507651,18.8770535 C255.577434,17.6974828 234.651458,4.55361953 204.096862,5.24804422 C173.542941,5.94194042 150.112512,16.5327096 116.83155,18.6466356 C83.5499129,20.7605616 63.7753244,7.72450851 41.3978046,3.66841303 C19.0202848,-0.388210937 0.161679874,11.2478946 -0.000202352783,10.8953975 L0.0105897957,14.4304102 C0.345820907,14.6698123 19.1255082,3.16582712 41.3978046,7.20342575" id="Fill-4" fill="#8AD4E7" mask="url(#mask-2)"></path>
                            </g>
                            <path d="M383.055842,0.0307920558 C356.805965,1.93226848 321.438071,19.9756837 288.507853,18.7966415 C255.576961,17.6175993 234.650986,4.47373599 204.097064,5.1676322 C173.543143,5.86205688 150.112714,16.4528261 116.831077,18.566752 C83.5501152,20.680678 63.7755267,7.64462497 41.3980069,3.588001 C19.0198126,-0.468622958 0.161882227,11.1680111 0,10.8155139 L0.0134901856,15.4270435 C2.09300229,14.5772452 20.0747451,4.42300177 41.2030737,8.25290717 C63.581268,12.3095311 83.355182,25.3455842 116.636819,23.2316582 C149.918456,21.1177322 173.34821,10.526963 203.902806,9.83253836 C234.456727,9.13864216 255.382703,22.2825054 288.31292,23.4615477 C321.243812,24.6405899 356.838341,6.59717464 383.088219,4.69569822 L383.055842,0.0307920558 Z" id="Fill-7-Copy" fill="#B7E3F2"></path>
                            <path d="M308.925249,38.8060603 C308.925249,38.8060603 316.794749,31.7154241 322.022196,38.8060603 C322.528078,38.630076 329.610425,31.319063 335.681009,38.8060603 C335.681009,38.630076 322.302792,42.9900483 322.302792,42.9900483 L308.925249,38.8060603 Z" id="Fill-19-Copy" fill="#9EDBF1"></path>
                            <path d="M314.321323,40.9199863 C314.321323,40.9199863 322.190823,33.8293501 327.41827,40.9199863 C327.924152,40.744002 335.006499,33.432989 341.077083,40.9199863 C341.077083,40.744002 327.698866,45.1039743 327.698866,45.1039743 L314.321323,40.9199863 Z" id="Fill-21-Copy" fill="#6ECCE5"></path>
                            <path d="M282.619387,38.8060603 C282.619387,38.8060603 290.488887,31.7154241 295.716334,38.8060603 C296.222216,38.630076 303.304563,31.319063 309.375147,38.8060603 C309.375147,38.630076 295.99693,42.9900483 295.99693,42.9900483 L282.619387,38.8060603 Z" id="Fill-23-Copy" fill="#9EDBF1"></path>
                            <path d="M287.340952,42.5054308 C287.340952,42.5054308 295.210452,35.4147946 300.437899,42.5054308 C300.943781,42.3294465 308.026128,35.0184335 314.096712,42.5054308 C314.096712,42.3294465 300.718495,46.6894188 300.718495,46.6894188 L287.340952,42.5054308 Z" id="Fill-25-Copy" fill="#6ECCE5"></path>
                        </g>
                        <g id="waves-copy-2" transform="translate(0.400157, 0.390475)">
                            <path d="M353,15.569205 C353.162921,15.9217022 372.141913,4.2850681 394.663767,8.34169206 C417.184942,12.398316 437.086476,25.4343691 470.581769,23.3204431 C504.076382,21.2065171 527.657226,10.6157479 558.407292,9.92132325 C589.157358,9.22742705 610.21835,22.3712903 643.359967,23.5503325 C676.501584,24.7293748 711.91324,6.68913042 738.332311,4.78712552 L738.332311,70.3151316 L353.162921,70.3151316 L353,15.569205 Z" id="Fill-2-Copy" fill="#6ECCE5"></path>
                            <rect id="Rectangle-360" fill="#6ECBE5" filter="url(#filter-3)" x="0" y="42.4719939" width="744" height="101.379719"></rect>
                            <path d="M427.196021,46.4932178 C427.196021,46.4932178 435.06552,39.4025816 440.292967,46.4932178 C440.798849,46.3172335 447.881197,39.0062205 453.95178,46.4932178 C453.95178,46.3172335 440.573563,50.6772058 440.573563,50.6772058 L427.196021,46.4932178 Z" id="Fill-9" fill="#8AD4E7"></path>
                            <path d="M432.592095,48.6071438 C432.592095,48.6071438 440.461595,41.5165076 445.689041,48.6071438 C446.194923,48.4311595 453.277271,41.1201465 459.347854,48.6071438 C459.347854,48.4311595 445.969637,52.7911318 445.969637,52.7911318 L432.592095,48.6071438 Z" id="Fill-11" fill="#6ECCE5"></path>
                            <path d="M400.890159,46.4932178 C400.890159,46.4932178 408.759658,39.4025816 413.987105,46.4932178 C414.492987,46.3172335 421.575335,39.0062205 427.645918,46.4932178 C427.645918,46.3172335 414.267701,50.6772058 414.267701,50.6772058 L400.890159,46.4932178 Z" id="Fill-13" fill="#8AD4E7"></path>
                            <path d="M405.611724,48.6071438 C405.611724,48.6071438 413.481223,41.5165076 418.70867,48.6071438 C419.214552,48.4311595 426.2969,41.1201465 432.367483,48.6071438 C432.367483,48.4311595 418.989266,52.7911318 418.989266,52.7911318 L405.611724,48.6071438 Z" id="Fill-15" fill="#6ECCE5"></path>
                            <g id="Group-6-Copy-3" transform="translate(353.000000, 4.677190)">
                                <mask id="mask-5" fill="white">
                                    <use xlink:href="#path-4"></use>
                                </mask>
                                <g id="Clip-5"></g>
                                <path d="M41.3978046,7.20342575 C63.7753244,11.2600497 83.5499129,24.2955743 116.83155,22.1816483 C150.112512,20.0677223 173.542941,9.47748163 204.096862,8.78305694 C234.651458,8.08916074 255.577434,21.233024 288.507651,22.4120662 C321.437868,23.5911085 357.014186,5.54716474 383.264063,3.64568832 C383.39222,3.49137172 383.050244,9.84900412 383.05564,18.6545628 C383.061036,8.07013541 383.427969,-0.0631948165 383.28295,0.110675596 C357.033072,2.0126805 321.437868,20.0560957 288.507651,18.8770535 C255.577434,17.6974828 234.651458,4.55361953 204.096862,5.24804422 C173.542941,5.94194042 150.112512,16.5327096 116.83155,18.6466356 C83.5499129,20.7605616 63.7753244,7.72450851 41.3978046,3.66841303 C19.0202848,-0.388210937 0.161679874,11.2478946 -0.000202352783,10.8953975 L0.0105897957,14.4304102 C0.345820907,14.6698123 19.1255082,3.16582712 41.3978046,7.20342575" id="Fill-4" fill="#8AD4E7" mask="url(#mask-5)"></path>
                            </g>
                            <path d="M736.055842,0.0307920558 C709.805965,1.93226848 674.438071,19.9756837 641.507853,18.7966415 C608.576961,17.6175993 587.650986,4.47373599 557.097064,5.1676322 C526.543143,5.86205688 503.112714,16.4528261 469.831077,18.566752 C436.550115,20.680678 416.775527,7.64462497 394.398007,3.588001 C372.019813,-0.468622958 353.161882,11.1680111 353,10.8155139 L353.01349,15.4270435 C355.093002,14.5772452 373.074745,4.42300177 394.203074,8.25290717 C416.581268,12.3095311 436.355182,25.3455842 469.636819,23.2316582 C502.918456,21.1177322 526.34821,10.526963 556.902806,9.83253836 C587.456727,9.13864216 608.382703,22.2825054 641.31292,23.4615477 C674.243812,24.6405899 709.838341,6.59717464 736.088219,4.69569822 L736.055842,0.0307920558 Z" id="Fill-7-Copy" fill="#B7E3F2"></path>
                            <path d="M661.925249,38.8060603 C661.925249,38.8060603 669.794749,31.7154241 675.022196,38.8060603 C675.528078,38.630076 682.610425,31.319063 688.681009,38.8060603 C688.681009,38.630076 675.302792,42.9900483 675.302792,42.9900483 L661.925249,38.8060603 Z" id="Fill-19-Copy" fill="#9EDBF1"></path>
                            <path d="M667.321323,40.9199863 C667.321323,40.9199863 675.190823,33.8293501 680.41827,40.9199863 C680.924152,40.744002 688.006499,33.432989 694.077083,40.9199863 C694.077083,40.744002 680.698866,45.1039743 680.698866,45.1039743 L667.321323,40.9199863 Z" id="Fill-21-Copy" fill="#6ECCE5"></path>
                            <path d="M635.619387,38.8060603 C635.619387,38.8060603 643.488887,31.7154241 648.716334,38.8060603 C649.222216,38.630076 656.304563,31.319063 662.375147,38.8060603 C662.375147,38.630076 648.99693,42.9900483 648.99693,42.9900483 L635.619387,38.8060603 Z" id="Fill-23-Copy" fill="#9EDBF1"></path>
                            <path d="M640.340952,42.5054308 C640.340952,42.5054308 648.210452,35.4147946 653.437899,42.5054308 C653.943781,42.3294465 661.026128,35.0184335 667.096712,42.5054308 C667.096712,42.3294465 653.718495,46.6894188 653.718495,46.6894188 L640.340952,42.5054308 Z" id="Fill-25-Copy" fill="#6ECCE5"></path>
                        </g>
                    </g>
                </g>
                <ellipse id="Oval-150" fill="#6ECBE5" filter="url(#filter-6)" cx="41.7264404" cy="47.1289062" rx="40.9940186" ry="38.0234375"></ellipse>
                <ellipse id="Oval-150-Copy-2" fill="#6ECBE5" filter="url(#filter-7)" cx="31.4521484" cy="29.7150702" rx="22.2197266" ry="20.6096014"></ellipse>
                <ellipse id="Oval-150-Copy-3" fill="#6ECBE5" filter="url(#filter-8)" cx="765" cy="20.6096014" rx="22.2197266" ry="20.6096014"></ellipse>
                <ellipse id="Oval-150-Copy" fill="#6ECBE5" filter="url(#filter-9)" cx="752.957031" cy="50.3246716" rx="40.9940186" ry="38.0234375"></ellipse>
            </g>
        </g>
    </g>
</svg>