<?xml version="1.0" encoding="UTF-8" standalone="no"?>
<svg width="967px" height="120px" viewBox="0 0 967 120" version="1.1" xmlns="http://www.w3.org/2000/svg" xmlns:xlink="http://www.w3.org/1999/xlink">
    <!-- Generator: Sketch 3.8.3 (29802) - http://www.bohemiancoding.com/sketch -->
    <title>sea-2</title>
    <desc>Created with Sketch.</desc>
    <defs>
        <polygon id="path-1" points="0 0.129193493 0 26.8913403 458.794417 26.8913403 458.794417 0.129193493 0 0.129193493"></polygon>
        <polygon id="path-3" points="0 0.129193493 0 26.8913403 458.794417 26.8913403 458.794417 0.129193493 0 0.129193493"></polygon>
        <filter x="-50%" y="-50%" width="200%" height="200%" filterUnits="objectBoundingBox" id="filter-5">
            <feGaussianBlur stdDeviation="10" in="SourceGraphic"></feGaussianBlur>
        </filter>
        <filter x="-50%" y="-50%" width="200%" height="200%" filterUnits="objectBoundingBox" id="filter-6">
            <feGaussianBlur stdDeviation="10" in="SourceGraphic"></feGaussianBlur>
        </filter>
        <filter x="-50%" y="-50%" width="200%" height="200%" filterUnits="objectBoundingBox" id="filter-7">
            <feGaussianBlur stdDeviation="10" in="SourceGraphic"></feGaussianBlur>
        </filter>
        <filter x="-50%" y="-50%" width="200%" height="200%" filterUnits="objectBoundingBox" id="filter-8">
            <feGaussianBlur stdDeviation="10" in="SourceGraphic"></feGaussianBlur>
        </filter>
    </defs>
    <g id="Page-1" stroke="none" stroke-width="1" fill="none" fill-rule="evenodd">
        <g id="sea-2">
            <g id="Group" transform="translate(12.000000, 38.000000)">
                <g id="Group-9-Copy" transform="translate(28.725756, 0.000000)">
                    <g transform="translate(0.412420, 0.000000)">
                        <g id="waves-copy" transform="translate(0.000000, 4.730088)">
                            <path d="M0,18.6348824 C0.195001741,19.0567886 22.9110795,5.1288258 49.8676327,9.98422533 C76.8233734,14.8396249 100.643649,30.4425613 140.734381,27.9123896 C180.824302,25.3822179 209.048366,12.7060576 245.85332,11.8748962 C282.658273,11.0443673 307.866311,26.7763425 347.533728,28.1875458 C387.201144,29.5987491 429.585585,8.00626359 461.206743,5.72974158 L461.206743,84.1606371 L0.195001741,84.1606371 L0,18.6348824 Z" id="Fill-2-Copy" fill="#6ECCE5"></path>
                            <path d="M88.8056982,55.648034 C88.8056982,55.648034 98.2247535,47.1612055 104.481519,55.648034 C105.087012,55.4373972 113.56392,46.6867983 120.82984,55.648034 C120.82984,55.4373972 104.817366,60.6558764 104.817366,60.6558764 L88.8056982,55.648034 Z" id="Fill-9" fill="#8AD4E7"></path>
                            <path d="M95.2642945,58.1782057 C95.2642945,58.1782057 104.68335,49.6913772 110.940115,58.1782057 C111.545608,57.9675689 120.022516,49.21697 127.288437,58.1782057 C127.288437,57.9675689 111.275962,63.1860481 111.275962,63.1860481 L95.2642945,58.1782057 Z" id="Fill-11" fill="#6ECCE5"></path>
                            <path d="M57.3200416,55.648034 C57.3200416,55.648034 66.7390969,47.1612055 72.995862,55.648034 C73.6013554,55.4373972 82.0782629,46.6867983 89.3441837,55.648034 C89.3441837,55.4373972 73.331709,60.6558764 73.331709,60.6558764 L57.3200416,55.648034 Z" id="Fill-13" fill="#8AD4E7"></path>
                            <path d="M62.9713133,58.1782057 C62.9713133,58.1782057 72.3903686,49.6913772 78.6471337,58.1782057 C79.2526271,57.9675689 87.7295346,49.21697 94.9954554,58.1782057 C94.9954554,57.9675689 78.9829807,63.1860481 78.9829807,63.1860481 L62.9713133,58.1782057 Z" id="Fill-15" fill="#6ECCE5"></path>
                            <g id="Group-6-Copy-3" transform="translate(0.000000, 5.598159)">
                                <mask id="mask-2" fill="white">
                                    <use xlink:href="#path-1"></use>
                                </mask>
                                <g id="Clip-5"></g>
                                <path d="M49.5493008,8.62182701 C76.3330994,13.4772265 100.001433,29.0795305 139.83644,26.5493587 C179.670639,24.019187 207.714671,11.3436592 244.284858,10.5124978 C280.855852,9.68196896 305.902288,25.4139442 345.316679,26.8251475 C384.73107,28.2363507 427.312595,6.63943746 458.731243,4.363548 C458.884635,4.17884546 458.475321,11.7883369 458.48178,22.3277672 C458.488239,9.65919741 458.927423,-0.0756382858 458.753848,0.132468338 C427.3352,2.40899034 384.73107,24.0052711 345.316679,22.5940678 C305.902288,21.182232 280.855852,5.45025675 244.284858,6.28141816 C207.714671,7.11194703 179.670639,19.7881074 139.83644,22.3182791 C100.001433,24.8484508 76.3330994,9.24551433 49.5493008,4.39074734 C22.7655022,-0.464652188 0.19351569,13.4626781 -0.000242197359,13.0407719 L0.0126749951,17.2718516 C0.413915286,17.5583935 22.8914448,3.78919902 49.5493008,8.62182701" id="Fill-4" fill="#8AD4E7" mask="url(#mask-2)"></path>
                            </g>
                            <path d="M458.482022,0.0368552113 C427.063374,2.31274467 384.731312,23.9090254 345.316921,22.4978221 C305.901723,21.0866188 280.855287,5.35464363 244.2851,6.18517249 C207.714914,7.0163339 179.670881,19.6924942 139.835874,22.2226659 C100.001675,24.7528377 76.3333416,9.14990121 49.549543,4.29450167 C22.7649371,-0.560897858 0.193757887,13.3670649 0,12.9451588 L0.0161464906,18.4647284 C2.50512801,17.4475994 24.0275926,5.2939195 49.3162262,9.87795812 C76.1008321,14.7333577 99.768358,30.3362941 139.603365,27.8061224 C179.438372,25.2759507 207.481597,12.5997903 244.052591,11.7686289 C280.622777,10.9381001 305.669213,26.6700753 345.083604,28.0812786 C384.498802,29.4924818 427.102125,7.89620112 458.520774,5.62031166 L458.482022,0.0368552113 Z" id="Fill-7-Copy" fill="#B7E3F2"></path>
                            <path d="M369.754634,46.4472253 C369.754634,46.4472253 379.17369,37.9603968 385.430455,46.4472253 C386.035948,46.2365885 394.512856,37.4859896 401.778777,46.4472253 C401.778777,46.2365885 385.766302,51.4550677 385.766302,51.4550677 L369.754634,46.4472253 Z" id="Fill-19-Copy" fill="#9EDBF1"></path>
                            <path d="M376.213231,48.977397 C376.213231,48.977397 385.632286,40.4905685 391.889051,48.977397 C392.494544,48.7667602 400.971452,40.0161613 408.237373,48.977397 C408.237373,48.7667602 392.224898,53.9852394 392.224898,53.9852394 L376.213231,48.977397 Z" id="Fill-21-Copy" fill="#6ECCE5"></path>
                            <path d="M338.268978,46.4472253 C338.268978,46.4472253 347.688033,37.9603968 353.944798,46.4472253 C354.550292,46.2365885 363.027199,37.4859896 370.29312,46.4472253 C370.29312,46.2365885 354.280645,51.4550677 354.280645,51.4550677 L338.268978,46.4472253 Z" id="Fill-23-Copy" fill="#9EDBF1"></path>
                            <path d="M343.92025,50.8750258 C343.92025,50.8750258 353.339305,42.3881973 359.59607,50.8750258 C360.201563,50.664389 368.678471,41.9137901 375.944392,50.8750258 C375.944392,50.664389 359.931917,55.8828682 359.931917,55.8828682 L343.92025,50.8750258 Z" id="Fill-25-Copy" fill="#6ECCE5"></path>
                        </g>
                        <g id="waves-copy-2" transform="translate(422.986940, 0.467362)">
                            <path d="M0,18.6348824 C0.195001741,19.0567886 22.9110795,5.1288258 49.8676327,9.98422533 C76.8233734,14.8396249 100.643649,30.4425613 140.734381,27.9123896 C180.824302,25.3822179 209.048366,12.7060576 245.85332,11.8748962 C282.658273,11.0443673 307.866311,26.7763425 347.533728,28.1875458 C387.201144,29.5987491 429.585585,8.00626359 461.206743,5.72974158 L461.206743,84.1606371 L0.195001741,84.1606371 L0,18.6348824 Z" id="Fill-2-Copy" fill="#6ECCE5"></path>
                            <path d="M88.8056982,55.648034 C88.8056982,55.648034 98.2247535,47.1612055 104.481519,55.648034 C105.087012,55.4373972 113.56392,46.6867983 120.82984,55.648034 C120.82984,55.4373972 104.817366,60.6558764 104.817366,60.6558764 L88.8056982,55.648034 Z" id="Fill-9" fill="#8AD4E7"></path>
                            <path d="M95.2642945,58.1782057 C95.2642945,58.1782057 104.68335,49.6913772 110.940115,58.1782057 C111.545608,57.9675689 120.022516,49.21697 127.288437,58.1782057 C127.288437,57.9675689 111.275962,63.1860481 111.275962,63.1860481 L95.2642945,58.1782057 Z" id="Fill-11" fill="#6ECCE5"></path>
                            <path d="M57.3200416,55.648034 C57.3200416,55.648034 66.7390969,47.1612055 72.995862,55.648034 C73.6013554,55.4373972 82.0782629,46.6867983 89.3441837,55.648034 C89.3441837,55.4373972 73.331709,60.6558764 73.331709,60.6558764 L57.3200416,55.648034 Z" id="Fill-13" fill="#8AD4E7"></path>
                            <path d="M62.9713133,58.1782057 C62.9713133,58.1782057 72.3903686,49.6913772 78.6471337,58.1782057 C79.2526271,57.9675689 87.7295346,49.21697 94.9954554,58.1782057 C94.9954554,57.9675689 78.9829807,63.1860481 78.9829807,63.1860481 L62.9713133,58.1782057 Z" id="Fill-15" fill="#6ECCE5"></path>
                            <g id="Group-6-Copy-3" transform="translate(0.000000, 5.598159)">
                                <mask id="mask-4" fill="white">
                                    <use xlink:href="#path-3"></use>
                                </mask>
                                <g id="Clip-5"></g>
                                <path d="M49.5493008,8.62182701 C76.3330994,13.4772265 100.001433,29.0795305 139.83644,26.5493587 C179.670639,24.019187 207.714671,11.3436592 244.284858,10.5124978 C280.855852,9.68196896 305.902288,25.4139442 345.316679,26.8251475 C384.73107,28.2363507 427.312595,6.63943746 458.731243,4.363548 C458.884635,4.17884546 458.475321,11.7883369 458.48178,22.3277672 C458.488239,9.65919741 458.927423,-0.0756382858 458.753848,0.132468338 C427.3352,2.40899034 384.73107,24.0052711 345.316679,22.5940678 C305.902288,21.182232 280.855852,5.45025675 244.284858,6.28141816 C207.714671,7.11194703 179.670639,19.7881074 139.83644,22.3182791 C100.001433,24.8484508 76.3330994,9.24551433 49.5493008,4.39074734 C22.7655022,-0.464652188 0.19351569,13.4626781 -0.000242197359,13.0407719 L0.0126749951,17.2718516 C0.413915286,17.5583935 22.8914448,3.78919902 49.5493008,8.62182701" id="Fill-4" fill="#8AD4E7" mask="url(#mask-4)"></path>
                            </g>
                            <path d="M458.482022,0.0368552113 C427.063374,2.31274467 384.731312,23.9090254 345.316921,22.4978221 C305.901723,21.0866188 280.855287,5.35464363 244.2851,6.18517249 C207.714914,7.0163339 179.670881,19.6924942 139.835874,22.2226659 C100.001675,24.7528377 76.3333416,9.14990121 49.549543,4.29450167 C22.7649371,-0.560897858 0.193757887,13.3670649 0,12.9451588 L0.0161464906,18.4647284 C2.50512801,17.4475994 24.0275926,5.2939195 49.3162262,9.87795812 C76.1008321,14.7333577 99.768358,30.3362941 139.603365,27.8061224 C179.438372,25.2759507 207.481597,12.5997903 244.052591,11.7686289 C280.622777,10.9381001 305.669213,26.6700753 345.083604,28.0812786 C384.498802,29.4924818 427.102125,7.89620112 458.520774,5.62031166 L458.482022,0.0368552113 Z" id="Fill-7-Copy" fill="#B7E3F2"></path>
                            <path d="M369.754634,46.4472253 C369.754634,46.4472253 379.17369,37.9603968 385.430455,46.4472253 C386.035948,46.2365885 394.512856,37.4859896 401.778777,46.4472253 C401.778777,46.2365885 385.766302,51.4550677 385.766302,51.4550677 L369.754634,46.4472253 Z" id="Fill-19-Copy" fill="#9EDBF1"></path>
                            <path d="M376.213231,48.977397 C376.213231,48.977397 385.632286,40.4905685 391.889051,48.977397 C392.494544,48.7667602 400.971452,40.0161613 408.237373,48.977397 C408.237373,48.7667602 392.224898,53.9852394 392.224898,53.9852394 L376.213231,48.977397 Z" id="Fill-21-Copy" fill="#6ECCE5"></path>
                            <path d="M338.268978,46.4472253 C338.268978,46.4472253 347.688033,37.9603968 353.944798,46.4472253 C354.550292,46.2365885 363.027199,37.4859896 370.29312,46.4472253 C370.29312,46.2365885 354.280645,51.4550677 354.280645,51.4550677 L338.268978,46.4472253 Z" id="Fill-23-Copy" fill="#9EDBF1"></path>
                            <path d="M343.92025,50.8750258 C343.92025,50.8750258 353.339305,42.3881973 359.59607,50.8750258 C360.201563,50.664389 368.678471,41.9137901 375.944392,50.8750258 C375.944392,50.664389 359.931917,55.8828682 359.931917,55.8828682 L343.92025,50.8750258 Z" id="Fill-25-Copy" fill="#6ECCE5"></path>
                        </g>
                    </g>
                </g>
                <ellipse id="Oval-150" fill="#6ECBE5" filter="url(#filter-5)" cx="49.9426472" cy="56.4088936" rx="49.0660067" ry="45.510499"></ellipse>
                <ellipse id="Oval-150-Copy-2" fill="#6ECBE5" filter="url(#filter-6)" cx="37.6452805" cy="35.5661603" rx="26.5949348" ry="24.6677657"></ellipse>
                <ellipse id="Oval-150-Copy-3" fill="#6ECBE5" filter="url(#filter-7)" cx="915.633462" cy="24.6677657" rx="26.5949348" ry="24.6677657"></ellipse>
                <ellipse id="Oval-150-Copy" fill="#6ECBE5" filter="url(#filter-8)" cx="901.219154" cy="60.2339259" rx="49.0660067" ry="45.510499"></ellipse>
            </g>
        </g>
    </g>
</svg>