<?xml version="1.0" encoding="UTF-8" standalone="no"?>
<svg width="1068px" height="396px" viewBox="0 0 1068 396" version="1.1" xmlns="http://www.w3.org/2000/svg" xmlns:xlink="http://www.w3.org/1999/xlink" style="background: #8AD4E7;">
    <!-- Generator: Sketch 3.8.3 (29802) - http://www.bohemiancoding.com/sketch -->
    <title>sky</title>
    <desc>Created with Sketch.</desc>
    <defs></defs>
    <g id="Page-1" stroke="none" stroke-width="1" fill="none" fill-rule="evenodd" opacity="0.3">
        <g id="sky" fill="#FEFEFE">
            <g id="Page-1" transform="translate(-16.000000, 166.000000)">
                <path d="M33.665258,304.655391 L0.600594106,304.655391 L10.4916258,74.1978316 C23.6305284,67.4784015 -22.0479605,40.9711454 21.2091132,40.9711454 C64.4661868,40.9711454 80.6224529,66.4314161 92.2883159,71.4485396 C103.426865,30.554971 140.820293,0.484709506 185.244571,0.484709506 C215.054997,0.484709506 241.699629,14.0248292 259.370374,35.289332 C276.821404,17.7351314 300.988043,6.86406036 327.695724,6.86406036 C366.403615,6.86406036 399.771499,29.6933096 415.090347,62.6198543 C423.888464,59.9737324 433.213894,58.5446356 442.873671,58.5446356 C480.775307,58.5446356 513.547097,80.4434434 529.274805,112.267597 C553.540793,106.321942 575.439601,105.6628 588.960615,106.650558 C606.226321,80.730027 635.713863,63.6496447 669.194469,63.6496447 C682.698288,63.6496447 695.548697,66.4314161 707.21456,71.4485396 C718.353109,30.554971 755.748447,0.484709506 800.172726,0.484709506 C829.983151,0.484709506 856.627783,14.0248292 874.300439,35.289332 C891.749558,17.7351314 915.916198,6.86406036 942.625789,6.86406036 C981.33177,6.86406036 1004.22547,25.8282543 1020.29134,58.5446377 C1032.70805,51.2635038 1054.08539,40.9711454 1092.65554,40.9711454 L1095.68818,110.336023 L1089.4806,232.29028 L33.665258,232.29028 L33.665258,304.655391 Z" id="Combined-Shape"></path>
            </g>
        </g>
    </g>
</svg>