<?xml version="1.0" encoding="UTF-8" standalone="no"?>
<svg width="135px" height="46px" viewBox="0 0 135 46" version="1.1" xmlns="http://www.w3.org/2000/svg" xmlns:xlink="http://www.w3.org/1999/xlink">
    <!-- Generator: Sketch 3.8.3 (29802) - http://www.bohemiancoding.com/sketch -->
    <title>windows_store_btn</title>
    <desc>Created with Sketch.</desc>
    <defs></defs>
    <g id="Page-1" stroke="none" stroke-width="1" fill="none" fill-rule="evenodd">
        <g id="app-store-buttons-copy" transform="translate(-295.135846, -0.153264)">
            <g id="windows_store_btn" transform="translate(295.533293, 0.464994)">
                <g id="Windows">
                    <g id="Page-1">
                        <g id="Splash-Copy-6">
                            <g id="Windows">
                                <rect id="background" fill="#000000" x="0" y="0" width="134.307888" height="45.664682" rx="6"></rect>
                                <g id="Group" transform="translate(9.401552, 11.416170)" fill="#FFFFFF">
                                    <polygon id="Fill-83" points="10.3650266 10.6341732 22.2812254 10.6341732 22.2812254 0.202117875 10.3650266 1.85963218"></polygon>
                                    <polygon id="Fill-84" points="9.51691929 10.6341732 9.51691929 1.9772549 0.450196684 3.23814769 0.450196684 10.6341732"></polygon>
                                    <polygon id="Fill-85" points="10.3650266 11.4788975 10.3650266 20.2784404 22.2812254 21.93425 22.2812254 11.4788975"></polygon>
                                    <polygon id="Fill-86" points="9.51691929 11.4788975 0.450196684 11.4788975 0.450196684 18.9004931 9.51691929 20.1608176"></polygon>
                                </g>
                                <g id="Download-on" transform="translate(40.292366, 8.730013)" font-size="10.0730916" font-family="MyriadPro-Semibold, Myriad Pro" fill="#FFFFFF" font-weight="500">
                                    <text>
                                        <tspan x="0" y="8">Download on</tspan>
                                    </text>
                                </g>
                                <g id="Fill-89-+-Fill-91" transform="translate(40.963906, 18.803104)" fill="#FFFFFF">
                                    <path d="M18.4335113,0.822835437 L14.4205746,15.1951882 L12.4707773,15.1951882 L9.5476664,4.68278375 C9.43590968,4.28820769 9.36378305,3.80220548 9.33128638,3.22878702 L9.29165636,3.22878702 C9.23855216,3.72200709 9.14898827,4.20079146 9.02455,4.66193217 L6.08162411,15.1951882 L4.15005654,15.1951882 L0,0.822835437 L1.82218869,0.822835437 L4.84437463,11.8477076 C4.97039812,12.3345118 5.05124338,12.816504 5.09166601,13.2904765 L5.13129603,13.2904765 C5.16300006,12.8822667 5.26366033,12.4026804 5.42852124,11.8477076 L8.57831587,0.822835437 L10.1825394,0.822835437 L13.1825325,11.927104 C13.2958744,12.3417296 13.3751345,12.7860287 13.4211053,13.2600011 L13.4607353,13.2600011 C13.493232,12.9127421 13.5835884,12.4564133 13.7278417,11.8878067 L16.630345,0.822835437 L18.4335113,0.822835437 L18.4335113,0.822835437 Z M21.6562252,1.55665067 C21.6562252,1.86381049 21.5500167,2.11884136 21.3383923,2.32094129 C21.1283532,2.52544717 20.8778914,2.6281011 20.587007,2.6281011 C20.2881966,2.6281011 20.03932,2.52945709 19.8340365,2.33297104 C19.6295455,2.13488103 19.5273,1.87584025 19.5273,1.55665067 C19.5273,1.26954045 19.6279603,1.02012347 19.8300734,0.80839973 C20.0306014,0.599081943 20.283441,0.493220073 20.587007,0.493220073 C20.8897804,0.493220073 21.1434126,0.596675991 21.3494887,0.804389813 C21.5539796,1.01049967 21.6562252,1.26071863 21.6562252,1.55665067 L21.6562252,1.55665067 L21.6562252,1.55665067 Z M21.3796076,15.1951882 L19.7547764,15.1951882 L19.7547764,4.93220073 L21.3796076,4.93220073 L21.3796076,15.1951882 L21.3796076,15.1951882 Z M32.2572576,15.1951882 L30.6308413,15.1951882 L30.6308413,9.34150802 C30.6308413,7.17053765 29.8453742,6.08304757 28.276025,6.08304757 C27.4754985,6.08304757 26.8073362,6.39020739 26.2691604,7.00131912 C25.730192,7.61243082 25.4607078,8.39276106 25.4607078,9.34150802 L25.4607078,15.1951882 L23.8382545,15.1951882 L23.8382545,4.93220073 L25.4607078,4.93220073 L25.4607078,6.63481246 L25.5003378,6.63481246 C26.2612344,5.33399465 27.3684974,4.68278375 28.8300528,4.68278375 C29.946827,4.68278375 30.7957022,5.05009236 31.3790562,5.78390759 C31.964788,6.51932679 32.2572576,7.56110385 32.2572576,8.91084266 L32.2572576,15.1951882 L32.2572576,15.1951882 Z M43.5288302,15.1951882 L41.9047917,15.1951882 L41.9047917,13.4508733 L41.8651617,13.4508733 C41.1121911,14.7813645 39.9502387,15.4454071 38.3793044,15.4454071 C37.0968767,15.4454071 36.0767998,14.9794545 35.3174885,14.0475492 C34.5597623,13.1148421 34.1801066,11.8709651 34.1801066,10.3151164 C34.1801066,8.6173166 34.6009775,7.25394399 35.4427193,6.22499872 C36.2836685,5.19765739 37.4123317,4.68278375 38.8255385,4.68278375 C40.2110043,4.68278375 41.225533,5.23615262 41.8651617,6.34529629 L41.9047917,6.34529629 L41.9047917,0 L43.5288302,0 L43.5288302,15.1951882 L43.5288302,15.1951882 Z M41.9047917,10.5541076 L41.9047917,9.04076405 C41.9047917,8.19306712 41.6257963,7.48892525 41.0678055,6.92593264 C40.5098147,6.36454391 39.8321412,6.08304757 39.0324072,6.08304757 C38.0559234,6.08304757 37.2799674,6.44955419 36.7061246,7.18256741 C36.1306966,7.91317472 35.84219,8.92688231 35.84219,10.2244922 C35.84219,11.3985966 36.114052,12.3288979 36.6553982,13.0153961 C37.1967444,13.7002903 37.9267295,14.0411334 38.8445609,14.0411334 C39.7346513,14.0411334 40.469392,13.714726 41.0424423,13.0587032 C41.6186629,12.4050863 41.9047917,11.5702211 41.9047917,10.5541076 L41.9047917,10.5541076 L41.9047917,10.5541076 Z M55.5232546,10.0231943 C55.5232546,11.6528255 55.065924,12.9648711 54.1496778,13.9569251 C53.2350167,14.9489791 52.0096563,15.4454071 50.4696334,15.4454071 C48.9724109,15.4454071 47.7739989,14.9626129 46.8799454,13.9970243 C45.9850994,13.0306337 45.5388652,11.7602913 45.5388652,10.1827891 C45.5388652,8.4873952 45.9969884,7.14487417 46.9148198,6.16003802 C47.8326513,5.17439986 49.0968492,4.68278375 50.7089987,4.68278375 C52.2141472,4.68278375 53.391159,5.15836018 54.2447899,6.11031503 C55.0960429,7.06226985 55.5232546,8.3654936 55.5232546,10.0231943 L55.5232546,10.0231943 L55.5232546,10.0231943 Z M53.8580007,10.0833431 C53.8580007,8.79375304 53.5742497,7.80570887 53.0115034,7.11680476 C52.4463792,6.42790063 51.6387192,6.08304757 50.5885235,6.08304757 C49.5454611,6.08304757 48.7195713,6.43672245 48.1132319,7.14086427 C47.5053073,7.84741207 47.2025338,8.84026809 47.2025338,10.1234422 C47.2025338,11.3528835 47.5068924,12.3112542 48.1187801,13.0041683 C48.7274973,13.6954784 49.5533871,14.0411334 50.5885235,14.0411334 C51.64506,14.0411334 52.4543051,13.7018943 53.016259,13.0202079 C53.5766276,12.3385217 53.8580007,11.3584974 53.8580007,10.0833431 L53.8580007,10.0833431 L53.8580007,10.0833431 Z M70.3068399,4.93220073 L67.2664243,15.1951882 L65.5829408,15.1951882 L63.4936458,7.84821402 C63.4215192,7.59398518 63.3676223,7.28121145 63.3351257,6.90748699 L63.2939104,6.90748699 C63.2748881,7.14086427 63.2059318,7.44642016 63.0870417,7.82896643 L60.8186189,15.1951882 L59.1945804,15.1951882 L56.1327644,4.93220073 L57.8376482,4.93220073 L59.9269433,12.6488894 C59.9935217,12.916752 60.0386999,13.2247138 60.066441,13.5711709 L60.1449084,13.5711709 C60.15759,13.318546 60.2202055,13.0041683 60.3327548,12.6280378 L62.6614152,4.93220073 L64.1467487,4.93220073 L66.2566514,12.6681371 C66.3216446,12.9287818 66.368408,13.2367436 66.3953564,13.5912205 L66.4730313,13.5912205 C66.4880907,13.2704269 66.5404024,12.9624651 66.6331366,12.6681371 L68.7034092,4.93220073 L70.3068399,4.93220073 L70.3068399,4.93220073 Z M77.2270357,12.4475915 C77.2270357,13.3361896 76.8909732,14.0579751 76.2132999,14.6129479 C75.5364184,15.1671187 74.6360244,15.4454071 73.5152875,15.4454071 C72.557826,15.4454071 71.7176691,15.2376933 70.9987807,14.8238697 L70.9987807,13.0587032 C71.7977219,13.714726 72.676716,14.0411334 73.6333851,14.0411334 C74.9205684,14.0411334 75.5649521,13.565557 75.5649521,12.6095922 C75.5649521,12.221432 75.4397214,11.9054504 75.1884669,11.6616473 C74.9372125,11.4178442 74.3665403,11.0898328 73.4740717,10.6744052 C72.576848,10.2862449 71.9419753,9.87242133 71.5734157,9.42732028 C71.2032712,8.98302119 71.0178027,8.39276106 71.0178027,7.6573419 C71.0178027,6.81044692 71.3546583,6.1014932 72.0283689,5.53208466 C72.7020794,4.96508207 73.558088,4.68278375 74.5940169,4.68278375 C75.3929581,4.68278375 76.1158099,4.84157656 76.764157,5.16317208 L76.764157,6.81606079 C76.1023354,6.32845463 75.3374762,6.08304757 74.4664083,6.08304757 C73.9298174,6.08304757 73.5010206,6.21858284 73.1720912,6.48484148 C72.8455397,6.75270407 72.6814712,7.09755716 72.6814712,7.51859869 C72.6814712,7.97252155 72.8090805,8.32058252 73.0595419,8.56518761 C73.3092108,8.80899074 73.829157,9.09850691 74.6146244,9.43052823 C75.576841,9.84675784 76.2553074,10.2798291 76.6428891,10.735356 C77.0328487,11.1892788 77.2270357,11.7602913 77.2270357,12.4475915 L77.2270357,12.4475915 L77.2270357,12.4475915 Z" id="Fill-89"></path>
                                </g>
                            </g>
                        </g>
                    </g>
                </g>
            </g>
        </g>
    </g>
</svg>