<svg width="65" height="61" viewBox="0 0 65 61" fill="none" xmlns="http://www.w3.org/2000/svg">
<path d="M32.5837 42.4048C32.8022 41.7783 33.0572 41.162 33.2307 40.5231C33.504 39.5178 33.7328 38.5002 33.9591 37.4831C34.0471 37.0864 34.0645 36.6738 34.1383 36.273C34.2043 35.9136 34.2985 35.5589 34.3896 35.2047C34.925 33.1259 35.4589 31.0467 36.001 28.9694C36.7744 26.0051 37.5167 23.0316 38.3449 20.0822C38.9638 17.8785 39.7045 15.7091 40.376 13.5203C40.8859 11.8593 41.3706 10.1905 41.8702 8.52591C42.3581 6.9012 42.8505 5.27853 43.3398 3.65433C43.6055 2.77338 43.862 1.88987 44.1363 1.01148C44.3078 0.462747 44.3344 0.438689 44.918 0.445855C46.3497 0.463771 47.7814 0.537994 49.2127 0.51803C51.8105 0.482199 54.4072 0.391084 57.0045 0.330682C57.9254 0.309183 58.8463 0.302016 59.7672 0.306111C60.0717 0.307647 60.3835 0.333241 60.6783 0.404393C61.3478 0.566659 62.0143 0.566659 62.6859 0.447391C63.2479 0.347574 63.809 0.238543 64.4524 0.32761C64.4857 0.593789 64.5456 0.849218 64.5461 1.10516C64.5497 3.06669 64.5425 5.02873 64.5369 6.99026C64.5333 8.15582 64.5348 9.32137 64.52 10.4869C64.4969 12.3476 64.3961 14.2093 64.4488 16.0675C64.5215 18.6233 64.3935 21.1745 64.3843 23.7278C64.3577 31.0938 64.2927 38.4597 64.286 45.8257C64.2825 49.9581 64.3659 54.0906 64.4084 58.223C64.4145 58.8101 64.4094 59.3972 64.4094 60.0637C59.9995 60.1067 55.6803 60.1906 51.3129 60.0709C51.1343 59.8037 51.2023 59.4668 51.2013 59.1536C51.1967 57.9875 51.209 56.8209 51.2228 55.6549C51.2494 53.4046 51.2894 51.1544 51.3088 48.9042C51.3231 47.2682 51.3759 45.6297 51.3027 43.9968C51.143 40.4115 51.4619 36.8417 51.5504 33.2646C51.5934 31.5263 51.6272 29.7869 51.6241 28.0481C51.6195 25.204 51.5842 22.36 51.5555 19.516C51.5433 18.309 51.5131 17.1025 51.4926 15.896C51.488 15.6334 51.4921 15.3708 51.4921 15.1087C51.4527 15.099 51.4127 15.0887 51.3733 15.079C51.3185 15.1671 51.2392 15.2485 51.2126 15.3447C50.7949 16.8588 50.3987 18.3791 49.9677 19.8897C49.4256 21.7903 48.8574 23.6832 48.3 25.5793C47.5219 28.2247 46.7479 30.8716 45.9637 33.515C45.2261 36.0032 44.4655 38.4848 43.7381 40.9756C43.2917 42.5041 42.9001 44.0485 42.462 45.5795C42.0627 46.9744 41.5979 48.3508 41.2253 49.7524C40.4231 52.7719 39.6804 55.8074 38.6085 58.7482C38.5456 58.9207 38.4985 59.1106 38.3915 59.2534C38.1719 59.5462 38.0245 59.8728 37.5044 59.8375C36.2022 59.7494 34.8917 59.7924 33.587 59.7259C31.9131 59.6404 30.2423 59.4945 28.5695 59.3844C27.9778 59.3455 27.384 59.3194 26.7907 59.3199C26.4739 59.3199 26.3111 59.1874 26.1923 58.9084C25.6001 57.515 25.0186 56.1207 24.6203 54.6531C24.2994 53.4702 23.8904 52.3107 23.5444 51.1344C23.314 50.3507 23.1471 49.5481 22.9147 48.7654C22.3911 47.0036 21.8408 45.2493 21.3069 43.4905C20.448 40.6583 19.5399 37.8414 18.5469 35.0532C17.7913 32.9309 17.2369 30.7559 16.7169 28.564C16.3217 26.8973 15.709 25.2813 15.173 23.6495C14.2286 20.7737 13.2279 17.9159 12.608 14.9449C12.5138 14.4934 12.4012 14.0455 12.1826 13.614C12.2369 15.1036 12.2814 16.5942 12.3475 18.0833C12.4253 19.839 12.5266 21.5943 12.6075 23.35C12.6832 25.0013 12.7677 26.6527 12.8066 28.3055C12.846 29.9993 12.8445 31.6942 12.843 33.3885C12.8409 36.2704 12.8215 39.1523 12.8153 42.0342C12.8087 45.2457 12.8148 48.4568 12.804 51.6683C12.7964 53.914 12.7698 56.1591 12.7529 58.4047C12.7503 58.7256 12.7529 59.0466 12.7529 59.4341C12.52 59.4433 12.3029 59.4633 12.0864 59.4581C11.1046 59.4346 10.1223 59.3634 9.14205 59.386C7.77276 59.4172 6.4045 59.5129 5.03624 59.5877C3.85124 59.6527 2.66777 59.7407 1.48225 59.7914C0.913036 59.8154 0.792231 59.6736 0.778411 59.1234C0.736948 57.4674 0.683713 55.8115 0.657607 54.1551C0.608466 51.0249 0.571099 47.8947 0.537314 44.7646C0.511209 42.3096 0.503018 39.8546 0.478448 37.3991C0.452854 34.8627 0.398595 32.3269 0.388869 29.7905C0.377607 26.8851 0.414463 23.9796 0.407296 21.0747C0.399106 17.9041 0.385285 14.733 0.335121 11.5629C0.292635 8.90521 0.198449 6.24855 0.118083 3.59137C0.0919773 2.73294 0.0285038 1.87503 0.00188594 1.0166C-0.0139824 0.506769 0.0622881 0.431523 0.539362 0.409512C2.3161 0.327099 4.09233 0.218068 5.8701 0.181212C8.07887 0.135143 10.2897 0.164832 12.499 0.136167C14.6842 0.108013 16.8689 0.0491468 19.0541 0.0020537C19.5496 -0.00869581 19.6116 0.00563685 19.7754 0.483223C20.0866 1.3913 20.3625 2.31166 20.663 3.22384C21.072 4.46464 21.5035 5.69776 21.9022 6.94163C22.3061 8.20035 22.6695 9.47187 23.0739 10.7301C23.4087 11.7712 23.7885 12.7986 24.1279 13.8382C24.3245 14.4402 24.4739 15.057 24.6562 15.6641C24.9827 16.7539 25.318 17.8406 25.6487 18.9289C26.2839 21.0209 26.9166 23.1135 27.5539 25.2051C28.9002 29.6252 30.2597 34.0412 31.5896 38.4659C31.975 39.7497 32.404 41.0284 32.5852 42.4048H32.5837Z" fill="black"/>
</svg>
