<?xml version="1.0" encoding="utf-8"?>
<!-- Generator: Adobe Illustrator 18.1.0, SVG Export Plug-In . SVG Version: 6.00 Build 0)  -->
<!DOCTYPE svg PUBLIC "-//W3C//DTD SVG 1.1//EN" "http://www.w3.org/Graphics/SVG/1.1/DTD/svg11.dtd">
<svg version="1.1" id="Layer_1" xmlns="http://www.w3.org/2000/svg" xmlns:xlink="http://www.w3.org/1999/xlink" x="0px" y="0px"
	 viewBox="-392 255 175 51" enable-background="new -392 255 175 51" xml:space="preserve">
<g>
	<path d="M-383.3,282.8c0.2-1.4,0.5-2.8,0.9-4.3c0.4-1.6,0.7-2.8,0.9-3.6l1.3-4.4l1.1-3.7c0.1-0.3,0.2-0.7,0.4-1.2
		c0.2-0.5,0.3-0.9,0.3-1c0,0,0-0.1,0-0.1s0-0.1,0-0.1c0,0,0-0.1,0-0.2c0-0.1,0-0.2,0.1-0.4c0.2-0.9,0.5-1.5,1-2
		c0.9-0.9,2.3-1.2,3.9-0.9c1.5,0.3,2.6,0.9,3.2,1.8c0.5,0.7,0.7,1.4,0.9,2.1c0.1,0.7,0.1,1.4-0.1,2c-0.2,0.6-0.4,1.2-0.8,1.7
		c-0.7,1.1-1.9,2.2-3.4,3.1c-0.3,0.2-0.7,0.4-1.2,0.5c0.2,0.5,0.5,1.1,0.9,1.9l1.2,2.4c0.5,0.9,0.7,1.5,0.8,1.7c0,0,0.5,1.2,1.3,3.6
		c0.2,0.5,0.1,1-0.1,1.5c-0.2,0.5-0.6,0.8-1.1,1c-0.5,0.2-1,0.2-1.5-0.1c-0.5-0.2-0.8-0.6-1-1.1l-0.4-1.1l-0.5-1.3l-0.4-1.1
		c-0.1-0.2-0.3-0.6-0.7-1.4l-1.2-2.4l-0.2-0.5c-0.9,3.3-1.6,6.1-2,8.4c-0.1,0.5-0.4,0.9-0.8,1.2c-0.4,0.3-0.9,0.4-1.4,0.3
		c-0.5-0.1-0.9-0.4-1.2-0.8C-383.3,283.8-383.4,283.4-383.3,282.8z M-374.6,264.4c-0.1,0.5-0.2,0.9-0.2,1.2c0,0.1-0.1,0.4-0.3,0.9
		l-0.4,1.2l-0.1,0.4c1.1-0.7,1.8-1.3,2.2-2c0.3-0.5,0.3-1,0-1.5h0c-0.2-0.1-0.5-0.2-0.7-0.3C-374.3,264.4-374.5,264.4-374.6,264.4z"
		/>
	<path d="M-365.9,283c0.1-0.8,0.2-1.7,0.4-2.6c0.2-0.9,0.4-2,0.6-3.2c0.2-1.3,0.4-2.1,0.5-2.6c0.3-1.8,1-5.8,2-12
		c0.1-0.5,0.3-0.9,0.8-1.2c0.4-0.3,0.9-0.4,1.4-0.4c0.5,0.1,0.9,0.3,1.2,0.8c0.3,0.4,0.4,0.9,0.4,1.4c-1,6.2-1.6,10.2-2,12
		c-0.1,0.5-0.3,1.4-0.5,2.5s-0.4,2.2-0.6,3c-0.1,0.9-0.2,1.7-0.3,2.5c-0.1,0.5-0.3,1-0.7,1.3c-0.4,0.3-0.9,0.5-1.4,0.4
		c-0.5,0-1-0.3-1.3-0.7C-365.8,284-365.9,283.5-365.9,283z"/>
	<path d="M-342.5,266.2c-0.2-0.1-0.5-0.2-0.8-0.4c0,0-0.1-0.1-0.2-0.1l-0.2-0.1c-0.1,0-0.1-0.1-0.2-0.1l-0.4-0.2
		c-0.5,0-1.1,0.4-1.8,1.3c-0.8,1.1-1.6,2.6-2.3,4.5c-0.6,1.8-1.1,3.6-1.4,5.4c-0.2,1.6-0.3,2.7-0.1,3.3c0.1,0.4,0.2,0.6,0.3,0.7
		c0.4-0.1,0.8-0.4,1.2-0.9c0.1-0.1,0.1-0.2,0.2-0.3l0.2-0.4c0.1-0.2,0.2-0.5,0.3-0.8c0.2-0.5,0.6-0.8,1.1-1c0.5-0.2,1-0.1,1.5,0.1
		c0.5,0.2,0.8,0.6,1,1.1c0.2,0.5,0.1,1-0.1,1.5l-0.1,0.2l-0.2,0.5c-0.1,0.2-0.2,0.3-0.2,0.5c-0.1,0.2-0.2,0.4-0.3,0.6
		c-0.1,0.2-0.2,0.4-0.3,0.5c-0.5,0.7-1.2,1.2-1.9,1.7c-0.7,0.5-1.5,0.7-2.3,0.7c-1,0-1.9-0.3-2.6-0.9c-0.7-0.6-1.2-1.5-1.5-2.6
		c-0.3-1.2-0.3-2.8,0-5c0.3-2,0.8-4,1.6-6.1c0.8-2.3,1.8-4.1,2.8-5.5c1.5-1.9,3.1-2.9,4.9-2.8c0.7,0,1.4,0.2,2.2,0.7l0.7,0.4
		c0.2,0.1,0.3,0.2,0.4,0.2c0.5,0.2,0.8,0.6,1,1.1c0.2,0.5,0.2,1,0,1.5c-0.2,0.5-0.6,0.8-1.1,1C-341.5,266.4-342,266.4-342.5,266.2z"
		/>
	<path d="M-321.1,262.6c-0.1,1.4-0.2,2.7-0.4,4.1c-0.1,1.4-0.3,2.9-0.6,4.5c-0.3,1.6-0.5,2.9-0.6,3.8l-0.8,4.4
		c-0.4,2-0.6,3.3-0.7,3.9c-0.1,0.5-0.4,0.9-0.8,1.2s-0.9,0.4-1.4,0.3c-0.5-0.1-0.9-0.4-1.2-0.8c-0.3-0.4-0.4-0.9-0.3-1.4l0.6-3
		l0.6-3.5c0.2-1,0.4-2,0.5-2.9c-2.2,0.3-4,0.6-5.4,0.8c-0.9,4.3-1.5,7.5-1.8,9.6c-0.1,0.5-0.3,1-0.8,1.3c-0.4,0.3-0.9,0.4-1.4,0.3
		c-0.5-0.1-1-0.3-1.3-0.8c-0.3-0.4-0.4-0.9-0.3-1.4c0.3-2.1,1-5.4,1.9-10c0-0.1,0-0.1,0-0.2c-0.1-0.6,0-1.2,0.4-1.6
		c0.6-3,1-5.5,1.4-7.5c0.1-0.5,0.3-0.9,0.8-1.3c0.4-0.3,0.9-0.4,1.4-0.4c0.5,0.1,0.9,0.3,1.2,0.8c0.3,0.4,0.4,0.9,0.4,1.4
		c-0.2,1.6-0.6,3.5-1,5.7c1.3-0.2,3.1-0.5,5.2-0.7c0.3-2.2,0.5-4.5,0.7-6.9c0-0.5,0.3-1,0.7-1.3c0.4-0.3,0.9-0.5,1.4-0.5
		c0.5,0,1,0.2,1.3,0.6C-321.2,261.6-321.1,262.1-321.1,262.6z"/>
	<path d="M-304.4,263.9c-0.1,1.1-0.2,2.5-0.4,4.3c-0.2,1.8-0.3,3.4-0.4,4.8c-0.1,1.4-0.1,2.7,0,4c0,0.5,0,0.8,0.1,1l0.6-1.2l1.2-2.7
		c0.5-1.1,0.7-1.7,0.7-1.7c0,0,0-0.2,0.1-0.4c0.1-0.5,0.2-0.8,0.3-0.9c0.2-0.6,0.4-1,0.7-1.4c0.3-0.4,0.7-0.6,1.1-0.8
		c0.4-0.1,0.9-0.1,1.4,0c0.8,0.3,1.4,0.9,1.7,1.9c0.1,0.4,0.2,1,0.2,1.6c0,0.6,0,1.8-0.2,3.6c-0.1,1.6-0.2,2.7-0.2,3.4
		c0,0.4,0,0.7,0.1,0.9c0.1-0.1,0.2-0.2,0.3-0.4c0.1-0.1,0.3-0.4,0.5-0.6c0.2-0.3,0.3-0.4,0.4-0.5c1-1.5,2.1-3.6,3.2-6.5
		c1.1-2.8,2.1-5.7,3-8.4c0.2-0.5,0.5-0.9,1-1.1c0.5-0.2,1-0.3,1.5-0.1c0.5,0.2,0.9,0.5,1.1,1c0.2,0.5,0.3,1,0.1,1.4
		c-0.9,2.9-2,5.9-3.2,8.9c-1.2,3-2.4,5.4-3.6,7.1c0,0-0.1,0.1-0.2,0.3c-0.1,0.2-0.2,0.3-0.3,0.5l-0.4,0.5c-0.2,0.2-0.3,0.4-0.5,0.6
		c-0.2,0.2-0.4,0.4-0.6,0.5c-0.7,0.6-1.5,0.9-2.3,1c-1,0.1-2-0.3-2.8-1.2c-0.7-0.7-1.1-2-1.2-3.7v-0.4c-0.4,0.8-0.8,1.5-1.1,2
		c-0.3,0.5-0.5,0.9-0.8,1.1c-0.5,0.6-1.1,0.9-1.7,1c-1.2,0.2-2.1-0.3-2.8-1.3c-0.4-0.5-0.7-1.2-0.9-2c-0.2-0.7-0.3-1.7-0.4-2.8
		c-0.1-1.4-0.1-2.8,0-4.4s0.2-3.3,0.4-5.1c0.2-1.6,0.3-3,0.4-4.1c0-0.5,0.3-1,0.7-1.3c0.4-0.4,0.9-0.5,1.4-0.5s1,0.3,1.3,0.7
		C-304.5,262.9-304.4,263.4-304.4,263.9z"/>
	<path d="M-277.9,260.9l4-0.2c0.5,0,1,0.1,1.4,0.5c0.4,0.4,0.6,0.8,0.6,1.3c0,0.5-0.1,1-0.5,1.4c-0.4,0.4-0.8,0.6-1.3,0.6l-2.8,0.1
		c-0.6,1.7-1.2,3.9-1.8,6.6l0.8-0.2c0.5-0.1,1,0,1.4,0.3c0.4,0.3,0.7,0.7,0.8,1.2c0.1,0.5,0,1-0.3,1.4c-0.3,0.4-0.7,0.7-1.2,0.8
		l-2.5,0.5c-0.4,1.8-0.8,3.3-1.2,4.6c0,0.1-0.1,0.4-0.3,1l-0.1,0.3c0.2,0,0.5,0,0.8-0.1l2.4-0.2l0,0c0.5,0,1,0.1,1.4,0.4
		c0.4,0.3,0.6,0.8,0.7,1.3c0,0.5-0.1,1-0.4,1.4c-0.3,0.4-0.8,0.6-1.3,0.7c-0.8,0.1-1.6,0.2-2.4,0.2c-0.7,0.1-1.3,0.1-1.7,0.1l-0.6,0
		l-0.3,0l-0.1,0l-0.1,0c-0.3,0-0.6-0.1-0.9-0.3c-0.5-0.3-0.9-0.8-1.2-1.3c-0.3-0.6-0.4-1-0.4-1.4c0-0.4,0-0.8,0.1-1.2
		c0.1-0.4,0.2-0.9,0.4-1.4c0-0.1,0-0.2,0.1-0.3l0.1-0.2c0-0.1,0-0.1,0-0.2c0.3-1.2,1-3.8,1.9-8c0.8-3.4,1.5-6.1,2.3-8.2
		c0-0.2,0.1-0.3,0.2-0.4c0.1-0.4,0.3-0.7,0.7-1C-278.7,261.1-278.3,261-277.9,260.9z"/>
	<path d="M-262.4,264c-0.1,0.3-0.2,0.9-0.4,1.8l-0.5,1.9l-0.4,1.8c-0.2,0.9-0.4,1.5-0.5,1.9l-0.3,1.8c-0.2,0.8-0.3,1.4-0.4,1.9
		c-0.1,0.5-0.2,1.1-0.3,1.8c-0.1,0.7-0.2,1.3-0.3,1.9c-0.1,1-0.2,1.5-0.1,1.6h0c0.3,0.1,0.7,0.1,1.3,0l0.3-0.1c0.1,0,0.2,0,0.4-0.1
		c0.1,0,0.2-0.1,0.3-0.1c0.5-0.1,0.9-0.1,1.2-0.2c0.5,0,1,0.1,1.4,0.5c0.4,0.3,0.6,0.8,0.7,1.3c0,0.5-0.1,1-0.4,1.4
		c-0.3,0.4-0.8,0.6-1.3,0.7c-0.2,0-0.5,0.1-0.9,0.1l-1.1,0.2c-1.1,0.2-2,0.2-2.8,0c-0.9-0.2-1.6-0.6-2.1-1.2c-0.5-0.6-0.8-1.2-0.9-2
		c0-0.2,0-0.5,0-0.8c0-0.4,0-0.6,0-0.8c0-0.2,0-0.4,0.1-0.6l0.1-0.4c0.1-0.7,0.2-1.4,0.3-2.2c0.1-0.7,0.3-1.5,0.4-2.4l0.4-2
		c0.1-0.5,0.3-1.3,0.5-2.4s0.4-1.7,0.5-2s0.2-1.1,0.5-2.3c0.3-1.2,0.5-1.9,0.5-2c0.1-0.5,0.4-0.9,0.9-1.2c0.5-0.3,0.9-0.4,1.5-0.2
		c0.5,0.1,0.9,0.4,1.2,0.9C-262.4,263-262.3,263.5-262.4,264z"/>
	<path d="M-248.8,264c-0.1,0.3-0.2,0.9-0.4,1.8l-0.5,1.9l-0.4,1.8c-0.2,0.9-0.4,1.5-0.5,1.9l-0.3,1.8c-0.2,0.8-0.3,1.4-0.4,1.9
		s-0.2,1.1-0.3,1.8c-0.1,0.7-0.2,1.3-0.3,1.9c-0.1,1-0.2,1.5-0.1,1.6h0c0.3,0.1,0.7,0.1,1.3,0l0.3-0.1c0.1,0,0.2,0,0.4-0.1
		c0.1,0,0.2-0.1,0.3-0.1c0.5-0.1,0.9-0.1,1.2-0.2c0.5,0,1,0.1,1.4,0.5c0.4,0.3,0.6,0.8,0.7,1.3c0,0.5-0.1,1-0.4,1.4
		c-0.3,0.4-0.8,0.6-1.3,0.7c-0.2,0-0.5,0.1-0.9,0.1l-1.1,0.2c-1.1,0.2-2,0.2-2.8,0c-0.9-0.2-1.6-0.6-2.1-1.2c-0.5-0.6-0.8-1.2-0.9-2
		c0-0.2,0-0.5,0-0.8c0-0.4,0-0.6,0-0.8c0-0.2,0-0.4,0.1-0.6l0.1-0.4c0.1-0.7,0.2-1.4,0.3-2.2c0.1-0.7,0.3-1.5,0.4-2.4l0.4-2
		c0.1-0.5,0.3-1.3,0.5-2.4s0.4-1.7,0.5-2s0.2-1.1,0.5-2.3c0.3-1.2,0.5-1.9,0.5-2c0.1-0.5,0.4-0.9,0.9-1.2c0.5-0.3,0.9-0.4,1.5-0.2
		c0.5,0.1,0.9,0.4,1.2,0.9C-248.8,263-248.7,263.5-248.8,264z"/>
	<path d="M-232.7,267c-0.2-0.1-0.3-0.3-0.5-0.5l-0.3-0.3l-0.1-0.1c-0.8-0.3-1.5,0.1-2.2,1c-0.4,0.5-0.6,1.1-0.7,1.7
		c-0.1,0.7-0.1,1.2,0,1.6c0.1,0.2,0.2,0.5,0.3,0.8c0.2,0.3,0.3,0.5,0.4,0.6s0.3,0.4,0.7,0.8l0.7,0.9c0.7,0.8,1.2,1.7,1.5,2.6
		c0.4,0.9,0.5,1.9,0.3,3.1c-0.2,1.2-0.6,2.3-1.4,3.3c-0.8,1-1.7,1.8-2.7,2.3c-1.2,0.6-2.4,0.8-3.5,0.5c-1.4-0.3-2.4-1.3-2.9-2.8
		c-0.3-0.7-0.4-1.6-0.3-2.6c0,0,0-0.4,0.1-1c0-0.3,0-0.6,0-0.8c0-0.5,0.2-1,0.5-1.4s0.8-0.6,1.3-0.6c0.5,0,1,0.2,1.4,0.5
		c0.4,0.4,0.6,0.8,0.6,1.3c0,0.3,0,0.7,0,1.1c0,0.1,0,0.2,0,0.3c0,0.1,0,0.2,0,0.3v0.3c0,0.5,0,0.9,0.1,1.1c0.1,0.2,0.1,0.3,0.2,0.4
		c0.2,0.1,0.5,0,0.8-0.2c0.5-0.3,1-0.7,1.4-1.2c0.4-0.5,0.6-1,0.7-1.5c0.1-0.5,0-1-0.1-1.4c-0.2-0.4-0.4-0.9-0.9-1.4
		c0,0-0.2-0.3-0.6-0.8c-0.4-0.5-0.7-0.8-0.9-1.1c-0.2-0.3-0.4-0.6-0.7-1.1c-0.3-0.5-0.5-1-0.6-1.4c-0.3-1.1-0.4-2.3-0.1-3.5
		c0.2-1.2,0.7-2.3,1.3-3.2c0.7-1.1,1.7-1.9,2.9-2.4c1.2-0.5,2.4-0.5,3.8,0c0.5,0.2,1,0.5,1.5,1l0.4,0.4c0.1,0.1,0.1,0.2,0.2,0.2
		c0.4,0.3,0.6,0.8,0.7,1.3c0,0.5-0.1,1-0.4,1.4s-0.8,0.6-1.3,0.7C-231.8,267.5-232.3,267.4-232.7,267z"/>
</g>
<path fill="none" stroke="#000000" stroke-width="5" stroke-linecap="round" stroke-miterlimit="10" d="M-385.8,299.2
	c0,0,44.8-1.6,56.3-1.6c11.5,0,58.1-2.4,71.4-2.4s35.9-2.8,35.9-2.8"/>
</svg>
